<svg xmlns="http://www.w3.org/2000/svg" fill="none" viewBox="0 0 400 400" id="No-Notifications-1--Streamline-Bruxelles" height="400" width="400"><desc>No Notifications 1 Streamline Illustration: https://streamlinehq.com</desc><g id="no-notifications-1--social-media-no-notifications-empty-state"><g id="phone"><path id="vector" fill="#f5f5f5" d="M344.5706 63.993C344.5706 59.226 338.5492 52.7018 333.7822 52.1992C332.9086 52.1148 332.0352 52.0324 331.1618 51.95C335.2468 53.0088 338.2978 56.6902 338.2978 60.9812C338.8004 145.285 338.2978 231.5952 337.0432 319.4132C337.0432 326.6606 332.1526 332.6388 325.4492 334.5814L327.5092 334.4662C333.2794 334.2148 342.8134 327.19 342.8134 318.6592C344.068 230.8432 345.0712 148.2946 344.5706 63.991V63.993Z" stroke-width="1"></path><path id="vector_2" fill="#ffffff" d="M204.5672 330.9558C243.3684 336.3964 282.6062 337.375 321.739 335.2222C330.2718 334.7524 336.9834 327.946 337.0432 319.4154C337.6694 231.593 338.5492 145.289 338.2978 60.9832C338.2834 56.2162 334.5382 52.1642 329.7672 51.7006C287.6472 47.6032 245.484 47.9348 203.3106 51.198C199.8002 51.4698 197.2272 54.2056 197.0376 57.7222C192.5446 141.4574 194.0258 229.842 195.783 321.4218C196.2858 326.1888 199.7878 330.2862 204.5672 330.9558Z" stroke-width="1"></path><path id="vector_3" fill="#0a0430" d="M345.6008 63.9932C345.6008 58.8924 340.739 51.816 329.8578 50.6726C287.3628 46.878 244.7588 46.7092 203.2384 50.168C199.2772 50.4522 196.2324 53.522 196.0098 57.6812C191.8856 134.7128 192.8292 221.0496 194.7614 321.5268C195.3404 327.0272 199.5058 331.3204 204.4414 331.9754C245.039 337.3626 284.5488 338.1556 321.7988 336.246C336.5962 335.3848 343.8456 326.4896 343.8456 318.6738C345.063 233.4512 346.1136 149.8458 345.6028 63.991L345.6006 63.9932ZM196.8154 321.4012C194.8912 221.0518 193.9374 134.7518 198.0658 57.7944C198.2306 54.7208 200.4718 52.432 203.397 52.2238C244.8104 48.7736 287.297 48.9424 329.66 52.7246C333.9264 53.1738 337.2678 56.8016 337.2678 60.9896C337.7498 142.0138 337.3398 226.5398 336.0132 319.4154C336.0132 327.2292 329.7156 333.7204 321.6856 334.1922C283.2098 336.1656 243.7598 335.4488 204.7092 329.936C200.5088 329.3428 197.2748 325.7232 196.8154 321.4012ZM341.7854 318.6614C341.7854 324.3018 337.037 329.4994 332.3216 331.957C335.8586 328.8606 338.0754 324.376 338.0754 319.4276C339.402 226.5542 339.812 142.0136 339.3298 60.9812C339.3298 58.542 338.4234 56.2534 336.9156 54.4508C340.3208 56.5418 343.5428 60.8268 343.5428 63.9974C344.0536 149.8396 343.003 233.4348 341.7854 318.6592V318.6614Z" stroke-width="1"></path><path id="vector_4" fill="#ffffff" d="M325.6388 56.987C287.608 53.3304 248.0796 53.1614 208.164 56.4884C205.455 56.6964 203.3846 59.0016 203.3372 61.7332C202.0148 139.9268 200.2698 225.5612 202.0828 317.2172C202.0828 321.4074 205.144 325.1382 209.2352 325.7542C244.1388 331.0032 280.7954 331.8024 317.9258 330.0082C325.3894 329.5404 331.2462 323.2696 331.2462 315.732C332.5728 225.5302 332.9828 143.8018 332.5008 65.0006C332.5008 60.864 329.5508 57.4196 325.6388 56.9848V56.987Z" stroke-width="1"></path><path id="vector_5" fill="#0a0430" d="M209.1014 326.776C204.4992 325.9992 201.0548 321.8916 201.0548 317.2172C199.246 225.7364 199.6684 139.76 202.3094 61.6982C202.3094 58.464 204.8452 55.7098 208.0858 55.4604C248.055 52.1294 287.678 52.018 325.7458 55.961C330.1854 56.4204 333.533 60.3408 333.533 65.0006C334.013 143.5958 333.603 225.6168 332.2784 315.7464C332.2784 323.8114 326.0034 330.5354 317.9918 331.036C281.7636 332.7872 245.0616 331.5182 209.1034 326.7738L209.1014 326.7758ZM208.2506 57.5144C206.071 57.6812 204.3694 59.5352 204.3694 61.7334C201.7284 139.793 201.306 225.7322 203.1148 317.1966C203.1148 320.8986 205.8196 324.1328 209.4082 324.7386C244.3078 329.3406 280.814 330.7704 317.8764 328.9802C324.79 328.5476 330.2162 322.7278 330.2162 315.732C331.5408 225.6024 331.9508 143.5938 331.4708 65.0068C331.4708 61.3934 328.9184 58.3898 325.5338 58.0108C288.6792 54.4674 249.2602 54.0966 208.2506 57.5144Z" stroke-width="1"></path><path id="vector_6" fill="#ffffff" d="M291.8826 49.3214C290.628 52.5826 288.6216 56.849 286.8644 57.8522C284.1038 59.1068 281.0942 59.8134 278.0824 59.8586C270.0502 59.9844 262.0242 59.8586 253.9962 59.1068C253.4936 59.1068 252.7416 58.8554 252.239 58.604C250.8216 57.1868 248.9984 51.948 248.4752 49.0702C263.2788 49.0702 277.831 49.0702 291.8826 49.3214Z" stroke-width="1"></path><path id="vector_7" fill="#0a0430" d="M272.0958 60.9814C266.0392 60.9814 259.9374 60.6972 253.8994 60.1306C253.1968 60.1306 252.344 59.8072 251.7796 59.525C251.213 59.2406 250.597 58.1262 250.3148 57.5576C248.9346 54.7992 247.9498 51.9274 247.4638 49.2534C247.3484 48.6232 247.8324 48.0402 248.4772 48.0402C263.5796 48.0402 277.8414 48.0402 291.9032 48.2914C292.6202 48.3038 293.1022 49.0268 292.8468 49.6902C291.7528 52.529 289.5898 57.4814 287.3772 58.7462C282.186 61.1152 278.6386 60.9834 272.0978 60.9834L272.0958 60.9814ZM252.8528 57.7532C253.2586 57.9326 253.751 58.0746 253.9962 58.0746C262.0406 58.8246 270.1038 59.0758 278.0514 58.8286C280.7934 58.8286 283.6816 58.1652 286.438 56.9128C287.3896 56.3648 288.91 53.8268 290.3706 50.3248C277.2048 50.1064 263.833 50.1002 249.7422 50.1002C250.251 52.2468 251.8558 56.645 252.8528 57.7532Z" stroke-width="1"></path><path id="vector_8" fill="#ffffff" d="M349.2202 118.4384C348.969 118.6898 348.969 119.1904 348.7176 119.4416C347.9656 120.445 346.3258 120.445 345.0712 120.1936C343.8208 120.1936 343.0648 119.0378 343.0648 118.187C342.7186 114.7242 342.284 96.0456 343.316 91.0892C344.822 90.8378 346.4598 90.8378 347.9656 91.0892C348.217 91.0892 348.4682 91.3404 348.7176 91.3404C348.9688 91.5918 348.9688 91.843 348.9688 92.3436C350.3882 101.3276 349.7352 116.8954 349.2202 118.4384Z" stroke-width="1"></path><path id="vector_9" fill="#0a0430" d="M349.999 92.3436C349.999 91.7628 349.999 91.1632 349.4448 90.6112C348.4622 89.6326 344.5356 89.8428 343.1472 90.0736C342.727 90.1436 342.3952 90.4628 342.3088 90.879C341.2376 96.0188 341.7154 115.0414 342.0368 118.1872C342.0368 119.6682 343.3594 121.2484 344.8714 121.205C346.4474 121.5202 348.4992 121.4584 349.4468 120.171C349.7414 119.8764 349.8588 119.5324 350.0072 119.1038C350.928 118.0182 351.3276 100.6704 350.001 92.3438H349.999ZM348.2788 117.9728C348.0852 118.2674 348.0852 118.4178 347.8936 118.8236C347.2962 119.623 344.6964 119.213 344.4882 118.9802C344.3152 118.6362 344.101 118.661 344.0906 118.084C343.7404 114.5862 343.3882 97.5782 344.202 92.0078C345.9818 91.8184 347.737 92.0656 347.943 92.1686C347.943 92.251 347.945 92.356 347.9512 92.5064C349.317 101.1628 348.7134 115.9314 348.2766 117.9748L348.2788 117.9728Z" stroke-width="1"></path><path id="vector_10" fill="#ffffff" d="M349.2202 155.4762C348.969 155.7276 348.969 156.2282 348.7176 156.4794C347.9656 157.4826 346.3258 157.4826 345.0712 157.2314C343.8208 157.2314 343.0648 156.0756 343.0648 155.2248C342.7186 151.762 342.284 133.0834 343.316 128.1268C344.822 127.8756 346.4598 127.8756 347.9656 128.1268C348.217 128.1268 348.4682 128.3782 348.7176 128.3782C348.9688 128.6296 348.9688 128.8808 348.9688 129.3814C350.3882 138.3654 349.7352 153.9332 349.2202 155.4762Z" stroke-width="1"></path><path id="vector_11" fill="#0a0430" d="M349.999 129.3812C349.999 128.8004 349.999 128.201 349.4448 127.649C349.2512 127.4554 349.074 127.3314 348.802 127.3314C348.6146 127.2388 348.3508 127.0968 348.1346 127.1134C346.5278 126.8456 344.754 126.8456 343.1472 127.1134C342.727 127.1834 342.3952 127.5024 342.3088 127.9186C341.2376 133.0564 341.7154 152.081 342.0368 155.2268C342.0368 156.7182 343.38 158.3026 344.8714 158.2428C346.4474 158.558 348.4972 158.4982 349.4468 157.2108C349.7414 156.9162 349.8588 156.5698 350.0072 156.1434C351.0002 154.961 351.2926 137.4834 350.001 129.3834L349.999 129.3812ZM348.2788 155.0106C348.081 155.3134 348.0872 155.4474 347.8936 155.8614C347.2962 156.6586 344.7004 156.2526 344.4862 156.0178C344.3152 155.6738 344.099 155.6986 344.0906 155.1218C343.7404 151.6238 343.3882 134.6158 344.202 129.0454C345.3926 128.9178 346.6554 128.957 347.8812 129.1734C347.9698 129.2188 347.9368 129.163 347.9532 129.5422C349.319 138.1986 348.7154 152.967 348.2788 155.0106Z" stroke-width="1"></path><path id="vector_12" fill="#f5f5f5" d="M217.6134 307.1188C248.4752 311.134 279.3534 312.6604 310.4478 310.6312C317.2254 310.1884 322.695 304.3584 322.7424 297.585C323.245 224.8176 323.9968 153.5664 323.7456 83.8148C323.7312 79.7998 320.981 76.5944 316.972 76.2874C283.5642 73.737 250.2304 73.014 216.8616 76.036C214.101 76.2854 211.8928 78.5452 211.8432 81.555C210.7144 150.8326 209.3342 223.8184 210.84 299.5914C210.5888 303.1038 213.6006 306.3648 217.6134 307.1188Z" stroke-width="1"></path><path id="vector_13" fill="#0a0430" d="M323.931 125.7946L210.739 122.6944C210.1704 122.6798 209.7214 122.206 209.7378 121.6376C209.7544 121.069 210.2178 120.6054 210.7968 120.6364L323.9598 123.7368C324.5284 123.7512 324.9774 124.225 324.961 124.7936C324.9444 125.3518 324.4872 125.7946 323.931 125.7946Z" stroke-width="1"></path><path id="vector_14" fill="#0a0430" d="M323.8836 173.9384L210.3106 170.904C209.742 170.8896 209.293 170.4158 209.3074 169.8472C209.3218 169.2786 209.876 168.8378 210.3642 168.844L323.9104 171.8784C324.479 171.8928 324.928 172.3666 324.9136 172.9352C324.8992 173.4934 324.4398 173.9384 323.8836 173.9384Z" stroke-width="1"></path><path id="vector_15" fill="#0a0430" d="M323.5972 222.088H209.915C209.3464 222.088 208.885 221.6264 208.885 221.058S209.3464 220.0278 209.915 220.0278H323.5972C324.1658 220.0278 324.6272 220.4894 324.6272 221.058S324.1658 222.088 323.5972 222.088Z" stroke-width="1"></path><path id="vector_16" fill="#0a0430" d="M323.0842 272.2998L210.2858 269.2302C208.9324 269.1932 208.9674 267.1434 210.3414 267.1702L323.111 270.2398C323.6796 270.2542 324.1288 270.728 324.1122 271.2966C324.0958 271.8548 323.6384 272.2976 323.0822 272.2976L323.0842 272.2998Z" stroke-width="1"></path><path id="vector_17" fill="#f5f5f5" d="M314.428 291.7138H285.5748V302.251H314.428V291.7138Z" stroke-width="1"></path><path id="vector_18" fill="#0a0430" d="M314.428 303.283H285.5748C285.0062 303.283 284.5448 302.8216 284.5448 302.253V291.7158C284.5448 291.1472 285.0062 290.6858 285.5748 290.6858H314.428C314.9966 290.6858 315.458 291.1472 315.458 291.7158V302.253C315.458 302.8216 314.9964 303.283 314.428 303.283ZM286.6048 301.223H313.398V292.7458H286.6048V301.223Z" stroke-width="1"></path><path id="vector_19" fill="#0a0430" d="M309.4446 84.291H225.6416C222.3372 84.291 219.8446 86.7816 219.8446 90.088C219.8446 93.2852 222.4444 95.885 225.6416 95.885H309.4446C312.6418 95.885 315.2416 93.2852 315.2416 90.088S312.6418 84.291 309.4446 84.291ZM309.4446 93.8248H225.6416C220.7654 93.8248 220.5718 86.351 225.6416 86.351H309.4446C311.5048 86.351 313.1816 88.0258 313.1816 90.088C313.1816 92.15 311.5048 93.8248 309.4446 93.8248Z" stroke-width="1"></path><path id="vector_20" fill="#0a0430" d="M217.424 308.1304C212.8588 307.3414 209.5278 303.4932 209.8142 299.5172C208.2774 222.397 208.613 149.0198 210.8152 81.522C210.8152 78.1332 213.3738 75.3192 216.7688 75.0102C249.122 72.091 282.8658 72.1756 317.0668 75.2614C321.5248 75.5396 324.7798 79.1364 324.7798 83.8148C325.235 147.04 324.9156 214.9746 323.7764 297.5994C323.7764 304.8054 317.8332 311.1174 310.5282 311.6592C275.2766 313.6492 236.2158 311.377 217.426 308.1324L217.424 308.1304ZM217.7762 306.1012C248.8398 310.141 279.9982 311.3172 310.3902 309.6032C316.626 309.1418 321.7122 303.7486 321.7122 297.5848C322.8516 214.9602 323.1708 147.04 322.7156 83.821C322.7156 80.2592 320.2724 77.5254 316.9062 77.3154C282.802 74.2376 249.1818 74.1552 216.9522 77.062C214.6264 77.2742 212.8712 79.2064 212.8712 81.557C210.671 149.0528 210.3352 222.3928 211.868 299.5728C211.6538 302.6072 214.2474 305.4296 217.7742 306.1032L217.7762 306.1012Z" stroke-width="1"></path></g><g id="bell"><path id="vector_21" fill="#ffffff" d="M220.8766 285.0412C232.656 285.0412 242.2044 275.4928 242.2044 263.7134S232.656 242.3856 220.8766 242.3856S199.5488 251.934 199.5488 263.7134S209.0972 285.0412 220.8766 285.0412Z" stroke-width="1"></path><path id="vector_22" fill="#0a0430" d="M220.8746 286.0692C208.5472 286.0692 198.5168 276.0408 198.5168 263.7114C198.5168 251.382 208.5472 241.3536 220.8746 241.3536S243.2324 251.384 243.2324 263.7114S233.202 286.0692 220.8746 286.0692ZM220.8746 243.4158C209.6822 243.4158 200.5768 252.5212 200.5768 263.7134S209.6822 284.0112 220.8746 284.0112S241.1722 274.9058 241.1722 263.7134S232.0668 243.4158 220.8746 243.4158Z" stroke-width="1"></path><path id="vector_23" fill="#ffffff" d="M166.932 174.14C170.4732 149.5182 175.751 121.763 196.7904 108.6548C211.6208 99.4134 231.6652 100.6268 246.4688 109.9094S271.245 135.0132 275.0726 152.0622C280.2578 175.1638 273.3154 202.746 286.1124 223.0686C288.6216 226.3296 290.628 230.0934 292.6366 233.857C298.4068 248.6606 286.37 258.7672 273.0662 259.7004C253.753 261.056 234.1764 261.4804 214.8572 261.2064C198.5476 260.9756 148.822 268.2394 145.1056 244.6476C143.3278 233.3606 154.4542 222.0942 158.6546 212.28C164.0088 199.7712 165.0594 187.1738 166.934 174.142L166.932 174.1398Z" stroke-width="1"></path><path id="vector_24" fill="#0a0430" d="M293.5348 233.3564C291.5428 229.6236 289.4848 225.763 286.9818 222.5184C274.4154 202.5606 281.3476 174.9248 276.0758 151.8398C272.0772 133.7134 261.4844 118.1104 247.0146 109.036C231.2304 99.1374 210.8256 98.6348 196.2446 107.7792C175.6378 120.5352 169.8552 146.3436 165.9102 173.9936C164.0066 187.3284 162.8428 199.6372 157.705 211.866C153.4324 221.676 142.2464 232.996 144.0838 244.8062C147.3594 265.3306 183.1178 263.561 203.947 262.5742C223.1488 261.6658 234.8274 263.2128 273.1402 260.7244C281.4424 260.098 288.877 256.0912 292.542 250.2696C295.6114 245.3934 295.974 239.5882 293.5328 233.3544L293.5348 233.3564ZM290.799 249.1736C287.4762 254.4534 280.6492 258.0936 272.996 258.6704C253.7634 259.9188 234.197 260.4256 214.8694 260.1742C198.729 259.9394 149.7038 266.9478 146.1192 244.4848C144.432 233.649 155.2802 222.5824 159.6002 212.6756C164.841 200.1954 166.005 187.901 167.9496 174.2842C171.8266 147.1326 177.4712 121.8226 197.3344 109.5242C211.2644 100.7874 230.7896 101.2902 245.9186 110.7788C259.925 119.5628 270.182 134.6898 274.0652 152.2868C279.304 175.244 272.24 202.9748 285.2926 223.6928C287.746 226.8816 289.765 230.666 291.6746 234.2278C293.8088 239.7034 293.508 244.8742 290.7992 249.1736Z" stroke-width="1"></path><path id="vector_25" fill="#ffffff" d="M218.868 109.9094C225.9362 109.9094 231.6652 104.18 231.6652 97.1124C231.6652 90.0446 225.9362 84.3152 218.868 84.3152C211.8 84.3152 206.071 90.0446 206.071 97.1124C206.071 104.18 211.8 109.9094 218.868 109.9094Z" stroke-width="1"></path><path id="vector_26" fill="#0a0430" d="M218.868 110.9376C211.2438 110.9376 205.041 104.7348 205.041 97.1104C205.041 89.4862 211.2438 83.2834 218.868 83.2834C226.4924 83.2834 232.6932 89.4862 232.6932 97.1104C232.6932 104.7348 226.4902 110.9376 218.868 110.9376ZM218.868 85.3454C212.381 85.3454 207.101 90.6234 207.101 97.1126S212.3788 108.8796 218.868 108.8796S230.633 103.6018 230.633 97.1126S225.3552 85.3454 218.868 85.3454Z" stroke-width="1"></path></g><g id="zero"><path id="vector_27" fill="#f5f5f5" d="M109.2792 110.9108H114.9938C121.7694 110.9108 127.037 105.6412 127.037 98.8676V17.0732C127.037 10.2976 121.7672 5.03 114.9938 5.03H39.2208C32.6966 5.03 27.1776 10.549 27.1776 17.0732V98.8676C27.1776 105.6412 32.4474 110.9108 39.2208 110.9108H92.9718C99.1602 122.2782 107.3902 134.3768 117.0024 143.027C126.5362 151.3084 131.052 155.8242 151.3764 163.3516C135.1886 154.0318 117.5626 132.7226 109.2792 110.9108Z" stroke-width="1"></path><path id="vector_28" fill="#0a0430" d="M77.6102 90.0856C63.6368 90.0856 52.2694 74.5528 52.2694 55.4602S63.6388 20.8348 77.6102 20.8348S102.953 36.3676 102.953 55.4602S91.5836 90.0856 77.6102 90.0856ZM77.6102 28.3622C67.9526 28.3622 59.7968 40.772 59.7968 55.4602S67.9526 82.5582 77.6102 82.5582C87.2678 82.5582 95.4234 70.1484 95.4234 55.4602S87.2656 28.3622 77.6102 28.3622Z" stroke-width="1"></path><path id="vector_29" fill="#0a0430" d="M151.8894 162.4576C135.8416 153.2182 118.9368 132.325 110.7872 111.9428H114.9938C122.3256 111.9428 128.067 106.1994 128.067 98.8698V17.0732C128.067 9.7414 122.3234 4 114.9938 4H39.2208C32.1342 4 26.1476 9.9866 26.1476 17.0732V98.8676C26.1476 106.1994 31.8912 111.9408 39.2208 111.9408H92.362C99.0674 124.157 107.314 135.9508 117.8202 145.1056C126.421 152.6002 131.6082 157.1282 151.016 164.3158C152.2108 164.7546 152.9628 163.0756 151.8894 162.4576ZM119.1758 143.5544C108.3212 134.0946 99.8338 121.6354 93.0728 108.9228C92.807 108.4202 92.1808 108.2306 91.6802 108.4964C91.1816 108.7622 90.99 109.3802 91.2516 109.8808H39.2228C33.0468 109.8808 28.2098 105.0416 28.2098 98.8676V17.0732C28.2098 11.103 33.2528 6.06 39.2228 6.06H114.9958C121.172 6.06 126.009 10.897 126.009 17.0732V98.8676C126.009 105.0438 121.172 109.8808 114.9958 109.8808H109.994C109.891 109.6068 109.7902 109.3308 109.6932 109.0568C109.4996 108.5212 108.9084 108.243 108.3748 108.4366C107.8392 108.6302 107.5612 109.2194 107.7528 109.755C114.489 128.4872 128.312 147.4912 143.0374 158.941C130.8274 153.7126 126.147 149.6296 119.1758 143.5544Z" stroke-width="1"></path></g><g id="details"><path id="vector_30" fill="#f5f5f5" d="M204.011 376.38C203.6854 376.38 203.3578 376.0546 203.3578 376.38S203.0324 377.033 203.0324 377.3586C203.3578 379.3156 204.3364 380.9472 203.6854 382.9042C203.0344 384.8612 200.7498 384.8612 199.7714 386.8184V387.4714C199.7714 387.7968 200.0968 388.1244 200.4244 388.1244C201.7284 388.7774 203.36 388.7774 204.9916 388.4498C206.244 388.4498 206.1988 389.3316 206.9486 390.0814C207.8282 392.2816 208.8892 393.6536 210.2096 394.974C210.2096 394.974 210.5352 394.974 210.5352 394.6486C211.8392 393.017 210.8606 389.756 212.8176 388.452C213.1432 388.1264 213.7962 388.1264 214.4492 388.1264C215.7532 387.801 219.995 388.452 219.995 386.495C219.995 385.1908 217.3848 383.8848 216.4064 383.5594C215.537 383.5594 214.408 381.6846 215.1022 380.2982L215.7554 376.3842C215.7554 375.7312 215.7554 374.427 215.1022 374.427C214.886 374.427 214.6676 374.5362 214.4492 374.7526C212.8176 375.731 211.1882 378.3412 209.5566 378.9922C207.925 379.6452 205.317 377.0352 204.011 376.382V376.38Z" stroke-width="1"></path><path id="vector_31" fill="#f5f5f5" d="M110.4452 379.0128C111.3228 379.0128 111.4238 379.1158 111.4238 378.3598C111.4238 377.0558 110.445 375.4242 111.098 374.1202C111.751 372.8162 113.3806 372.8162 114.3592 371.51C114.3592 371.1908 114.4064 370.857 114.0336 370.857C110.8508 369.796 110.1198 370.5192 110.1198 369.8784C109.7942 369.553 109.4664 369.2254 109.4664 368.9C109.141 367.596 108.1624 366.2898 107.5094 365.3114C107.5094 365.3114 107.5096 364.9858 107.1842 364.9858H106.8586C105.7236 366.121 106.288 369.8784 103.923 369.8784C102.9446 369.8784 99.6832 369.2254 99.6832 370.857C99.6832 371.8356 101.6406 372.814 102.2936 373.4672C102.619 373.4672 102.9464 373.7926 102.9464 374.1202C103.272 374.7732 103.272 375.4242 102.9464 376.0772L102.2936 379.0128C102.2936 379.6658 102.2936 380.3168 102.619 380.6444C102.9446 380.9718 102.9444 380.6444 103.272 380.6444C104.576 379.9914 105.8822 378.0342 107.1862 377.7088C108.4902 377.3832 109.4668 378.3618 110.4452 379.0128Z" stroke-width="1"></path><path id="vector_32" fill="#f5f5f5" d="M56.8014 307.947C58.783 307.947 60.39 306.3402 60.39 304.3584S58.783 300.7698 56.8014 300.7698C54.8194 300.7698 53.2126 302.3766 53.2126 304.3584S54.8194 307.947 56.8014 307.947Z" stroke-width="1"></path><path id="vector_33" fill="#f5f5f5" d="M368.9102 303.5056C371.0712 303.5056 372.8244 301.7524 372.8244 299.5914S371.0712 295.6774 368.9102 295.6774S364.9962 297.4304 364.9962 299.5914S366.7492 303.5056 368.9102 303.5056Z" stroke-width="1"></path><g id="group"><path id="vector_34" fill="#f5f5f5" d="M308.4578 376.6148C308.7834 376.9404 309.111 376.6148 309.4364 376.6148C310.7404 375.9618 312.0464 374.3324 313.676 374.3324C315.3054 374.3324 316.286 375.9638 317.9156 376.2894C318.7932 376.2894 318.8942 376.3924 318.8942 375.6364C318.8942 374.3324 318.5686 373.0262 317.9156 372.0478C317.9156 371.7222 317.5902 371.3946 317.5902 371.0692C317.5902 370.5026 317.9382 370.171 321.1788 365.851V365.5256S321.1788 365.2002 320.8532 365.2002C319.2216 364.547 316.9392 366.5042 315.3076 365.5256L314.329 364.547C313.676 363.5686 312.6974 359.6544 311.068 360.633C310.0894 360.9584 309.764 363.5686 309.764 364.547C309.764 364.8726 309.764 365.2002 309.4384 365.5256C309.113 366.1786 308.1344 366.5042 307.156 366.8296L303.5674 367.4826C302.9142 367.4826 301.9358 368.1358 302.2632 368.7866C302.2632 369.1122 302.5888 369.1122 302.5888 369.1122C303.8928 370.0906 306.5028 370.4162 307.4814 371.7222C308.602 373.2158 308.4578 375.2078 308.4578 376.615Z" stroke-width="1"></path><path id="vector_35" fill="#0a0430" d="M216.5814 382.5582C216.0644 382.278 215.7408 381.322 216.0232 380.7536C216.1406 380.5228 216.1076 380.529 216.7832 376.378C216.7832 375.5622 216.7832 373.3908 215.1022 373.3908C214.4636 373.3908 214.204 373.5496 213.8086 373.9326C212.2944 374.8948 210.3868 377.546 209.1734 378.0322C207.7952 378.5802 204.4352 374.287 202.8182 375.3994C202.54 375.591 202.2742 376.069 202.2742 376.4068C202.1652 376.6232 202.0024 376.9506 202.0168 377.5254C202.336 379.4474 203.2364 380.9904 202.707 382.5766C202.2454 383.9692 199.9402 384.1732 198.8482 386.3548C198.704 386.6412 198.739 386.841 198.739 387.4672C198.739 388.2646 199.3612 388.9752 200.1298 389.1214C201.4874 389.7436 203.1808 389.857 204.9874 389.4758C205.2922 389.4758 205.2408 389.4614 205.5992 389.997C205.7496 390.2236 205.9042 390.4462 206.0566 390.6294C206.8168 392.467 207.8838 394.1028 209.1508 395.3718C209.571 395.792 209.7378 396 210.2056 396C210.7534 396 211.3158 395.656 211.4992 395.0648C212.8094 393.1344 211.969 390.2648 213.4852 389.2184C213.6706 389.1318 214.3194 389.2142 214.6944 389.1194C215.8562 388.831 221.0208 389.62 221.0208 386.4908C221.0208 384.0764 216.771 382.5912 216.5772 382.5582H216.5814ZM214.338 387.0924C213.5552 387.0924 212.6982 387.115 212.249 387.5908C210.185 388.967 210.562 391.7316 210.0654 393.324C208.3968 391.3772 208.0362 389.7106 207.6758 389.3502C207.5522 389.2244 207.0166 388.3634 206.6972 388.0462C206.1224 387.4714 205.5334 387.4136 204.7876 387.4384C202.5916 387.8772 201.6646 387.5044 200.7992 387.1644V387.084C201.6768 385.675 203.8934 385.5266 204.6598 383.2298C205.4036 381.0048 204.3982 379.0478 204.1592 377.68C208.5184 380.6918 209.3258 381.3098 212.9722 377.4656C213.5592 376.8456 214.165 376.209 214.717 375.8052C214.75 376.308 214.8118 375.758 214.1072 379.9872C213.2812 381.901 214.6944 384.3628 216.19 384.5708C217.4218 385.0116 218.9216 386.0438 218.9628 386.5196C218.5714 387.1006 215.4978 386.8616 214.3338 387.0902L214.338 387.0924Z" stroke-width="1"></path><path id="vector_36" fill="#0a0430" d="M114.2542 369.8476C113.6054 369.6354 112.223 369.2358 110.8736 369.1802L110.847 369.1534C110.7192 369.0256 110.5068 368.8196 110.4964 368.902C110.4964 367.806 108.8816 365.505 108.4778 364.9056C108.3172 364.3926 107.8578 363.9578 107.1842 363.9578H106.8586C105.7338 363.9578 105.291 365.7274 105.052 366.807C104.8748 367.6022 104.6894 368.4262 104.1642 368.8402C103.6924 368.97 98.6532 367.7978 98.6532 370.859C98.6532 372.501 100.9442 373.5764 101.5644 374.1964C101.6776 374.3118 101.8176 374.3962 101.968 374.4456C101.9846 374.491 102.0032 374.5362 102.0238 374.5796C102.341 375.2162 102.0134 375.5252 101.9392 375.8526C101.2986 378.6606 101.2614 378.8026 101.2614 379.0128C101.2614 379.8244 101.2614 380.7432 101.8898 381.3716C103.612 383.0938 106.1212 379.0354 107.4334 378.7078C108.2122 378.5164 108.9228 379.2352 109.8746 379.8698C110.1878 380.0778 110.3956 380.0428 111.098 380.0428C111.506 380.0428 112.4556 379.878 112.4556 378.3598C112.4556 377.754 112.3052 377.1546 112.157 376.5736C111.6584 374.594 111.8626 374.3776 113.183 373.6752C113.9762 373.255 115.3912 372.4104 115.3912 371.51V371.1826C115.3912 370.4286 114.8456 369.9424 114.2564 369.8456L114.2542 369.8476ZM112.2146 371.8582C109.792 373.1478 109.5018 374.4704 110.1588 377.0784C110.2062 377.268 110.2536 377.4534 110.2928 377.6408C109.4502 377.0392 108.3314 376.3574 106.9346 376.7076C105.5236 377.0598 104.399 378.541 103.3256 379.3816C103.3174 379.0438 103.2576 379.4166 103.9272 376.413C104.3104 375.5664 104.3186 374.6826 103.9498 373.8358C103.8344 373.222 103.3606 372.7008 102.7674 372.5112C102.4234 372.225 100.7876 371.063 100.66 370.9456C101.0884 370.6016 103.3112 370.9086 103.9252 370.9086C104.3288 370.9086 105.0024 370.9086 105.5194 370.377C106.6998 369.4932 106.8688 367.9812 107.1942 366.6834C109.1184 369.5488 108.0038 369.1718 109.1822 370.3956C109.3388 370.8034 109.7446 371.236 110.7704 371.236C111.2814 371.236 111.988 371.3514 112.7604 371.5534C112.5896 371.6564 112.4062 371.7552 112.2126 371.8562L112.2146 371.8582Z" stroke-width="1"></path><path id="vector_37" fill="#0a0430" d="M56.8014 299.7418C54.255 299.7418 52.1826 301.8122 52.1826 304.3604S54.255 308.979 56.8014 308.979S61.42 306.9066 61.42 304.3604S59.3476 299.7418 56.8014 299.7418ZM56.8014 306.917C55.3902 306.917 54.2428 305.7696 54.2428 304.3584C54.2428 302.9472 55.3902 301.7998 56.8014 301.7998C58.2124 301.7998 59.36 302.9472 59.36 304.3584C59.36 305.7696 58.2124 306.917 56.8014 306.917Z" stroke-width="1"></path><path id="vector_38" fill="#0a0430" d="M368.9082 294.6472C366.1828 294.6472 363.964 296.866 363.964 299.5914S366.1828 304.5356 368.9082 304.5356S373.8524 302.3168 373.8524 299.5914S371.6336 294.6472 368.9082 294.6472ZM368.9082 302.4754C367.3178 302.4754 366.0242 301.1818 366.0242 299.5914C366.0242 298.001 367.3178 296.7074 368.9082 296.7074C370.4986 296.7074 371.7922 298.001 371.7922 299.5914C371.7922 301.1818 370.4986 302.4754 368.9082 302.4754Z" stroke-width="1"></path><path id="vector_39" fill="#0a0430" d="M106.8916 283.0554C108.2616 283.15 108.3914 281.0982 107.0378 280.9994C104.4876 280.8182 98.5112 280.3916 96.2576 284.5778C95.7426 285.6056 95.5304 286.6914 95.3244 287.7398C94.6528 291.1698 94.451 292.0372 88.1472 292.0372C84.985 292.0372 81.658 293.4112 81.347 296.5796C81.347 298.3698 81.2954 298.6108 79.3672 299.0928C75.4016 300.0838 71.2094 300.576 67.1944 301.0766C65.849 301.2456 66.088 303.285 67.4498 303.1202C82.068 301.3528 83.4316 300.7924 83.4028 296.6806C83.58 294.9048 85.9862 294.0952 88.1492 294.0952C90.957 294.0952 94.451 294.0952 96.0124 291.9074C98.8594 287.9212 94.933 282.1962 106.8936 283.0532L106.8916 283.0554Z" stroke-width="1"></path><path id="vector_40" fill="#0a0430" d="M148.3028 309.352C147.7342 309.385 147.3016 309.8732 147.3346 310.4396C147.5592 314.2508 145.8328 317.9548 142.6748 320.3856C140.7878 322.0048 138.0458 323.3254 138.0706 326.638C138.3136 327.8512 139.1048 329.1738 139.3046 330.1998C139.3046 331.6604 138.666 333.1704 137.5268 334.3198L132.255 340.8462C130.3722 343.1988 129.614 344.9478 131.3774 347.152C131.5774 347.4012 131.7648 347.634 131.7998 347.7144C131.9852 348.6414 131.5712 349.552 130.9614 350.1824C127.7002 354.8422 122.9746 358.8058 117.295 361.6444C116.7862 361.9 116.5802 362.518 116.8334 363.0268C117.0848 363.5294 117.6988 363.7436 118.2158 363.4882C124.2024 360.495 129.1918 356.3028 132.5332 351.5028C133.6086 350.4274 134.1132 348.7814 133.7858 347.187C133.4746 346.258 132.698 345.679 132.5106 345.1228C132.0428 343.9548 134.0824 341.8638 139.0574 335.696C140.5242 334.2292 141.3668 332.2248 141.3522 330.0308C141.099 328.5044 140.3366 327.2622 140.1122 326.436C140.1122 324.4996 142.302 323.4262 143.9748 321.9842C147.6334 319.1702 149.6584 314.809 149.3926 310.3182C149.3576 309.7516 148.8694 309.317 148.305 309.35L148.3028 309.352Z" stroke-width="1"></path><path id="vector_41" fill="#0a0430" d="M352.8892 281.1188C350.9712 278.8178 348.9998 277.7384 347.0818 278.0184C346.0044 278.2884 344.9682 278.7972 343.967 279.2978C341.9832 279.7366 339.9562 278.5624 337.5994 275.6144C330.9332 267.2836 327.2848 272.4502 324.895 273.886C323.453 273.2844 322.2582 271.344 320.5134 270.1058C317.4356 268.26 313.7048 268.7544 311.4368 271.3068C311.0576 271.7332 311.0968 272.3822 311.5232 272.7612C311.9476 273.1382 312.5986 273.1012 312.9776 272.6748C314.5782 270.8722 317.242 270.5426 319.3864 271.824C321.1622 273.093 322.3426 275.396 324.753 275.9996C324.9898 276.0594 325.2432 276.0306 325.4636 275.9214C328.6278 274.3392 330.344 269.8422 335.9906 276.8978C337.8548 279.2298 340.7782 282.217 344.5728 281.2692C344.6468 281.2508 344.717 281.226 344.785 281.191C345.7202 280.7214 346.6884 280.2392 347.4816 280.0332C348.5198 279.887 349.8794 280.7914 351.342 282.4682C359.5246 291.8476 359.2424 291.3348 359.883 291.3348C360.773 291.3348 361.2468 290.2718 360.6452 289.6104L352.8974 281.1148L352.8892 281.1188Z" stroke-width="1"></path><path id="vector_42" fill="#0a0430" d="M211.8824 335.3314C212.4736 336.9032 212.385 338.8664 211.6744 340.5288C210.5208 342.8362 210.739 345.4832 212.3686 347.739C212.8032 348.1738 213.5984 348.5836 213.9178 348.9812C214.1444 349.8012 214.2082 348.971 210.836 363.5892C210.6876 364.234 211.1778 364.8498 211.8412 364.8498C212.311 364.8498 212.7332 364.5286 212.8444 364.0506L215.8294 351.097C216.2806 349.7434 215.9942 348.3674 215.708 347.943C215.2094 347.1932 214.1422 346.5154 213.9322 346.4104C212.863 344.9148 212.7064 343.0606 213.5386 341.392C214.4802 339.198 214.579 336.66 213.7364 334.4538C212.6116 332.4864 210.4506 331.755 209.5318 330.2904C209.227 329.1614 209.0396 327.5588 209.812 325.9848L212.8218 316.1996C212.9886 315.6558 212.6838 315.0788 212.1398 314.912C211.596 314.7452 211.0212 315.05 210.8524 315.594L207.9044 325.2206C207.0866 326.8582 206.9754 328.8504 207.5852 330.9826C208.0404 332.5482 211.1572 334.122 211.8762 335.3272L211.8824 335.3314Z" stroke-width="1"></path><path id="vector_43" fill="#0a0430" d="M297.0534 345.063C295.6032 344.4408 294.396 345.4482 293.5184 346.1838C293.195 346.4556 292.6552 346.9088 292.6098 347.0366C292.3894 346.8162 292.2266 346.6554 292.0722 346.3506C286.7882 334.2724 292.3812 329.4252 285.3584 329.4252C283.5394 329.4252 281.706 327.9934 281.3538 326.2568C280.851 323.7682 282.4908 320.2846 280.6966 317.5902C278.9702 315.0026 275.6844 314.667 273.6368 313.54C269.3456 310.6786 269.393 304.8528 270.3138 299.7788C270.4168 299.2186 270.046 298.683 269.4858 298.58C268.9274 298.479 268.3898 298.8498 268.2888 299.408C267.201 305.3884 267.3782 311.8466 272.5654 315.2952C273.3874 315.7526 274.2774 316.078 275.1364 316.3932C279.5078 317.996 279.751 319.0486 279.3596 322.8576C279.2318 324.0916 279.0752 325.373 279.3348 326.6606C279.8828 329.3758 282.5814 331.481 285.3584 331.481C287.1548 331.481 287.3382 331.339 287.3382 333.9634C287.3382 338.4112 288.1848 342.9062 290.2078 347.222C290.5188 347.8832 290.8774 348.217 291.31 348.6208C293.5266 350.0978 295.3642 346.5854 296.322 346.985C298.1596 347.597 298.7654 349.6672 298.4028 351.305C298.2792 351.8612 298.6294 352.4112 299.1856 352.5328C299.7356 352.6564 300.2898 352.3104 300.4154 351.75C301.0706 348.7918 299.5934 345.9036 297.0554 345.061L297.0534 345.063Z" stroke-width="1"></path><path id="vector_44" fill="#0a0430" d="M321.084 364.1866C319.1742 363.548 317.0092 365.163 315.9298 364.6872C315.0274 363.822 315.2252 364.1556 314.7164 362.965C314.1128 361.5518 313.4288 359.949 312.164 359.539C311.653 359.3722 311.1236 359.4278 310.6272 359.6976C308.6226 360.53 308.8164 364.5904 308.7092 364.7964C308.3302 365.1712 308.839 365.1466 306.9706 365.816L303.5672 366.4526C302.7494 366.4526 301.8512 366.945 301.433 367.6206C300.9202 368.4508 301.1652 369.7508 302.1686 370.0762C303.5982 371.028 305.9652 371.4152 306.6594 372.3402C307.4238 373.36 307.432 374.5796 307.432 376.6148C307.432 377.3998 308.3816 378.0816 309.4406 377.6448C310.4294 377.6448 312.3308 375.3624 313.6822 375.3624C315.0088 375.3624 315.9976 377.3194 318.5748 377.3194C320.7688 377.3194 319.8912 373.29 318.9044 371.6748C318.8446 371.442 318.7334 371.2546 318.6222 371.129C318.6716 370.8674 318.719 370.8508 322.009 366.469C322.458 365.8716 322.285 364.374 321.088 364.1866H321.084ZM317.516 369.036C317.0566 369.4954 316.5622 370.4018 316.5622 371.0692C316.5622 371.475 316.7248 371.8026 316.8876 372.0478C316.8876 372.777 317.6808 372.946 317.8414 375.2016C316.6178 374.7712 315.565 373.3022 313.678 373.3022C311.9126 373.3022 310.6188 374.6064 309.4858 375.385C309.4672 374.081 309.3314 372.4742 308.3054 371.1042C307.2054 369.6374 304.931 369.2564 303.5756 368.5208C305.6088 368.078 309.2222 367.9028 310.279 366.1332C310.794 365.54 310.794 364.924 310.794 364.547C310.794 363.4284 311.1566 361.8442 311.5232 361.4982C312.1206 361.7556 312.924 364.337 313.6018 365.2742C314.292 365.9644 314.568 366.2816 314.7782 366.4072C316.4446 367.4084 318.3564 366.3496 319.6852 366.1312L317.5138 369.038L317.516 369.036Z" stroke-width="1"></path></g></g></g></svg>