<svg width="25" height="26" viewBox="0 0 25 26" fill="none" xmlns="http://www.w3.org/2000/svg">
<path fill-rule="evenodd" clip-rule="evenodd" d="M24.4996 13.0114C24.4996 12.125 24.4201 11.2727 24.2724 10.4546H12.4998V15.2897H19.227C18.9372 16.8522 18.0565 18.176 16.7327 19.0624V22.1987H20.7724C23.136 20.0226 24.4996 16.8181 24.4996 13.0114Z" fill="#4285F4"/>
<path fill-rule="evenodd" clip-rule="evenodd" d="M12.4997 25.2269C15.8746 25.2269 18.7041 24.1076 20.7723 22.1985L16.7326 19.0622C15.6133 19.8122 14.1815 20.2554 12.4997 20.2554C9.24404 20.2554 6.4884 18.0566 5.50546 15.1021H1.32938V18.3406C3.38617 22.4258 7.61338 25.2269 12.4997 25.2269Z" fill="#34A853"/>
<path fill-rule="evenodd" clip-rule="evenodd" d="M5.5056 15.1024C5.2556 14.3524 5.11356 13.5513 5.11356 12.7274C5.11356 11.9036 5.2556 11.1025 5.5056 10.3525V7.11389H1.32953C0.482947 8.80137 0 10.7104 0 12.7274C0 14.7445 0.482947 16.6535 1.32953 18.341L5.5056 15.1024Z" fill="#FBBC05"/>
<path fill-rule="evenodd" clip-rule="evenodd" d="M12.4997 5.19902C14.3349 5.19902 15.9826 5.82969 17.278 7.06831L20.8632 3.48313C18.6984 1.46612 15.8689 0.227501 12.4997 0.227501C7.61338 0.227501 3.38617 3.02859 1.32938 7.11376L5.50546 10.3523C6.4884 7.39785 9.24404 5.19902 12.4997 5.19902Z" fill="#EA4335"/>
</svg>
