<svg width="82" height="59" fill="none" xmlns="http://www.w3.org/2000/svg"><g clip-path="url(#a)"><path d="M48.57 52.685s.511 2.407.545 2.43c.034.023 1.401.023 1.734-.195l-.091-2.5-2.189.265Z" fill="#FE8E9C"/><mask id="b" style="mask-type:luminance" maskUnits="userSpaceOnUse" x="48" y="52" width="3" height="4"><path d="M48.57 52.685s.511 2.407.545 2.43c.034.023 1.401.023 1.734-.195l-.091-2.5-2.189.265Z" fill="#fff"/></mask><g mask="url(#b)"><path d="M48.42 52.492s.038.824.2.918c.162.093 2.05.15 2.23.006.178-.144-.033-1.13-.033-1.13l-2.396.206Z" fill="#E57492"/></g><path d="M51.014 54.59c-.257.047-1.321.223-2.133.022a.05.05 0 0 0-.06.058c.037.203.136.736.132.827-.005.112-2.954 1.235-3.15 1.537-.13.2-.183.465-.204.62a.11.11 0 0 0 .115.124l5.525-.295a.122.122 0 0 0 .113-.142l-.236-1.456-.043-1.248a.05.05 0 0 0-.06-.048Z" fill="#1B3D9E"/><path d="M54.586 53.045s.645 2.598.678 2.622c.034.023 1.401.023 1.734-.196l.055-2.505-2.468.079Z" fill="#FE8E9C"/><mask id="c" style="mask-type:luminance" maskUnits="userSpaceOnUse" x="54" y="52" width="4" height="4"><path d="M54.586 53.045s.645 2.598.678 2.622c.034.023 1.401.023 1.734-.196l.055-2.505-2.468.079Z" fill="#fff"/></mask><g mask="url(#c)"><path d="M54.68 53.905s1.92.214 2.493-.23l-.053-1.067-2.548.146.107 1.15Z" fill="#E57492"/></g><path d="M57.167 55.19c-.257.043-1.325.198-2.133-.02a.05.05 0 0 0-.062.057c.034.204.122.739.117.83-.008.111-2.978 1.175-3.18 1.473-.132.194-.19.45-.215.606a.122.122 0 0 0 .12.141h5.544c.073 0 .13-.065.12-.139l-.234-1.65-.018-1.249a.05.05 0 0 0-.059-.049Z" fill="#1B3D9E"/><path d="M.044 23.967C-.36 29.98 2.006 36.145 6.111 40.505a21.93 21.93 0 0 0 5.815 4.406c7.554 3.94 17.111 3.385 24.454-.939 3.41-2.008 6.414-4.773 10.121-6.152 4.922-1.83 10.364-.983 15.6-.614 5.235.369 11.022.035 14.894-3.518 4.872-4.473 5.461-12.16 4.28-18.289-1.38-7.155-6.23-12.228-13.186-14.337a23.856 23.856 0 0 0-1.913-.494C59.379-.894 53.036.693 46.56 2.753c-2.867.913-5.766 1.79-8.776 2.061-5.488.495-10.999-.592-16.495-.083-9.63.891-18.67 6.444-20.851 16.451-.2.92-.33 1.85-.394 2.785Z" fill="#F6F9FF"/><path d="M42.705 34.304s-.64 1.048-.605 1.076c.033.03.38.341 1.238.215.039-.006.59-.712.59-.712l-1.223-.58Z" fill="#FE8E9C"/><path d="M48.02 23.066s-1.425 5.47-1.697 5.664c-.273.194-4.273 5.739-4.007 5.956.267.217 1.865.848 2.397.75.533-.096 3.825-4.493 4.116-4.747.29-.253 1.13-7.582 1.13-7.582l-1.938-.04Z" fill="#FC476A"/><mask id="d" style="mask-type:luminance" maskUnits="userSpaceOnUse" x="42" y="23" width="8" height="13"><path d="M48.02 23.066s-1.425 5.47-1.697 5.664c-.273.194-4.273 5.739-4.007 5.956.267.217 1.865.848 2.397.75.533-.096 3.825-4.493 4.116-4.747.29-.253 1.13-7.582 1.13-7.582l-1.938-.04Z" fill="#fff"/></mask><g mask="url(#d)" fill="#D40221"><path d="M44.75 35.753s4.265-4.398 4.387-4.69c.123-.292.872-1.46.872-1.46l-.934-1.297s-1.364 2.157-1.533 2.265c-.169.107-4.215 4.413-3.405 4.978.147.103.614.204.614.204Z"/><path d="M47.614 31.976s-.142-3.277-.179-3.71c-.38-4.45.756-5.784.756-5.784s.62 8.417.322 8.832c-.3.415-.9.662-.9.662Z"/></g><path d="M49.038 20.79s-1.728 2.77-1.375 5.386c.352 2.616.636 8.51.636 8.51l3.013-.323-1.413-13.372-.861-.202Z" fill="#FC476A"/><path d="M49.589 31.314s-3.672 8.362-3.984 9.367c-.707 2.278 2.01 11.875 2.04 12.184.03.309 3.524.33 3.74 0 .216-.33-.635-10.828-.635-10.828s5.204-8.423 4.438-9.282c-1.025-1.148-5.6-1.441-5.6-1.441Z" fill="#1B3D9E"/><mask id="e" style="mask-type:luminance" maskUnits="userSpaceOnUse" x="45" y="31" width="11" height="23"><path d="M49.589 31.314s-3.672 8.362-3.984 9.367c-.707 2.278 2.01 11.875 2.04 12.184.03.309 3.524.33 3.74 0 .216-.33-.635-10.828-.635-10.828s5.204-8.423 4.438-9.282c-1.025-1.148-5.6-1.441-5.6-1.441Z" fill="#fff"/></mask><g mask="url(#e)" fill="#1C056D"><path d="M49.463 53.443a.058.058 0 0 1-.057-.05c-.07-.455-1.68-11.148-1.563-11.64.115-.485 3.188-8.66 3.318-9.008a.058.058 0 1 1 .108.04c-.031.087-3.2 8.517-3.314 8.994-.09.377.985 7.75 1.565 11.597a.058.058 0 0 1-.049.066h-.009Z"/><path d="M46.397 36.947s1.218.07 1.666-.257c.58-.424 3.068-3.698 3.068-3.698l-2.154-1.237-2.58 5.192Z"/></g><path d="M51.793 40.297s-.302-3.963-.376-4.074c-.073-.11-.792 5.38-.501 5.543l.877-1.469Z" fill="#1C056D"/><path d="M55.873 30.69s1.687 3.368 1.735 5.376c.048 2.008.337 16.632 0 16.873-.337.242-3.596.869-3.676 0-.079-.869-4.28-21.597-2.245-21.616 2.036-.019 4.186-.634 4.186-.634Z" fill="#1B3D9E"/><mask id="f" style="mask-type:luminance" maskUnits="userSpaceOnUse" x="51" y="30" width="7" height="24"><path d="M55.873 30.69s1.687 3.368 1.735 5.376c.048 2.008.337 16.632 0 16.873-.337.242-3.596.869-3.676 0-.079-.869-4.28-21.597-2.245-21.616 2.036-.019 4.186-.634 4.186-.634Z" fill="#fff"/></mask><g mask="url(#f)" fill="#1C056D"><path d="M56.194 53.805a.058.058 0 0 1-.058-.053c-.01-.12-.911-12.03-.93-12.883-.017-.844-2.056-10.073-2.077-10.166a.058.058 0 0 1 .044-.07.058.058 0 0 1 .07.044c.084.381 2.061 9.334 2.08 10.19.017.849.92 12.755.928 12.875a.058.058 0 0 1-.053.063h-.005Z"/><path d="M52.012 32.832s.752 4.187 1.127 4.342c1.096.452 3.762-.847 4.63-2.353.867-1.506-1.605-3.832-1.605-3.832l-4.152 1.843Z"/></g><path d="M49.232 21.082s-.805 2.55-.712 3.96c.094 1.412 1.52 8.01 1.784 8.23.264.22 1.606.134 2.295-.075.688-.208 2.546-.93 2.424-1.1-.123-.17-1.527-8-1.712-8.7-.184-.698-1.318-3.13-1.318-3.13s-1.309 1.164-1.709 1.112c-.4-.05-1.052-.296-1.052-.296Z" fill="#fff"/><path d="M50.511 17.824a.285.285 0 0 0 .013-.045c.077-.425.451-3.155-.293-3.812-.745-.658-3.335-.227-3.109 1.078 0 0 .513 1.638-.002 2.153-.514.515-1.07.912-.647.99.424.077.788-.255.942-.075.154.18.167 1.494.758 1.391.18-.031.462-.164.77-.347.098.752.233 1.733.289 1.925.093.32 2.411-.413 2.76-.815.315-.362-1.178-2.099-1.48-2.444Z" fill="#FE8E9C"/><mask id="g" style="mask-type:luminance" maskUnits="userSpaceOnUse" x="46" y="13" width="7" height="9"><path d="M50.511 17.824a.285.285 0 0 0 .013-.045c.077-.425.451-3.155-.293-3.812-.745-.658-3.335-.227-3.109 1.078 0 0 .513 1.638-.002 2.153-.514.515-1.07.912-.647.99.424.077.788-.255.942-.075.154.18.167 1.494.758 1.391.18-.031.462-.164.77-.347.098.752.233 1.733.289 1.925.093.32 2.411-.413 2.76-.815.315-.362-1.178-2.099-1.48-2.444Z" fill="#fff"/></mask><g mask="url(#g)"><path d="M47.196 16.157s1.136-.46 1.38-.94c0 0 .356.74.744.7l-.256-1.594-2.475.646.606 1.188Z" fill="#E57492"/></g><path d="M48.942 19.157s.424-.284.618-.606a.032.032 0 0 1 .059.014c.02.258.011.928-.604 1.141l-.073-.548Z" fill="#E57492"/><path d="M42.705 36.024s.105 4.374.244 4.39c.139.014.49.11.481-.028-.007-.138-.08-4.349-.152-4.394-.072-.045-.573.032-.573.032Z" fill="#D4DFFF"/><mask id="h" style="mask-type:luminance" maskUnits="userSpaceOnUse" x="42" y="35" width="2" height="6"><path d="M42.705 36.024s.105 4.374.244 4.39c.139.014.49.11.481-.028-.007-.138-.08-4.349-.152-4.394-.072-.045-.573.032-.573.032Z" fill="#fff"/></mask><g mask="url(#h)"><path opacity=".4" d="M43.068 35.977s-.193 4.139 0 4.21c.192.073.608-.128.608-.128l-.158-4.081h-.45" fill="#6880E4"/></g><path d="M40.331 35.605s5.466-.125 5.764 0c.299.124.196.788.1.788-.097 0-5.767.055-5.864 0-.097-.055-.26-.68 0-.788Z" fill="#6880E4"/><mask id="i" style="mask-type:luminance" maskUnits="userSpaceOnUse" x="40" y="35" width="7" height="2"><path d="M40.331 35.605s5.466-.125 5.764 0c.299.124.196.788.1.788-.097 0-5.767.055-5.864 0-.097-.055-.26-.68 0-.788Z" fill="#fff"/></mask><g mask="url(#i)"><path opacity=".24" d="M40.01 36.194s6.431-.394 6.53-.256c.098.138.127.581-.099.601-.226.02-6.49.058-6.48-.04.01-.098.05-.305.05-.305h-.001Z" fill="#1C056D"/></g><path d="M41.828 39.292c.031-.186 2.494-.186 2.6-.072.107.113.669 18.192.434 18.192-.235 0-2.596.06-2.722.018-.127-.043-.411-17.554-.312-18.137Z" fill="#6880E4"/><mask id="j" style="mask-type:luminance" maskUnits="userSpaceOnUse" x="41" y="39" width="4" height="19"><path d="M41.828 39.292c.031-.186 2.494-.186 2.6-.072.107.113.669 18.192.434 18.192-.235 0-2.596.06-2.722.018-.127-.043-.411-17.554-.312-18.137Z" fill="#fff"/></mask><g mask="url(#j)"><path opacity=".24" d="M42.133 38.774s-.042 15.653 3.271 17.231v1.993H40.85V38.774h1.284Z" fill="#1C056D"/></g><path d="M40.288 57.283s6.309-.176 6.334 0c.025.177.15.983 0 .983-.151 0-6.233.025-6.334 0-.1-.025-.226-.857 0-.983Z" fill="#6880E4"/><path d="M41.807 40.547a.087.087 0 0 1-.005-.174c.099-.006 2.424-.141 2.705-.124a.087.087 0 0 1-.01.173c-.272-.016-2.661.123-2.685.124h-.005Zm3.112 15.734h-.012c-.338-.047-2.811 0-2.837 0h-.001a.087.087 0 0 1-.087-.085.087.087 0 0 1 .085-.089c.102-.002 2.512-.048 2.864.001a.087.087 0 0 1-.012.173Z" fill="#1C056D"/><path d="M49.149 20.714s.534.209.75.277c.216.069-.21.76-.301.722-.078-.033-.477-.383-.587-.768a.186.186 0 0 1 .138-.231Zm2.921-.948s-1.826 1.018-1.79 1.185c.036.166.39.705.462.676.07-.03 1.583-1.298 1.6-1.406.018-.108-.272-.455-.272-.455Z" fill="#FFE0C1"/><path d="M49.899 20.991s-.121.175-.103.344c.018.169.219.52.287.505.067-.016.395-.386.359-.51-.036-.125-.11-.37-.162-.38-.053-.009-.381.041-.381.041Z" fill="#1B3D9E"/><path d="M49.91 21.5s-.464 4.262-.541 5.819c-.077 1.557-.03 2.804.004 2.963.035.16.831 1.605.9 1.577.07-.028.694-1.58.716-1.744.022-.164-.334-4.174-.363-4.867-.028-.692-.442-3.802-.442-3.802l-.273.054Z" fill="#1B3D9E"/><path d="M46.006 33.688s-1.058 1.118-1.094 1.118c-.036 0-1.008.594-1.118.693-.11.1-.09.744-.04 1.06.048.315.73.283.946.256.215-.027 1.112-.264 1.13-.418.015-.117.005-.798.005-.798l1.428-.787-1.257-1.124Z" fill="#FE8E9C"/><path d="M55.953 25.935c-.073-.513-.173-4.587-3.333-5.975a.549.549 0 0 0-.758.39l-.004.015s-1.71 8.165-1.849 8.374c-.139.208-4.823 4.66-4.91 5.114-.085.455 1.744 2.116 2.451 1.946.673-.162 4.473-3.416 5.376-4.484.296 2.573.579 4.914.72 4.914.269 0 4.422-2.468 4.768-3.316.346-.848-2.385-6.439-2.462-6.979v.001Z" fill="#FC476A"/><path d="M52.925 31.316s.439-.444.746-1.06c.306-.615.733-3.955.733-3.955s.187 3.802-.164 4.549c-.35.747-1.21 1.369-1.21 1.369l-.105-.903Zm-2.915-2.577s.255.757 1.323.975c0 0-1.104-.655-1.232-1.284l-.092.309Z" fill="#D40221"/><path d="M42.91 35.416c.009.026.038.038.03.064-.04.12-.148.456-.183.624a3.13 3.13 0 0 0-.062.5c-.009.305-1.552.241-1.661.05-.11-.19-.212-.673-.176-.783.037-.11.344-.497.475-.54.128-.044 1.372-.514 1.578.085h-.001Z" fill="#FE8E9C"/><path d="M47.238 15.498s1.53-.401 1.769-1.027c0 0-.588.902.413 1.583 0 0-.202-.635.376-.589.579.046.285.957 0 .94 0 0 .562.966.79.943.23-.023.686-1.72.57-2.694-.117-.973-.272-1.35-1.268-1.544-.997-.194-3.417.909-3.689.714-.271-.195-.374.68.168.713 0 0-.371.251-.044.519s.519.1.519.1-.134.44.396.341Z" fill="#1B3D9E"/><path d="M47.555 18.607s.596.089.806-.704c0 0-.872.426-.806.704Z" fill="#fff"/><path d="M7.501 17.48a4.414 4.414 0 0 0 0-6.23 4.385 4.385 0 0 0-6.213 0 4.414 4.414 0 0 0 0 6.23 4.385 4.385 0 0 0 6.213 0Z" fill="#D4DFFF"/><path d="M6.025 14.859a1.614 1.614 0 0 0-.321-.543 2.158 2.158 0 0 0-.46-.384 7.08 7.08 0 0 0-.457-.265 5.793 5.793 0 0 1-.265-.148 1.023 1.023 0 0 1-.177-.13.309.309 0 0 1-.073-.099.119.119 0 0 1-.001-.057c.002-.012.003-.023.046-.045.025-.012.122-.048.37-.007a2.273 2.273 0 0 1 .807.33.356.356 0 0 0 .511-.132l.314-.602a.358.358 0 0 0-.104-.452 2.885 2.885 0 0 0-.595-.34c.078-.153.18-.376.162-.486-.028-.175-.571-.275-.791-.32-.171-.036-.257.384-.286.573a2.46 2.46 0 0 0-.643.001 1.712 1.712 0 0 0-.644.222c-.19.115-.341.267-.452.45a1.602 1.602 0 0 0-.207.57c-.045.276-.029.526.05.746.074.205.182.387.32.541.13.144.28.27.446.373.145.09.284.17.415.237l.3.162c.074.04.139.085.193.133a.332.332 0 0 1 .082.099.093.093 0 0 1 0 .043c-.013.08-.04.104-.094.124a.879.879 0 0 1-.45.024 1.618 1.618 0 0 1-.458-.151 2.435 2.435 0 0 1-.42-.262.355.355 0 0 0-.539.12l-.32.64a.358.358 0 0 0 .094.437 2.81 2.81 0 0 0 .671.4c-.076.15-.197.415-.175.536.032.175.576.263.797.304.18.034.255-.425.277-.6.225.03.441.037.646.018.247-.023.474-.087.673-.19a1.53 1.53 0 0 0 .522-.44c.143-.189.238-.423.283-.696a1.47 1.47 0 0 0-.048-.734Z" fill="#EAF2FC"/><path d="M39.452 22.381a2.168 2.168 0 0 0 0-3.06 2.154 2.154 0 0 0-3.053 0 2.168 2.168 0 0 0 0 3.06c.843.846 2.21.846 3.053 0Z" fill="#D4DFFF"/><path d="M38.695 20.522a.788.788 0 0 0-.292-.103 1.077 1.077 0 0 0-.294 0 3.623 3.623 0 0 0-.255.045c-.05.01-.098.02-.147.028a.498.498 0 0 1-.107.007.151.151 0 0 1-.059-.014c-.007-.004-.013-.014-.018-.021-.003-.005-.006-.01.003-.032.006-.012.031-.056.137-.119a1.1 1.1 0 0 1 .408-.13.175.175 0 0 0 .151-.213l-.07-.326a.175.175 0 0 0-.182-.137 1.41 1.41 0 0 0-.331.06c-.019-.082-.051-.198-.092-.234-.066-.057-.302.077-.399.13-.076.04.024.225.072.305a1.217 1.217 0 0 0-.241.204.847.847 0 0 0-.173.287.652.652 0 0 0-.028.313.79.79 0 0 0 .1.28.725.725 0 0 0 .545.367c.095.014.19.013.285 0 .083-.012.16-.026.231-.042l.164-.034a.535.535 0 0 1 .114-.011c.025 0 .046.004.062.011a.055.055 0 0 1 .014.017c.02.035.017.052.004.077a.433.433 0 0 1-.162.15.796.796 0 0 1-.22.089 1.14 1.14 0 0 1-.24.033.175.175 0 0 0-.166.216l.08.342c.02.08.09.136.173.135a1.38 1.38 0 0 0 .365-.058c.005 0 .01-.002.014-.004.018.082.056.219.102.258.067.056.3-.083.396-.138.078-.044-.037-.24-.084-.313a1.47 1.47 0 0 0 .249-.197.892.892 0 0 0 .194-.285.753.753 0 0 0 .058-.33.761.761 0 0 0-.112-.352.72.72 0 0 0-.25-.261Z" fill="#EAF2FC"/><path d="M74.468 29.26a3.695 3.695 0 0 0 0-5.215 3.67 3.67 0 0 0-5.202 0 3.695 3.695 0 0 0 0 5.215 3.671 3.671 0 0 0 5.201 0Z" fill="#D4DFFF"/><path d="M73.292 26.635a1.345 1.345 0 0 0-.392-.352 1.807 1.807 0 0 0-.464-.191 5.952 5.952 0 0 0-.432-.096 5.542 5.542 0 0 1-.248-.051.874.874 0 0 1-.174-.06.257.257 0 0 1-.083-.06c-.009-.01-.013-.03-.016-.044-.001-.01-.002-.02.026-.048.017-.016.085-.07.293-.099a1.89 1.89 0 0 1 .728.06c.17.049.344-.06.375-.235l.1-.56a.298.298 0 0 0-.197-.335 2.417 2.417 0 0 0-.561-.12c.024-.142.049-.346.007-.43-.066-.132-.525-.074-.712-.056-.145.015-.108.372-.085.53a2.056 2.056 0 0 0-.512.163 1.438 1.438 0 0 0-.459.34 1.11 1.11 0 0 0-.247.474c-.04.164-.047.334-.022.507a1.238 1.238 0 0 0 .619.934c.14.082.291.144.45.185.137.035.269.064.39.085l.28.054a.901.901 0 0 1 .188.057.277.277 0 0 1 .09.058.08.08 0 0 1 .01.035c.01.068-.006.093-.043.123a.733.733 0 0 1-.353.132c-.13.02-.266.017-.404-.004a1.973 1.973 0 0 1-.4-.104.298.298 0 0 0-.401.232l-.095.591a.3.3 0 0 0 .184.326c.186.074.392.123.613.147l.024.002c-.023.14-.053.381-.005.473.069.131.526.064.713.041.15-.018.096-.403.07-.55a2.39 2.39 0 0 0 .52-.148c.192-.08.357-.189.49-.321.138-.137.24-.3.306-.483.067-.187.084-.398.051-.627a1.23 1.23 0 0 0-.222-.574Z" fill="#EAF2FC"/><path d="M69.513 14.169a6.051 6.051 0 0 0 0-8.542 6.013 6.013 0 0 0-8.519 0 6.051 6.051 0 0 0 0 8.542 6.013 6.013 0 0 0 8.52 0Z" fill="#D4DFFF"/><path d="M67.095 8.458a2.202 2.202 0 0 0-.86-.069 2.965 2.965 0 0 0-.793.212 9.946 9.946 0 0 0-.658.304 7.11 7.11 0 0 1-.375.18c-.1.045-.196.077-.286.096a.415.415 0 0 1-.167.005c-.022-.004-.047-.026-.065-.044-.012-.012-.023-.022-.013-.088.005-.036.043-.175.284-.42a3.06 3.06 0 0 1 1.007-.645.49.49 0 0 0 .257-.68l-.424-.828a.488.488 0 0 0-.587-.241 3.966 3.966 0 0 0-.852.4c-.108-.209-.278-.499-.414-.566-.218-.108-.759.424-.984.634-.175.164.227.593.414.775a3.38 3.38 0 0 0-.507.723 2.365 2.365 0 0 0-.261.898c-.021.304.028.595.146.864.111.253.27.483.472.683.273.269.566.449.873.534.288.079.576.102.859.067a2.83 2.83 0 0 0 .768-.206c.215-.09.415-.184.594-.278l.417-.207c.104-.052.206-.09.302-.114a.453.453 0 0 1 .175-.013c.008.001.025.011.048.034.08.079.085.129.065.204-.045.172-.155.348-.329.524a2.21 2.21 0 0 1-.531.396 3.259 3.259 0 0 1-.624.264.49.49 0 0 0-.293.7l.462.866a.488.488 0 0 0 .562.24c.315-.088.633-.229.944-.417l.034-.02c.108.204.307.549.46.62.22.103.75-.44.97-.655.18-.174-.273-.621-.451-.785a3.94 3.94 0 0 0 .53-.71c.17-.297.279-.603.321-.908a2.11 2.11 0 0 0-.078-.933 2.133 2.133 0 0 0-.554-.87 2.01 2.01 0 0 0-.858-.526Z" fill="#EAF2FC"/><path d="M7.182 40.07c.95-.952.95-2.496 0-3.449a2.428 2.428 0 0 0-3.44 0 2.444 2.444 0 0 0 0 3.45c.95.953 2.49.953 3.44 0Z" fill="#D4DFFF"/><path d="M6.223 37.788a.885.885 0 0 0-.347-.038 1.19 1.19 0 0 0-.322.075 3.88 3.88 0 0 0-.27.115 3.024 3.024 0 0 1-.153.068.576.576 0 0 1-.117.035.17.17 0 0 1-.067 0 .061.061 0 0 1-.026-.019c-.004-.005-.009-.01-.004-.036.003-.014.02-.07.12-.166a1.268 1.268 0 0 1 .415-.248.198.198 0 0 0 .112-.27l-.16-.34a.197.197 0 0 0-.235-.105 1.604 1.604 0 0 0-.348.15c-.042-.085-.106-.204-.16-.233-.087-.046-.312.162-.406.244-.072.064.084.242.158.318a1.34 1.34 0 0 0-.214.286.955.955 0 0 0-.117.359.735.735 0 0 0 .048.35.882.882 0 0 0 .182.282.814.814 0 0 0 .692.264c.107-.01.212-.034.312-.073.088-.034.17-.07.243-.105l.172-.078a.6.6 0 0 1 .123-.042.184.184 0 0 1 .07-.003c.004 0 .01.005.02.014.031.033.032.053.023.083a.486.486 0 0 1-.139.208.904.904 0 0 1-.22.153 1.325 1.325 0 0 1-.255.098.198.198 0 0 0-.127.28l.176.355a.197.197 0 0 0 .223.104c.129-.032.259-.085.387-.157l.014-.008c.04.085.117.226.178.257.087.044.308-.168.4-.252.074-.068-.103-.254-.173-.323.088-.089.163-.183.223-.28.073-.117.12-.24.141-.362a.85.85 0 0 0-.02-.378.86.86 0 0 0-.212-.357.809.809 0 0 0-.34-.224Z" fill="#EAF2FC"/><path d="M28.571 56.143c.002.803-1.213 1.595-3.003 1.766-2.05.196-4.062-.403-4.492-1.338a.844.844 0 0 1-.082-.355v1.239c0 .16.07.312.192.415.404.342 1.513 1.03 3.881 1.018 2.46-.012 3.223-.82 3.44-1.173a.54.54 0 0 0 .078-.282l-.013-1.29h-.001Z" fill="#F7974D"/><mask id="k" style="mask-type:luminance" maskUnits="userSpaceOnUse" x="20" y="56" width="9" height="3"><path d="M28.571 56.143c.002.803-1.213 1.595-3.003 1.766-2.05.196-4.062-.403-4.492-1.338a.844.844 0 0 1-.082-.355v1.239c0 .16.07.312.192.415.404.342 1.513 1.03 3.881 1.018 2.46-.012 3.223-.82 3.44-1.173a.54.54 0 0 0 .078-.282l-.013-1.29h-.001Z" fill="#fff"/></mask><g mask="url(#k)" fill="#FFCC59"><path opacity=".5" d="M21.255 56.606c0 .076-.074 1.39 0 1.471.076.083.165-1.245.124-1.348-.042-.103-.125-.123-.125-.123Zm.585.591s-.064 1.219-.024 1.227l.039.008s.158-1.156.071-1.196l-.087-.04Zm.962.403s-.1 1.148-.026 1.163c.075.015.178-1.122.178-1.122l-.152-.041Zm1.201.166s-.078 1.215.01 1.234c.087.02.28-1.195.135-1.215l-.145-.02Zm1.647 1.185s-.087-1.224-.009-1.205c.078.02.262 1.215.194 1.225-.068.01-.184-.02-.184-.02Zm1.27-.204s-.114-1.21-.052-1.156c.062.054.29 1.134.171 1.145l-.119.012Zm.825-1.611s.06 1.303.1 1.301c.04-.002.048-1.316-.015-1.355-.062-.04-.085.054-.085.054Z"/></g><path d="M28.585 56.215a.845.845 0 0 0-.082-.354c-.43-.936-2.441-1.535-4.492-1.339-1.79.172-3.019.892-3.017 1.694 0 .117.027.236.082.355.43.935 2.441 1.534 4.492 1.338 1.79-.171 3.019-.891 3.017-1.694Z" fill="#FFCC59"/><mask id="l" style="mask-type:luminance" maskUnits="userSpaceOnUse" x="20" y="54" width="9" height="4"><path d="M28.585 56.215a.845.845 0 0 0-.082-.354c-.43-.936-2.441-1.535-4.492-1.339-1.79.172-3.019.892-3.017 1.694 0 .117.027.236.082.355.43.935 2.441 1.534 4.492 1.338 1.79-.171 3.019-.891 3.017-1.694Z" fill="#fff"/></mask><g mask="url(#l)"><path opacity=".5" d="M22.033 55.432s-1.073 1.01.289 1.803c1.362.793 4.93.215 4.93.215s-3.787-.36-4.41-.809c-.624-.448-.562-.938-.562-.938l-.247-.271" fill="#F7974D"/></g><path opacity=".5" d="M28.421 56.535s.073 1.392.049 1.411c-.024.019-.093-1.078-.093-1.24 0-.163.044-.17.044-.17Z" fill="#FFCC59"/><path d="M29.676 54.77c.002.802-1.213 1.595-3.003 1.766-2.05.196-4.062-.403-4.492-1.338a.844.844 0 0 1-.082-.355v1.239c0 .16.07.312.192.415.405.342 1.513 1.03 3.881 1.018 2.46-.012 3.223-.82 3.44-1.173a.54.54 0 0 0 .078-.282l-.013-1.29Z" fill="#F7974D"/><mask id="m" style="mask-type:luminance" maskUnits="userSpaceOnUse" x="22" y="54" width="8" height="4"><path d="M29.676 54.77c.002.802-1.213 1.595-3.003 1.766-2.05.196-4.062-.403-4.492-1.338a.844.844 0 0 1-.082-.355v1.239c0 .16.07.312.192.415.405.342 1.513 1.03 3.881 1.018 2.46-.012 3.223-.82 3.44-1.173a.54.54 0 0 0 .078-.282l-.013-1.29Z" fill="#fff"/></mask><g mask="url(#m)" fill="#FFCC59"><path opacity=".5" d="M22.36 55.233c0 .076-.075 1.39 0 1.471.076.083.165-1.245.123-1.348-.04-.103-.124-.123-.124-.123Zm.584.591s-.063 1.219-.024 1.227l.04.008s.158-1.156.07-1.196l-.086-.04Zm.963.403s-.1 1.148-.026 1.163c.074.015.178-1.121.178-1.121l-.152-.042Zm1.201.166s-.078 1.215.01 1.234c.087.02.28-1.195.135-1.215l-.145-.02Zm1.648 1.186s-.088-1.225-.01-1.206c.077.02.262 1.215.194 1.225-.068.01-.185-.02-.185-.02Zm1.269-.205s-.114-1.21-.052-1.156c.062.054.29 1.134.17 1.145l-.118.011Zm.825-1.611s.06 1.303.1 1.301c.04-.002.048-1.316-.014-1.355-.063-.04-.086.054-.086.054Z"/></g><path d="M29.69 54.843a.845.845 0 0 0-.082-.355c-.43-.935-2.441-1.535-4.492-1.338-1.79.17-3.019.891-3.017 1.693 0 .117.027.236.082.355.43.935 2.441 1.535 4.492 1.338 1.79-.17 3.019-.89 3.017-1.693Z" fill="#FFCC59"/><mask id="n" style="mask-type:luminance" maskUnits="userSpaceOnUse" x="22" y="53" width="8" height="4"><path d="M29.69 54.843a.845.845 0 0 0-.082-.355c-.43-.935-2.441-1.535-4.492-1.338-1.79.17-3.019.891-3.017 1.693 0 .117.027.236.082.355.43.935 2.441 1.535 4.492 1.338 1.79-.17 3.019-.89 3.017-1.693Z" fill="#fff"/></mask><g mask="url(#n)"><path opacity=".5" d="M28.585 53.86s1.581 2.82-4.375 2.222l3.265-1.95 1.11-.272Z" fill="#F7974D"/></g><path opacity=".5" d="M29.526 55.163s.073 1.391.049 1.41c-.024.02-.093-1.077-.093-1.24 0-.163.044-.17.044-.17Z" fill="#FFCC59"/><path d="M27.715 53.338c.002.802-1.213 1.594-3.003 1.765-2.051.196-4.062-.403-4.492-1.338a.844.844 0 0 1-.082-.355v1.24c0 .16.07.312.191.415.405.342 1.513 1.029 3.882 1.017 2.46-.012 3.223-.819 3.44-1.172a.54.54 0 0 0 .078-.283l-.014-1.289Z" fill="#F7974D"/><mask id="o" style="mask-type:luminance" maskUnits="userSpaceOnUse" x="20" y="53" width="8" height="4"><path d="M27.715 53.338c.002.802-1.213 1.594-3.003 1.765-2.051.196-4.062-.403-4.492-1.338a.844.844 0 0 1-.082-.355v1.24c0 .16.07.312.191.415.405.342 1.513 1.029 3.882 1.017 2.46-.012 3.223-.819 3.44-1.172a.54.54 0 0 0 .078-.283l-.014-1.289Z" fill="#fff"/></mask><g mask="url(#o)" fill="#FFCC59"><path opacity=".5" d="M20.398 53.8c0 .076-.074 1.39.001 1.472.075.082.164-1.246.123-1.349-.04-.102-.124-.122-.124-.122Zm.585.591s-.063 1.22-.024 1.227l.04.008s.157-1.156.07-1.195l-.086-.04Zm.962.403s-.1 1.148-.025 1.163c.074.015.178-1.121.178-1.121l-.153-.042Zm1.201.166s-.077 1.215.01 1.234c.087.02.281-1.195.136-1.214l-.146-.02Zm1.648 1.186s-.087-1.225-.01-1.206c.078.02.262 1.215.194 1.225a.628.628 0 0 1-.184-.02Zm1.27-.204s-.114-1.21-.052-1.157c.062.055.29 1.135.17 1.146l-.118.01Zm.824-1.612s.06 1.303.1 1.302c.041-.003.048-1.317-.014-1.356-.062-.039-.085.054-.085.054Z"/></g><path d="M27.728 53.41a.845.845 0 0 0-.08-.355c-.431-.935-2.442-1.535-4.493-1.338-1.79.171-3.019.891-3.017 1.693 0 .117.027.236.081.355.43.935 2.442 1.535 4.493 1.338 1.79-.17 3.018-.89 3.016-1.693Z" fill="#FFCC59"/><path opacity=".5" d="M27.565 53.73s.073 1.391.048 1.41c-.024.02-.093-1.077-.093-1.24 0-.162.045-.17.045-.17Z" fill="#FFCC59"/><path opacity=".5" d="M24.618 53.56a.92.92 0 0 0-.276-.214 1.96 1.96 0 0 0-.356-.142 7.455 7.455 0 0 0-.343-.093 6.788 6.788 0 0 1-.199-.052.938.938 0 0 1-.135-.047.202.202 0 0 1-.06-.038c-.007-.006-.007-.016-.007-.024 0-.006 0-.01.028-.021.016-.006.08-.025.256-.018a2.455 2.455 0 0 1 .593.106c.134.043.293.008.343-.075l.16-.263c.041-.069-.008-.147-.116-.185-.14-.05-.291-.09-.447-.119.04-.067.088-.164.066-.21-.037-.072-.424-.092-.58-.102-.123-.008-.142.17-.144.25a2.791 2.791 0 0 0-.447.026 1.589 1.589 0 0 0-.425.118.682.682 0 0 0-.27.206.447.447 0 0 0-.09.246.434.434 0 0 0 .107.31.934.934 0 0 0 .275.213c.105.056.22.102.346.139.109.032.213.06.311.083l.223.056c.056.014.106.03.148.048.03.012.052.025.066.038.002.002.005.008.004.018-.001.034-.018.045-.053.056a.96.96 0 0 1-.31.027 1.865 1.865 0 0 1-.333-.045 2.372 2.372 0 0 1-.317-.093c-.136-.052-.312-.018-.363.071l-.16.28c-.038.065.006.14.107.179.143.056.306.102.486.137l.019.004c-.039.066-.097.18-.07.23.039.072.426.088.583.096.128.007.136-.187.135-.261.158.004.31-.003.45-.018.17-.02.321-.055.45-.106a.891.891 0 0 0 .32-.204.45.45 0 0 0 .024-.607Z" fill="#F7974D"/><path d="M30.491 51.733c.002.803-1.213 1.595-3.002 1.766-2.051.196-4.063-.403-4.493-1.338a.843.843 0 0 1-.081-.355v1.24c0 .159.07.311.191.414.405.343 1.513 1.03 3.881 1.018 2.461-.012 3.224-.819 3.44-1.172a.54.54 0 0 0 .079-.283l-.014-1.29Z" fill="#F7974D"/><mask id="p" style="mask-type:luminance" maskUnits="userSpaceOnUse" x="22" y="51" width="9" height="4"><path d="M30.491 51.733c.002.803-1.213 1.595-3.002 1.766-2.051.196-4.063-.403-4.493-1.338a.843.843 0 0 1-.081-.355v1.24c0 .159.07.311.191.414.405.343 1.513 1.03 3.881 1.018 2.461-.012 3.224-.819 3.44-1.172a.54.54 0 0 0 .079-.283l-.014-1.29Z" fill="#fff"/></mask><g mask="url(#p)" fill="#FFCC59"><path opacity=".5" d="M23.175 52.197c0 .075-.074 1.389.001 1.47.075.083.164-1.245.123-1.348-.041-.102-.125-.123-.125-.123Zm.585.59s-.064 1.22-.024 1.227l.04.008s.157-1.156.07-1.195l-.086-.04Zm.962.403s-.1 1.148-.025 1.163c.074.015.178-1.121.178-1.121l-.153-.042Zm1.201.166s-.077 1.215.01 1.234c.087.02.281-1.195.136-1.215l-.146-.02Zm1.648 1.185s-.087-1.224-.01-1.205c.078.02.262 1.215.194 1.225-.068.01-.184-.02-.184-.02Zm1.269-.203s-.113-1.211-.052-1.157c.062.054.29 1.135.171 1.145l-.118.012Zm.825-1.612s.06 1.303.1 1.301c.04-.002.048-1.316-.014-1.355-.063-.04-.086.054-.086.054Z"/></g><path d="M30.505 51.806a.845.845 0 0 0-.081-.355c-.43-.935-2.442-1.535-4.493-1.338-1.79.17-3.018.89-3.016 1.693a.84.84 0 0 0 .081.355c.43.935 2.442 1.535 4.493 1.338 1.79-.17 3.018-.891 3.016-1.693Z" fill="#FFCC59"/><path opacity=".5" d="M30.341 52.126s.073 1.391.049 1.41c-.024.02-.093-1.077-.093-1.24 0-.163.044-.17.044-.17Z" fill="#FFCC59"/><path d="M27.943 51.884a.92.92 0 0 0-.275-.214 1.96 1.96 0 0 0-.357-.143 7.33 7.33 0 0 0-.343-.093 6.86 6.86 0 0 1-.198-.051.938.938 0 0 1-.136-.048.202.202 0 0 1-.06-.038c-.006-.006-.007-.016-.007-.024 0-.005 0-.01.029-.02.015-.007.08-.026.255-.018a2.455 2.455 0 0 1 .593.106c.134.042.293.007.343-.075l.16-.264c.041-.068-.008-.146-.116-.185-.14-.05-.29-.09-.447-.118.04-.067.089-.164.066-.21-.036-.072-.423-.092-.58-.103-.123-.008-.142.171-.144.251a2.791 2.791 0 0 0-.446.026 1.592 1.592 0 0 0-.426.118.68.68 0 0 0-.27.206.448.448 0 0 0-.09.246.434.434 0 0 0 .107.31.934.934 0 0 0 .275.213c.105.055.221.102.346.138.109.032.214.06.311.083l.224.056c.055.014.105.03.147.048.03.012.052.025.067.038.002.002.004.008.004.019-.002.034-.019.045-.054.055a.96.96 0 0 1-.31.028 1.865 1.865 0 0 1-.333-.046 2.372 2.372 0 0 1-.316-.093c-.137-.051-.313-.017-.363.072l-.161.28c-.038.065.006.14.107.178.143.056.306.102.486.137l.019.004c-.038.066-.097.181-.07.231.039.072.426.087.583.096.128.007.136-.188.135-.262.158.004.31-.002.45-.018.17-.019.321-.055.45-.105a.892.892 0 0 0 .32-.205.451.451 0 0 0 .025-.607v.001Zm-14.331 4.67v.883c0 .12.078.227.192.263.475.151 1.854.504 4.317.48 2.452-.023 3.869-.317 4.369-.444a.275.275 0 0 0 .207-.267v-.915h-9.085Z" fill="#F7974D"/><mask id="q" style="mask-type:luminance" maskUnits="userSpaceOnUse" x="13" y="56" width="10" height="3"><path d="M13.612 56.554v.883c0 .12.078.227.192.263.475.151 1.854.504 4.317.48 2.452-.023 3.869-.317 4.369-.444a.275.275 0 0 0 .207-.267v-.915h-9.085Z" fill="#fff"/></mask><g mask="url(#q)" fill="#FFCC59"><path opacity=".5" d="M21.77 56.647s.056 1.415-.084 1.373c-.14-.042-.126-1.313-.126-1.313l.21-.06Zm-.98.16s.055 1.416-.085 1.374c-.14-.043-.126-1.314-.126-1.314l.21-.06Zm-1.544.069s.056 1.416-.084 1.374c-.14-.042-.126-1.313-.126-1.313l.21-.06Zm-1.665 1.417s-.056-1.416.084-1.374c.14.043.126 1.314.126 1.314l-.21.06Zm-1.275-.111s-.056-1.416.084-1.374c.14.042.127 1.313.127 1.313l-.21.06Zm-1.381-.127s-.056-1.416.084-1.374c.14.043.126 1.314.126 1.314l-.21.06Zm-.981-.127s-.056-1.415.084-1.373c.14.042.126 1.313.126 1.313l-.21.06Z"/></g><path d="M18.155 57.014c2.508 0 4.542-.206 4.542-.46s-2.034-.46-4.542-.46c-2.509 0-4.543.206-4.543.46s2.034.46 4.543.46Z" fill="#FFCC59"/><mask id="r" style="mask-type:luminance" maskUnits="userSpaceOnUse" x="13" y="56" width="10" height="2"><path d="M18.155 57.014c2.508 0 4.542-.206 4.542-.46s-2.034-.46-4.542-.46c-2.509 0-4.543.206-4.543.46s2.034.46 4.543.46Z" fill="#fff"/></mask><g mask="url(#r)"><path d="M13.743 56.444s2.991.567 5.935.262c2.943-.304 2.924-.448 2.924-.448l-1.314-.24-7.545.426" fill="#F78537"/></g><path d="M12.317 55.019v.883c0 .12.078.226.191.263.476.151 1.854.504 4.318.48 2.451-.024 3.869-.318 4.369-.445a.275.275 0 0 0 .207-.266v-.915h-9.085Z" fill="#F7974D"/><mask id="s" style="mask-type:luminance" maskUnits="userSpaceOnUse" x="12" y="55" width="10" height="2"><path d="M12.317 55.019v.883c0 .12.078.226.191.263.476.151 1.854.504 4.318.48 2.451-.024 3.869-.318 4.369-.445a.275.275 0 0 0 .207-.266v-.915h-9.085Z" fill="#fff"/></mask><g mask="url(#s)" fill="#FFCC59"><path opacity=".5" d="M13.153 55.137s.015 1.699.059 1.602c.043-.097.184-1.588.184-1.588l-.243-.014Zm1.34 1.51c-.004-.043-.024-1.372.04-1.323.065.048.057 1.323.057 1.323h-.097Zm1.717.06s-.082-1.395-.022-1.372c.061.023.26 1.27.23 1.371-.028.102-.207.001-.207.001Zm1.881.198s-.073-1.775-.004-1.723c.069.052.138 1.686.138 1.686l-.233.018"/></g><path d="M16.86 55.478c2.508 0 4.542-.206 4.542-.46s-2.034-.46-4.542-.46c-2.51 0-4.543.206-4.543.46 0 .255 2.034.46 4.543.46Z" fill="#FFCC59"/><mask id="t" style="mask-type:luminance" maskUnits="userSpaceOnUse" x="12" y="54" width="10" height="2"><path d="M16.86 55.478c2.508 0 4.542-.206 4.542-.46s-2.034-.46-4.542-.46c-2.51 0-4.543.206-4.543.46 0 .255 2.034.46 4.543.46Z" fill="#fff"/></mask><g mask="url(#t)"><path opacity=".5" d="M14.483 54.559s.61.92 3.283.92c2.672 0 1.961-.14 1.961-.14s-4.623-.924-4.753-.934c-.13-.01-.49.154-.49.154h-.001Z" fill="#F7974D"/></g><path d="m13.59 52.79-.188.864a.276.276 0 0 0 .132.298c.432.25 1.704.889 4.116 1.392 2.4.5 3.847.516 4.363.5a.275.275 0 0 0 .259-.217l.194-.894-8.876-1.942Z" fill="#F7974D"/><mask id="u" style="mask-type:luminance" maskUnits="userSpaceOnUse" x="13" y="52" width="10" height="4"><path d="m13.59 52.79-.188.864a.276.276 0 0 0 .132.298c.432.25 1.704.889 4.116 1.392 2.4.5 3.847.516 4.363.5a.275.275 0 0 0 .259-.217l.194-.894-8.876-1.942Z" fill="#fff"/></mask><g mask="url(#u)" fill="#FFCC59"><path opacity=".5" d="M13.75 54.205c.04-.013.352-1.269.422-1.208.07.062-.305 1.277-.305 1.277l-.116-.07Zm.733.354c.08-.034.478-1.272.542-1.177.064.096-.389 1.236-.389 1.236l-.153-.06Zm1.322.533s.383-1.501.452-1.415c.069.086-.318 1.413-.318 1.413l-.134.002Zm1.69.315c.077-.205.266-1.318.31-1.322.042-.003-.147 1.375-.147 1.375l-.163-.053Zm1.542.358s.103-1.477.207-1.433c.103.044-.062 1.433-.062 1.433h-.145Zm1.251.082s.084-1.375.147-1.288c.063.087-.016 1.288-.016 1.288h-.13Zm1.237-1.147s-.103 1.315-.038 1.257c.064-.058.135-1.218.135-1.218l-.097-.039Z"/></g><path d="M22.467 54.732c-.054.249-2.085.015-4.536-.521-2.45-.536-4.394-1.172-4.34-1.42.054-.249 2.085-.015 4.536.521 2.45.536 4.394 1.172 4.34 1.42Z" fill="#FFCC59"/><path d="M18.155 55.46s2.24.452 3.247.372c0 0 .068.266-.207.368 0 0-2.441-.025-3.04-.74Z" fill="#F78537"/><path d="M27.735 33.47c1.23 1.755 1.683 3.874 1.843 5.98.156 2.051.069 4.112.212 6.164.14 1.985.52 4.026 1.67 5.692a7.667 7.667 0 0 0 2.186 2.114 8.01 8.01 0 0 0 2.581 1.038c1.886.416 3.839.3 5.754.265.236-.004.472-.008.709-.009.223-.001.224-.35 0-.348-1.9.013-3.825.171-5.711-.12-.907-.14-1.801-.392-2.618-.816a7.272 7.272 0 0 1-2.268-1.855c-1.259-1.538-1.738-3.525-1.916-5.467-.186-2.027-.101-4.068-.215-6.1-.118-2.088-.45-4.22-1.509-6.057a8.686 8.686 0 0 0-.418-.657c-.128-.182-.429-.008-.3.176Z" fill="#1C056D"/><path d="M32.498 26.012a8.306 8.306 0 0 0-2.089-2.494 11.156 11.156 0 0 0-2.663-1.572 36.659 36.659 0 0 0-2.553-.963 30.419 30.419 0 0 1-1.472-.533 5.3 5.3 0 0 1-1.011-.515 1.581 1.581 0 0 1-.453-.438c-.046-.069-.056-.195-.056-.289 0-.063 0-.122.201-.269.113-.081.58-.348 1.874-.348a9.97 9.97 0 0 1 2.126.257c.779.171 1.54.422 2.264.747a1.836 1.836 0 0 0 2.495-1.106l1.094-3.33a1.844 1.844 0 0 0-.907-2.217 14.884 14.884 0 0 0-3.859-1.349c.276-.842.634-2.135.447-2.698-.29-.872-3.139-.92-4.297-.968-.986-.042-.994 2.607-.974 3.398-1.02.08-1.948.254-2.768.518-1.226.396-2.267.957-3.093 1.67a6.841 6.841 0 0 0-1.923 2.676 8.285 8.285 0 0 0-.58 3.075c0 1.444.297 2.708.881 3.757a8.35 8.35 0 0 0 2.088 2.489 10.727 10.727 0 0 0 2.583 1.523c.81.336 1.588.626 2.312.86l1.658.575c.414.144.784.315 1.1.51.222.136.39.283.5.438.017.023.036.094.036.22 0 .422-.12.566-.374.713-.577.332-1.34.502-2.27.502a8.37 8.37 0 0 1-2.464-.384c-.882-.272-1.849-.379-2.53-.757-1.018-.568-2.124-.276-2.47.84l-1.097 3.529a1.845 1.845 0 0 0 .843 2.147c.947.543 2.01.984 3.162 1.314-.241.835-.494 1.944-.314 2.45.308.865 3.157.854 4.316.878.776.017.912-1.615.918-2.7a15.024 15.024 0 0 0 3.756-.457c1.244-.325 2.346-.841 3.275-1.535a7.918 7.918 0 0 0 2.287-2.678c.571-1.084.86-2.358.86-3.786s-.288-2.661-.859-3.699Z" fill="#F7974D"/><path d="M31.11 25.531a8.305 8.305 0 0 0-2.09-2.494 11.156 11.156 0 0 0-2.662-1.572 36.657 36.657 0 0 0-2.553-.963 30.672 30.672 0 0 1-1.473-.533 5.306 5.306 0 0 1-1.01-.516 1.583 1.583 0 0 1-.454-.437c-.046-.069-.056-.195-.056-.289 0-.063 0-.122.201-.269.113-.082.58-.348 1.874-.348a9.97 9.97 0 0 1 2.126.257c.779.171 1.54.422 2.264.746a1.836 1.836 0 0 0 2.495-1.105l1.095-3.33a1.844 1.844 0 0 0-.908-2.217 14.885 14.885 0 0 0-3.32-1.23c.271-.842.599-2.066.418-2.61-.29-.872-3.139-.92-4.297-.969-.903-.037-.985 2.177-.978 3.16-1.222.059-2.32.243-3.273.55-1.226.395-2.267.957-3.094 1.67a6.841 6.841 0 0 0-1.922 2.676 8.286 8.286 0 0 0-.58 3.075c0 1.444.297 2.708.88 3.757a8.353 8.353 0 0 0 2.089 2.489 10.73 10.73 0 0 0 2.583 1.523c.81.336 1.588.625 2.312.86l1.658.575c.414.144.784.315 1.1.51.221.136.39.283.5.438.017.023.036.094.036.22 0 .422-.12.566-.375.712-.576.333-1.34.502-2.27.502a8.37 8.37 0 0 1-2.464-.384 12.311 12.311 0 0 1-2.353-.98 1.836 1.836 0 0 0-2.647 1.064l-1.095 3.529a1.845 1.845 0 0 0 .842 2.147c1.07.613 2.285 1.097 3.614 1.436l.142.035c-.263.834-.656 2.28-.444 2.878.308.865 3.157.855 4.317.879.939.02.941-2.378.908-3.292a14.744 14.744 0 0 0 3.3-.45c1.245-.326 2.347-.842 3.276-1.536a7.92 7.92 0 0 0 2.287-2.678c.571-1.084.86-2.358.86-3.786s-.288-2.66-.859-3.699Z" fill="#FFCC59"/></g><defs><clipPath id="a"><path fill="#fff" d="M0 0h81.796v59H0z"/></clipPath></defs></svg>