<svg width="36" height="51" viewBox="0 0 36 51" fill="none" xmlns="http://www.w3.org/2000/svg">
<g clip-path="url(#clip0_27_1474)">
<path d="M18.5765 9.21056H17.2098C12.4506 9.21056 8.59247 13.0862 8.59247 17.867V30.2176C8.59247 34.9984 12.4506 38.874 17.2098 38.874H18.5765C23.3357 38.874 27.1938 34.9984 27.1938 30.2176V17.867C27.1938 13.0862 23.3357 9.21056 18.5765 9.21056Z" fill="#8532D8"/>
<path d="M17.8907 44.5451C10.3269 44.5451 4.1745 38.3648 4.1745 30.7667C4.1745 30.4073 4.46274 30.1128 4.82552 30.1128C5.1883 30.1128 5.47654 30.4023 5.47654 30.7667C5.47654 37.6459 11.0475 43.2372 17.8907 43.2372C25.201 43.2272 30.3048 38.1002 30.3048 30.7667C30.3048 30.4073 30.5931 30.1128 30.9558 30.1128C31.3186 30.1128 31.6069 30.4023 31.6069 30.7667C31.6069 38.869 25.9663 44.5351 17.8907 44.5451Z" fill="#8532D8"/>
<path d="M18.5367 43.8862H17.2396V50.6406H18.5367V43.8862Z" fill="#8532D8"/>
<path d="M26.0111 51H9.77529C9.41748 51 9.12427 50.7104 9.12427 50.346C9.12427 49.9816 9.41251 49.692 9.77529 49.692H26.0111C26.3689 49.692 26.6621 49.9816 26.6621 50.346C26.6621 50.7104 26.3739 51 26.0111 51Z" fill="#8532D8"/>
<path d="M4.2838 14.6121C4.19434 14.7818 3.21036 14.4324 2.04249 13.9381C0.87463 13.4339 -0.0546913 12.9597 -2.53541e-05 12.78C0.0596102 12.6052 1.1082 12.7949 2.30588 13.3091C3.50356 13.8183 4.36828 14.4473 4.2838 14.6121Z" fill="#8532D8"/>
<path d="M9.51684 7.62803C9.36775 7.73786 8.52291 6.84426 7.63335 5.63117C6.74379 4.41807 6.14246 3.33976 6.29155 3.22993C6.44064 3.12011 7.28548 4.0137 8.17504 5.2268C9.0646 6.4399 9.66593 7.51821 9.51684 7.62803Z" fill="#8532D8"/>
<path d="M17.9354 5.11697C17.7465 5.12696 17.6074 3.97876 17.6273 2.55599C17.6422 1.12823 17.8062 -0.014976 17.995 5.248e-07C18.1789 0.014977 18.318 1.16318 18.3031 2.56098C18.2882 3.95879 18.1242 5.10699 17.9354 5.11697Z" fill="#8532D8"/>
<path d="M28.7393 3.28984C28.8984 3.38469 28.5008 4.34818 27.7355 5.36658C26.9751 6.38498 26.1601 7.03896 26.0259 6.90916C25.8868 6.77936 26.4583 5.94567 27.1938 4.95722C27.9343 3.97377 28.5753 3.19 28.7393 3.28984Z" fill="#8532D8"/>
<path d="M35.995 12.111C36.0895 12.2757 35.2247 12.9447 34.0668 13.6037C32.9089 14.2676 31.8951 14.672 31.8056 14.5072C31.7112 14.3425 32.5759 13.6735 33.7339 13.0146C34.8918 12.3506 35.9056 11.9463 35.995 12.111Z" fill="#8532D8"/>
</g>
<defs>
<clipPath id="clip0_27_1474">
<rect width="36" height="51" fill="white"/>
</clipPath>
</defs>
</svg>
