<svg width="164" height="59" viewBox="0 0 164 59" fill="none" xmlns="http://www.w3.org/2000/svg">
<rect width="164" height="58.463" rx="15" fill="#7EE150"/>
<path d="M18.372 20V10.2H19.884V18.544H24.476V20H18.372ZM29.5454 20.14C28.7894 20.14 28.1174 19.9813 27.5294 19.664C26.9508 19.3373 26.4934 18.894 26.1574 18.334C25.8308 17.774 25.6674 17.13 25.6674 16.402C25.6674 15.8233 25.7608 15.296 25.9474 14.82C26.1341 14.344 26.3908 13.9333 26.7174 13.588C27.0534 13.2333 27.4501 12.9627 27.9074 12.776C28.3741 12.58 28.8781 12.482 29.4194 12.482C29.8954 12.482 30.3388 12.5753 30.7494 12.762C31.1601 12.9393 31.5148 13.1867 31.8134 13.504C32.1214 13.8213 32.3548 14.1993 32.5134 14.638C32.6814 15.0673 32.7608 15.5387 32.7514 16.052L32.7374 16.668H26.7314L26.4094 15.52H31.4914L31.2814 15.758V15.422C31.2534 15.114 31.1508 14.8387 30.9734 14.596C30.7961 14.3533 30.5721 14.162 30.3014 14.022C30.0308 13.882 29.7368 13.812 29.4194 13.812C28.9154 13.812 28.4908 13.91 28.1454 14.106C27.8001 14.2927 27.5388 14.5727 27.3614 14.946C27.1841 15.31 27.0954 15.7627 27.0954 16.304C27.0954 16.8173 27.2028 17.2653 27.4174 17.648C27.6321 18.0213 27.9354 18.3107 28.3274 18.516C28.7194 18.7213 29.1721 18.824 29.6854 18.824C30.0494 18.824 30.3854 18.7633 30.6934 18.642C31.0108 18.5207 31.3514 18.3013 31.7154 17.984L32.4434 19.006C32.2194 19.23 31.9441 19.426 31.6174 19.594C31.3001 19.762 30.9594 19.8973 30.5954 20C30.2408 20.0933 29.8908 20.14 29.5454 20.14ZM37.1465 20.14C36.5399 20.14 35.9845 19.972 35.4805 19.636C34.9859 19.3 34.5892 18.8427 34.2905 18.264C33.9919 17.6853 33.8425 17.032 33.8425 16.304C33.8425 15.5667 33.9919 14.9133 34.2905 14.344C34.5985 13.7653 35.0092 13.3127 35.5225 12.986C36.0452 12.6593 36.6285 12.496 37.2725 12.496C37.6552 12.496 38.0052 12.552 38.3225 12.664C38.6399 12.776 38.9152 12.9347 39.1485 13.14C39.3912 13.336 39.5872 13.5647 39.7365 13.826C39.8952 14.0873 39.9932 14.3673 40.0305 14.666L39.7085 14.554V12.65H41.1645V20H39.7085V18.25L40.0445 18.152C39.9885 18.404 39.8719 18.6513 39.6945 18.894C39.5265 19.1273 39.3072 19.3373 39.0365 19.524C38.7752 19.7107 38.4812 19.86 38.1545 19.972C37.8372 20.084 37.5012 20.14 37.1465 20.14ZM37.5245 18.81C37.9632 18.81 38.3505 18.7027 38.6865 18.488C39.0225 18.2733 39.2839 17.9793 39.4705 17.606C39.6665 17.2233 39.7645 16.7893 39.7645 16.304C39.7645 15.828 39.6665 15.4033 39.4705 15.03C39.2839 14.6567 39.0225 14.3627 38.6865 14.148C38.3505 13.9333 37.9632 13.826 37.5245 13.826C37.0952 13.826 36.7125 13.9333 36.3765 14.148C36.0499 14.3627 35.7885 14.6567 35.5925 15.03C35.4059 15.4033 35.3125 15.828 35.3125 16.304C35.3125 16.7893 35.4059 17.2233 35.5925 17.606C35.7885 17.9793 36.0499 18.2733 36.3765 18.488C36.7125 18.7027 37.0952 18.81 37.5245 18.81ZM43.1779 20V12.65H44.6339V14.96L44.4939 14.4C44.5966 14.0453 44.7693 13.7233 45.0119 13.434C45.2639 13.1447 45.5486 12.916 45.8659 12.748C46.1926 12.58 46.5286 12.496 46.8739 12.496C47.0326 12.496 47.1819 12.51 47.3219 12.538C47.4713 12.566 47.5879 12.5987 47.6719 12.636L47.2939 14.204C47.1819 14.1573 47.0559 14.12 46.9159 14.092C46.7853 14.0547 46.6546 14.036 46.5239 14.036C46.2719 14.036 46.0293 14.0873 45.7959 14.19C45.5719 14.2833 45.3713 14.4187 45.1939 14.596C45.0259 14.764 44.8906 14.9647 44.7879 15.198C44.6853 15.422 44.6339 15.6693 44.6339 15.94V20H43.1779ZM48.8244 20V12.65H50.2664V14.162L50.0144 14.33C50.1077 14.0033 50.2897 13.7047 50.5604 13.434C50.8311 13.154 51.1531 12.93 51.5264 12.762C51.8997 12.5847 52.2824 12.496 52.6744 12.496C53.2344 12.496 53.7011 12.608 54.0744 12.832C54.4477 13.0467 54.7277 13.378 54.9144 13.826C55.1011 14.274 55.1944 14.8387 55.1944 15.52V20H53.7524V15.618C53.7524 15.198 53.6964 14.8527 53.5844 14.582C53.4724 14.302 53.2997 14.1013 53.0664 13.98C52.8331 13.8493 52.5437 13.7933 52.1984 13.812C51.9184 13.812 51.6617 13.8587 51.4284 13.952C51.1951 14.036 50.9897 14.1573 50.8124 14.316C50.6444 14.4747 50.5091 14.6613 50.4064 14.876C50.3131 15.0813 50.2664 15.3053 50.2664 15.548V20H49.5524C49.4311 20 49.3097 20 49.1884 20C49.0671 20 48.9457 20 48.8244 20ZM24.77 35V25.2H26.282V35H24.77ZM18.372 35V25.2H19.884V35H18.372ZM19.03 30.842V29.386H25.442V30.842H19.03ZM31.9624 35.14C31.2437 35.14 30.5997 34.9767 30.0304 34.65C29.4704 34.314 29.0271 33.8613 28.7004 33.292C28.3737 32.7133 28.2104 32.0553 28.2104 31.318C28.2104 30.5807 28.3737 29.9273 28.7004 29.358C29.0271 28.7793 29.4704 28.3267 30.0304 28C30.5997 27.664 31.2437 27.496 31.9624 27.496C32.6717 27.496 33.3064 27.664 33.8664 28C34.4357 28.3267 34.8837 28.7793 35.2104 29.358C35.5371 29.9273 35.7004 30.5807 35.7004 31.318C35.7004 32.0553 35.5371 32.7133 35.2104 33.292C34.8837 33.8613 34.4357 34.314 33.8664 34.65C33.3064 34.9767 32.6717 35.14 31.9624 35.14ZM31.9624 33.824C32.4011 33.824 32.7931 33.7167 33.1384 33.502C33.4837 33.278 33.7544 32.9793 33.9504 32.606C34.1464 32.2233 34.2397 31.794 34.2304 31.318C34.2397 30.8327 34.1464 30.4033 33.9504 30.03C33.7544 29.6473 33.4837 29.3487 33.1384 29.134C32.7931 28.9193 32.4011 28.812 31.9624 28.812C31.5237 28.812 31.1271 28.924 30.7724 29.148C30.4271 29.3627 30.1564 29.6613 29.9604 30.044C29.7644 30.4173 29.6711 30.842 29.6804 31.318C29.6711 31.794 29.7644 32.2233 29.9604 32.606C30.1564 32.9793 30.4271 33.278 30.7724 33.502C31.1271 33.7167 31.5237 33.824 31.9624 33.824ZM38.8042 35L36.2982 27.65L37.7542 27.636L39.5462 33.138L39.2242 33.11L41.1702 28.812H42.0382L43.9982 33.124L43.6202 33.152L45.4262 27.65H46.8822L44.4042 35H43.4102L41.3662 30.324L41.6882 30.366L39.7842 35H38.8042ZM53.0293 35V25.774H54.4713V35H53.0293ZM51.5033 29.05V27.65H56.1793V29.05H51.5033ZM60.728 35.14C60.0093 35.14 59.3653 34.9767 58.796 34.65C58.236 34.314 57.7927 33.8613 57.466 33.292C57.1393 32.7133 56.976 32.0553 56.976 31.318C56.976 30.5807 57.1393 29.9273 57.466 29.358C57.7927 28.7793 58.236 28.3267 58.796 28C59.3653 27.664 60.0093 27.496 60.728 27.496C61.4373 27.496 62.072 27.664 62.632 28C63.2013 28.3267 63.6493 28.7793 63.976 29.358C64.3027 29.9273 64.466 30.5807 64.466 31.318C64.466 32.0553 64.3027 32.7133 63.976 33.292C63.6493 33.8613 63.2013 34.314 62.632 34.65C62.072 34.9767 61.4373 35.14 60.728 35.14ZM60.728 33.824C61.1667 33.824 61.5587 33.7167 61.904 33.502C62.2493 33.278 62.52 32.9793 62.716 32.606C62.912 32.2233 63.0053 31.794 62.996 31.318C63.0053 30.8327 62.912 30.4033 62.716 30.03C62.52 29.6473 62.2493 29.3487 61.904 29.134C61.5587 28.9193 61.1667 28.812 60.728 28.812C60.2893 28.812 59.8927 28.924 59.538 29.148C59.1927 29.3627 58.922 29.6613 58.726 30.044C58.53 30.4173 58.4367 30.842 58.446 31.318C58.4367 31.794 58.53 32.2233 58.726 32.606C58.922 32.9793 59.1927 33.278 59.538 33.502C59.8927 33.7167 60.2893 33.824 60.728 33.824ZM18.946 43.28C18.6847 43.28 18.4467 43.2147 18.232 43.084C18.0267 42.944 17.8633 42.7573 17.742 42.524C17.6207 42.2813 17.56 42.006 17.56 41.698C17.56 41.4553 17.6113 41.2173 17.714 40.984C17.8167 40.7507 17.9567 40.5313 18.134 40.326C18.3207 40.1207 18.5353 39.9387 18.778 39.78C19.0207 39.6213 19.282 39.5 19.562 39.416L20.094 40.06C19.73 40.228 19.4313 40.4193 19.198 40.634C18.9647 40.8487 18.848 41.0353 18.848 41.194C18.848 41.3153 18.8993 41.4227 19.002 41.516C19.1047 41.6093 19.198 41.6933 19.282 41.768C19.4873 41.936 19.6227 42.076 19.688 42.188C19.7627 42.3 19.8 42.4167 19.8 42.538C19.8 42.762 19.7207 42.944 19.562 43.084C19.4033 43.2147 19.198 43.28 18.946 43.28ZM21.749 50V40.2H27.923V41.656H23.261V48.544H27.923V50H21.749ZM22.435 45.702V44.246H27.153V45.702H22.435ZM29.3266 50L33.1206 40.2H34.6606L38.4266 50H36.8166L34.5766 44.092C34.5486 44.0267 34.4926 43.868 34.4086 43.616C34.3339 43.364 34.2452 43.084 34.1426 42.776C34.0399 42.468 33.9466 42.188 33.8626 41.936C33.7786 41.6747 33.7226 41.5067 33.6946 41.432L34.0166 41.418C33.9606 41.5767 33.8906 41.7773 33.8066 42.02C33.7319 42.2627 33.6479 42.5193 33.5546 42.79C33.4706 43.0607 33.3866 43.3173 33.3026 43.56C33.2186 43.7933 33.1486 43.9893 33.0926 44.148L30.8666 50H29.3266ZM31.0066 47.564L31.5666 46.108H36.0186L36.6626 47.564H31.0066ZM40.1513 50V40.2H44.3233C44.8833 40.2 45.3966 40.34 45.8633 40.62C46.3393 40.8907 46.7173 41.264 46.9973 41.74C47.2773 42.2067 47.4173 42.734 47.4173 43.322C47.4173 43.854 47.2773 44.3487 46.9973 44.806C46.7173 45.2633 46.344 45.632 45.8773 45.912C45.4106 46.1827 44.8926 46.318 44.3233 46.318H41.6633V50H40.1513ZM45.9753 50L43.4833 45.576L45.0373 45.226L47.8093 50.014L45.9753 50ZM41.6633 44.862H44.4633C44.734 44.862 44.9766 44.7967 45.1913 44.666C45.406 44.526 45.574 44.3393 45.6953 44.106C45.8166 43.8633 45.8773 43.5973 45.8773 43.308C45.8773 42.9813 45.798 42.6967 45.6393 42.454C45.49 42.202 45.2753 42.006 44.9953 41.866C44.7246 41.726 44.4166 41.656 44.0713 41.656H41.6633V44.862ZM49.8857 50V40.2H51.2437L57.2357 48.222L57.0117 48.348C56.9743 48.1147 56.9417 47.8627 56.9137 47.592C56.8857 47.312 56.8577 47.018 56.8297 46.71C56.811 46.3927 56.7923 46.0613 56.7737 45.716C56.7643 45.3613 56.755 44.9927 56.7457 44.61C56.7363 44.2273 56.7317 43.8307 56.7317 43.42V40.2H58.2437V50H56.8577L50.9637 42.272L51.1177 42.076C51.1643 42.6453 51.2017 43.1307 51.2297 43.532C51.267 43.924 51.295 44.26 51.3137 44.54C51.3417 44.8107 51.3603 45.0347 51.3697 45.212C51.379 45.38 51.3837 45.52 51.3837 45.632C51.393 45.744 51.3977 45.842 51.3977 45.926V50H49.8857ZM60.4272 43.35L59.8952 42.706C60.2592 42.538 60.5579 42.3467 60.7912 42.132C61.0246 41.9173 61.1412 41.7307 61.1412 41.572C61.1412 41.4507 61.0899 41.3433 60.9872 41.25C60.8846 41.1473 60.7912 41.0633 60.7072 40.998C60.5019 40.83 60.3619 40.69 60.2872 40.578C60.2219 40.466 60.1892 40.3493 60.1892 40.228C60.1892 40.004 60.2686 39.8267 60.4272 39.696C60.5859 39.556 60.7912 39.486 61.0432 39.486C61.3046 39.486 61.5379 39.556 61.7432 39.696C61.9579 39.8267 62.1259 40.0087 62.2472 40.242C62.3686 40.4753 62.4292 40.7507 62.4292 41.068C62.4292 41.3107 62.3779 41.5487 62.2752 41.782C62.1726 42.0153 62.0279 42.2347 61.8412 42.44C61.6639 42.6453 61.4539 42.8273 61.2112 42.986C60.9686 43.1447 60.7072 43.266 60.4272 43.35Z" fill="#8532D8"/>
<g clip-path="url(#clip0_302_5670)">
<path d="M129.506 46.8347C129.506 46.8347 129.895 48.6628 129.921 48.6801C129.947 48.6977 130.984 48.6977 131.237 48.5315L131.168 46.6336L129.506 46.8347Z" fill="#FE8E9C"/>
<mask id="mask0_302_5670" style="mask-type:luminance" maskUnits="userSpaceOnUse" x="129" y="46" width="3" height="3">
<path d="M129.506 46.8347C129.506 46.8347 129.895 48.6628 129.921 48.6801C129.947 48.6977 130.984 48.6977 131.237 48.5315L131.168 46.6336L129.506 46.8347Z" fill="white"/>
</mask>
<g mask="url(#mask0_302_5670)">
<path d="M129.394 46.6887C129.394 46.6887 129.422 47.3141 129.545 47.385C129.668 47.4562 131.102 47.4987 131.238 47.3897C131.374 47.2807 131.213 46.5321 131.213 46.5321L129.394 46.6884L129.394 46.6887Z" fill="#E57492"/>
</g>
<path d="M131.362 48.2807C131.167 48.317 130.359 48.4508 129.743 48.2981C129.717 48.2913 129.692 48.3149 129.697 48.3421C129.726 48.4961 129.801 48.9009 129.798 48.9698C129.794 49.055 127.555 49.9074 127.406 50.137C127.307 50.289 127.267 50.4896 127.251 50.6079C127.244 50.6597 127.286 50.705 127.339 50.7021L131.533 50.4774C131.588 50.4746 131.628 50.4246 131.619 50.3703L131.44 49.2647L131.407 48.317C131.406 48.2934 131.385 48.2763 131.362 48.2805L131.362 48.2807Z" fill="#1B3D9E"/>
<path d="M134.074 47.1081C134.074 47.1081 134.564 49.0811 134.59 49.0987C134.615 49.1163 135.653 49.1163 135.906 48.9501L135.948 47.0485L134.074 47.1081H134.074Z" fill="#FE8E9C"/>
<mask id="mask1_302_5670" style="mask-type:luminance" maskUnits="userSpaceOnUse" x="134" y="47" width="2" height="3">
<path d="M134.074 47.1081C134.074 47.1081 134.564 49.0811 134.59 49.0987C134.615 49.1163 135.653 49.1163 135.906 48.9501L135.948 47.0485L134.074 47.1081H134.074Z" fill="white"/>
</mask>
<g mask="url(#mask1_302_5670)">
<path d="M134.145 47.7609C134.145 47.7609 135.603 47.924 136.039 47.5862L135.998 46.7767L134.064 46.8873L134.145 47.7609Z" fill="#E57492"/>
</g>
<path d="M136.034 48.7371C135.839 48.7694 135.028 48.887 134.415 48.7218C134.388 48.7146 134.363 48.7376 134.368 48.765C134.394 48.9196 134.46 49.326 134.456 49.3946C134.451 49.4795 132.195 50.2872 132.041 50.5137C131.942 50.6604 131.898 50.8548 131.879 50.9737C131.87 51.0298 131.913 51.0808 131.97 51.0808H136.179C136.235 51.0808 136.278 51.0311 136.27 50.9752L136.093 49.7226L136.079 48.7744C136.079 48.7508 136.058 48.7332 136.035 48.7371H136.034Z" fill="#1B3D9E"/>
<path d="M92.6633 25.0303C92.3564 29.5959 94.1525 34.2764 97.2691 37.5867C98.5422 38.939 100.039 40.0744 101.685 40.9325C107.42 43.9245 114.677 43.5028 120.251 40.2196C122.84 38.6949 125.121 36.5953 127.936 35.5482C131.673 34.1583 135.805 34.8024 139.78 35.0825C143.755 35.3623 148.149 35.1091 151.089 32.411C154.788 29.0152 155.235 23.1786 154.338 18.5253C153.291 13.0923 149.608 9.24066 144.327 7.63933C143.848 7.49411 143.363 7.36934 142.874 7.26424C137.713 6.15475 132.897 7.35924 127.981 8.92381C125.804 9.61653 123.603 10.2823 121.318 10.4884C117.151 10.8643 112.966 10.039 108.794 10.4252C101.482 11.1019 94.6177 15.318 92.9618 22.9159C92.8097 23.6143 92.7111 24.321 92.6633 25.0303Z" fill="#F6F9FF"/>
<path d="M125.053 32.8789C125.053 32.8789 124.568 33.6743 124.594 33.6961C124.62 33.7181 124.883 33.955 125.534 33.8589C125.564 33.8545 125.983 33.3189 125.983 33.3189L125.054 32.8789H125.053Z" fill="#FE8E9C"/>
<path d="M129.09 24.3467C129.09 24.3467 128.008 28.4992 127.801 28.6467C127.594 28.7945 124.557 33.0041 124.759 33.1688C124.961 33.3334 126.174 33.8126 126.579 33.7391C126.983 33.6653 129.483 30.3272 129.704 30.1347C129.924 29.9423 130.562 24.3775 130.562 24.3775L129.09 24.3467H129.09Z" fill="#FC476A"/>
<mask id="mask2_302_5670" style="mask-type:luminance" maskUnits="userSpaceOnUse" x="124" y="24" width="7" height="10">
<path d="M129.09 24.3467C129.09 24.3467 128.008 28.4992 127.801 28.6467C127.594 28.7945 124.557 33.0041 124.759 33.1688C124.961 33.3334 126.174 33.8126 126.579 33.7391C126.983 33.6653 129.483 30.3272 129.704 30.1347C129.924 29.9423 130.562 24.3775 130.562 24.3775L129.09 24.3467H129.09Z" fill="white"/>
</mask>
<g mask="url(#mask2_302_5670)">
<path d="M126.607 33.9793C126.607 33.9793 129.844 30.6402 129.937 30.4184C130.03 30.1965 130.599 29.3091 130.599 29.3091L129.891 28.3249C129.891 28.3249 128.854 29.963 128.726 30.0446C128.598 30.1261 125.526 33.3953 126.141 33.8245C126.252 33.9021 126.607 33.9793 126.607 33.9793H126.607Z" fill="#D40221"/>
<path d="M128.781 31.1116C128.781 31.1116 128.673 28.6231 128.645 28.2946C128.356 24.9162 129.219 23.903 129.219 23.903C129.219 23.903 129.69 30.2936 129.463 30.6086C129.236 30.9239 128.781 31.1116 128.781 31.1116Z" fill="#D40221"/>
</g>
<path d="M129.862 22.6178C129.862 22.6178 128.55 24.7221 128.818 26.7078C129.085 28.6936 129.301 33.1691 129.301 33.1691L131.589 32.9239L130.516 22.7713L129.862 22.6178H129.862Z" fill="#FC476A"/>
<path d="M130.28 30.6086C130.28 30.6086 127.493 36.9578 127.256 37.7206C126.719 39.4501 128.782 46.7366 128.805 46.9714C128.828 47.2059 131.48 47.222 131.644 46.9714C131.808 46.7208 131.162 38.7507 131.162 38.7507C131.162 38.7507 135.113 32.3547 134.531 31.7028C133.753 30.8315 130.28 30.6086 130.28 30.6086Z" fill="#1B3D9E"/>
<mask id="mask3_302_5670" style="mask-type:luminance" maskUnits="userSpaceOnUse" x="127" y="30" width="8" height="18">
<path d="M130.28 30.6086C130.28 30.6086 127.493 36.9578 127.256 37.7206C126.719 39.4501 128.782 46.7366 128.805 46.9714C128.828 47.2059 131.48 47.222 131.644 46.9714C131.808 46.7208 131.162 38.7507 131.162 38.7507C131.162 38.7507 135.113 32.3547 134.531 31.7028C133.753 30.8315 130.28 30.6086 130.28 30.6086Z" fill="white"/>
</mask>
<g mask="url(#mask3_302_5670)">
<path d="M130.185 47.4102C130.163 47.4102 130.145 47.3946 130.141 47.3726C130.089 47.0273 128.866 38.9081 128.955 38.5343C129.042 38.1662 131.375 31.9596 131.474 31.6956C131.483 31.6728 131.508 31.6614 131.531 31.67C131.554 31.6785 131.565 31.7039 131.557 31.7267C131.532 31.7914 129.126 38.192 129.04 38.5547C128.972 38.8405 129.788 44.4392 130.228 47.3594C130.232 47.3835 130.215 47.406 130.191 47.4096C130.189 47.4099 130.187 47.4102 130.184 47.4102H130.185Z" fill="#1C056D"/>
<path d="M127.857 34.8853C127.857 34.8853 128.782 34.9394 129.122 34.6904C129.562 34.3686 131.451 31.8828 131.451 31.8828L129.816 30.9436L127.857 34.8853Z" fill="#1C056D"/>
</g>
<path d="M131.954 37.4294C131.954 37.4294 131.725 34.4199 131.669 34.336C131.613 34.2524 131.067 38.4209 131.288 38.5443L131.954 37.4294Z" fill="#1C056D"/>
<path d="M135.051 30.1349C135.051 30.1349 136.332 32.6922 136.369 34.2169C136.405 35.7414 136.625 46.8448 136.369 47.0278C136.113 47.2111 133.638 47.6874 133.578 47.0278C133.518 46.3682 130.328 30.6301 131.874 30.6156C133.42 30.6014 135.051 30.1346 135.051 30.1346V30.1349Z" fill="#1B3D9E"/>
<mask id="mask4_302_5670" style="mask-type:luminance" maskUnits="userSpaceOnUse" x="131" y="30" width="6" height="18">
<path d="M135.051 30.1349C135.051 30.1349 136.332 32.6922 136.369 34.2169C136.405 35.7414 136.625 46.8448 136.369 47.0278C136.113 47.2111 133.638 47.6874 133.578 47.0278C133.518 46.3682 130.328 30.6301 131.874 30.6156C133.42 30.6014 135.051 30.1346 135.051 30.1346V30.1349Z" fill="white"/>
</mask>
<g mask="url(#mask4_302_5670)">
<path d="M135.295 47.6853C135.272 47.6853 135.253 47.6677 135.251 47.6447C135.244 47.5533 134.559 38.5107 134.546 37.8638C134.533 37.2223 132.984 30.2152 132.969 30.1445C132.963 30.1207 132.978 30.0971 133.002 30.0919C133.026 30.0868 133.049 30.1018 133.054 30.1253C133.118 30.4145 134.62 37.2117 134.634 37.8617C134.647 38.5063 135.332 47.5466 135.339 47.6377C135.341 47.662 135.323 47.683 135.298 47.6851C135.297 47.6851 135.296 47.6851 135.295 47.6851L135.295 47.6853Z" fill="#1C056D"/>
<path d="M132.12 31.7611C132.12 31.7611 132.691 34.9402 132.976 35.0577C133.808 35.4012 135.832 34.4147 136.491 33.2713C137.15 32.1281 135.273 30.3622 135.273 30.3622L132.12 31.7611Z" fill="#1C056D"/>
</g>
<path d="M130.009 22.8404C130.009 22.8404 129.398 24.7757 129.469 25.8473C129.54 26.919 130.623 31.928 130.824 32.095C131.024 32.262 132.043 32.1967 132.566 32.0388C133.089 31.8807 134.499 31.3316 134.406 31.203C134.313 31.0743 133.247 25.129 133.107 24.5983C132.967 24.0677 132.106 22.2212 132.106 22.2212C132.106 22.2212 131.112 23.1047 130.809 23.0659C130.505 23.027 130.01 22.8407 130.01 22.8407L130.009 22.8404Z" fill="white"/>
<path d="M130.981 20.3662C130.985 20.3543 130.989 20.3431 130.991 20.3325C131.049 20.0097 131.333 17.9365 130.768 17.4377C130.202 16.9386 128.236 17.2655 128.408 18.2562C128.408 18.2562 128.797 19.5003 128.406 19.8914C128.016 20.2823 127.593 20.5834 127.915 20.6421C128.237 20.7009 128.513 20.4488 128.63 20.5857C128.747 20.7226 128.756 21.7203 129.205 21.6421C129.342 21.6183 129.556 21.5171 129.789 21.3789C129.864 21.9497 129.967 22.6944 130.009 22.8404C130.08 23.0835 131.84 22.5261 132.105 22.2209C132.344 21.9463 131.21 20.6276 130.981 20.3659V20.3662Z" fill="#FE8E9C"/>
<mask id="mask5_302_5670" style="mask-type:luminance" maskUnits="userSpaceOnUse" x="127" y="17" width="6" height="6">
<path d="M130.981 20.3662C130.985 20.3543 130.989 20.3431 130.991 20.3325C131.049 20.0097 131.333 17.9365 130.768 17.4377C130.202 16.9386 128.236 17.2655 128.408 18.2562C128.408 18.2562 128.797 19.5003 128.406 19.8914C128.016 20.2823 127.593 20.5834 127.915 20.6421C128.237 20.7009 128.513 20.4488 128.63 20.5857C128.747 20.7226 128.756 21.7203 129.205 21.6421C129.342 21.6183 129.556 21.5171 129.789 21.3789C129.864 21.9497 129.967 22.6944 130.009 22.8404C130.08 23.0835 131.84 22.5261 132.105 22.2209C132.344 21.9463 131.21 20.6276 130.981 20.3659V20.3662Z" fill="white"/>
</mask>
<g mask="url(#mask5_302_5670)">
<path d="M128.463 19.1003C128.463 19.1003 129.326 18.7514 129.511 18.3874C129.511 18.3874 129.782 18.9484 130.076 18.9189L129.882 17.7082L128.003 18.1985L128.463 19.1006L128.463 19.1003Z" fill="#E57492"/>
</g>
<path d="M129.789 21.3789C129.789 21.3789 130.111 21.163 130.258 20.9186C130.27 20.8984 130.301 20.9051 130.303 20.929C130.319 21.1252 130.312 21.6336 129.845 21.7956L129.789 21.3791V21.3789Z" fill="#E57492"/>
<path d="M125.053 34.1848C125.053 34.1848 125.134 37.506 125.239 37.5174C125.344 37.5286 125.611 37.6021 125.605 37.497C125.599 37.3919 125.543 34.1949 125.489 34.1605C125.434 34.1261 125.053 34.1848 125.053 34.1848Z" fill="#D4DFFF"/>
<mask id="mask6_302_5670" style="mask-type:luminance" maskUnits="userSpaceOnUse" x="125" y="34" width="1" height="4">
<path d="M125.053 34.1848C125.053 34.1848 125.134 37.506 125.239 37.5174C125.344 37.5286 125.611 37.6021 125.605 37.497C125.599 37.3919 125.543 34.1949 125.489 34.1605C125.434 34.1261 125.053 34.1848 125.053 34.1848Z" fill="white"/>
</mask>
<g mask="url(#mask6_302_5670)">
<path opacity="0.4" d="M125.329 34.1496C125.329 34.1496 125.183 37.2917 125.329 37.3463C125.475 37.4009 125.791 37.2482 125.791 37.2482L125.671 34.1499H125.329" fill="#6880E4"/>
</g>
<path d="M123.252 33.8664C123.252 33.8664 127.402 33.7719 127.628 33.8664C127.854 33.9609 127.777 34.4652 127.703 34.4652C127.63 34.4652 123.325 34.5071 123.251 34.4652C123.178 34.4232 123.053 33.9487 123.251 33.8664H123.252Z" fill="#6880E4"/>
<mask id="mask7_302_5670" style="mask-type:luminance" maskUnits="userSpaceOnUse" x="123" y="33" width="5" height="2">
<path d="M123.252 33.8664C123.252 33.8664 127.402 33.7719 127.628 33.8664C127.854 33.9609 127.777 34.4652 127.703 34.4652C127.63 34.4652 123.325 34.5071 123.251 34.4652C123.178 34.4232 123.053 33.9487 123.251 33.8664H123.252Z" fill="white"/>
</mask>
<g mask="url(#mask7_302_5670)">
<path opacity="0.24" d="M123.008 34.314C123.008 34.314 127.89 34.0145 127.965 34.1193C128.04 34.2242 128.062 34.561 127.89 34.576C127.719 34.591 122.963 34.6202 122.97 34.5457C122.978 34.4711 123.008 34.314 123.008 34.314H123.008Z" fill="#1C056D"/>
</g>
<path d="M124.388 36.6665C124.412 36.5252 126.281 36.5252 126.362 36.6114C126.443 36.6976 126.87 50.4238 126.692 50.4238C126.513 50.4238 124.721 50.4694 124.625 50.4373C124.529 50.4052 124.312 37.1095 124.388 36.6668V36.6665Z" fill="#6880E4"/>
<mask id="mask8_302_5670" style="mask-type:luminance" maskUnits="userSpaceOnUse" x="124" y="36" width="3" height="15">
<path d="M124.388 36.6665C124.412 36.5252 126.281 36.5252 126.362 36.6114C126.443 36.6976 126.87 50.4238 126.692 50.4238C126.513 50.4238 124.721 50.4694 124.625 50.4373C124.529 50.4052 124.312 37.1095 124.388 36.6668V36.6665Z" fill="white"/>
</mask>
<g mask="url(#mask8_302_5670)">
<path opacity="0.24" d="M124.619 36.2731C124.619 36.2731 124.588 48.1577 127.103 49.3558V50.8691H123.645V36.2731H124.619H124.619Z" fill="#1C056D"/>
</g>
<path d="M123.219 50.3263C123.219 50.3263 128.008 50.1924 128.028 50.3263C128.047 50.4601 128.142 51.0723 128.028 51.0723C127.913 51.0723 123.295 51.0914 123.219 51.0723C123.143 51.0531 123.047 50.4218 123.219 50.3263Z" fill="#6880E4"/>
<path d="M124.372 37.6186C124.338 37.6186 124.308 37.5915 124.306 37.5565C124.304 37.52 124.332 37.4887 124.368 37.4866C124.443 37.4822 126.208 37.3797 126.422 37.3927C126.458 37.395 126.486 37.4263 126.484 37.4625C126.481 37.499 126.451 37.5267 126.414 37.5244C126.208 37.5117 124.394 37.6173 124.376 37.6184C124.375 37.6184 124.373 37.6184 124.372 37.6184V37.6186Z" fill="#1C056D"/>
<path d="M126.735 49.5655C126.732 49.5655 126.729 49.5655 126.726 49.5649C126.469 49.5292 124.591 49.5649 124.572 49.5655H124.571C124.535 49.5655 124.506 49.5367 124.505 49.5007C124.504 49.4642 124.533 49.434 124.569 49.4334C124.647 49.4319 126.477 49.3969 126.744 49.434C126.78 49.4389 126.805 49.4723 126.8 49.5085C126.795 49.5416 126.767 49.5655 126.735 49.5655Z" fill="#1C056D"/>
<path d="M129.946 22.5606C129.946 22.5606 130.352 22.719 130.516 22.771C130.68 22.823 130.357 23.3483 130.287 23.3193C130.228 23.2944 129.925 23.0286 129.842 22.7358C129.82 22.6584 129.868 22.5784 129.946 22.5606Z" fill="#FFE0C1"/>
<path d="M132.164 21.8407C132.164 21.8407 130.778 22.6136 130.805 22.7402C130.833 22.8668 131.102 23.2761 131.156 23.2538C131.209 23.2315 132.358 22.2681 132.371 22.1863C132.385 22.1045 132.164 21.8407 132.164 21.8407H132.164Z" fill="#FFE0C1"/>
<path d="M130.516 22.7713C130.516 22.7713 130.424 22.9041 130.438 23.0322C130.451 23.1604 130.604 23.4275 130.655 23.4156C130.707 23.4037 130.956 23.1226 130.928 23.0278C130.901 22.9331 130.845 22.7477 130.805 22.7405C130.765 22.7332 130.516 22.7713 130.516 22.7713H130.516Z" fill="#1B3D9E"/>
<path d="M130.525 23.1575C130.525 23.1575 130.172 26.3933 130.113 27.5755C130.055 28.7578 130.09 29.7044 130.117 29.8256C130.143 29.9467 130.748 31.044 130.8 31.0226C130.853 31.0011 131.327 29.8227 131.344 29.6985C131.36 29.5742 131.09 26.5289 131.068 26.0032C131.046 25.4774 130.732 23.1163 130.732 23.1163L130.525 23.1578V23.1575Z" fill="#1B3D9E"/>
<path d="M127.56 32.4113C127.56 32.4113 126.757 33.2602 126.729 33.2602C126.702 33.2602 125.965 33.7114 125.881 33.7864C125.797 33.8615 125.812 34.3515 125.85 34.591C125.887 34.8302 126.405 34.8061 126.568 34.7856C126.732 34.7652 127.413 34.5848 127.427 34.4678C127.438 34.3792 127.43 33.862 127.43 33.862L128.514 33.2643L127.56 32.4113Z" fill="#FE8E9C"/>
<path d="M135.112 26.5248C135.057 26.1352 134.981 23.0423 132.582 21.9882C132.34 21.8816 132.06 22.0245 132.006 22.2846C132.005 22.2882 132.004 22.2921 132.004 22.2958C132.004 22.2958 130.705 28.4953 130.6 28.6534C130.494 28.8116 126.938 32.1921 126.872 32.5369C126.807 32.8817 128.196 34.1434 128.732 34.014C129.243 33.8908 132.128 31.4207 132.814 30.6097C133.039 32.5628 133.254 34.3407 133.36 34.3407C133.565 34.3407 136.718 32.467 136.981 31.823C137.244 31.1789 135.17 26.9341 135.112 26.5243L135.112 26.5248Z" fill="#FC476A"/>
<path d="M132.814 30.6102C132.814 30.6102 133.146 30.2729 133.38 29.8059C133.612 29.3387 133.936 26.8028 133.936 26.8028C133.936 26.8028 134.078 29.6892 133.812 30.2563C133.546 30.8235 132.894 31.2959 132.894 31.2959L132.814 30.6102Z" fill="#D40221"/>
<path d="M130.6 28.6537C130.6 28.6537 130.794 29.2286 131.605 29.394C131.605 29.394 130.767 28.8965 130.669 28.4189L130.6 28.6537Z" fill="#D40221"/>
<path d="M125.209 33.7233C125.216 33.7429 125.239 33.752 125.232 33.7717C125.202 33.8633 125.12 34.1183 125.093 34.2457C125.06 34.4025 125.048 34.5643 125.046 34.6246C125.039 34.8571 123.868 34.8084 123.785 34.6637C123.702 34.5193 123.624 34.1522 123.652 34.0689C123.679 33.9855 123.912 33.6917 124.012 33.658C124.109 33.6252 125.054 33.2682 125.21 33.7233H125.209Z" fill="#FE8E9C"/>
<path d="M128.495 18.6002C128.495 18.6002 129.657 18.2955 129.838 17.8203C129.838 17.8203 129.392 18.5052 130.152 19.0227C130.152 19.0227 129.999 18.5404 130.438 18.5754C130.877 18.6103 130.654 19.3023 130.438 19.2883C130.438 19.2883 130.865 20.0224 131.038 20.0048C131.212 19.9872 131.559 18.6988 131.47 17.9598C131.382 17.2207 131.264 16.9352 130.507 16.7874C129.751 16.6396 127.913 17.477 127.707 17.3292C127.501 17.1814 127.422 17.8456 127.834 17.871C127.834 17.871 127.553 18.0615 127.801 18.2647C128.049 18.4679 128.195 18.3408 128.195 18.3408C128.195 18.3408 128.093 18.675 128.495 18.6V18.6002Z" fill="#1B3D9E"/>
<path d="M128.736 20.9605C128.736 20.9605 129.189 21.0284 129.348 20.4265C129.348 20.4265 128.686 20.7498 128.736 20.9605Z" fill="white"/>
<path d="M98.3251 20.1051C99.6279 18.7989 99.6279 16.6811 98.3251 15.3749C97.0224 14.0687 94.9102 14.0687 93.6075 15.3749C92.3048 16.6811 92.3048 18.7989 93.6075 20.1051C94.9102 21.4113 97.0224 21.4113 98.3251 20.1051Z" fill="#D4DFFF"/>
<path d="M97.204 18.1151C97.1495 17.9611 97.0674 17.8223 96.9602 17.703C96.8603 17.5917 96.7429 17.4936 96.6114 17.411C96.496 17.3385 96.3791 17.271 96.2639 17.2101C96.1955 17.1741 96.1279 17.1361 96.0631 17.0975C96.0109 17.0665 95.9658 17.0333 95.9286 16.9984C95.9033 16.9746 95.8852 16.9505 95.8733 16.9241C95.8684 16.9129 95.87 16.8943 95.872 16.8808C95.8736 16.8718 95.8749 16.863 95.9077 16.8467C95.926 16.8376 96.0001 16.8102 96.1878 16.8412C96.2802 16.8565 96.3819 16.8863 96.4901 16.9295C96.5991 16.973 96.7036 17.0279 96.8007 17.0921C96.9344 17.1806 97.1149 17.1338 97.1892 16.9914L97.4275 16.5345C97.4892 16.4162 97.4557 16.2704 97.3488 16.191C97.2094 16.0877 97.0573 16.0007 96.8965 15.9329C96.9558 15.8172 97.0328 15.6474 97.0194 15.5643C96.9982 15.431 96.5859 15.3554 96.4188 15.3207C96.289 15.2935 96.2239 15.6129 96.2017 15.7558C96.0231 15.7351 95.8591 15.7354 95.7135 15.7571C95.5261 15.7851 95.3619 15.8415 95.2248 15.9251C95.081 16.0129 94.9656 16.1281 94.8819 16.2673C94.8029 16.3986 94.75 16.5441 94.7245 16.6996C94.6901 16.9091 94.7028 17.0996 94.7624 17.266C94.8184 17.4219 94.9003 17.5601 95.0059 17.6771C95.1047 17.7866 95.2186 17.8819 95.3443 17.96C95.4538 18.0284 95.5599 18.089 95.6593 18.1402L95.8862 18.2634C95.9428 18.2942 95.9923 18.3279 96.0337 18.3639C96.0626 18.389 96.0832 18.4144 96.0956 18.4392C96.0974 18.4428 96.0985 18.4537 96.0956 18.4718C96.0855 18.5332 96.0646 18.551 96.0244 18.5663C95.9327 18.6007 95.8181 18.6069 95.6831 18.5847C95.5656 18.5653 95.4484 18.5267 95.3345 18.4697C95.2132 18.4092 95.106 18.3424 95.0164 18.2709C94.8822 18.1643 94.6839 18.208 94.607 18.3618L94.3638 18.8477C94.307 18.9613 94.3364 19.0993 94.4348 19.1796C94.5752 19.2942 94.7402 19.3934 94.9248 19.4747C94.9313 19.4775 94.938 19.4804 94.9447 19.4832C94.8866 19.5979 94.7949 19.7982 94.8117 19.8901C94.8357 20.0232 95.2493 20.09 95.4171 20.1213C95.5529 20.1467 95.6105 19.7988 95.6275 19.6654C95.7977 19.6887 95.9621 19.6934 96.1173 19.6792C96.3055 19.6618 96.4777 19.6134 96.629 19.535C96.7855 19.4539 96.9187 19.3416 97.0248 19.2013C97.1335 19.0576 97.2058 18.8798 97.2401 18.6727C97.2739 18.4672 97.2618 18.2795 97.2037 18.1154L97.204 18.1151Z" fill="#EAF2FC"/>
<path d="M122.584 23.8267C123.223 23.1851 123.223 22.1448 122.584 21.5031C121.944 20.8615 120.906 20.8615 120.266 21.5031C119.626 22.1448 119.626 23.1851 120.266 23.8267C120.906 24.4683 121.944 24.4683 122.584 23.8267Z" fill="#D4DFFF"/>
<path d="M122.009 22.4148C121.94 22.3739 121.865 22.3478 121.788 22.3367C121.715 22.3263 121.64 22.3266 121.564 22.3367C121.498 22.346 121.433 22.3574 121.37 22.3708C121.333 22.3788 121.296 22.3858 121.259 22.3921C121.23 22.397 121.202 22.3985 121.177 22.3972C121.16 22.3962 121.146 22.3928 121.133 22.3866C121.128 22.384 121.123 22.3765 121.119 22.3708C121.117 22.3669 121.115 22.3631 121.122 22.3467C121.126 22.3374 121.145 22.3038 121.226 22.2561C121.265 22.2326 121.313 22.2116 121.367 22.1938C121.422 22.1756 121.479 22.1632 121.536 22.1567C121.614 22.1479 121.667 22.0731 121.65 21.996L121.596 21.7485C121.582 21.6846 121.524 21.6401 121.459 21.6442C121.374 21.6494 121.289 21.6646 121.207 21.69C121.193 21.6276 121.169 21.5394 121.137 21.5122C121.088 21.4687 120.908 21.5707 120.835 21.6103C120.777 21.6411 120.853 21.7819 120.89 21.8427C120.816 21.8914 120.754 21.9434 120.706 21.9975C120.644 22.0672 120.6 22.1407 120.575 22.2152C120.548 22.2937 120.541 22.3737 120.553 22.4526C120.565 22.5269 120.591 22.5986 120.63 22.6652C120.683 22.755 120.748 22.8225 120.822 22.8663C120.892 22.9072 120.967 22.9336 121.043 22.9442C121.115 22.9543 121.188 22.954 121.26 22.9437C121.323 22.9346 121.382 22.924 121.435 22.9121L121.56 22.8867C121.591 22.8805 121.62 22.8774 121.647 22.8779C121.665 22.8782 121.681 22.8813 121.694 22.8867C121.695 22.8875 121.699 22.8914 121.704 22.8992C121.719 22.9256 121.717 22.9388 121.707 22.9574C121.683 22.9993 121.642 23.0379 121.584 23.0721C121.533 23.1019 121.477 23.1244 121.417 23.1389C121.352 23.1544 121.291 23.1632 121.234 23.1645C121.15 23.1668 121.089 23.246 121.109 23.3281L121.17 23.588C121.184 23.6488 121.238 23.6913 121.301 23.6905C121.39 23.6892 121.483 23.6745 121.578 23.6468C121.581 23.6457 121.585 23.6447 121.588 23.6437C121.602 23.7053 121.631 23.8096 121.666 23.8391C121.717 23.8816 121.894 23.7759 121.967 23.7348C122.026 23.7014 121.938 23.5523 121.903 23.4966C121.974 23.4516 122.038 23.4014 122.092 23.347C122.157 23.281 122.207 23.2082 122.239 23.1308C122.273 23.0509 122.287 22.9665 122.283 22.88C122.279 22.7915 122.25 22.7017 122.198 22.6129C122.146 22.5248 122.083 22.4581 122.009 22.4146V22.4148Z" fill="#EAF2FC"/>
<path d="M149.17 29.0493C150.26 27.9559 150.26 26.1831 149.17 25.0897C148.079 23.9963 146.311 23.9963 145.221 25.0897C144.13 26.1831 144.13 27.9559 145.221 29.0493C146.311 30.1427 148.079 30.1427 149.17 29.0493Z" fill="#D4DFFF"/>
<path d="M148.277 27.0565C148.195 26.9473 148.095 26.8572 147.979 26.7891C147.872 26.7254 147.753 26.6767 147.627 26.6439C147.517 26.6151 147.407 26.5905 147.299 26.5711C147.236 26.5595 147.172 26.5463 147.111 26.532C147.061 26.5204 147.017 26.5054 146.979 26.487C146.952 26.4746 146.932 26.4596 146.916 26.4417C146.909 26.4342 146.906 26.4189 146.904 26.4075C146.903 26.3998 146.902 26.3925 146.924 26.3713C146.936 26.3594 146.988 26.3187 147.146 26.2962C147.224 26.2851 147.312 26.283 147.41 26.2903C147.508 26.2975 147.605 26.3149 147.699 26.3418C147.827 26.3788 147.96 26.2957 147.983 26.1634L148.059 25.7384C148.078 25.6283 148.015 25.5204 147.91 25.4842C147.772 25.4368 147.629 25.406 147.484 25.3923C147.502 25.2848 147.521 25.13 147.489 25.0669C147.439 24.9657 147.091 25.0097 146.949 25.0239C146.838 25.035 146.867 25.3063 146.884 25.4259C146.736 25.4544 146.606 25.4961 146.495 25.5502C146.352 25.6198 146.235 25.7065 146.147 25.8077C146.054 25.9139 145.991 26.035 145.959 26.1676C145.929 26.2921 145.923 26.4218 145.942 26.5525C145.967 26.7285 146.025 26.8774 146.115 26.9949C146.199 27.1052 146.299 27.195 146.412 27.2618C146.519 27.3244 146.634 27.3715 146.754 27.4023C146.858 27.4293 146.958 27.4507 147.05 27.4668L147.262 27.508C147.315 27.5183 147.363 27.5325 147.405 27.5509C147.434 27.5636 147.458 27.5786 147.474 27.5954C147.476 27.598 147.48 27.6063 147.482 27.6216C147.489 27.6731 147.477 27.6928 147.449 27.715C147.384 27.7658 147.294 27.7997 147.181 27.8157C147.082 27.83 146.979 27.8287 146.874 27.8121C146.762 27.7945 146.66 27.7681 146.57 27.7337C146.436 27.6824 146.289 27.7676 146.266 27.9094L146.194 28.3586C146.177 28.4637 146.235 28.5662 146.334 28.6055C146.475 28.6617 146.631 28.6992 146.799 28.7174C146.805 28.7179 146.811 28.7187 146.817 28.7192C146.8 28.8253 146.777 29.0083 146.813 29.0777C146.865 29.1779 147.213 29.1266 147.354 29.1093C147.469 29.0953 147.428 28.803 147.408 28.6923C147.55 28.6679 147.682 28.6301 147.802 28.5796C147.948 28.5183 148.074 28.436 148.175 28.3353C148.279 28.2312 148.357 28.108 148.407 27.969C148.458 27.8269 148.471 27.6666 148.446 27.4927C148.421 27.32 148.364 27.1735 148.277 27.057L148.277 27.0565Z" fill="#EAF2FC"/>
<path d="M145.408 17.5913C147.194 15.8003 147.194 12.8966 145.408 11.1057C143.622 9.31474 140.726 9.31473 138.94 11.1057C137.154 12.8966 137.154 15.8003 138.94 17.5913C140.726 19.3823 143.622 19.3823 145.408 17.5913Z" fill="#D4DFFF"/>
<path d="M143.572 13.2552C143.357 13.1946 143.137 13.177 142.919 13.2029C142.716 13.2273 142.513 13.2814 142.317 13.3637C142.144 13.4362 141.976 13.5138 141.817 13.5948C141.723 13.643 141.627 13.6891 141.533 13.7315C141.457 13.7654 141.384 13.79 141.316 13.8043C141.269 13.8141 141.228 13.8151 141.189 13.8076C141.172 13.8045 141.153 13.788 141.14 13.7748C141.131 13.7657 141.122 13.7574 141.13 13.7077C141.134 13.68 141.162 13.5749 141.345 13.3888C141.435 13.2972 141.549 13.2063 141.683 13.1191C141.817 13.0313 141.961 12.957 142.11 12.8988C142.314 12.8188 142.405 12.5788 142.305 12.3828L141.983 11.7538C141.9 11.591 141.71 11.5133 141.537 11.5708C141.311 11.6456 141.094 11.7479 140.891 11.8747C140.809 11.7163 140.68 11.496 140.576 11.445C140.41 11.3634 140 11.7668 139.829 11.9267C139.696 12.0512 140.001 12.3766 140.143 12.5146C139.979 12.6989 139.85 12.883 139.759 13.0639C139.642 13.2964 139.575 13.5257 139.56 13.7458C139.544 13.9764 139.582 14.1972 139.671 14.4015C139.755 14.5938 139.876 14.7683 140.03 14.9202C140.236 15.1245 140.459 15.2609 140.692 15.3253C140.911 15.3857 141.13 15.403 141.344 15.3769C141.545 15.3525 141.741 15.3 141.928 15.2205C142.091 15.1514 142.242 15.0805 142.378 15.0093L142.695 14.8519C142.774 14.8125 142.852 14.7835 142.924 14.7657C142.975 14.7533 143.02 14.7496 143.058 14.7556C143.063 14.7564 143.076 14.7639 143.094 14.7815C143.154 14.8413 143.158 14.8791 143.143 14.9363C143.109 15.0665 143.025 15.2001 142.894 15.3341C142.779 15.4506 142.643 15.5519 142.49 15.6347C142.326 15.7232 142.167 15.7905 142.016 15.8348C141.791 15.9013 141.683 16.1586 141.794 16.3665L142.145 17.0237C142.226 17.1775 142.404 17.2534 142.571 17.2065C142.811 17.1395 143.052 17.0328 143.288 16.8894C143.297 16.8842 143.305 16.879 143.314 16.8739C143.396 17.0297 143.547 17.2912 143.663 17.3453C143.831 17.4234 144.232 17.0116 144.4 16.8482C144.536 16.716 144.193 16.3761 144.057 16.2516C144.218 16.0789 144.353 15.898 144.46 15.7123C144.589 15.4871 144.672 15.2555 144.704 15.0235C144.737 14.7838 144.717 14.5454 144.644 14.315C144.57 14.0794 144.428 13.8573 144.224 13.6552C144.021 13.4545 143.801 13.3202 143.572 13.2552H143.572Z" fill="#EAF2FC"/>
<path d="M98.0823 37.2576C98.8036 36.5343 98.8036 35.3618 98.0823 34.6386C97.361 33.9153 96.1916 33.9153 95.4703 34.6386C94.749 35.3618 94.749 36.5343 95.4703 37.2576C96.1916 37.9808 97.361 37.9808 98.0823 37.2576Z" fill="#D4DFFF"/>
<path d="M97.3542 35.5245C97.268 35.4973 97.1797 35.4874 97.0914 35.4952C97.009 35.5024 96.9264 35.5216 96.8464 35.5524C96.7759 35.5793 96.7072 35.6086 96.6419 35.6394C96.6032 35.6578 96.5639 35.6751 96.5252 35.6909C96.4942 35.7036 96.4643 35.7126 96.4367 35.7176C96.4178 35.7209 96.401 35.7209 96.3855 35.7176C96.3791 35.716 96.3713 35.7093 96.3662 35.7036C96.3626 35.7 96.3592 35.6963 96.3631 35.6764C96.3651 35.6653 96.3778 35.6231 96.454 35.5503C96.4914 35.5144 96.5384 35.4792 96.5936 35.4458C96.6491 35.4121 96.708 35.3839 96.7689 35.3621C96.8526 35.3324 96.8921 35.2369 96.8541 35.1563L96.732 34.8985C96.7005 34.8317 96.6251 34.7981 96.5544 34.819C96.4622 34.8465 96.3734 34.8848 96.2898 34.9335C96.2585 34.8685 96.2092 34.7779 96.1682 34.7561C96.1023 34.7212 95.9317 34.8786 95.8607 34.9412C95.8054 34.9899 95.9244 35.125 95.98 35.1825C95.9113 35.2547 95.8568 35.3275 95.8178 35.3994C95.7677 35.4918 95.7378 35.5835 95.729 35.672C95.7197 35.7649 95.7321 35.8545 95.7657 35.9381C95.7972 36.0168 95.8436 36.0888 95.9038 36.1519C95.9846 36.2371 96.0729 36.2948 96.1661 36.3238C96.2534 36.351 96.3419 36.3608 96.4287 36.3528C96.51 36.3456 96.59 36.3267 96.6662 36.2972C96.7328 36.2713 96.7947 36.2446 96.8505 36.2177L96.9806 36.1581C97.0132 36.1434 97.0444 36.1325 97.0741 36.1263C97.0947 36.1219 97.1128 36.1211 97.1281 36.124C97.1304 36.1245 97.1355 36.1276 97.1425 36.1349C97.1663 36.1597 97.167 36.175 97.1603 36.198C97.1451 36.25 97.1095 36.3031 97.0547 36.3554C97.007 36.401 96.9509 36.4401 96.8879 36.4716C96.8208 36.5053 96.7555 36.5304 96.6943 36.5464C96.6024 36.5705 96.5557 36.673 96.5978 36.7582L96.731 37.0279C96.7622 37.0911 96.8327 37.124 96.9009 37.1071C96.9982 37.0831 97.0971 37.0429 97.1944 36.9883C97.1978 36.9863 97.2014 36.9844 97.2047 36.9824C97.236 37.0463 97.2938 37.1537 97.3398 37.177C97.4064 37.2107 97.5737 37.0497 97.6434 36.9857C97.6999 36.934 97.5657 36.7926 97.5125 36.7406C97.5793 36.673 97.6364 36.6016 97.6818 36.5281C97.7371 36.4388 97.773 36.3463 97.789 36.2532C97.8055 36.1569 97.8003 36.0603 97.7737 35.9663C97.7466 35.8703 97.6924 35.7789 97.6124 35.6948C97.5331 35.6112 97.4461 35.5542 97.3545 35.5252L97.3542 35.5245Z" fill="#EAF2FC"/>
<path d="M114.322 49.4606C114.324 50.0697 113.401 50.6713 112.042 50.8013C110.485 50.9501 108.958 50.4953 108.631 49.7852C108.59 49.6949 108.57 49.6045 108.57 49.5158V50.4565C108.57 50.5779 108.622 50.6936 108.715 50.7718C109.022 51.0317 109.864 51.5533 111.662 51.5445C113.53 51.5354 114.109 50.9227 114.274 50.6542C114.313 50.5898 114.333 50.5155 114.333 50.4396L114.323 49.4609L114.322 49.4606Z" fill="#F7974D"/>
<mask id="mask9_302_5670" style="mask-type:luminance" maskUnits="userSpaceOnUse" x="108" y="49" width="7" height="3">
<path d="M114.322 49.4606C114.324 50.0697 113.401 50.6713 112.042 50.8013C110.485 50.9501 108.958 50.4953 108.631 49.7852C108.59 49.6949 108.57 49.6045 108.57 49.5158V50.4565C108.57 50.5779 108.622 50.6936 108.715 50.7718C109.022 51.0317 109.864 51.5533 111.662 51.5445C113.53 51.5354 114.109 50.9227 114.274 50.6542C114.313 50.5898 114.333 50.5155 114.333 50.4396L114.323 49.4609L114.322 49.4606Z" fill="white"/>
</mask>
<g mask="url(#mask9_302_5670)">
<path opacity="0.5" d="M108.767 49.8121C108.767 49.8696 108.711 50.8668 108.768 50.9291C108.825 50.9915 108.893 49.9833 108.862 49.9053C108.83 49.8274 108.767 49.8121 108.767 49.8121H108.767Z" fill="#FFCC59"/>
<path opacity="0.5" d="M109.211 50.2605C109.211 50.2605 109.163 51.1862 109.193 51.1921L109.223 51.1981C109.223 51.1981 109.343 50.3206 109.277 50.2905L109.211 50.2605Z" fill="#FFCC59"/>
<path opacity="0.5" d="M109.942 50.5665C109.942 50.5665 109.867 51.4383 109.923 51.4495C109.979 51.4609 110.058 50.5981 110.058 50.5981L109.942 50.5665Z" fill="#FFCC59"/>
<path opacity="0.5" d="M110.854 50.6926C110.854 50.6926 110.795 51.6149 110.861 51.6296C110.928 51.6444 111.075 50.7221 110.964 50.7073L110.854 50.6926H110.854Z" fill="#FFCC59"/>
<path opacity="0.5" d="M112.105 51.5926C112.105 51.5926 112.039 50.6628 112.098 50.6775C112.157 50.6923 112.297 51.5999 112.245 51.6074C112.194 51.6146 112.105 51.5926 112.105 51.5926Z" fill="#FFCC59"/>
<path opacity="0.5" d="M113.069 51.4378C113.069 51.4378 112.983 50.5186 113.029 50.5598C113.076 50.6009 113.249 51.421 113.159 51.4295L113.069 51.4381V51.4378Z" fill="#FFCC59"/>
<path opacity="0.5" d="M113.695 50.2144C113.695 50.2144 113.741 51.2038 113.771 51.2022C113.802 51.2007 113.807 50.2028 113.76 50.173C113.713 50.1432 113.695 50.2144 113.695 50.2144H113.695Z" fill="#FFCC59"/>
</g>
<path d="M114.333 49.5155C114.333 49.4267 114.313 49.3364 114.271 49.246C113.944 48.536 112.417 48.0809 110.86 48.23C109.501 48.3599 108.568 48.9066 108.57 49.5158C108.57 49.6045 108.59 49.6949 108.631 49.7852C108.958 50.4953 110.485 50.9504 112.042 50.8013C113.402 50.6713 114.334 50.1246 114.333 49.5155Z" fill="#FFCC59"/>
<mask id="mask10_302_5670" style="mask-type:luminance" maskUnits="userSpaceOnUse" x="108" y="48" width="7" height="3">
<path d="M114.333 49.5155C114.333 49.4267 114.313 49.3364 114.271 49.246C113.944 48.536 112.417 48.0809 110.86 48.23C109.501 48.3599 108.568 48.9066 108.57 49.5158C108.57 49.6045 108.59 49.6949 108.631 49.7852C108.958 50.4953 110.485 50.9504 112.042 50.8013C113.402 50.6713 114.334 50.1246 114.333 49.5155Z" fill="white"/>
</mask>
<g mask="url(#mask10_302_5670)">
<path opacity="0.5" d="M109.358 48.9206C109.358 48.9206 108.543 49.6882 109.578 50.2898C110.612 50.8914 113.321 50.4528 113.321 50.4528C113.321 50.4528 110.446 50.179 109.972 49.8386C109.499 49.4981 109.546 49.1262 109.546 49.1262L109.359 48.9206" fill="#F7974D"/>
</g>
<path opacity="0.5" d="M114.209 49.7583C114.209 49.7583 114.264 50.815 114.245 50.8295C114.227 50.8437 114.175 50.0112 114.175 49.8877C114.175 49.7643 114.209 49.7583 114.209 49.7583Z" fill="#FFCC59"/>
<path d="M115.161 48.4182C115.163 49.0273 114.24 49.6289 112.882 49.7588C111.324 49.9077 109.797 49.4528 109.471 48.7428C109.429 48.6524 109.409 48.5621 109.409 48.4733V49.414C109.409 49.5354 109.462 49.6511 109.554 49.7293C109.861 49.9892 110.703 50.5108 112.501 50.502C114.369 50.493 114.948 49.8802 115.113 49.6118C115.152 49.5473 115.172 49.473 115.172 49.3972L115.162 48.4184L115.161 48.4182Z" fill="#F7974D"/>
<mask id="mask11_302_5670" style="mask-type:luminance" maskUnits="userSpaceOnUse" x="109" y="48" width="7" height="3">
<path d="M115.161 48.4182C115.163 49.0273 114.24 49.6289 112.882 49.7588C111.324 49.9077 109.797 49.4528 109.471 48.7428C109.429 48.6524 109.409 48.5621 109.409 48.4733V49.414C109.409 49.5354 109.462 49.6511 109.554 49.7293C109.861 49.9892 110.703 50.5108 112.501 50.502C114.369 50.493 114.948 49.8802 115.113 49.6118C115.152 49.5473 115.172 49.473 115.172 49.3972L115.162 48.4184L115.161 48.4182Z" fill="white"/>
</mask>
<g mask="url(#mask11_302_5670)">
<path opacity="0.5" d="M109.606 48.7697C109.606 48.8272 109.55 49.8243 109.607 49.8867C109.664 49.9491 109.732 48.9408 109.7 48.8629C109.669 48.785 109.606 48.7697 109.606 48.7697H109.606Z" fill="#FFCC59"/>
<path opacity="0.5" d="M110.05 49.218C110.05 49.218 110.002 50.1437 110.032 50.1497L110.062 50.1557C110.062 50.1557 110.182 49.2781 110.116 49.2481L110.05 49.218Z" fill="#FFCC59"/>
<path opacity="0.5" d="M110.781 49.5243C110.781 49.5243 110.705 50.3961 110.762 50.4073C110.818 50.4184 110.897 49.5559 110.897 49.5559L110.781 49.5243Z" fill="#FFCC59"/>
<path opacity="0.5" d="M111.693 49.6501C111.693 49.6501 111.634 50.5724 111.7 50.5872C111.767 50.6019 111.914 49.6796 111.803 49.6649L111.693 49.6501Z" fill="#FFCC59"/>
<path opacity="0.5" d="M112.944 50.5504C112.944 50.5504 112.878 49.6206 112.937 49.6353C112.995 49.6501 113.135 50.5577 113.084 50.5652C113.032 50.5727 112.944 50.5504 112.944 50.5504H112.944Z" fill="#FFCC59"/>
<path opacity="0.5" d="M113.908 50.3954C113.908 50.3954 113.821 49.4761 113.868 49.5173C113.916 49.5585 114.088 50.3785 113.998 50.3868L113.908 50.3954Z" fill="#FFCC59"/>
<path opacity="0.5" d="M114.534 49.172C114.534 49.172 114.58 50.1613 114.611 50.1598C114.641 50.1582 114.646 49.1603 114.599 49.1306C114.552 49.1008 114.534 49.172 114.534 49.172H114.534Z" fill="#FFCC59"/>
</g>
<path d="M115.172 48.4733C115.172 48.3845 115.152 48.2942 115.11 48.2038C114.784 47.4938 113.256 47.0387 111.699 47.1878C110.34 47.3177 109.407 47.8645 109.409 48.4736C109.409 48.5624 109.429 48.6527 109.471 48.743C109.797 49.4531 111.324 49.9082 112.882 49.7591C114.241 49.6291 115.173 49.0824 115.172 48.4733Z" fill="#FFCC59"/>
<mask id="mask12_302_5670" style="mask-type:luminance" maskUnits="userSpaceOnUse" x="109" y="47" width="7" height="3">
<path d="M115.172 48.4733C115.172 48.3845 115.152 48.2942 115.11 48.2038C114.784 47.4938 113.256 47.0387 111.699 47.1878C110.34 47.3177 109.407 47.8645 109.409 48.4736C109.409 48.5624 109.429 48.6527 109.471 48.743C109.797 49.4531 111.324 49.9082 112.882 49.7591C114.241 49.6291 115.173 49.0824 115.172 48.4733Z" fill="white"/>
</mask>
<g mask="url(#mask12_302_5670)">
<path opacity="0.5" d="M114.333 47.727C114.333 47.727 115.534 49.8681 111.011 49.4143L113.491 47.9341L114.333 47.727Z" fill="#F7974D"/>
</g>
<path opacity="0.5" d="M115.048 48.7161C115.048 48.7161 115.103 49.7728 115.085 49.7873C115.066 49.8015 115.014 48.969 115.014 48.8456C115.014 48.7221 115.048 48.7161 115.048 48.7161Z" fill="#FFCC59"/>
<path d="M113.672 47.3304C113.674 47.9395 112.751 48.5411 111.392 48.6711C109.835 48.8199 108.308 48.3651 107.981 47.655C107.94 47.5647 107.92 47.4744 107.92 47.3856V48.3263C107.92 48.4477 107.972 48.5634 108.065 48.6416C108.372 48.9015 109.214 49.4231 111.012 49.4143C112.88 49.4052 113.459 48.7925 113.624 48.524C113.663 48.4596 113.683 48.3853 113.683 48.3094L113.673 47.3307L113.672 47.3304Z" fill="#F7974D"/>
<mask id="mask13_302_5670" style="mask-type:luminance" maskUnits="userSpaceOnUse" x="107" y="47" width="7" height="3">
<path d="M113.672 47.3304C113.674 47.9395 112.751 48.5411 111.392 48.6711C109.835 48.8199 108.308 48.3651 107.981 47.655C107.94 47.5647 107.92 47.4744 107.92 47.3856V48.3263C107.92 48.4477 107.972 48.5634 108.065 48.6416C108.372 48.9015 109.214 49.4231 111.012 49.4143C112.88 49.4052 113.459 48.7925 113.624 48.524C113.663 48.4596 113.683 48.3853 113.683 48.3094L113.673 47.3307L113.672 47.3304Z" fill="white"/>
</mask>
<g mask="url(#mask13_302_5670)">
<path opacity="0.5" d="M108.117 47.682C108.117 47.7394 108.061 48.7366 108.118 48.799C108.175 48.8613 108.242 47.8531 108.211 47.7752C108.18 47.6972 108.117 47.682 108.117 47.682H108.117Z" fill="#FFCC59"/>
<path opacity="0.5" d="M108.561 48.1303C108.561 48.1303 108.513 49.056 108.543 49.062L108.573 49.0679C108.573 49.0679 108.693 48.1904 108.627 48.1603L108.561 48.1303Z" fill="#FFCC59"/>
<path opacity="0.5" d="M109.292 48.4363C109.292 48.4363 109.216 49.3081 109.273 49.3193C109.329 49.3307 109.408 48.4679 109.408 48.4679L109.292 48.4363Z" fill="#FFCC59"/>
<path opacity="0.5" d="M110.204 48.5624C110.204 48.5624 110.145 49.4847 110.211 49.4994C110.277 49.5142 110.425 48.5919 110.314 48.5771L110.204 48.5624H110.204Z" fill="#FFCC59"/>
<path opacity="0.5" d="M111.455 49.4624C111.455 49.4624 111.389 48.5326 111.447 48.5473C111.506 48.5621 111.646 49.4697 111.595 49.4772C111.543 49.4847 111.455 49.4624 111.455 49.4624H111.455Z" fill="#FFCC59"/>
<path opacity="0.5" d="M112.419 49.3076C112.419 49.3076 112.332 48.3884 112.379 48.4296C112.426 48.4707 112.599 49.2908 112.509 49.2991L112.419 49.3076Z" fill="#FFCC59"/>
<path opacity="0.5" d="M113.045 48.0842C113.045 48.0842 113.091 49.0736 113.121 49.0721C113.152 49.0705 113.157 48.0726 113.11 48.0428C113.063 48.0133 113.045 48.0842 113.045 48.0842H113.045Z" fill="#FFCC59"/>
</g>
<path d="M113.683 47.3853C113.683 47.2965 113.663 47.2062 113.621 47.1158C113.294 46.4058 111.767 45.9507 110.21 46.0998C108.851 46.2297 107.918 46.7765 107.92 47.3856C107.92 47.4744 107.94 47.5647 107.981 47.655C108.308 48.3651 109.835 48.8202 111.392 48.6711C112.751 48.5411 113.684 47.9944 113.683 47.3853Z" fill="#FFCC59"/>
<path opacity="0.5" d="M113.558 47.6281C113.558 47.6281 113.614 48.6848 113.595 48.6993C113.577 48.7135 113.525 47.881 113.525 47.7576C113.525 47.6341 113.558 47.6281 113.558 47.6281Z" fill="#FFCC59"/>
<path opacity="0.5" d="M111.321 47.4997C111.268 47.4373 111.198 47.3827 111.112 47.3372C111.031 47.2947 110.941 47.2582 110.841 47.2287C110.754 47.2028 110.666 47.1793 110.58 47.1583C110.53 47.1459 110.479 47.1327 110.43 47.1192C110.391 47.1083 110.356 47.0962 110.327 47.083C110.307 47.0742 110.292 47.0646 110.281 47.054C110.277 47.0496 110.276 47.0418 110.276 47.0358C110.276 47.032 110.277 47.0283 110.298 47.0201C110.31 47.0154 110.358 47.0012 110.492 47.0069C110.557 47.0097 110.631 47.018 110.711 47.032C110.79 47.0459 110.868 47.0646 110.942 47.0876C111.044 47.1195 111.164 47.0928 111.202 47.0304L111.324 46.83C111.355 46.7783 111.318 46.7187 111.236 46.6897C111.129 46.652 111.015 46.6217 110.897 46.5997C110.927 46.5489 110.964 46.4751 110.947 46.4407C110.919 46.3858 110.625 46.3706 110.506 46.3625C110.413 46.3563 110.399 46.4922 110.397 46.5528C110.271 46.551 110.157 46.5577 110.058 46.5725C109.93 46.5916 109.822 46.6217 109.735 46.6618C109.643 46.704 109.574 46.7568 109.529 46.8181C109.487 46.8761 109.465 46.9388 109.462 47.005C109.458 47.0938 109.485 47.173 109.543 47.2401C109.597 47.303 109.667 47.3576 109.752 47.4024C109.831 47.4443 109.919 47.4795 110.014 47.5075C110.097 47.5318 110.176 47.5528 110.251 47.5704L110.42 47.6131C110.462 47.6237 110.5 47.6359 110.532 47.6493C110.555 47.6587 110.572 47.6685 110.583 47.6783C110.584 47.6799 110.586 47.6843 110.586 47.6921C110.585 47.7182 110.572 47.7265 110.545 47.7343C110.485 47.7524 110.406 47.7594 110.31 47.7552C110.226 47.7516 110.141 47.7402 110.057 47.7208C109.967 47.7003 109.886 47.6765 109.817 47.6501C109.713 47.6108 109.58 47.6369 109.541 47.7042L109.419 47.9168C109.39 47.9665 109.424 48.0229 109.5 48.0527C109.609 48.0951 109.733 48.1301 109.869 48.1567C109.874 48.1578 109.879 48.1585 109.884 48.1596C109.854 48.2098 109.81 48.297 109.83 48.3348C109.86 48.3894 110.154 48.4011 110.273 48.4076C110.37 48.4127 110.376 48.2652 110.375 48.2088C110.496 48.2119 110.611 48.2072 110.717 48.1953C110.846 48.1808 110.961 48.1536 111.059 48.115C111.16 48.0752 111.241 48.0229 111.302 47.96C111.363 47.8958 111.396 47.8186 111.4 47.7306C111.404 47.6434 111.377 47.5655 111.321 47.4992L111.321 47.4997Z" fill="#F7974D"/>
<path d="M115.781 46.1125C115.782 46.7216 114.859 47.3232 113.501 47.4531C111.943 47.602 110.416 47.1472 110.09 46.4371C110.048 46.3467 110.028 46.2564 110.028 46.1676V47.1083C110.028 47.2297 110.081 47.3454 110.173 47.4236C110.481 47.6835 111.322 48.2051 113.12 48.1963C114.988 48.1873 115.567 47.5745 115.732 47.3061C115.771 47.2416 115.791 47.1673 115.791 47.0915L115.781 46.1127L115.781 46.1125Z" fill="#F7974D"/>
<mask id="mask14_302_5670" style="mask-type:luminance" maskUnits="userSpaceOnUse" x="110" y="46" width="6" height="3">
<path d="M115.781 46.1125C115.782 46.7216 114.859 47.3232 113.501 47.4531C111.943 47.602 110.416 47.1472 110.09 46.4371C110.048 46.3467 110.028 46.2564 110.028 46.1676V47.1083C110.028 47.2297 110.081 47.3454 110.173 47.4236C110.481 47.6835 111.322 48.2051 113.12 48.1963C114.988 48.1873 115.567 47.5745 115.732 47.3061C115.771 47.2416 115.791 47.1673 115.791 47.0915L115.781 46.1127L115.781 46.1125Z" fill="white"/>
</mask>
<g mask="url(#mask14_302_5670)">
<path opacity="0.5" d="M110.225 46.464C110.225 46.5215 110.169 47.5186 110.226 47.581C110.283 47.6434 110.351 46.6351 110.319 46.5572C110.288 46.4793 110.225 46.464 110.225 46.464H110.225Z" fill="#FFCC59"/>
<path opacity="0.5" d="M110.669 46.9124C110.669 46.9124 110.621 47.838 110.651 47.844L110.681 47.85C110.681 47.85 110.801 46.9724 110.735 46.9424L110.669 46.9124Z" fill="#FFCC59"/>
<path opacity="0.5" d="M111.4 47.2183C111.4 47.2183 111.325 48.0902 111.381 48.1013C111.437 48.1127 111.516 47.2499 111.516 47.2499L111.4 47.2183Z" fill="#FFCC59"/>
<path opacity="0.5" d="M112.312 47.3441C112.312 47.3441 112.253 48.2665 112.32 48.2812C112.386 48.296 112.533 47.3737 112.423 47.3589L112.312 47.3441Z" fill="#FFCC59"/>
<path opacity="0.5" d="M113.563 48.2445C113.563 48.2445 113.497 47.3146 113.556 47.3294C113.615 47.3441 113.754 48.2517 113.703 48.2592C113.651 48.2667 113.563 48.2445 113.563 48.2445H113.563Z" fill="#FFCC59"/>
<path opacity="0.5" d="M114.527 48.0897C114.527 48.0897 114.44 47.1704 114.487 47.2116C114.534 47.2528 114.707 48.0728 114.617 48.0811L114.527 48.0897Z" fill="#FFCC59"/>
<path opacity="0.5" d="M115.153 46.8663C115.153 46.8663 115.199 47.8557 115.229 47.8541C115.26 47.8525 115.265 46.8546 115.218 46.8249C115.171 46.7951 115.153 46.8663 115.153 46.8663H115.153Z" fill="#FFCC59"/>
</g>
<path d="M115.791 46.1674C115.791 46.0786 115.771 45.9882 115.729 45.8979C115.403 45.1878 113.876 44.7327 112.318 44.8818C110.959 45.0118 110.026 45.5585 110.028 46.1676C110.028 46.2564 110.048 46.3467 110.09 46.4371C110.416 47.1472 111.943 47.6022 113.501 47.4531C114.86 47.3232 115.792 46.7765 115.791 46.1674Z" fill="#FFCC59"/>
<path opacity="0.5" d="M115.666 46.4102C115.666 46.4102 115.722 47.4669 115.703 47.4813C115.685 47.4956 115.633 46.6631 115.633 46.5396C115.633 46.4161 115.666 46.4102 115.666 46.4102Z" fill="#FFCC59"/>
<path d="M113.846 46.2269C113.793 46.1645 113.722 46.1099 113.636 46.0643C113.556 46.0219 113.465 45.9854 113.366 45.9559C113.279 45.93 113.191 45.9064 113.105 45.8854C113.054 45.873 113.003 45.8598 112.955 45.8464C112.915 45.8355 112.881 45.8233 112.852 45.8101C112.832 45.8013 112.817 45.7917 112.806 45.7811C112.801 45.7767 112.801 45.769 112.801 45.763C112.801 45.7591 112.801 45.7555 112.822 45.7472C112.834 45.7426 112.883 45.7283 113.017 45.734C113.082 45.7369 113.156 45.7451 113.235 45.7591C113.315 45.7731 113.393 45.7917 113.467 45.8148C113.568 45.8466 113.689 45.82 113.727 45.7576L113.848 45.5572C113.88 45.5054 113.842 45.4459 113.761 45.4169C113.654 45.3791 113.54 45.3488 113.421 45.3268C113.452 45.2761 113.489 45.2023 113.471 45.1679C113.444 45.113 113.15 45.0977 113.031 45.0897C112.938 45.0835 112.923 45.2194 112.922 45.28C112.795 45.2782 112.682 45.2849 112.583 45.2996C112.455 45.3188 112.346 45.3488 112.259 45.3889C112.168 45.4311 112.099 45.4839 112.054 45.5453C112.012 45.6033 111.989 45.6662 111.986 45.7322C111.983 45.821 112.01 45.9002 112.068 45.9672C112.121 46.0301 112.192 46.0848 112.276 46.1296C112.356 46.1715 112.444 46.2067 112.539 46.2347C112.622 46.259 112.701 46.28 112.775 46.2976L112.945 46.3403C112.987 46.3509 113.025 46.363 113.057 46.3765C113.079 46.3858 113.096 46.3957 113.107 46.4055C113.109 46.4071 113.111 46.4115 113.11 46.4192C113.109 46.4454 113.096 46.4536 113.07 46.4614C113.01 46.4795 112.93 46.4865 112.835 46.4824C112.751 46.4788 112.666 46.4674 112.581 46.448C112.491 46.4275 112.41 46.4037 112.341 46.3773C112.238 46.3379 112.104 46.3641 112.065 46.4314L111.943 46.6439C111.915 46.6936 111.949 46.75 112.025 46.7798C112.133 46.8223 112.258 46.8572 112.394 46.8839C112.399 46.8849 112.403 46.8857 112.408 46.8867C112.379 46.9369 112.335 47.0242 112.355 47.062C112.385 47.1166 112.679 47.1282 112.798 47.1347C112.895 47.1399 112.901 46.9923 112.9 46.9359C113.02 46.939 113.135 46.9344 113.242 46.9225C113.371 46.908 113.486 46.8808 113.583 46.8422C113.684 46.8023 113.766 46.75 113.826 46.6871C113.888 46.6229 113.921 46.5458 113.925 46.4578C113.928 46.3706 113.902 46.2926 113.845 46.2264L113.846 46.2269Z" fill="#F7974D"/>
<path d="M102.965 49.7723V50.4433C102.965 50.5344 103.024 50.6149 103.11 50.6426C103.471 50.7575 104.518 51.0254 106.388 51.0073C108.25 50.9892 109.325 50.7661 109.705 50.6698C109.798 50.6462 109.862 50.5628 109.862 50.4671V49.7723H102.965H102.965Z" fill="#F7974D"/>
<mask id="mask15_302_5670" style="mask-type:luminance" maskUnits="userSpaceOnUse" x="102" y="49" width="8" height="3">
<path d="M102.965 49.7723V50.4433C102.965 50.5344 103.024 50.6149 103.11 50.6426C103.471 50.7575 104.518 51.0254 106.388 51.0073C108.25 50.9892 109.325 50.7661 109.705 50.6698C109.798 50.6462 109.862 50.5628 109.862 50.4671V49.7723H102.965H102.965Z" fill="white"/>
</mask>
<g mask="url(#mask15_302_5670)">
<path opacity="0.5" d="M109.159 49.8427C109.159 49.8427 109.201 50.9178 109.095 50.8857C108.989 50.8536 108.999 49.8885 108.999 49.8885L109.159 49.8427Z" fill="#FFCC59"/>
<path opacity="0.5" d="M108.414 49.9646C108.414 49.9646 108.457 51.0397 108.35 51.0076C108.244 50.9755 108.255 50.0104 108.255 50.0104L108.414 49.9646Z" fill="#FFCC59"/>
<path opacity="0.5" d="M107.242 50.0172C107.242 50.0172 107.285 51.0922 107.178 51.0601C107.072 51.028 107.083 50.063 107.083 50.063L107.242 50.0172Z" fill="#FFCC59"/>
<path opacity="0.5" d="M105.978 51.0927C105.978 51.0927 105.936 50.0177 106.042 50.0498C106.148 50.0819 106.138 51.0469 106.138 51.0469L105.978 51.0927Z" fill="#FFCC59"/>
<path opacity="0.5" d="M105.01 51.0084C105.01 51.0084 104.968 49.9333 105.074 49.9654C105.18 49.9975 105.17 50.9625 105.17 50.9625L105.01 51.0084Z" fill="#FFCC59"/>
<path opacity="0.5" d="M103.961 50.9121C103.961 50.9121 103.919 49.837 104.025 49.8691C104.132 49.9012 104.121 50.8662 104.121 50.8662L103.961 50.9121Z" fill="#FFCC59"/>
<path opacity="0.5" d="M103.217 50.816C103.217 50.816 103.174 49.741 103.281 49.7731C103.387 49.8052 103.376 50.7702 103.376 50.7702L103.217 50.816Z" fill="#FFCC59"/>
</g>
<path d="M106.414 50.1215C108.319 50.1215 109.863 49.9651 109.863 49.7723C109.863 49.5794 108.319 49.4231 106.414 49.4231C104.509 49.4231 102.965 49.5794 102.965 49.7723C102.965 49.9651 104.509 50.1215 106.414 50.1215Z" fill="#FFCC59"/>
<mask id="mask16_302_5670" style="mask-type:luminance" maskUnits="userSpaceOnUse" x="102" y="49" width="8" height="2">
<path d="M106.414 50.1215C108.319 50.1215 109.863 49.9651 109.863 49.7723C109.863 49.5794 108.319 49.4231 106.414 49.4231C104.509 49.4231 102.965 49.5794 102.965 49.7723C102.965 49.9651 104.509 50.1215 106.414 50.1215Z" fill="white"/>
</mask>
<g mask="url(#mask16_302_5670)">
<path d="M103.064 49.6887C103.064 49.6887 105.335 50.1191 107.57 49.8882C109.805 49.6573 109.79 49.5478 109.79 49.5478L108.793 49.3653L103.064 49.6889" fill="#F78537"/>
</g>
<path d="M101.981 48.6066V49.2776C101.981 49.3687 102.04 49.4492 102.127 49.4769C102.488 49.5918 103.534 49.8598 105.405 49.8417C107.266 49.8235 108.342 49.6004 108.722 49.5041C108.815 49.4805 108.879 49.3972 108.879 49.3014V48.6066H101.981H101.981Z" fill="#F7974D"/>
<mask id="mask17_302_5670" style="mask-type:luminance" maskUnits="userSpaceOnUse" x="101" y="48" width="8" height="2">
<path d="M101.981 48.6066V49.2776C101.981 49.3687 102.04 49.4492 102.127 49.4769C102.488 49.5918 103.534 49.8598 105.405 49.8417C107.266 49.8235 108.342 49.6004 108.722 49.5041C108.815 49.4805 108.879 49.3972 108.879 49.3014V48.6066H101.981H101.981Z" fill="white"/>
</mask>
<g mask="url(#mask17_302_5670)">
<path opacity="0.5" d="M102.616 48.6967C102.616 48.6967 102.628 49.9866 102.661 49.9128C102.694 49.8391 102.801 48.7076 102.801 48.7076L102.616 48.6964V48.6967Z" fill="#FFCC59"/>
<path opacity="0.5" d="M103.634 49.8427C103.631 49.8103 103.615 48.8015 103.664 48.8383C103.714 48.8751 103.707 49.8427 103.707 49.8427H103.634Z" fill="#FFCC59"/>
<path opacity="0.5" d="M104.938 49.8888C104.938 49.8888 104.875 48.8292 104.921 48.8468C104.967 48.8644 105.117 49.8114 105.096 49.8882C105.074 49.9654 104.938 49.8888 104.938 49.8888Z" fill="#FFCC59"/>
<path opacity="0.5" d="M106.366 50.0386C106.366 50.0386 106.31 48.6915 106.362 48.7309C106.415 48.7702 106.467 50.0112 106.467 50.0112L106.29 50.0244" fill="#FFCC59"/>
</g>
<path d="M105.431 48.9558C107.335 48.9558 108.879 48.7995 108.879 48.6066C108.879 48.4137 107.335 48.2574 105.431 48.2574C103.526 48.2574 101.982 48.4137 101.982 48.6066C101.982 48.7995 103.526 48.9558 105.431 48.9558Z" fill="#FFCC59"/>
<mask id="mask18_302_5670" style="mask-type:luminance" maskUnits="userSpaceOnUse" x="101" y="48" width="8" height="1">
<path d="M105.431 48.9558C107.335 48.9558 108.879 48.7995 108.879 48.6066C108.879 48.4137 107.335 48.2574 105.431 48.2574C103.526 48.2574 101.982 48.4137 101.982 48.6066C101.982 48.7995 103.526 48.9558 105.431 48.9558Z" fill="white"/>
</mask>
<g mask="url(#mask18_302_5670)">
<path opacity="0.5" d="M103.626 48.2577C103.626 48.2577 104.089 48.9558 106.118 48.9558C108.147 48.9558 107.608 48.8494 107.608 48.8494C107.608 48.8494 104.097 48.1484 103.999 48.1409C103.9 48.1334 103.626 48.2577 103.626 48.2577H103.626Z" fill="#F7974D"/>
</g>
<path d="M102.948 46.9149L102.806 47.5706C102.786 47.6597 102.826 47.7511 102.905 47.7966C103.234 47.9864 104.199 48.4715 106.031 48.8538C107.853 49.2341 108.952 49.2458 109.343 49.2331C109.439 49.23 109.519 49.1621 109.54 49.0687L109.687 48.3897L102.948 46.9152L102.948 46.9149Z" fill="#F7974D"/>
<mask id="mask19_302_5670" style="mask-type:luminance" maskUnits="userSpaceOnUse" x="102" y="46" width="8" height="4">
<path d="M102.948 46.9149L102.806 47.5706C102.786 47.6597 102.826 47.7511 102.905 47.7966C103.234 47.9864 104.199 48.4715 106.031 48.8538C107.853 49.2341 108.952 49.2458 109.343 49.2331C109.439 49.23 109.519 49.1621 109.54 49.0687L109.687 48.3897L102.948 46.9152L102.948 46.9149Z" fill="white"/>
</mask>
<g mask="url(#mask19_302_5670)">
<path opacity="0.5" d="M103.07 47.9887C103.1 47.9789 103.337 47.0257 103.39 47.0721C103.443 47.1187 103.158 48.0415 103.158 48.0415L103.07 47.9887Z" fill="#FFCC59"/>
<path opacity="0.5" d="M103.626 48.2577C103.687 48.2315 103.989 47.2921 104.037 47.3643C104.086 47.4368 103.742 48.3022 103.742 48.3022L103.626 48.2577H103.626Z" fill="#FFCC59"/>
<path opacity="0.5" d="M104.63 48.6623C104.63 48.6623 104.921 47.5225 104.973 47.588C105.025 47.6535 104.732 48.661 104.732 48.661L104.63 48.6623Z" fill="#FFCC59"/>
<path opacity="0.5" d="M105.913 48.9017C105.971 48.7459 106.115 47.9007 106.148 47.8981C106.18 47.8955 106.037 48.9416 106.037 48.9416L105.913 48.902V48.9017Z" fill="#FFCC59"/>
<path opacity="0.5" d="M107.083 49.1733C107.083 49.1733 107.162 48.0521 107.24 48.0855C107.319 48.1189 107.193 49.1733 107.193 49.1733H107.083Z" fill="#FFCC59"/>
<path opacity="0.5" d="M108.034 49.2359C108.034 49.2359 108.097 48.1914 108.145 48.2577C108.193 48.3239 108.133 49.2359 108.133 49.2359H108.034Z" fill="#FFCC59"/>
<path opacity="0.5" d="M108.973 48.3651C108.973 48.3651 108.894 49.3635 108.943 49.3193C108.992 49.275 109.046 48.3946 109.046 48.3946L108.973 48.3651Z" fill="#FFCC59"/>
</g>
<path d="M109.688 48.3894C109.647 48.5779 108.105 48.4006 106.244 47.9934C104.383 47.5862 102.908 47.1034 102.949 46.9149C102.99 46.7265 104.531 46.9038 106.392 47.311C108.253 47.7182 109.729 48.201 109.688 48.3894Z" fill="#FFCC59"/>
<path d="M106.414 48.9413C106.414 48.9413 108.114 49.2851 108.879 49.2245C108.879 49.2245 108.931 49.4262 108.722 49.5041C108.722 49.5041 106.869 49.4847 106.414 48.9413Z" fill="#F78537"/>
<path d="M113.688 32.2459C114.622 33.5786 114.965 35.1874 115.087 36.7864C115.205 38.3437 115.139 39.9083 115.248 41.4659C115.354 42.973 115.644 44.5228 116.516 45.7881C116.956 46.4254 117.523 46.9781 118.176 47.3931C118.774 47.7736 119.445 48.0294 120.136 48.1813C121.568 48.4966 123.05 48.4094 124.504 48.3824C124.683 48.3791 124.863 48.3765 125.042 48.3755C125.212 48.3744 125.212 48.1099 125.042 48.1112C123.6 48.1207 122.138 48.2414 120.706 48.0198C120.018 47.9131 119.338 47.7229 118.718 47.4008C118.054 47.056 117.471 46.5712 116.997 45.9918C116.041 44.8241 115.677 43.316 115.542 41.8415C115.401 40.302 115.465 38.7525 115.378 37.2104C115.289 35.6246 115.036 34.0052 114.233 32.6107C114.135 32.4398 114.028 32.2736 113.915 32.1124C113.818 31.9741 113.59 32.1062 113.688 32.2457V32.2459Z" fill="#1C056D"/>
<path d="M117.304 26.5836C116.897 25.8443 116.364 25.2072 115.718 24.69C115.116 24.2075 114.435 23.8057 113.696 23.4958C113.047 23.2235 112.395 22.9779 111.758 22.7648C111.38 22.6385 111.003 22.5026 110.64 22.3602C110.349 22.2463 110.09 22.1146 109.872 21.9688C109.723 21.8694 109.611 21.7609 109.528 21.6367C109.493 21.5844 109.486 21.4884 109.486 21.4174C109.486 21.3695 109.486 21.3242 109.639 21.2132C109.724 21.1511 110.079 20.9489 111.061 20.9489C111.545 20.9489 112.088 21.0144 112.676 21.1438C113.267 21.2738 113.845 21.4645 114.394 21.7107C115.149 22.0491 116.03 21.6587 116.289 20.8712L117.12 18.3427C117.335 17.688 117.043 16.974 116.431 16.6598C115.61 16.2381 114.736 15.9176 113.831 15.7069C113.723 15.6815 113.612 15.658 113.501 15.6357C113.711 14.9958 113.982 14.0147 113.84 13.5868C113.62 12.9252 111.457 12.8884 110.577 12.8516C109.829 12.8203 109.823 14.8312 109.838 15.4323C109.063 15.4933 108.359 15.6249 107.737 15.8252C106.806 16.1255 106.016 16.5521 105.388 17.0929C104.729 17.6603 104.238 18.3445 103.928 19.1252C103.636 19.8599 103.488 20.6452 103.488 21.4599C103.488 22.5559 103.713 23.5158 104.157 24.3126C104.572 25.0591 105.106 25.6949 105.742 26.202C106.338 26.677 106.998 27.0664 107.703 27.3586C108.319 27.6138 108.909 27.8334 109.459 28.0112L110.718 28.4482C111.032 28.5571 111.313 28.6874 111.553 28.8354C111.721 28.9387 111.849 29.0503 111.933 29.1675C111.945 29.1849 111.96 29.239 111.96 29.3343C111.96 29.6552 111.868 29.7645 111.675 29.8758C111.238 30.1284 110.658 30.2568 109.952 30.2568C109.338 30.2568 108.708 30.1587 108.081 29.9654C107.412 29.759 106.678 29.678 106.161 29.3907C105.387 28.9599 104.547 29.1815 104.284 30.0285L103.453 32.708C103.258 33.3345 103.524 34.0124 104.092 34.3383C104.811 34.7507 105.618 35.0854 106.493 35.3357C106.31 35.97 106.118 36.8123 106.254 37.1959C106.488 37.8529 108.651 37.8446 109.532 37.863C110.12 37.8754 110.224 36.6363 110.228 35.8133C111.241 35.8118 112.2 35.6948 113.08 35.4657C114.025 35.219 114.861 34.8268 115.567 34.3C116.295 33.7559 116.88 33.0717 117.304 32.2667C117.737 31.4437 117.957 30.4766 117.957 29.3925C117.957 28.3084 117.737 27.3721 117.304 26.5841L117.304 26.5836Z" fill="#F7974D"/>
<path d="M116.25 26.2183C115.843 25.479 115.309 24.8419 114.664 24.3247C114.061 23.8422 113.381 23.4405 112.642 23.1306C111.993 22.8583 111.341 22.6126 110.704 22.3996C110.325 22.2732 109.949 22.1373 109.586 21.995C109.294 21.8811 109.036 21.7493 108.818 21.6036C108.669 21.5042 108.556 21.3957 108.474 21.2714C108.439 21.2191 108.431 21.1231 108.431 21.0522C108.431 21.0043 108.431 20.959 108.584 20.8479C108.67 20.7858 109.025 20.5836 110.007 20.5836C110.49 20.5836 111.034 20.6491 111.621 20.7786C112.212 20.9085 112.791 21.0993 113.34 21.3455C114.095 21.6838 114.976 21.2934 115.235 20.506L116.065 17.9774C116.28 17.3227 115.988 16.6088 115.376 16.2945C114.58 15.8853 113.732 15.5713 112.855 15.3606C113.062 14.7209 113.31 13.7918 113.173 13.3787C112.953 12.717 110.79 12.6803 109.91 12.6435C109.225 12.6148 109.162 14.2958 109.168 15.0424C108.24 15.0869 107.406 15.2267 106.683 15.46C105.752 15.7602 104.962 16.1868 104.334 16.7276C103.675 17.295 103.184 17.9792 102.874 18.7599C102.582 19.4946 102.434 20.28 102.434 21.0946C102.434 22.1907 102.659 23.1505 103.103 23.9473C103.518 24.6939 104.052 25.3296 104.688 25.8367C105.284 26.3118 105.944 26.7011 106.649 26.9933C107.264 27.2486 107.855 27.4681 108.405 27.6459L109.664 28.0829C109.978 28.1919 110.259 28.3221 110.499 28.4702C110.667 28.5735 110.794 28.685 110.879 28.8023C110.891 28.8196 110.906 28.8737 110.906 28.969C110.906 29.29 110.814 29.3992 110.621 29.5105C110.184 29.7632 109.604 29.8916 108.898 29.8916C108.284 29.8916 107.654 29.7935 107.027 29.6001C106.358 29.3938 105.757 29.1435 105.24 28.8559C104.466 28.4251 103.494 28.816 103.231 29.6633L102.399 32.3428C102.204 32.9692 102.47 33.6472 103.038 33.9731C103.85 34.4388 104.773 34.8056 105.782 35.0634C105.818 35.0725 105.854 35.0813 105.89 35.0901C105.691 35.7235 105.392 36.8208 105.553 37.2751C105.787 37.9321 107.95 37.9239 108.831 37.9422C109.543 37.9572 109.545 36.1369 109.52 35.4432C110.406 35.4183 111.247 35.3036 112.026 35.1007C112.971 34.854 113.808 34.4618 114.513 33.935C115.242 33.3909 115.826 32.7067 116.25 31.9017C116.683 31.0787 116.903 30.1116 116.903 29.0275C116.903 27.9434 116.683 27.0071 116.25 26.2191L116.25 26.2183Z" fill="#FFCC59"/>
</g>
<defs>
<clipPath id="clip0_302_5670">
<rect width="62.104" height="44.7963" fill="white" transform="translate(92.6296 6.83333)"/>
</clipPath>
</defs>
</svg>
