<svg width="164" height="59" fill="none" xmlns="http://www.w3.org/2000/svg">
    <rect width="164" height="58.463" rx="15" fill="#7EE150" />
    <path
        d="M18.372 20v-9.8h1.512v8.344h4.592V20h-6.104Zm11.173.14c-.756 0-1.428-.159-2.016-.476a3.681 3.681 0 0 1-1.372-1.33c-.326-.56-.49-1.204-.49-1.932a4.3 4.3 0 0 1 .28-1.582c.187-.476.444-.887.77-1.232a3.379 3.379 0 0 1 1.19-.812c.467-.196.971-.294 1.512-.294.476 0 .92.093 1.33.28.411.177.766.425 1.064.742.308.317.542.695.7 1.134.168.43.248.9.238 1.414l-.014.616h-6.006l-.322-1.148h5.082l-.21.238v-.336a1.622 1.622 0 0 0-.308-.826 1.902 1.902 0 0 0-1.554-.784c-.504 0-.928.098-1.274.294a1.806 1.806 0 0 0-.784.84c-.177.364-.266.817-.266 1.358 0 .513.108.961.322 1.344.215.373.518.663.91.868.392.205.845.308 1.358.308.364 0 .7-.06 1.008-.182.318-.121.658-.34 1.022-.658l.728 1.022c-.224.224-.499.42-.826.588a5.187 5.187 0 0 1-1.022.406c-.354.093-.704.14-1.05.14Zm7.602 0a2.94 2.94 0 0 1-1.666-.504 3.637 3.637 0 0 1-1.19-1.372c-.3-.579-.448-1.232-.448-1.96 0-.737.149-1.39.447-1.96a3.546 3.546 0 0 1 1.233-1.358 3.234 3.234 0 0 1 1.75-.49c.382 0 .732.056 1.05.168.317.112.592.27.825.476.243.196.44.425.588.686.16.261.257.541.295.84l-.322-.112V12.65h1.455V20h-1.456v-1.75l.337-.098a1.99 1.99 0 0 1-.35.742 2.659 2.659 0 0 1-.659.63 3.407 3.407 0 0 1-.882.448 3.006 3.006 0 0 1-1.008.168Zm.378-1.33a2.11 2.11 0 0 0 1.162-.322 2.18 2.18 0 0 0 .784-.882c.196-.383.294-.817.294-1.302a2.7 2.7 0 0 0-.294-1.274 2.18 2.18 0 0 0-.784-.882 2.11 2.11 0 0 0-1.162-.322c-.43 0-.813.107-1.148.322a2.324 2.324 0 0 0-.785.882c-.186.373-.28.798-.28 1.274 0 .485.094.92.28 1.302.197.373.458.667.785.882.335.215.718.322 1.148.322ZM43.178 20v-7.35h1.456v2.31l-.14-.56c.103-.355.275-.677.518-.966.252-.29.537-.518.854-.686a2.18 2.18 0 0 1 1.008-.252c.159 0 .308.014.448.042.15.028.266.06.35.098l-.378 1.568a2.003 2.003 0 0 0-.378-.112 1.422 1.422 0 0 0-.392-.056c-.252 0-.495.051-.728.154a1.854 1.854 0 0 0-.602.406 1.955 1.955 0 0 0-.406.602 1.76 1.76 0 0 0-.154.742V20h-1.456Zm5.646 0v-7.35h1.442v1.512l-.252.168c.094-.327.276-.625.546-.896.271-.28.593-.504.966-.672a2.649 2.649 0 0 1 1.148-.266c.56 0 1.027.112 1.4.336.374.215.654.546.84.994.187.448.28 1.013.28 1.694V20h-1.442v-4.382c0-.42-.056-.765-.168-1.036-.112-.28-.284-.48-.518-.602-.233-.13-.522-.187-.868-.168-.28 0-.536.047-.77.14a1.856 1.856 0 0 0-.616.364 1.876 1.876 0 0 0-.406.56c-.093.205-.14.43-.14.672V20H48.824ZM24.77 35v-9.8h1.512V35H24.77Zm-6.398 0v-9.8h1.512V35h-1.512Zm.658-4.158v-1.456h6.412v1.456H19.03Zm12.932 4.298c-.718 0-1.362-.163-1.932-.49a3.712 3.712 0 0 1-1.33-1.358c-.326-.579-.49-1.237-.49-1.974 0-.737.164-1.39.49-1.96A3.575 3.575 0 0 1 30.03 28c.57-.336 1.214-.504 1.932-.504.71 0 1.344.168 1.904.504.57.327 1.018.78 1.344 1.358.327.57.49 1.223.49 1.96 0 .737-.163 1.395-.49 1.974a3.679 3.679 0 0 1-1.344 1.358c-.56.327-1.194.49-1.904.49Zm0-1.316c.44 0 .831-.107 1.176-.322a2.35 2.35 0 0 0 .812-.896c.196-.383.29-.812.28-1.288.01-.485-.084-.915-.28-1.288a2.223 2.223 0 0 0-.812-.896 2.181 2.181 0 0 0-1.176-.322 2.223 2.223 0 0 0-2.002 1.232c-.196.373-.289.798-.28 1.274-.009.476.084.905.28 1.288.196.373.467.672.812.896.355.215.752.322 1.19.322ZM38.804 35l-2.506-7.35 1.456-.014 1.792 5.502-.322-.028 1.946-4.298h.868l1.96 4.312-.378.028 1.806-5.502h1.456L44.404 35h-.994l-2.044-4.676.322.042L39.784 35h-.98Zm14.225 0v-9.226h1.442V35H53.03Zm-1.526-5.95v-1.4h4.676v1.4h-4.676Zm9.225 6.09c-.719 0-1.363-.163-1.932-.49a3.712 3.712 0 0 1-1.33-1.358c-.327-.579-.49-1.237-.49-1.974 0-.737.163-1.39.49-1.96A3.575 3.575 0 0 1 58.796 28c.57-.336 1.213-.504 1.932-.504.71 0 1.344.168 1.904.504.57.327 1.017.78 1.344 1.358.327.57.49 1.223.49 1.96 0 .737-.163 1.395-.49 1.974a3.679 3.679 0 0 1-1.344 1.358c-.56.327-1.195.49-1.904.49Zm0-1.316c.439 0 .83-.107 1.176-.322a2.35 2.35 0 0 0 .812-.896c.196-.383.29-.812.28-1.288.01-.485-.084-.915-.28-1.288a2.223 2.223 0 0 0-.812-.896 2.181 2.181 0 0 0-1.176-.322 2.223 2.223 0 0 0-2.002 1.232c-.196.373-.29.798-.28 1.274-.01.476.084.905.28 1.288.196.373.467.672.812.896.355.215.751.322 1.19.322ZM18.946 43.28c-.261 0-.5-.065-.714-.196a1.504 1.504 0 0 1-.49-.56 1.823 1.823 0 0 1-.182-.826c0-.243.051-.48.154-.714a2.62 2.62 0 0 1 .42-.658c.187-.205.401-.387.644-.546a3 3 0 0 1 .784-.364l.532.644c-.364.168-.663.36-.896.574-.233.215-.35.401-.35.56 0 .121.051.229.154.322l.28.252c.205.168.34.308.406.42a.622.622 0 0 1 .112.35c0 .224-.08.406-.238.546-.159.13-.364.196-.616.196ZM21.749 50v-9.8h6.174v1.456h-4.662v6.888h4.662V50h-6.174Zm.686-4.298v-1.456h4.718v1.456h-4.718ZM29.327 50l3.794-9.8h1.54l3.766 9.8h-1.61l-2.24-5.908a8.343 8.343 0 0 1-.168-.476 26.628 26.628 0 0 0-.266-.84l-.28-.84c-.084-.261-.14-.43-.168-.504l.322-.014a109 109 0 0 0-.21.602c-.075.243-.16.5-.252.77a25.11 25.11 0 0 1-.462 1.358L30.867 50h-1.54Zm1.68-2.436.56-1.456h4.452l.644 1.456h-5.656ZM40.15 50v-9.8h4.172c.56 0 1.074.14 1.54.42.476.27.854.644 1.134 1.12.28.467.42.994.42 1.582a2.79 2.79 0 0 1-.42 1.484c-.28.457-.653.826-1.12 1.106a3.04 3.04 0 0 1-1.554.406h-2.66V50h-1.512Zm5.824 0-2.492-4.424 1.554-.35 2.772 4.788L45.975 50Zm-4.312-5.138h2.8c.271 0 .514-.065.728-.196a1.46 1.46 0 0 0 .504-.56 1.76 1.76 0 0 0 .182-.798c0-.327-.079-.611-.238-.854a1.515 1.515 0 0 0-.644-.588c-.27-.14-.578-.21-.924-.21h-2.408v3.206ZM49.886 50v-9.8h1.358l5.992 8.022-.224.126c-.038-.233-.07-.485-.098-.756-.028-.28-.056-.574-.084-.882-.019-.317-.038-.649-.056-.994-.01-.355-.019-.723-.028-1.106-.01-.383-.014-.78-.014-1.19V40.2h1.512V50h-1.386l-5.894-7.728.154-.196c.046.57.084 1.055.112 1.456.037.392.065.728.084 1.008.028.27.046.495.056.672.009.168.014.308.014.42.009.112.014.21.014.294V50h-1.512Zm10.541-6.65-.532-.644c.364-.168.663-.36.896-.574.234-.215.35-.401.35-.56a.425.425 0 0 0-.154-.322 3.065 3.065 0 0 0-.28-.252c-.205-.168-.345-.308-.42-.42a.685.685 0 0 1-.098-.35c0-.224.08-.401.238-.532.159-.14.364-.21.616-.21.262 0 .495.07.7.21.215.13.383.313.504.546.122.233.182.509.182.826 0 .243-.051.48-.154.714a2.434 2.434 0 0 1-.434.658 2.982 2.982 0 0 1-.63.546c-.242.159-.504.28-.784.364Z"
        fill="#8532D8" />

    <path d="M129.506 46.835s.389 1.828.415 1.845c.026.018 1.063.018 1.316-.148l-.069-1.898-1.662.2Z" fill="#FE8E9C" />

    <path d="M129.506 46.835s.389 1.828.415 1.845c.026.018 1.063.018 1.316-.148l-.069-1.898-1.662.2Z" fill="#fff" />


    <path d="M129.394 46.689s.028.625.151.696c.123.071 1.557.114 1.693.005.136-.11-.025-.858-.025-.858l-1.819.156Z"
        fill="#E57492" />

    <path
        d="M131.362 48.28c-.195.037-1.003.17-1.619.018-.026-.007-.051.017-.046.044.029.154.104.559.101.628-.004.085-2.243.937-2.392 1.167a1.203 1.203 0 0 0-.155.47.083.083 0 0 0 .088.095l4.194-.225a.092.092 0 0 0 .086-.107l-.179-1.105-.033-.948a.038.038 0 0 0-.045-.036Z"
        fill="#1B3D9E" />
    <path d="M134.074 47.108s.49 1.973.516 1.99c.025.018 1.063.018 1.316-.148l.042-1.902-1.874.06Z" fill="#FE8E9C" />

    <path d="M134.074 47.108s.49 1.973.516 1.99c.025.018 1.063.018 1.316-.148l.042-1.902-1.874.06Z" fill="#fff" />

    <path d="M134.145 47.76s1.458.164 1.894-.174l-.041-.81-1.934.111.081.874Z" fill="#E57492" />

    <path
        d="M136.034 48.737c-.195.032-1.006.15-1.619-.015a.038.038 0 0 0-.047.043c.026.155.092.561.088.63-.005.084-2.261.892-2.415 1.119a1.202 1.202 0 0 0-.162.46.092.092 0 0 0 .091.107h4.209c.056 0 .099-.05.091-.106l-.177-1.252-.014-.949a.038.038 0 0 0-.044-.037h-.001Z"
        fill="#1B3D9E" />
    <path
        d="M92.663 25.03c-.307 4.566 1.49 9.246 4.606 12.557a16.642 16.642 0 0 0 4.416 3.345c5.735 2.992 12.992 2.57 18.566-.712 2.589-1.525 4.87-3.625 7.685-4.672 3.737-1.39 7.869-.746 11.844-.465 3.975.28 8.369.026 11.309-2.672 3.699-3.396 4.146-9.232 3.249-13.886-1.047-5.433-4.73-9.284-10.011-10.886-.479-.145-.964-.27-1.453-.375-5.161-1.11-9.977.095-14.893 1.66-2.177.693-4.378 1.358-6.663 1.564-4.167.376-8.352-.449-12.524-.063-7.312.677-14.176 4.893-15.832 12.49-.152.7-.25 1.406-.299 2.115Z"
        fill="#F6F9FF" />
    <path d="M125.053 32.879s-.485.795-.459.817c.026.022.289.259.94.163.03-.005.449-.54.449-.54l-.929-.44h-.001Z"
        fill="#FE8E9C" />
    <path
        d="M129.09 24.347s-1.082 4.152-1.289 4.3c-.207.148-3.244 4.357-3.042 4.522.202.164 1.415.644 1.82.57.404-.074 2.904-3.412 3.125-3.604.22-.193.858-5.758.858-5.758l-1.472-.03Z"
        fill="#FC476A" />
    <path
        d="M129.09 24.347s-1.082 4.152-1.289 4.3c-.207.148-3.244 4.357-3.042 4.522.202.164 1.415.644 1.82.57.404-.074 2.904-3.412 3.125-3.604.22-.193.858-5.758.858-5.758l-1.472-.03Z"
        fill="#fff" />

    <path
        d="M126.607 33.98s3.237-3.34 3.33-3.562c.093-.221.662-1.109.662-1.109l-.708-.984s-1.037 1.638-1.165 1.72c-.128.081-3.2 3.35-2.585 3.78.111.077.466.154.466.154Z" />
    <path
        d="M128.781 31.112s-.108-2.489-.136-2.817c-.289-3.379.574-4.392.574-4.392s.471 6.39.244 6.706c-.227.315-.682.503-.682.503Z" />

    <path d="M129.862 22.618s-1.312 2.104-1.044 4.09c.267 1.986.483 6.461.483 6.461l2.288-.245-1.073-10.153-.654-.153Z"
        fill="#FC476A" />
    <path
        d="M130.28 30.609s-2.787 6.349-3.024 7.112c-.537 1.73 1.526 9.016 1.549 9.25.023.235 2.675.251 2.839 0 .164-.25-.482-8.22-.482-8.22s3.951-6.396 3.369-7.048c-.778-.872-4.251-1.094-4.251-1.094Z"
        fill="#1B3D9E" />
    <path
        d="M130.28 30.609s-2.787 6.349-3.024 7.112c-.537 1.73 1.526 9.016 1.549 9.25.023.235 2.675.251 2.839 0 .164-.25-.482-8.22-.482-8.22s3.951-6.396 3.369-7.048c-.778-.872-4.251-1.094-4.251-1.094Z"
        fill="#fff" />

    <path
        d="M130.185 47.41a.045.045 0 0 1-.044-.037c-.052-.346-1.275-8.465-1.186-8.839.087-.368 2.42-6.574 2.519-6.838a.044.044 0 0 1 .083.03c-.025.065-2.431 6.466-2.517 6.829-.068.285.748 5.884 1.188 8.804a.044.044 0 0 1-.037.05l-.007.001h.001Z" />
    <path d="M127.857 34.885s.925.054 1.265-.195c.44-.321 2.329-2.807 2.329-2.807l-1.635-.94-1.959 3.942Z" />

    <path d="M131.954 37.43s-.229-3.01-.285-3.094c-.056-.084-.602 4.085-.381 4.208l.666-1.115Z" fill="#1C056D" />
    <path
        d="M135.051 30.135s1.281 2.557 1.318 4.082c.036 1.524.256 12.628 0 12.81-.256.184-2.731.66-2.791 0-.06-.659-3.25-16.397-1.704-16.411 1.546-.015 3.177-.481 3.177-.481Z"
        fill="#1B3D9E" />
    <path
        d="M135.051 30.135s1.281 2.557 1.318 4.082c.036 1.524.256 12.628 0 12.81-.256.184-2.731.66-2.791 0-.06-.659-3.25-16.397-1.704-16.411 1.546-.015 3.177-.481 3.177-.481Z"
        fill="#fff" />

    <path
        d="M135.295 47.685a.044.044 0 0 1-.044-.04c-.007-.092-.692-9.134-.705-9.781-.013-.642-1.562-7.649-1.577-7.72a.043.043 0 0 1 .033-.052.044.044 0 0 1 .052.033c.064.29 1.566 7.087 1.58 7.737.013.644.698 9.685.705 9.776a.044.044 0 0 1-.041.047h-.003Z" />
    <path
        d="M132.12 31.761s.571 3.18.856 3.297c.832.343 2.856-.643 3.515-1.787.659-1.143-1.218-2.909-1.218-2.909l-3.153 1.4Z" />

    <path
        d="M130.009 22.84s-.611 1.936-.54 3.007c.071 1.072 1.154 6.081 1.355 6.248.2.167 1.219.102 1.742-.056.523-.158 1.933-.707 1.84-.836-.093-.129-1.159-6.074-1.299-6.605-.14-.53-1.001-2.377-1.001-2.377s-.994.884-1.297.845c-.304-.039-.799-.225-.799-.225h-.001Z"
        fill="#fff" />
    <path
        d="M130.981 20.366c.004-.012.008-.023.01-.034.058-.322.342-2.396-.223-2.894-.566-.5-2.532-.172-2.36.818 0 0 .389 1.244-.002 1.635-.39.391-.813.692-.491.751.322.059.598-.193.715-.056.117.137.126 1.134.575 1.056.137-.024.351-.125.584-.263.075.57.178 1.315.22 1.461.071.244 1.831-.314 2.096-.62.239-.274-.895-1.592-1.124-1.854Z"
        fill="#FE8E9C" />
    <path
        d="M130.981 20.366c.004-.012.008-.023.01-.034.058-.322.342-2.396-.223-2.894-.566-.5-2.532-.172-2.36.818 0 0 .389 1.244-.002 1.635-.39.391-.813.692-.491.751.322.059.598-.193.715-.056.117.137.126 1.134.575 1.056.137-.024.351-.125.584-.263.075.57.178 1.315.22 1.461.071.244 1.831-.314 2.096-.62.239-.274-.895-1.592-1.124-1.854Z"
        fill="#fff" />
    <path d="M128.463 19.1s.863-.349 1.048-.713c0 0 .271.561.565.532l-.194-1.21-1.879.49.46.902Z" fill="#E57492" />

    <path d="M129.789 21.379s.322-.216.469-.46a.024.024 0 0 1 .045.01c.016.196.009.705-.458.867l-.056-.417Z"
        fill="#E57492" />
    <path
        d="M125.053 34.185s.081 3.321.186 3.332c.105.012.372.085.366-.02-.006-.105-.062-3.302-.116-3.337-.055-.034-.436.025-.436.025Z"
        fill="#D4DFFF" />
    <path
        d="M125.053 34.185s.081 3.321.186 3.332c.105.012.372.085.366-.02-.006-.105-.062-3.302-.116-3.337-.055-.034-.436.025-.436.025Z"
        fill="#fff" />

    <path opacity=".4" d="M125.329 34.15s-.146 3.142 0 3.196c.146.055.462-.098.462-.098l-.12-3.098h-.342"
        fill="#6880E4" />

    <path
        d="M123.252 33.866s4.15-.094 4.376 0c.226.095.149.6.075.6-.073 0-4.378.041-4.452 0-.073-.043-.198-.517 0-.6h.001Z"
        fill="#6880E4" />
    <path
        d="M123.252 33.866s4.15-.094 4.376 0c.226.095.149.6.075.6-.073 0-4.378.041-4.452 0-.073-.043-.198-.517 0-.6h.001Z"
        fill="#fff" />

    <path opacity=".24"
        d="M123.008 34.314s4.882-.3 4.957-.195c.075.105.097.442-.075.457-.171.015-4.927.044-4.92-.03.008-.075.038-.232.038-.232Z"
        fill="#1C056D" />

    <path
        d="M124.388 36.666c.024-.14 1.893-.14 1.974-.055.081.087.508 13.813.33 13.813-.179 0-1.971.045-2.067.013-.096-.032-.313-13.328-.237-13.77Z"
        fill="#6880E4" />
    <path
        d="M124.388 36.666c.024-.14 1.893-.14 1.974-.055.081.087.508 13.813.33 13.813-.179 0-1.971.045-2.067.013-.096-.032-.313-13.328-.237-13.77Z"
        fill="#fff" />

    <path opacity=".24" d="M124.619 36.273s-.031 11.885 2.484 13.083v1.513h-3.458V36.273h.974Z" fill="#1C056D" />

    <path
        d="M123.219 50.326s4.789-.134 4.809 0c.019.134.114.746 0 .746-.115 0-4.733.02-4.809 0-.076-.019-.172-.65 0-.746Z"
        fill="#6880E4" />
    <path
        d="M124.372 37.619a.067.067 0 0 1-.066-.063.066.066 0 0 1 .062-.07c.075-.004 1.84-.106 2.054-.093a.067.067 0 0 1 .062.07.066.066 0 0 1-.07.061c-.206-.012-2.02.093-2.038.094h-.004ZM126.735 49.566l-.009-.001c-.257-.036-2.135 0-2.154 0h-.001a.066.066 0 0 1-.002-.132c.078-.001 1.908-.036 2.175.001a.066.066 0 0 1 .056.075.066.066 0 0 1-.065.056Z"
        fill="#1C056D" />
    <path
        d="M129.946 22.56s.406.159.57.211c.164.052-.159.577-.229.548-.059-.025-.362-.29-.445-.583a.14.14 0 0 1 .104-.175ZM132.164 21.84s-1.386.774-1.359.9c.028.127.297.536.351.514.053-.023 1.202-.986 1.215-1.068.014-.081-.207-.345-.207-.345Z"
        fill="#FFE0C1" />
    <path
        d="M130.516 22.771s-.092.133-.078.261c.013.128.166.395.217.384.052-.012.301-.293.273-.388-.027-.095-.083-.28-.123-.287-.04-.008-.289.03-.289.03Z"
        fill="#1B3D9E" />
    <path
        d="M130.525 23.157s-.353 3.236-.412 4.419c-.058 1.182-.023 2.128.004 2.25.026.12.631 1.218.683 1.197.053-.022.527-1.2.544-1.325.016-.124-.254-3.17-.276-3.695-.022-.526-.336-2.887-.336-2.887l-.207.042Z"
        fill="#1B3D9E" />
    <path
        d="M127.56 32.411s-.803.85-.831.85c-.027 0-.764.45-.848.525-.084.075-.069.566-.031.805.037.24.555.215.718.195.164-.02.845-.201.859-.318.011-.089.003-.606.003-.606l1.084-.598-.954-.853Z"
        fill="#FE8E9C" />
    <path
        d="M135.112 26.525c-.055-.39-.131-3.483-2.53-4.537a.417.417 0 0 0-.578.308s-1.299 6.2-1.404 6.357c-.106.159-3.662 3.54-3.728 3.884-.065.345 1.324 1.606 1.86 1.477.511-.123 3.396-2.593 4.082-3.404.225 1.953.44 3.73.546 3.73.205 0 3.358-1.873 3.621-2.517.263-.644-1.811-4.889-1.869-5.299Z"
        fill="#FC476A" />
    <path
        d="M132.814 30.61s.332-.337.566-.804c.232-.467.556-3.003.556-3.003s.142 2.886-.124 3.453c-.266.567-.918 1.04-.918 1.04l-.08-.686ZM130.6 28.654s.194.575 1.005.74c0 0-.838-.497-.936-.975l-.069.235Z"
        fill="#D40221" />
    <path
        d="M125.209 33.723c.007.02.03.029.023.049-.03.091-.112.346-.139.474a2.478 2.478 0 0 0-.047.379c-.007.232-1.178.183-1.261.039-.083-.145-.161-.512-.133-.595.027-.084.26-.377.36-.411.097-.033 1.042-.39 1.198.065h-.001Z"
        fill="#FE8E9C" />
    <path
        d="M128.495 18.6s1.162-.305 1.343-.78c0 0-.446.685.314 1.203 0 0-.153-.483.286-.448.439.035.216.727 0 .713 0 0 .427.734.6.717.174-.018.521-1.306.432-2.045-.088-.74-.206-1.025-.963-1.173-.756-.147-2.594.69-2.8.542-.206-.148-.285.517.127.542 0 0-.281.19-.033.394.248.203.394.076.394.076s-.102.334.3.259Z"
        fill="#1B3D9E" />
    <path d="M128.736 20.96s.453.068.612-.534c0 0-.662.324-.612.535Z" fill="#fff" />
    <path
        d="M98.325 20.105a3.35 3.35 0 0 0 0-4.73 3.33 3.33 0 0 0-4.718 0 3.351 3.351 0 0 0 0 4.73 3.33 3.33 0 0 0 4.718 0Z"
        fill="#D4DFFF" />
    <path
        d="M97.204 18.115a1.224 1.224 0 0 0-.244-.412c-.1-.111-.217-.21-.349-.292a5.403 5.403 0 0 0-.347-.2 4.386 4.386 0 0 1-.2-.113.774.774 0 0 1-.135-.1.234.234 0 0 1-.056-.074.091.091 0 0 1-.001-.043c.002-.01.003-.018.036-.034.018-.01.092-.037.28-.006a1.722 1.722 0 0 1 .613.25.27.27 0 0 0 .388-.1l.239-.456a.272.272 0 0 0-.08-.344 2.19 2.19 0 0 0-.451-.258c.059-.116.136-.286.122-.369-.02-.133-.433-.209-.6-.243-.13-.027-.195.292-.217.435a1.873 1.873 0 0 0-.489.001 1.302 1.302 0 0 0-.488.168c-.144.088-.26.203-.343.342a1.216 1.216 0 0 0-.157.433 1.127 1.127 0 0 0 .28.977c.1.11.214.205.34.283.109.068.215.129.314.18l.227.123c.057.031.106.065.148.1.029.026.05.051.062.076.001.004.002.015 0 .033-.01.061-.031.079-.072.094a.668.668 0 0 1-.34.019 1.226 1.226 0 0 1-.35-.115 1.797 1.797 0 0 1-.318-.2.27.27 0 0 0-.409.092l-.243.486a.272.272 0 0 0 .07.332c.141.114.306.213.49.295l.02.008c-.057.115-.15.315-.132.407.024.133.437.2.605.231.136.026.194-.322.21-.456.17.024.335.028.49.014.188-.017.36-.066.512-.144.156-.081.29-.193.396-.334.108-.143.18-.321.215-.528a1.117 1.117 0 0 0-.036-.558Z"
        fill="#EAF2FC" />
    <path
        d="M122.584 23.827a1.648 1.648 0 0 0 0-2.324 1.636 1.636 0 0 0-2.318 0 1.646 1.646 0 0 0 0 2.324c.64.641 1.678.641 2.318 0Z"
        fill="#D4DFFF" />
    <path
        d="M122.009 22.415a.601.601 0 0 0-.221-.078.82.82 0 0 0-.224 0c-.066.009-.131.02-.194.034a2.55 2.55 0 0 1-.111.021.38.38 0 0 1-.082.005.115.115 0 0 1-.044-.01c-.005-.003-.01-.01-.014-.016-.002-.004-.004-.008.003-.024.004-.01.023-.043.104-.09a.844.844 0 0 1 .31-.1.133.133 0 0 0 .114-.161l-.054-.247a.132.132 0 0 0-.137-.105c-.085.005-.17.02-.252.046-.014-.062-.038-.15-.07-.178-.049-.043-.229.059-.302.098-.058.031.018.172.055.233a.925.925 0 0 0-.184.154.635.635 0 0 0-.131.218.495.495 0 0 0-.022.238.614.614 0 0 0 .269.413c.07.041.145.068.221.078.072.01.145.01.217 0 .063-.01.122-.02.175-.032l.125-.025a.407.407 0 0 1 .087-.01.13.13 0 0 1 .047.01.06.06 0 0 1 .01.012c.015.027.013.04.003.058a.33.33 0 0 1-.123.115.618.618 0 0 1-.167.067.88.88 0 0 1-.183.026.132.132 0 0 0-.125.163l.061.26c.014.06.068.103.131.102.089 0 .182-.016.277-.043l.01-.003c.014.061.043.166.078.195.051.043.228-.063.301-.104.059-.034-.029-.183-.064-.238.071-.045.135-.096.189-.15a.682.682 0 0 0 .147-.216.568.568 0 0 0-.041-.518.543.543 0 0 0-.189-.198Z"
        fill="#EAF2FC" />
    <path
        d="M149.17 29.05a2.806 2.806 0 0 0 0-3.96 2.787 2.787 0 0 0-3.949 0 2.804 2.804 0 0 0 0 3.96 2.787 2.787 0 0 0 3.949 0Z"
        fill="#D4DFFF" />
    <path
        d="M148.277 27.056c-.082-.109-.182-.199-.298-.267a1.356 1.356 0 0 0-.352-.145 4.305 4.305 0 0 0-.328-.073 4.03 4.03 0 0 1-.188-.039.63.63 0 0 1-.132-.045.186.186 0 0 1-.063-.045c-.007-.008-.01-.023-.012-.035-.001-.007-.002-.015.02-.036.012-.012.064-.052.222-.075a1.433 1.433 0 0 1 .553.046.226.226 0 0 0 .284-.179l.076-.425a.228.228 0 0 0-.149-.254 1.846 1.846 0 0 0-.426-.092c.018-.107.037-.262.005-.325-.05-.101-.398-.057-.54-.043-.111.011-.082.282-.065.402-.148.028-.278.07-.389.124-.143.07-.26.156-.348.258a.841.841 0 0 0-.188.36c-.03.124-.036.254-.017.384a.932.932 0 0 0 .173.443c.084.11.184.2.297.267.107.062.222.11.342.14.104.027.204.049.296.065l.212.041c.053.01.101.024.143.043a.215.215 0 0 1 .069.044.06.06 0 0 1 .008.027c.007.051-.005.07-.033.093a.558.558 0 0 1-.268.1 1.025 1.025 0 0 1-.307-.003 1.511 1.511 0 0 1-.304-.078.226.226 0 0 0-.304.175l-.072.45a.226.226 0 0 0 .14.246c.141.057.297.094.465.112l.018.002c-.017.106-.04.29-.004.359.052.1.4.049.541.031.115-.014.074-.306.054-.417.142-.024.274-.062.394-.112a1.16 1.16 0 0 0 .373-.245.987.987 0 0 0 .232-.366.985.985 0 0 0 .039-.476.944.944 0 0 0-.169-.436Z"
        fill="#EAF2FC" />
    <path
        d="M145.408 17.591a4.595 4.595 0 0 0 0-6.485 4.565 4.565 0 0 0-6.468 0 4.595 4.595 0 0 0 0 6.485 4.565 4.565 0 0 0 6.468 0Z"
        fill="#D4DFFF" />
    <path
        d="M143.572 13.255a1.67 1.67 0 0 0-.653-.052 2.252 2.252 0 0 0-.602.16c-.173.073-.341.15-.5.232-.094.048-.19.094-.284.136a1.09 1.09 0 0 1-.217.073.317.317 0 0 1-.127.004c-.017-.003-.036-.02-.049-.033-.009-.01-.018-.018-.01-.067.004-.028.032-.133.215-.32a2.325 2.325 0 0 1 .765-.49.373.373 0 0 0 .195-.515l-.322-.63a.37.37 0 0 0-.446-.182 3 3 0 0 0-.646.304c-.082-.159-.211-.379-.315-.43-.166-.082-.576.322-.747.482-.133.124.172.45.314.588a2.591 2.591 0 0 0-.384.549 1.795 1.795 0 0 0-.199.682c-.016.23.022.451.111.655.084.193.205.367.359.52a1.526 1.526 0 0 0 1.314.456c.201-.025.397-.077.584-.157.163-.069.314-.14.45-.21l.317-.158c.079-.04.157-.069.229-.086a.348.348 0 0 1 .134-.01c.005 0 .018.008.036.025.06.06.064.098.049.155a.924.924 0 0 1-.249.398 1.709 1.709 0 0 1-.404.3 2.476 2.476 0 0 1-.474.2.372.372 0 0 0-.222.532l.351.658c.081.153.259.23.426.182.24-.066.481-.173.717-.317l.026-.015c.082.156.233.417.349.471.168.078.569-.333.737-.497.136-.132-.207-.472-.343-.596.161-.173.296-.354.403-.54.129-.225.212-.457.244-.688.033-.24.013-.479-.06-.709a1.619 1.619 0 0 0-.42-.66 1.53 1.53 0 0 0-.652-.4Z"
        fill="#EAF2FC" />
    <path
        d="M98.082 37.258a1.855 1.855 0 0 0 0-2.62 1.843 1.843 0 0 0-2.612 0 1.855 1.855 0 0 0 0 2.62c.722.723 1.891.723 2.612 0Z"
        fill="#D4DFFF" />
    <path
        d="M97.354 35.525a.672.672 0 0 0-.263-.03.901.901 0 0 0-.245.057c-.07.027-.139.057-.204.087a2.28 2.28 0 0 1-.117.052.446.446 0 0 1-.088.027.133.133 0 0 1-.052 0 .047.047 0 0 1-.019-.014c-.003-.004-.007-.008-.003-.028.002-.01.015-.053.091-.126a.965.965 0 0 1 .315-.188.15.15 0 0 0 .085-.206l-.122-.258a.15.15 0 0 0-.178-.079 1.216 1.216 0 0 0-.264.114c-.032-.065-.08-.155-.122-.177-.066-.035-.236.123-.307.185-.056.049.063.184.119.241a1.038 1.038 0 0 0-.162.217.726.726 0 0 0-.089.273.558.558 0 0 0 .037.266c.031.079.078.15.138.214a.618.618 0 0 0 .525.2.871.871 0 0 0 .237-.055c.067-.026.129-.052.184-.08l.13-.059a.458.458 0 0 1 .094-.032.138.138 0 0 1 .054-.002c.002 0 .007.004.014.01.024.026.025.041.018.064a.37.37 0 0 1-.105.157.682.682 0 0 1-.167.117 1 1 0 0 1-.194.074.15.15 0 0 0-.096.212l.133.27a.15.15 0 0 0 .17.08c.097-.025.196-.065.293-.12l.01-.006c.032.064.09.172.136.195.066.034.234-.127.303-.191.057-.052-.077-.193-.13-.245.066-.068.123-.14.169-.213a.77.77 0 0 0 .107-.275.646.646 0 0 0-.015-.287.653.653 0 0 0-.162-.271.615.615 0 0 0-.257-.17Z"
        fill="#EAF2FC" />
    <path
        d="M114.322 49.46c.002.61-.921 1.211-2.28 1.341-1.557.15-3.084-.306-3.411-1.016a.649.649 0 0 1-.061-.27v.941a.41.41 0 0 0 .145.316c.307.26 1.149.781 2.947.773 1.868-.01 2.447-.622 2.612-.89a.414.414 0 0 0 .059-.215l-.01-.98h-.001Z"
        fill="#F7974D" />
    <path
        d="M114.322 49.46c.002.61-.921 1.211-2.28 1.341-1.557.15-3.084-.306-3.411-1.016a.649.649 0 0 1-.061-.27v.941a.41.41 0 0 0 .145.316c.307.26 1.149.781 2.947.773 1.868-.01 2.447-.622 2.612-.89a.414.414 0 0 0 .059-.215l-.01-.98h-.001Z"
        fill="#fff" />

    <path opacity=".5"
        d="M108.767 49.812c0 .058-.056 1.055.001 1.117.057.063.125-.946.094-1.024-.032-.078-.095-.093-.095-.093ZM109.211 50.26s-.048.926-.018.932l.03.006s.12-.877.054-.907l-.066-.03ZM109.942 50.566s-.075.872-.019.883c.056.012.135-.85.135-.85l-.116-.032ZM110.854 50.693s-.059.922.007.937c.067.014.214-.908.103-.923l-.11-.014ZM112.105 51.593s-.066-.93-.007-.916c.059.015.199.923.147.93-.051.008-.14-.014-.14-.014ZM113.069 51.438s-.086-.92-.04-.878c.047.04.22.861.13.87l-.09.008ZM113.695 50.214s.046.99.076.988c.031-.001.036-1-.011-1.029-.047-.03-.065.041-.065.041Z" />

    <path
        d="M114.333 49.516c0-.09-.02-.18-.062-.27-.327-.71-1.854-1.165-3.411-1.016-1.359.13-2.292.677-2.29 1.286 0 .089.02.179.061.27.327.71 1.854 1.164 3.411 1.015 1.36-.13 2.292-.676 2.291-1.285Z"
        fill="#FFCC59" />
    <path
        d="M114.333 49.516c0-.09-.02-.18-.062-.27-.327-.71-1.854-1.165-3.411-1.016-1.359.13-2.292.677-2.29 1.286 0 .089.02.179.061.27.327.71 1.854 1.164 3.411 1.015 1.36-.13 2.292-.676 2.291-1.285Z"
        fill="#fff" />

    <path opacity=".5"
        d="M109.358 48.92s-.815.768.22 1.37c1.034.601 3.743.163 3.743.163s-2.875-.274-3.349-.614c-.473-.34-.426-.713-.426-.713l-.187-.205"
        fill="#F7974D" />

    <path opacity=".5" d="M114.209 49.758s.055 1.057.036 1.072c-.018.014-.07-.819-.07-.942 0-.124.034-.13.034-.13Z"
        fill="#FFCC59" />
    <path
        d="M115.161 48.418c.002.61-.921 1.21-2.279 1.34-1.558.15-3.085-.305-3.411-1.015a.635.635 0 0 1-.062-.27v.941c0 .121.053.237.145.315.307.26 1.149.782 2.947.773 1.868-.009 2.447-.622 2.612-.89a.414.414 0 0 0 .059-.215l-.01-.979h-.001Z"
        fill="#F7974D" />
    <path
        d="M115.161 48.418c.002.61-.921 1.21-2.279 1.34-1.558.15-3.085-.305-3.411-1.015a.635.635 0 0 1-.062-.27v.941c0 .121.053.237.145.315.307.26 1.149.782 2.947.773 1.868-.009 2.447-.622 2.612-.89a.414.414 0 0 0 .059-.215l-.01-.979h-.001Z"
        fill="#fff" />

    <path opacity=".5"
        d="M109.606 48.77c0 .057-.056 1.054.001 1.117.057.062.125-.946.093-1.024-.031-.078-.094-.093-.094-.093ZM110.05 49.218s-.048.926-.018.932l.03.006s.12-.878.054-.908l-.066-.03ZM110.781 49.524s-.076.872-.019.883c.056.011.135-.851.135-.851l-.116-.032ZM111.693 49.65s-.059.922.007.937c.067.015.214-.907.103-.922l-.11-.015ZM112.944 50.55s-.066-.93-.007-.915c.058.015.198.923.147.93-.052.008-.14-.015-.14-.015ZM113.908 50.395s-.087-.919-.04-.878c.048.041.22.861.13.87l-.09.008ZM114.534 49.172s.046.99.077.988c.03-.002.035-1-.012-1.03-.047-.03-.065.042-.065.042Z" />

    <path
        d="M115.172 48.473c0-.088-.02-.179-.062-.27-.326-.71-1.854-1.164-3.411-1.015-1.359.13-2.292.676-2.29 1.286 0 .088.02.179.062.269.326.71 1.853 1.165 3.411 1.016 1.359-.13 2.291-.677 2.29-1.286Z"
        fill="#FFCC59" />
    <path
        d="M115.172 48.473c0-.088-.02-.179-.062-.27-.326-.71-1.854-1.164-3.411-1.015-1.359.13-2.292.676-2.29 1.286 0 .088.02.179.062.269.326.71 1.853 1.165 3.411 1.016 1.359-.13 2.291-.677 2.29-1.286Z"
        fill="#fff" />
    <path opacity=".5" d="M114.333 47.727s1.201 2.141-3.322 1.687l2.48-1.48.842-.207Z" fill="#F7974D" />

    <path opacity=".5" d="M115.048 48.716s.055 1.057.037 1.071c-.019.014-.071-.818-.071-.941 0-.124.034-.13.034-.13Z"
        fill="#FFCC59" />
    <path
        d="M113.672 47.33c.002.61-.921 1.211-2.28 1.341-1.557.149-3.084-.306-3.411-1.016a.648.648 0 0 1-.061-.27v.941a.41.41 0 0 0 .145.316c.307.26 1.149.781 2.947.772 1.868-.009 2.447-.622 2.612-.89a.414.414 0 0 0 .059-.215l-.01-.978h-.001Z"
        fill="#F7974D" />
    <path
        d="M113.672 47.33c.002.61-.921 1.211-2.28 1.341-1.557.149-3.084-.306-3.411-1.016a.648.648 0 0 1-.061-.27v.941a.41.41 0 0 0 .145.316c.307.26 1.149.781 2.947.772 1.868-.009 2.447-.622 2.612-.89a.414.414 0 0 0 .059-.215l-.01-.978h-.001Z"
        fill="#fff" />

    <path opacity=".5"
        d="M108.117 47.682c0 .057-.056 1.055.001 1.117.057.062.124-.946.093-1.024-.031-.078-.094-.093-.094-.093ZM108.561 48.13s-.048.926-.018.932l.03.006s.12-.878.054-.908l-.066-.03ZM109.292 48.436s-.076.872-.019.883c.056.012.135-.851.135-.851l-.116-.032ZM110.204 48.562s-.059.923.007.937c.066.015.214-.907.103-.922l-.11-.015ZM111.455 49.462s-.066-.93-.008-.915c.059.015.199.923.148.93-.052.008-.14-.015-.14-.015ZM112.419 49.308s-.087-.92-.04-.878c.047.04.22.86.13.87l-.09.008ZM113.045 48.084s.046.99.076.988c.031-.002.036-1-.011-1.03-.047-.029-.065.042-.065.042Z" />

    <path
        d="M113.683 47.385c0-.088-.02-.179-.062-.27-.327-.71-1.854-1.164-3.411-1.015-1.359.13-2.292.676-2.29 1.286 0 .088.02.179.061.269.327.71 1.854 1.165 3.411 1.016 1.359-.13 2.292-.677 2.291-1.286Z"
        fill="#FFCC59" />
    <path opacity=".5" d="M113.558 47.628s.056 1.057.037 1.071c-.018.015-.07-.818-.07-.941 0-.124.033-.13.033-.13Z"
        fill="#FFCC59" />
    <path opacity=".5"
        d="M111.321 47.5a.7.7 0 0 0-.209-.163 1.487 1.487 0 0 0-.271-.108 5.45 5.45 0 0 0-.261-.07 6.083 6.083 0 0 1-.15-.04.723.723 0 0 1-.103-.036.156.156 0 0 1-.046-.029c-.004-.004-.005-.012-.005-.018 0-.004.001-.008.022-.016a.534.534 0 0 1 .194-.013 1.88 1.88 0 0 1 .45.08c.102.033.222.006.26-.057l.122-.2c.031-.052-.006-.111-.088-.14a2.281 2.281 0 0 0-.339-.09c.03-.051.067-.125.05-.16-.028-.054-.322-.07-.441-.078-.093-.006-.107.13-.109.19a2.115 2.115 0 0 0-.339.02 1.2 1.2 0 0 0-.323.09.516.516 0 0 0-.206.156.34.34 0 0 0 .014.422.706.706 0 0 0 .209.162c.079.042.167.078.262.105.083.025.162.046.237.063l.169.043c.042.01.08.023.112.036.023.01.04.02.051.03a.027.027 0 0 1 .003.013c-.001.026-.014.035-.041.042a.727.727 0 0 1-.235.021 1.39 1.39 0 0 1-.253-.034 1.796 1.796 0 0 1-.24-.07c-.104-.04-.237-.014-.276.053l-.122.213c-.029.05.005.106.081.136.109.042.233.077.369.104l.015.003c-.03.05-.074.137-.054.175.03.054.324.066.443.073.097.005.103-.143.102-.2.121.004.236 0 .342-.013.129-.014.244-.041.342-.08a.681.681 0 0 0 .243-.155.347.347 0 0 0 .019-.46Z"
        fill="#F7974D" />
    <path
        d="M115.781 46.112c.001.61-.922 1.211-2.28 1.341-1.558.149-3.085-.306-3.411-1.016a.635.635 0 0 1-.062-.27v.941c0 .122.053.237.145.316.308.26 1.149.781 2.947.772 1.868-.009 2.447-.621 2.612-.89a.414.414 0 0 0 .059-.214l-.01-.98Z"
        fill="#F7974D" />
    <path
        d="M115.781 46.112c.001.61-.922 1.211-2.28 1.341-1.558.149-3.085-.306-3.411-1.016a.635.635 0 0 1-.062-.27v.941c0 .122.053.237.145.316.308.26 1.149.781 2.947.772 1.868-.009 2.447-.621 2.612-.89a.414.414 0 0 0 .059-.214l-.01-.98Z"
        fill="#fff" />


    <path opacity=".5"
        d="M110.225 46.464c0 .058-.056 1.055.001 1.117.057.062.125-.946.093-1.024-.031-.078-.094-.093-.094-.093ZM110.669 46.912s-.048.926-.018.932l.03.006s.12-.878.054-.908l-.066-.03ZM111.4 47.218s-.075.872-.019.883c.056.012.135-.851.135-.851l-.116-.032ZM112.312 47.344s-.059.922.008.937c.066.015.213-.907.103-.922l-.111-.015ZM113.563 48.245s-.066-.93-.007-.916c.059.015.198.923.147.93-.052.008-.14-.014-.14-.014ZM114.527 48.09s-.087-.92-.04-.878c.047.04.22.86.13.87l-.09.008ZM115.153 46.866s.046.99.076.988c.031-.002.036-1-.011-1.03-.047-.029-.065.042-.065.042Z" />

    <path
        d="M115.791 46.167c0-.088-.02-.179-.062-.27-.326-.71-1.853-1.164-3.411-1.015-1.359.13-2.292.677-2.29 1.286 0 .088.02.179.062.27.326.71 1.853 1.164 3.411 1.015 1.359-.13 2.291-.677 2.29-1.286Z"
        fill="#FFCC59" />
    <path opacity=".5" d="M115.666 46.41s.056 1.057.037 1.071c-.018.015-.07-.818-.07-.941 0-.124.033-.13.033-.13Z"
        fill="#FFCC59" />
    <path
        d="M113.846 46.227a.707.707 0 0 0-.21-.163 1.483 1.483 0 0 0-.27-.108 5.452 5.452 0 0 0-.261-.07 4.647 4.647 0 0 1-.15-.04.68.68 0 0 1-.103-.036.156.156 0 0 1-.046-.029c-.005-.004-.005-.012-.005-.018 0-.004 0-.008.021-.016a.545.545 0 0 1 .195-.013 1.853 1.853 0 0 1 .45.08c.101.033.222.006.26-.056l.121-.2c.032-.053-.006-.112-.087-.141a2.25 2.25 0 0 0-.34-.09c.031-.05.068-.125.05-.16-.027-.054-.321-.07-.44-.077-.093-.007-.108.13-.109.19a2.12 2.12 0 0 0-.339.02c-.128.019-.237.049-.324.089a.519.519 0 0 0-.205.156.33.33 0 0 0 .014.422.701.701 0 0 0 .208.163c.08.041.168.077.263.105.083.024.162.045.236.063l.17.042a.79.79 0 0 1 .112.036c.022.01.039.02.05.03.002.001.004.005.003.013-.001.026-.014.035-.04.042a.732.732 0 0 1-.235.021 1.414 1.414 0 0 1-.254-.034 1.796 1.796 0 0 1-.24-.07c-.103-.04-.237-.014-.276.053l-.122.213c-.028.05.006.106.082.136.108.042.233.077.369.104.005 0 .009.002.014.003-.029.05-.073.137-.053.175.03.055.324.066.443.073.097.005.103-.143.102-.2.12.004.235 0 .342-.013a1.33 1.33 0 0 0 .341-.08.674.674 0 0 0 .243-.155.343.343 0 0 0 .019-.46h.001ZM102.965 49.772v.671a.21.21 0 0 0 .145.2c.361.114 1.408.382 3.278.364 1.862-.018 2.937-.24 3.317-.337a.208.208 0 0 0 .157-.203v-.695h-6.897Z"
        fill="#F7974D" />
    <path
        d="M102.965 49.772v.671a.21.21 0 0 0 .145.2c.361.114 1.408.382 3.278.364 1.862-.018 2.937-.24 3.317-.337a.208.208 0 0 0 .157-.203v-.695h-6.897Z"
        fill="#fff" />

    <path opacity=".5"
        d="M109.159 49.843s.042 1.075-.064 1.043c-.106-.032-.096-.998-.096-.998l.16-.045ZM108.414 49.965s.043 1.075-.064 1.043c-.106-.033-.095-.998-.095-.998l.159-.045ZM107.242 50.017s.043 1.075-.064 1.043c-.106-.032-.095-.997-.095-.997l.159-.046ZM105.978 51.093s-.042-1.075.064-1.043c.106.032.096.997.096.997l-.16.046ZM105.01 51.008s-.042-1.075.064-1.043c.106.032.096.997.096.997l-.16.046ZM103.961 50.912s-.042-1.075.064-1.043c.107.032.096.997.096.997l-.16.046ZM103.217 50.816s-.043-1.075.064-1.043c.106.032.095.997.095.997l-.159.046Z" />

    <path
        d="M106.414 50.121c1.905 0 3.449-.156 3.449-.349 0-.193-1.544-.349-3.449-.349-1.905 0-3.449.156-3.449.35 0 .192 1.544.348 3.449.348Z"
        fill="#FFCC59" />
    <path
        d="M106.414 50.121c1.905 0 3.449-.156 3.449-.349 0-.193-1.544-.349-3.449-.349-1.905 0-3.449.156-3.449.35 0 .192 1.544.348 3.449.348Z"
        fill="#fff" />


    <path d="M103.064 49.689s2.271.43 4.506.2c2.235-.232 2.22-.341 2.22-.341l-.997-.183-5.729.324" fill="#F78537" />

    <path
        d="M101.981 48.607v.67a.21.21 0 0 0 .146.2c.361.115 1.407.383 3.278.365 1.861-.018 2.937-.242 3.317-.338a.208.208 0 0 0 .157-.203v-.694h-6.898Z"
        fill="#F7974D" />
    <path
        d="M101.981 48.607v.67a.21.21 0 0 0 .146.2c.361.115 1.407.383 3.278.365 1.861-.018 2.937-.242 3.317-.338a.208.208 0 0 0 .157-.203v-.694h-6.898Z"
        fill="#fff" />

    <path opacity=".5"
        d="M102.616 48.697s.012 1.29.045 1.216c.033-.074.14-1.205.14-1.205l-.185-.012ZM103.634 49.843c-.003-.033-.019-1.042.03-1.005.05.037.043 1.005.043 1.005h-.073ZM104.938 49.889s-.063-1.06-.017-1.042c.046.017.196.964.175 1.041-.022.077-.158 0-.158 0ZM106.366 50.039s-.056-1.348-.004-1.308c.053.04.105 1.28.105 1.28l-.177.013" />

    <path
        d="M105.431 48.956c1.904 0 3.448-.157 3.448-.35 0-.192-1.544-.349-3.448-.349-1.905 0-3.449.157-3.449.35 0 .193 1.544.349 3.449.349Z"
        fill="#FFCC59" />
    <path
        d="M105.431 48.956c1.904 0 3.448-.157 3.448-.35 0-.192-1.544-.349-3.448-.349-1.905 0-3.449.157-3.449.35 0 .193 1.544.349 3.449.349Z"
        fill="#fff" />


    <path opacity=".5"
        d="M103.626 48.258s.463.698 2.492.698 1.49-.107 1.49-.107-3.511-.7-3.609-.708c-.099-.008-.373.117-.373.117Z"
        fill="#F7974D" />

    <path
        d="m102.948 46.915-.142.656c-.02.089.02.18.099.226.329.19 1.294.675 3.126 1.057 1.822.38 2.921.392 3.312.38a.209.209 0 0 0 .197-.165l.147-.68-6.739-1.474Z"
        fill="#F7974D" />
    <path
        d="m102.948 46.915-.142.656c-.02.089.02.18.099.226.329.19 1.294.675 3.126 1.057 1.822.38 2.921.392 3.312.38a.209.209 0 0 0 .197-.165l.147-.68-6.739-1.474Z"
        fill="#fff" />

    <path opacity=".5"
        d="M103.07 47.989c.03-.01.267-.963.32-.917.053.047-.232.97-.232.97l-.088-.053ZM103.626 48.258c.061-.027.363-.966.411-.894.049.073-.295.938-.295.938l-.116-.044ZM104.63 48.662s.291-1.14.343-1.074c.052.066-.241 1.073-.241 1.073l-.102.001ZM105.913 48.902c.058-.156.202-1.001.235-1.004.032-.003-.111 1.044-.111 1.044l-.124-.04ZM107.083 49.173s.079-1.12.157-1.087c.079.033-.047 1.087-.047 1.087h-.11ZM108.034 49.236s.063-1.045.111-.978c.048.066-.012.978-.012.978h-.099ZM108.973 48.365s-.079.998-.03.954c.049-.044.103-.924.103-.924l-.073-.03Z" />

    <path
        d="M109.688 48.39c-.041.188-1.583.01-3.444-.397-1.861-.407-3.336-.89-3.295-1.078.041-.188 1.582-.011 3.443.396 1.861.407 3.337.89 3.296 1.078Z"
        fill="#FFCC59" />
    <path d="M106.414 48.941s1.7.344 2.465.283c0 0 .052.202-.157.28 0 0-1.853-.02-2.308-.563Z" fill="#F78537" />
    <path
        d="M113.688 32.246c.934 1.333 1.277 2.941 1.399 4.54.118 1.558.052 3.122.161 4.68.106 1.507.396 3.057 1.268 4.322a5.83 5.83 0 0 0 1.66 1.605c.598.38 1.269.636 1.96.788 1.432.316 2.914.228 4.368.201.179-.003.359-.005.538-.006.17-.002.17-.266 0-.265-1.442.01-2.904.13-4.336-.091-.688-.107-1.368-.297-1.988-.62a5.52 5.52 0 0 1-1.721-1.408c-.956-1.168-1.32-2.676-1.455-4.15-.141-1.54-.077-3.09-.164-4.632-.089-1.585-.342-3.205-1.145-4.6a6.524 6.524 0 0 0-.318-.498c-.097-.138-.325-.006-.227.134Z"
        fill="#1C056D" />
    <path
        d="M117.304 26.584a6.302 6.302 0 0 0-1.586-1.894 8.461 8.461 0 0 0-2.022-1.194 27.961 27.961 0 0 0-1.938-.731 23.28 23.28 0 0 1-1.118-.405 4.027 4.027 0 0 1-.768-.391 1.206 1.206 0 0 1-.344-.332c-.035-.053-.042-.149-.042-.22 0-.048 0-.093.153-.204.085-.062.44-.264 1.422-.264.484 0 1.027.065 1.615.195.591.13 1.169.32 1.718.567a1.395 1.395 0 0 0 1.895-.84l.831-2.528a1.4 1.4 0 0 0-.689-1.683 11.302 11.302 0 0 0-2.93-1.024c.21-.64.481-1.621.339-2.05-.22-.66-2.383-.698-3.263-.734-.748-.032-.754 1.98-.739 2.58a9.24 9.24 0 0 0-2.101.393c-.931.3-1.721.727-2.349 1.268a5.193 5.193 0 0 0-1.46 2.032 6.291 6.291 0 0 0-.44 2.335c0 1.096.225 2.056.669 2.853a6.333 6.333 0 0 0 1.585 1.889 8.158 8.158 0 0 0 1.961 1.157c.616.255 1.206.474 1.756.652l1.259.437c.314.11.595.24.835.387.168.104.296.215.38.332.012.018.027.072.027.167 0 .321-.092.43-.285.542-.437.252-1.017.38-1.723.38a6.357 6.357 0 0 1-1.871-.29c-.669-.207-1.403-.288-1.92-.575-.774-.431-1.614-.21-1.877.638l-.831 2.679a1.4 1.4 0 0 0 .639 1.63c.719.413 1.526.747 2.401.998-.183.634-.375 1.476-.239 1.86.234.657 2.397.649 3.278.667.588.012.692-1.227.696-2.05a11.406 11.406 0 0 0 2.852-.347c.945-.247 1.781-.64 2.487-1.166a6.026 6.026 0 0 0 1.737-2.033c.433-.823.653-1.79.653-2.875 0-1.084-.22-2.02-.653-2.808Z"
        fill="#F7974D" />
    <path
        d="M116.25 26.218a6.317 6.317 0 0 0-1.586-1.893 8.48 8.48 0 0 0-2.022-1.194 27.91 27.91 0 0 0-1.938-.731 23.106 23.106 0 0 1-1.118-.405 4.003 4.003 0 0 1-.768-.391 1.192 1.192 0 0 1-.344-.333c-.035-.052-.043-.148-.043-.219 0-.048 0-.093.153-.204.086-.062.441-.264 1.423-.264.483 0 1.027.065 1.614.195.591.13 1.17.32 1.719.567a1.395 1.395 0 0 0 1.895-.84l.83-2.529a1.4 1.4 0 0 0-.689-1.683 11.284 11.284 0 0 0-2.521-.933c.207-.64.455-1.57.318-1.982-.22-.662-2.383-.699-3.263-.736-.685-.028-.748 1.653-.742 2.4-.928.044-1.762.184-2.485.417-.931.3-1.721.727-2.349 1.268a5.193 5.193 0 0 0-1.46 2.032 6.292 6.292 0 0 0-.44 2.335c0 1.096.225 2.056.669 2.852a6.332 6.332 0 0 0 1.585 1.89 8.155 8.155 0 0 0 1.961 1.156c.615.256 1.206.475 1.756.653l1.259.437c.314.109.595.24.835.387.168.104.295.215.38.332.012.018.027.072.027.167 0 .321-.092.43-.285.541-.437.253-1.017.382-1.723.382a6.354 6.354 0 0 1-1.871-.292 9.366 9.366 0 0 1-1.787-.744 1.393 1.393 0 0 0-2.009.807l-.832 2.68a1.4 1.4 0 0 0 .639 1.63 10.97 10.97 0 0 0 2.852 1.117c-.199.633-.498 1.73-.337 2.185.234.657 2.397.649 3.278.667.712.015.714-1.805.689-2.499.886-.025 1.727-.14 2.506-.342.945-.247 1.782-.64 2.487-1.166a6.015 6.015 0 0 0 1.737-2.033c.433-.823.653-1.79.653-2.875 0-1.084-.22-2.02-.653-2.808Z"
        fill="#FFCC59" />

    <defs>
        <clipPath id="a">
            <path fill="#fff" transform="translate(92.63 6.833)" d="M0 0h62.104v44.796H0z" />
        </clipPath>
    </defs>
</svg>