<svg xmlns="http://www.w3.org/2000/svg" fill="none" viewBox="0 0 400 400" id="No-Mail--Streamline-Bruxelles" height="400" width="400"><desc>No Mail Streamline Illustration: https://streamlinehq.com</desc><g id="No-Mail--Social-Media-No-Mail"><g id="Colour"><path id="Vector" fill="#ffffff" d="M270.299 372.2742C291.7262 368.8458 291.0406 360.2504 285.849 340.2926C283.9806 332.2164 281.135 324.3948 277.3762 317.0042C273.1642 309.021 248.9698 311.8862 248.9208 326.1628C248.7934 329.1724 249.0482 332.182 249.68 335.1256C252.741 346.488 258.4712 372.9844 270.299 372.2742Z" stroke-width="1"></path><path id="Vector_2" fill="#ffffff" d="M336.4172 337.7458C337.5438 343.476 337.2254 350.749 331.5196 352.5856C328.728 353.815 325.7772 354.6378 322.7528 355.0344C320.9896 355.2304 321.9938 354.4712 322.557 350.1368C324.1486 338.113 323.1446 339.9742 325.0058 341.321C326.8668 342.6678 328.8994 344.333 330.834 345.8758C331.936 346.7084 333.8706 346.2676 333.944 345.1902C334.0908 343.2556 333.4052 343.4516 328.777 339.6804C327.3884 338.2722 325.907 336.9548 324.3446 335.7378C321.357 333.4358 325.422 333.8766 317.7818 318.0572C312.174 306.4498 298.0442 293.569 284.3064 290.1896C255.5572 283.1126 278.674 301.1358 236.4318 267.6114C234.1054 265.7748 234.2524 265.7994 234.9136 265.1626C253.0348 248.2168 305.3418 206.9304 312.1494 197.6248C312.7886 196.6476 313.0164 195.4586 312.7886 194.3138C312.5584 193.169 311.8898 192.1596 310.925 191.5028C309.6272 190.8906 308.5986 193.07 308.966 194.0986C309.921 196.7678 310.2394 195.5924 253.3042 244.4212C253.0594 244.666 233.7136 261.0976 231.0934 262.8852C230.2364 263.473 231.5342 263.228 215.7638 253.3348C199.4792 243.1232 199.9688 246.4536 182.9004 265.7748C180.1332 268.8848 180.5984 268.787 179.3496 268.2236C137.7196 250.4942 130.6914 244.0538 98.22 230.6098C84.1148 224.7816 85.4128 221.4512 83.5272 220.5696C81.2252 219.492 76.9152 225.1734 98.22 234.381C107.2836 237.9806 116.1452 242.0678 124.7652 246.625C175.8968 271.9458 163.9464 264.9668 177.0722 271.7254C178.321 272.3622 176.8028 273.2928 171.097 280.125C140.805 316.392 106.8154 367.4744 100.5954 369.654C98.1466 370.511 99.8852 374.5516 102.2852 373.0332C114.6762 365.2706 158.2162 295.822 198.1566 254.5838C205.5032 247.0168 209.7396 253.3348 253.7696 285.9286C264.1036 293.5934 257.3692 286.6144 239.6398 299.2502C217.1842 315.3146 212.7028 341.419 221.739 363.5074C223.1102 366.8622 223.9428 367.401 222.9144 367.5234C191.7406 371.3436 181.0392 371.6374 172.2234 373.817C166.3218 375.2618 163.8484 374.9924 158.0448 376.2658C149.3796 377.7448 140.6268 378.6534 131.8424 378.984C127.7528 379.2778 118.7656 380.9674 115.4598 381.0654C113.1778 381.1854 110.9042 381.4376 108.652 381.8246C105.0772 382.3118 101.4508 381.4376 98.4894 379.3758C94.6938 375.6046 94.5468 377.6126 91.4614 354.2754C88.082 328.734 89.0124 341.1742 85.927 312.0086C84.4086 297.3156 83.3068 294.8668 81.0294 279.5862C77.0378 251.3024 77.7724 254.0206 76.9398 248.4372C72.7768 220.1044 66.5078 223.6552 97.118 195.3964C121.2204 172.581 146.5634 151.113 173.0316 131.0904C179.7658 125.9478 181.431 123.7438 189.5856 126.1928C198.6466 128.862 239.8358 146.322 255.949 154.8684C256.757 155.3092 257.1244 155.4072 255.8266 158.958C250.9166 174.141 242.5318 187.9682 231.3384 199.339C228.4976 202.4736 208.7356 202.0572 158.7794 209.967C149.3026 211.4608 143.4254 212.7096 143.156 212.7586C140.0704 213.4688 94.1796 219.59 95.0366 223.3612C95.6244 225.81 95.5998 223.851 125.6468 218.9296C193.3814 207.7874 226.5632 204.4326 226.612 204.4326C229.3058 204.9714 215.3964 215.4768 215.3964 234.0872C215.3964 235.4584 216.0332 237.5644 217.478 237.393C221.494 236.9032 213.119 227.5978 232.6118 204.2368C232.8248 203.9048 233.126 203.6366 233.4786 203.46C233.8312 203.2834 234.2254 203.2048 234.6198 203.2326C234.8646 203.2326 300.542 195.7638 301.1542 195.3474C302.7704 194.221 301.8644 192.5558 300.3216 192.6782C283.1798 194.123 237.6318 200.0248 236.4564 199.7554C236.8726 198.0902 254.2592 178.6954 259.5488 157.5622C259.8182 156.4846 260.0386 156.999 265.9892 160.1824C316.092 187.1194 318.394 189.103 319.202 195.6658C319.8388 199.1676 321.6508 214.3258 321.6508 214.3748C321.6508 217.093 322.4346 218.9052 323.0468 223.7042C323.7324 228.9936 326.4996 259.6038 329.83 276.0844C330.4104 278.1512 330.8512 280.2548 331.1524 282.378C331.1524 282.378 336.4172 337.6968 336.4172 337.7458Z" stroke-width="1"></path><path id="Vector_3" fill="#f5f5f5" d="M316.9736 325.918C317.292 327.02 318.7858 326.824 320.0102 340.219C318.1 379.4002 285.3104 400.3132 252.3492 388.9016C232.979 382.1918 215.47 357.8996 222.6204 328.024C223.2326 325.4282 227.5182 315.0452 231.9016 310.8822C240.9622 301.944 238.8072 304.5398 246.0068 299.4216C256.0616 293.3168 267.9678 290.9978 279.5802 292.8834C289.5224 294.9158 289.6938 296.1892 298.7788 301.4052C305.4396 305.152 314.9166 318.7674 316.9736 325.918ZM270.446 372.2742C291.8732 368.8458 291.1876 360.2504 285.996 340.2926C284.1276 332.2164 281.282 324.3948 277.523 317.0042C273.3112 309.021 249.1168 311.8862 249.0678 326.1628C248.9404 329.1724 249.1952 332.182 249.827 335.1256C252.741 346.488 258.4712 372.9844 270.299 372.2742H270.446Z" stroke-width="1"></path><path id="Vector_4" fill="#f5f5f5" d="M278.1108 359.5892C277.741 361.181 276.884 362.6184 275.662 363.7032C275.0644 364.2052 274.3004 364.4648 273.5216 364.433C272.743 364.4012 272.0058 364.0804 271.45 363.5318C269.4982 361.0218 268.0216 358.1738 267.091 355.1324C266.8462 353.9324 266.136 352.806 265.7688 351.606C265.23 349.8674 261.4098 336.203 260.6018 331.5748C259.4262 325.0118 259.059 323.9344 260.8222 322.1468C261.6352 321.3802 262.7052 320.942 263.822 320.92C264.941 320.8978 266.0258 321.2922 266.8706 322.0244C270.9112 326.8486 276.2742 346.6106 278.1108 359.5892Z" stroke-width="1"></path><path id="Vector_5" fill="#ffffff" d="M86.0742 11.9306C92.8818 2.6006 98.0244 8.9676 97.4122 14.6978C95.8694 29.5622 88.8902 35.8066 83.7232 44.2306C81.2744 48.2712 82.6212 41.341 84.213 35.9536C85.6824 31.056 88.0822 28.8764 86.319 27.9948C83.8702 26.7216 82.4988 32.1824 80.5888 38.4024C79.903 40.6798 79.952 38.9412 79.4868 33.5048C79.1996 25.778 81.5198 18.179 86.0742 11.9306Z" stroke-width="1"></path><path id="Vector_6" fill="#ffffff" d="M96.4324 48.8834C97.0202 58.8256 74.7114 65.6334 76.2542 62.4988C77.0052 60.8084 77.1496 58.9106 76.6634 57.1262C76.177 55.3414 75.0896 53.7794 73.5848 52.7036C73.193 52.3852 72.3116 52.0668 72.9482 51.3078C74.3896 49.6178 76.0346 48.1124 77.8458 46.8264C79.8538 45.357 78.5316 49.0058 81.4946 49.0304C87.4452 49.0304 85.9514 39.235 94.1794 43.496C96.065 44.5 96.2854 46.655 96.4324 48.8834Z" stroke-width="1"></path><path id="Vector_7" fill="#ffffff" d="M74.883 12.3224C78.042 20.6974 77.9686 21.2606 77.5768 22.9994C74.5156 36.9332 79.5602 45.504 75.936 43.447C73.2912 41.9286 71.0384 35.3658 70.72 32.3538C70.5486 31.2274 70.3282 30.811 69.1282 30.7376C66.0672 30.5416 69.9854 43.1042 73.5116 45.4306C74.2462 45.9202 73.2422 46.4346 72.8994 46.1652C57.7168 33.5538 60.9248 12.4938 71.0628 9.0166C71.433 8.8408 71.8538 8.8034 72.2492 8.9112C72.6446 9.019 72.9884 9.265 73.218 9.6042C73.859 10.455 74.4166 11.3652 74.883 12.3224Z" stroke-width="1"></path><path id="Vector_8" fill="#ffffff" d="M73.2422 57.3808C73.588 58.2912 73.6344 59.2884 73.3748 60.2274C73.115 61.166 72.563 61.9976 71.7982 62.601C71.0336 63.2044 70.0968 63.5484 69.1234 63.583C68.15 63.6174 67.1908 63.3404 66.3856 62.7926C65.4818 62.367 64.753 61.6422 64.3222 60.741C63.8912 59.84 63.7852 58.8176 64.0212 57.8468C64.2574 56.8764 64.8216 56.017 65.6184 55.4146C66.415 54.812 67.3952 54.5032 68.3936 54.5402C69.3876 54.5074 70.3706 54.7568 71.2286 55.2596C72.0866 55.7624 72.7848 56.4978 73.2422 57.3808Z" stroke-width="1"></path></g><g id="Ink"><path id="Vector_9" fill="#0a0430" d="M335.0948 282.7696C339.6252 345.9004 347.339 354.0548 327.9688 357.5322C321.308 358.7322 320.8918 358.3894 320.353 359.981C306.4926 397.5704 260.8466 408.4678 232.1954 379.5716C228.9874 376.3392 228.1058 375.7514 227.812 374.674C227.812 374.2576 226.514 372.764 226.2202 372.2252C226.0708 371.87 225.8064 371.5738 225.4684 371.3876C225.1304 371.2016 224.7412 371.1354 224.3592 371.1966C200.5076 373.3516 174.673 377.1962 146.7564 381.6532C142.2016 382.3878 141.3448 381.6532 128.9048 383.098C120.5106 384.511 112.0214 385.2798 103.5104 385.3998C99.5924 385.3998 93.1516 381.0164 92.2946 378.2982C88.5478 366.5194 81.2016 299.936 81.1526 299.691C79.6344 287.7164 77.6506 284.6308 75.1528 258.4774C71.3326 218.6602 60.6312 228.0386 90.4334 197.0372C105.1264 181.781 149.9156 142.0614 167.4736 130.6498C182.1666 121.026 177.3912 116.1772 207.9274 129.45C207.9274 129.45 242.5538 143.5794 256.659 150.73C257.8344 151.3422 257.8834 151.3178 258.1528 149.9466C260.085 141.6448 260.631 133.081 259.769 124.6012C259.72 120.6594 259.1202 116.7436 257.9814 112.9694C256.8794 109.7858 254.7 99.6232 250.635 92.8644C240.8396 76.9472 247.6474 86.3506 235.8196 99.5988C233.7992 101.9006 231.0786 103.479 228.0788 104.0934C225.0766 104.708 221.9568 104.3248 219.192 103.0026C204.646 95.95 213.4128 58.9238 238.244 74.5472C240.8642 76.1636 242.6762 78.3184 242.7008 76.9962C242.7252 75.6738 242.7008 73.8372 242.7008 72.2698C241.7702 59.634 229.869 47.2916 218.4574 39.9206C204.8664 31.1294 179.1054 26.2076 162.8452 26.3544C125.525 26.6484 109.265 45.3574 110.4648 38.8924C111.077 35.5866 139.1896 24.028 156.6252 23.7588C180.991 23.3914 209.4212 27.481 228.0324 43.1288C238.048 51.5528 247.0106 64.2868 245.5658 77.4124C245.5658 79.4694 244.8068 80.4 246.1536 81.4284C251.0512 86.1058 255.9488 96.1214 258.0794 102.5862C264.3484 120.683 264.3728 132.6334 261.3118 151.5628C260.8466 154.4768 261.9974 153.3502 272.1356 159.0804C315.3574 183.5686 320.304 184.842 322.214 193.364C324.6628 204.1878 329.5604 248.3148 331.3236 260.0202C334.9478 284.9982 334.6786 276.966 335.0948 282.7696ZM331.691 352.855C337.4948 351.0184 337.7642 343.7454 336.7112 338.0152C336.7112 338.0152 331.3238 282.3534 331.3238 282.3044C331.0102 280.1838 330.5768 278.0826 330.0258 276.011C326.6954 259.5304 323.9038 228.92 323.2182 223.6306C322.606 218.734 321.8222 217.0198 321.8222 214.3016C321.8222 214.3016 320.0346 199.0696 319.3734 195.5924C318.0266 188.858 315.2104 186.434 266.136 160.0844C257.6386 155.5296 261.2384 155.1868 257.3938 164.5902C248.431 187.1684 237.338 196.8658 236.6278 199.7064C237.8276 199.9512 283.3512 194.0744 300.5176 192.6294C302.0358 192.507 302.9664 194.1722 301.3256 195.2988C300.8604 195.617 235.036 203.2328 234.7912 203.184C234.4018 203.1524 234.0076 203.2294 233.6598 203.4066C233.3096 203.5838 233.0134 203.8542 232.8076 204.188C224.4572 213.9832 218.9718 223.4592 218.9718 235.336C218.9718 238.0542 215.5924 238.25 215.5924 234.0136C215.5924 215.4036 229.4772 204.8736 226.7834 204.3594C226.7834 204.3594 193.578 207.714 125.819 218.8562C95.7964 223.753 95.7964 225.761 95.2088 223.2878C93.6904 216.8726 229.4038 201.592 231.5342 199.2656C245.7618 183.6666 250.4636 173.994 256.0224 158.8848C257.3204 155.334 256.953 155.2358 256.1448 154.795C240.0562 146.2486 198.8424 128.7886 189.7822 126.1194C181.6522 123.6706 179.987 125.9236 173.2282 131.0172C146.7542 151.032 121.4106 172.5006 97.3148 195.3232C66.68 223.5816 72.9734 220.0308 77.161 248.3882C77.969 253.9716 77.161 251.2534 81.2504 279.5372C83.4054 294.8178 84.5318 297.3402 86.1482 311.9596C89.1356 341.1252 88.303 328.7096 91.6824 354.2264C94.768 377.5636 94.9394 375.5556 98.7106 379.3268C101.672 381.3886 105.2986 382.2628 108.8734 381.7756C111.1342 381.3984 113.4156 381.1512 115.7054 381.041C118.9868 380.9184 127.9496 379.2288 132.0636 378.935C140.848 378.6044 149.601 377.6982 158.266 376.2168C164.0942 375.0168 166.5432 375.2862 172.4448 373.768C181.2604 371.613 192.0352 371.3192 223.1592 367.4744C224.1632 367.352 223.3306 366.8378 221.9838 363.4584C212.9966 341.419 217.4046 315.29 239.8848 299.2012C257.5896 286.5408 264.373 293.569 253.99 285.8796C209.9112 253.2368 205.6992 246.9678 198.3776 254.5348C158.4374 295.773 114.8728 365.148 102.5062 372.9598C100.0574 374.4536 98.3922 370.511 100.841 369.5804C107.3794 367.2786 137.9162 319.9674 171.3182 280.0514C177.024 273.2192 178.5422 272.2888 177.2932 271.652C164.1432 264.8688 176.1178 271.8724 124.9864 246.5516C116.3606 241.987 107.4908 237.8998 98.4168 234.3074C77.21 225.1244 81.5444 219.4432 83.7238 220.4962C85.6094 221.3776 84.336 224.7326 98.4168 230.5608C130.9126 243.9804 137.9162 250.2738 179.5462 268.1502C180.7952 268.689 180.33 268.8114 183.0972 265.7014C200.2382 246.3802 199.675 243.0498 215.9598 253.2614C231.7302 263.0566 230.4568 263.424 231.3138 262.8118C237.044 258.8446 306.7376 198.678 308.3048 197.0618C308.7456 196.7078 309.0664 196.2248 309.2206 195.6804C309.3724 195.1364 309.353 194.5576 309.1618 194.0254C308.7946 193.0212 309.823 190.8174 311.1454 191.4296C312.1078 192.09 312.7714 193.1008 312.9968 194.2454C313.2196 195.39 312.987 196.577 312.3454 197.5516C305.5622 206.8816 253.3042 248.1922 235.134 265.1136C234.4728 265.7258 234.3014 265.7014 236.6278 267.5624C278.8944 301.0624 255.7776 283.039 284.5268 290.1162C298.2646 293.52 312.3698 306.3764 318.0022 317.9838C325.618 333.8032 321.553 333.3624 324.5404 335.6888C326.115 336.8838 327.5966 338.1938 328.9728 339.6068C333.6012 343.378 334.3112 343.2066 334.1644 345.1412C334.1644 346.2186 332.1318 346.6594 331.0544 345.8024L325.2016 341.272C323.4384 339.9006 324.418 338.015 322.7528 350.0878C322.1896 354.4712 321.1856 355.2548 322.9242 354.9854C325.9314 354.6794 328.8798 353.9618 331.691 352.855ZM320.206 340.4884C318.9816 327.0934 317.4878 327.2892 317.145 326.1872C315.039 319.0368 305.6356 305.4212 298.9258 301.699C289.8406 296.483 289.6692 295.2096 279.7516 293.1772C268.1392 291.3038 256.2404 293.6228 246.1782 299.7156C239.0276 304.7846 241.109 302.1644 232.0484 311.176C227.714 315.437 223.4042 325.869 222.792 328.3178C215.6658 358.1934 233.1504 382.4858 252.5206 389.1954C285.4818 400.5826 318.296 379.5962 320.206 340.4884ZM241.8438 81.8202C241.9612 81.5546 241.976 81.255 241.8854 80.9794C241.7948 80.7036 241.6062 80.471 241.354 80.3262C235.5258 76.1142 232.5872 72.9798 225.8774 73.445C213.119 74.2286 210.3518 98.7906 222.9144 100.8232C225.3926 101.4528 228.0176 101.1202 230.2608 99.8926C235.6482 96.7826 240.0316 88.432 241.8192 81.8202H241.8436Z" stroke-width="1"></path><path id="Vector_10" fill="#0a0430" d="M268.291 321.0448C267.123 320.0138 265.6096 319.458 264.052 319.4848C262.4922 319.5118 261.0008 320.1216 259.867 321.1916C257.5896 323.6406 258.1284 325.3058 259.2794 331.8196C260.5772 339.166 265.328 357.924 270.3724 364.3154C272.8214 367.352 279.825 364.7808 279.825 359.6138C278.0618 347.4186 272.7478 326.3342 268.291 321.0448ZM272.5274 362.6748C270.708 360.319 269.322 357.6572 268.438 354.814C268.438 354.5446 258.6426 326.1872 261.8016 322.9794C262.4016 322.4552 263.1582 322.1418 263.9516 322.083C264.7476 322.0268 265.541 322.23 266.2096 322.661C269.9318 327.0934 275.1966 346.5126 277.0822 359.7362C276.8374 362.4544 273.1396 363.4828 272.5274 362.7238V362.6748Z" stroke-width="1"></path><path id="Vector_11" fill="#0a0430" d="M286.902 338.3334C285.259 331.1804 282.6656 324.2796 279.1882 317.8124C275.466 310.8576 268.5114 310.0986 260.92 312.2536C257.1978 313.3776 253.7278 315.2142 250.7084 317.6654C248.698 320.009 247.6008 323.0014 247.623 326.0894C247.4638 329.214 247.7356 332.346 248.431 335.3948C251.639 347.639 257.1734 373.572 269.8828 373.572C274.2662 373.572 284.0124 370.8784 287.6856 365.2216C291.8242 359.026 289.8896 349.7694 286.902 338.3334ZM285.5062 363.7768C282.3718 368.6744 272.9928 370.9272 269.9318 370.9272C259.4262 370.9272 253.7696 345.0678 251.1002 334.7582C250.4832 331.9372 250.2358 329.0476 250.3656 326.1628C250.3412 323.719 251.213 321.3508 252.8144 319.502C255.464 317.4304 258.4688 315.8532 261.6792 314.8492C268.1686 313.0126 273.654 313.135 276.813 319.0858C280.1678 325.3768 282.6852 332.0792 284.3064 339.0192C287.0734 349.794 288.959 358.4628 285.5062 363.7768Z" stroke-width="1"></path><path id="Vector_12" fill="#0a0430" d="M102.1146 52.3362C105.8124 53.0218 101.9432 57.5766 97.8292 56.793C96.4578 56.5236 96.8252 56.94 93.2744 60.0256C92.5398 60.6622 92.5398 60.9806 93.4458 61.2744C95.8946 62.0826 99.1026 58.8256 100.2536 60.3928C100.4162 60.805 100.4566 61.255 100.3696 61.6894C100.2826 62.124 100.0724 62.524 99.7638 62.8416C92.6376 67.7394 90.6542 62.303 89.5522 62.8416C84.9974 65.2904 84.6546 65.119 85.2422 65.6578C85.7388 66.044 86.315 66.3146 86.9292 66.45C87.5434 66.5856 88.1802 66.5828 88.793 66.4414C91.4132 66.172 90.5562 69.7964 88.0828 69.7228C81.9364 69.5514 82.6954 65.7558 80.9078 66.221C79.8304 66.5148 78.459 66.221 78.6794 67.6414C79.414 71.682 84.2138 69.9188 83.7974 72.343C83.626 73.396 83.2588 73.7878 82.3772 73.7878C81.5348 73.8792 80.6826 73.7816 79.8826 73.5024C79.0824 73.2232 78.355 72.7692 77.7522 72.1736C77.1496 71.5778 76.6872 70.8556 76.3986 70.0588C76.1098 69.2622 76.0024 68.4112 76.0836 67.5678C76.0836 66.8088 76.4754 66.5394 73.194 66.0006C71.9696 65.8048 70.182 68.2046 66.2148 66.6618C64.8068 66.2582 63.5418 65.4644 62.5658 64.372C61.59 63.2798 60.943 61.9336 60.6996 60.4894C60.4564 59.0448 60.6266 57.561 61.1912 56.2096C61.7554 54.8578 62.6906 53.693 63.8886 52.8504C67.7576 50.4016 68.6638 51.9688 69.5698 50.7444C70.8432 49.0058 71.333 48.712 70.6228 48.2956C53.3586 36.6392 58.1338 6.3964 71.7738 5.6126C76.6714 5.3434 78.1896 11.6858 79.9282 16.1426C81.4818 12.9656 83.486 10.0292 85.879 7.4248C88.891 4.6086 92.8336 2.772 96.262 4.976C104.9062 10.6572 98.3434 28.1908 92.3194 37.3984C91.095 39.284 90.6052 39.431 92.7602 39.8472C99.4698 40.9982 100.7678 46.7774 98.6372 53.3158C98.123 54.8586 101.1596 52.1648 102.1146 52.3362ZM97.413 14.6978C98.0252 8.9676 92.8826 2.6006 86.0748 11.9306C81.5416 18.1526 79.2226 25.7134 79.4876 33.4068C79.9528 38.9656 79.9038 40.7532 80.5896 38.3044C82.4996 32.0844 83.7484 26.6236 86.3198 27.897C88.083 28.7786 85.6096 30.811 84.2138 35.8556C82.6954 41.292 81.2262 48.0998 83.724 44.1326C88.891 35.7822 95.8702 29.5622 97.413 14.6978ZM96.4088 48.9814C96.4088 46.753 96.066 44.5734 93.96 43.5694C85.732 39.3574 87.1278 49.2996 81.2752 49.1038C78.312 49.1038 79.6344 45.4306 77.6264 46.8998C75.8152 48.186 74.1704 49.6912 72.7288 51.3812C72.092 52.1404 72.9492 52.4586 73.3654 52.777C74.8666 53.8556 75.9512 55.4178 76.437 57.2012C76.9232 58.9848 76.7808 60.8812 76.0348 62.5722C74.6144 65.8292 96.9966 58.6786 96.4334 48.8834L96.409 48.9814ZM77.6264 23.0972C77.9938 21.3586 78.0672 20.7954 74.9328 12.4204C74.4686 11.4542 73.9108 10.5354 73.2676 9.6778C73.0412 9.3344 72.6976 9.0854 72.301 8.9772C71.9042 8.8688 71.4816 8.909 71.1126 9.09C60.9744 12.5184 57.7664 33.5782 72.9492 46.2142C73.292 46.4836 74.296 45.9938 73.5368 45.504C70.035 43.2022 66.1904 30.6886 69.178 30.811C70.378 30.811 70.5984 31.2764 70.7698 32.4274C71.2106 35.4394 73.341 42.0022 75.9858 43.496C79.5366 45.504 74.6388 37.1046 77.6264 22.9994V23.0974ZM71.7002 62.8416C72.4914 62.2244 73.0592 61.3656 73.317 60.3958C73.575 59.4258 73.5092 58.3982 73.1294 57.4694C72.7496 56.5406 72.0764 55.7614 71.213 55.2504C70.3492 54.7392 69.3426 54.5242 68.3454 54.6382C67.3472 54.6012 66.3668 54.91 65.5702 55.5124C64.7732 56.115 64.209 56.9742 63.973 57.9448C63.737 58.9154 63.8432 59.9378 64.274 60.839C64.705 61.7402 65.4338 62.465 66.3374 62.8906C67.1582 63.362 68.0932 63.5978 69.0394 63.572C69.9856 63.5462 70.9066 63.2594 71.7002 62.7438V62.8416Z" stroke-width="1"></path></g></g></svg>