<svg width="152" height="152" viewBox="0 0 152 152" fill="none" xmlns="http://www.w3.org/2000/svg">
<g clip-path="url(#clip0_4_790)">
<path d="M75.78 148.06C115.699 148.06 148.06 115.699 148.06 75.78C148.06 35.8609 115.699 3.5 75.78 3.5C35.8609 3.5 3.5 35.8609 3.5 75.78C3.5 115.699 35.8609 148.06 75.78 148.06Z" fill="#DA2244" stroke="#F2F2F2" stroke-width="7" stroke-linecap="round" stroke-linejoin="round"/>
<path d="M35.2 104.37H116.37" stroke="#F2F2F2" stroke-width="5" stroke-linecap="round" stroke-linejoin="round"/>
<path d="M116.37 104.37L75.78 35.2" stroke="#F2F2F2" stroke-width="5" stroke-linecap="round" stroke-linejoin="round"/>
<path d="M35.2 104.37L75.7799 35.2" stroke="#F2F2F2" stroke-width="5" stroke-linecap="round" stroke-linejoin="round"/>
<path d="M75.78 57.32V83.18" stroke="#F2F2F2" stroke-width="4" stroke-linecap="round" stroke-linejoin="round"/>
<path d="M75.78 94.25C77.227 94.25 78.4 93.077 78.4 91.63C78.4 90.183 77.227 89.01 75.78 89.01C74.333 89.01 73.16 90.183 73.16 91.63C73.16 93.077 74.333 94.25 75.78 94.25Z" fill="#FCFBF2"/>
</g>
<defs>
<clipPath id="clip0_4_790">
<rect width="151.56" height="151.56" fill="white"/>
</clipPath>
</defs>
</svg>
