<svg width="97" height="26" viewBox="0 0 97 26" fill="none" xmlns="http://www.w3.org/2000/svg">
<path d="M47.3021 0C47.4187 0 47.5159 5.80178 47.5159 12.9571C47.5159 20.1123 47.422 25.9141 47.3021 25.9141C47.1823 25.9141 47.0883 20.1149 47.0883 12.9571C47.0883 5.79918 47.1823 0 47.3021 0Z" fill="#8532D8"/>
<path d="M43.1005 2.84753C43.2171 2.84753 43.3143 7.27761 43.3143 12.7384C43.3143 18.1992 43.2204 22.6319 43.1005 22.6319C42.9807 22.6319 42.8867 18.2044 42.8867 12.7384C42.8867 7.2724 42.9807 2.84753 43.1005 2.84753Z" fill="#8532D8"/>
<path d="M38.3709 5.67424C38.4875 5.67424 38.5847 8.88097 38.5847 12.8373C38.5847 16.7937 38.4908 20.0004 38.3709 20.0004C38.251 20.0004 38.1571 16.7937 38.1571 12.8373C38.1571 8.88097 38.251 5.67424 38.3709 5.67424Z" fill="#8532D8"/>
<path d="M34.2473 8.11053C34.3639 8.11053 34.4611 9.8987 34.4611 12.1059C34.4611 14.3132 34.3672 16.1013 34.2473 16.1013C34.1275 16.1013 34.0335 14.3132 34.0335 12.1059C34.0335 9.8987 34.1275 8.11053 34.2473 8.11053Z" fill="#8532D8"/>
<path d="M30.6061 10.0601C30.7228 10.0601 30.8199 11.0414 30.8199 12.2517C30.8199 13.462 30.726 14.4433 30.6061 14.4433C30.4863 14.4433 30.3923 13.462 30.3923 12.2517C30.3923 11.0414 30.4863 10.0601 30.6061 10.0601Z" fill="#8532D8"/>
<path d="M26.4823 7.72009C26.5989 7.72009 26.6961 9.50826 26.6961 11.7155C26.6961 13.9227 26.6022 15.7109 26.4823 15.7109C26.3624 15.7109 26.2685 13.9227 26.2685 11.7155C26.2685 9.50826 26.3624 7.72009 26.4823 7.72009Z" fill="#8532D8"/>
<path d="M22.6013 4.50294C22.7179 4.50294 22.8151 7.86324 22.8151 12.007C22.8151 16.1508 22.7211 19.5111 22.6013 19.5111C22.4814 19.5111 22.3875 16.1508 22.3875 12.007C22.3875 7.86324 22.4814 4.50294 22.6013 4.50294Z" fill="#8532D8"/>
<path d="M71.8214 5.67424C71.938 5.67424 72.0352 8.88097 72.0352 12.8373C72.0352 16.7937 71.9413 20.0004 71.8214 20.0004C71.7015 20.0004 71.6076 16.7937 71.6076 12.8373C71.6076 8.88097 71.7015 5.67424 71.8214 5.67424Z" fill="#8532D8"/>
<path d="M67.6977 8.11053C67.8143 8.11053 67.9115 9.8987 67.9115 12.1059C67.9115 14.3132 67.8175 16.1013 67.6977 16.1013C67.5778 16.1013 67.4839 14.3132 67.4839 12.1059C67.4839 9.8987 67.5778 8.11053 67.6977 8.11053Z" fill="#8532D8"/>
<path d="M64.0564 10.0601C64.173 10.0601 64.2702 11.0414 64.2702 12.2517C64.2702 13.462 64.1763 14.4433 64.0564 14.4433C63.9365 14.4433 63.8426 13.462 63.8426 12.2517C63.8426 11.0414 63.9365 10.0601 64.0564 10.0601Z" fill="#8532D8"/>
<path d="M59.9327 6.55139C60.0494 6.55139 60.1465 8.86534 60.1465 11.7155C60.1465 14.5656 60.0526 16.8822 59.9327 16.8822C59.8129 16.8822 59.7189 14.5708 59.7189 11.7155C59.7189 8.86013 59.8129 6.55139 59.9327 6.55139Z" fill="#8532D8"/>
<path d="M56.0519 4.50294C56.1685 4.50294 56.2657 7.86324 56.2657 12.007C56.2657 16.1508 56.1717 19.5111 56.0519 19.5111C55.932 19.5111 55.8381 16.1508 55.8381 12.007C55.8381 7.86324 55.932 4.50294 56.0519 4.50294Z" fill="#8532D8"/>
<path d="M51.3223 2.94385C51.4389 2.94385 51.5361 7.22035 51.5361 12.4938C51.5361 17.7672 51.4421 22.0463 51.3223 22.0463C51.2024 22.0463 51.1085 17.7698 51.1085 12.4938C51.1085 7.21775 51.2056 2.94385 51.3223 2.94385Z" fill="#8532D8"/>
<path d="M76.2303 15.7109C76.1137 15.7109 76.0165 13.9227 76.0165 11.7155C76.0165 9.50826 76.1104 7.72009 76.2303 7.72009C76.3501 7.72009 76.4441 9.50826 76.4441 11.7155C76.4441 13.9227 76.3501 15.7109 76.2303 15.7109Z" fill="#8532D8"/>
<path d="M79.8682 13.7613C79.7515 13.7613 79.6544 12.7801 79.6544 11.5697C79.6544 10.3594 79.7483 9.37811 79.8682 9.37811C79.988 9.37811 80.082 10.3594 80.082 11.5697C80.082 12.7801 79.988 13.7613 79.8682 13.7613Z" fill="#8532D8"/>
<path d="M18.8017 7.72009C18.9183 7.72009 19.0155 9.50826 19.0155 11.7155C19.0155 13.9227 18.9216 15.7109 18.8017 15.7109C18.6818 15.7109 18.5879 13.9227 18.5879 11.7155C18.5879 9.50826 18.6818 7.72009 18.8017 7.72009Z" fill="#8532D8"/>
<path d="M15.1638 9.66965C15.2804 9.66965 15.3776 10.6509 15.3776 11.8613C15.3776 13.0716 15.2836 14.0555 15.1638 14.0555C15.0439 14.0555 14.95 13.0742 14.95 11.8613C14.95 10.6483 15.0439 9.66965 15.1638 9.66965Z" fill="#8532D8"/>
<path d="M11.5323 7.72009C11.649 7.72009 11.7461 9.50826 11.7461 11.7155C11.7461 13.9227 11.6522 15.7109 11.5323 15.7109C11.4125 15.7109 11.3185 13.9227 11.3185 11.7155C11.3185 9.50826 11.4125 7.72009 11.5323 7.72009Z" fill="#8532D8"/>
<path d="M7.65149 4.50294C7.76811 4.50294 7.86529 7.86324 7.86529 12.007C7.86529 16.1508 7.77135 19.5111 7.65149 19.5111C7.53163 19.5111 7.43768 16.1508 7.43768 12.007C7.43768 7.86324 7.53163 4.50294 7.65149 4.50294Z" fill="#8532D8"/>
<path d="M3.8518 7.72009C3.96842 7.72009 4.06561 9.50826 4.06561 11.7155C4.06561 13.9227 3.97166 15.7109 3.8518 15.7109C3.73194 15.7109 3.638 13.9227 3.638 11.7155C3.638 9.50826 3.73194 7.72009 3.8518 7.72009Z" fill="#8532D8"/>
<path d="M0.213802 9.66965C0.330422 9.66965 0.427605 10.6509 0.427605 11.8613C0.427605 13.0716 0.333661 14.0555 0.213802 14.0555C0.0939435 14.0555 0 13.0742 0 11.8613C0 10.6483 0.0939435 9.66965 0.213802 9.66965Z" fill="#8532D8"/>
<path d="M91.4037 7.72009C91.5203 7.72009 91.6175 9.50826 91.6175 11.7155C91.6175 13.9227 91.5235 15.7109 91.4037 15.7109C91.2838 15.7109 91.1899 13.9227 91.1899 11.7155C91.1899 9.50826 91.2838 7.72009 91.4037 7.72009Z" fill="#8532D8"/>
<path d="M87.5229 4.50294C87.6396 4.50294 87.7368 7.86324 87.7368 12.007C87.7368 16.1508 87.6428 19.5111 87.5229 19.5111C87.4031 19.5111 87.3091 16.1508 87.3091 12.007C87.3091 7.86324 87.4031 4.50294 87.5229 4.50294Z" fill="#8532D8"/>
<path d="M83.723 7.72009C83.8396 7.72009 83.9368 9.50826 83.9368 11.7155C83.9368 13.9227 83.8429 15.7109 83.723 15.7109C83.6032 15.7109 83.5092 13.9227 83.5092 11.7155C83.5092 9.50826 83.6064 7.72009 83.723 7.72009Z" fill="#8532D8"/>
<path d="M80.0853 9.66965C80.2019 9.66965 80.2991 10.6509 80.2991 11.8613C80.2991 13.0716 80.2051 14.0555 80.0853 14.0555C79.9654 14.0555 79.8715 13.0742 79.8715 11.8613C79.8715 10.6483 79.9686 9.66965 80.0853 9.66965Z" fill="#8532D8"/>
<path d="M96.1431 9.66965C96.2597 9.66965 96.3569 10.6509 96.3569 11.8613C96.3569 13.0716 96.263 14.0555 96.1431 14.0555C96.0233 14.0555 95.9293 13.0742 95.9293 11.8613C95.9293 10.6483 96.0233 9.66965 96.1431 9.66965Z" fill="#8532D8"/>
</svg>
