<svg width="163" height="44" viewBox="0 0 163 44" fill="none" xmlns="http://www.w3.org/2000/svg">
<g clip-path="url(#clip0_2_48)">
<path d="M80.0177 0C80.215 0 80.3793 9.85094 80.3793 22C80.3793 34.1491 80.2204 44 80.0177 44C79.8149 44 79.656 34.1535 79.656 22C79.656 9.84652 79.8149 0 80.0177 0Z" fill="black"/>
<path d="M72.9102 4.83487C73.1075 4.83487 73.2719 12.3568 73.2719 21.6288C73.2719 30.9008 73.113 38.4271 72.9102 38.4271C72.7075 38.4271 72.5486 30.9096 72.5486 21.6288C72.5486 12.3479 72.7075 4.83487 72.9102 4.83487Z" fill="black"/>
<path d="M64.9096 9.63439C65.1068 9.63439 65.2712 15.0791 65.2712 21.7967C65.2712 28.5143 65.1123 33.959 64.9096 33.959C64.7068 33.959 64.5479 28.5143 64.5479 21.7967C64.5479 15.0791 64.7068 9.63439 64.9096 9.63439Z" fill="black"/>
<path d="M57.9336 13.771C58.1309 13.771 58.2953 16.8072 58.2953 20.5548C58.2953 24.3025 58.1364 27.3387 57.9336 27.3387C57.7309 27.3387 57.572 24.3025 57.572 20.5548C57.572 16.8072 57.7309 13.771 57.9336 13.771Z" fill="black"/>
<path d="M51.7742 17.0812C51.9715 17.0812 52.1359 18.7473 52.1359 20.8023C52.1359 22.8574 51.977 24.5235 51.7742 24.5235C51.5715 24.5235 51.4125 22.8574 51.4125 20.8023C51.4125 18.7473 51.5715 17.0812 51.7742 17.0812Z" fill="black"/>
<path d="M44.7983 13.1081C44.9956 13.1081 45.16 16.1442 45.16 19.8919C45.16 23.6396 45.001 26.6758 44.7983 26.6758C44.5955 26.6758 44.4366 23.6396 44.4366 19.8919C44.4366 16.1442 44.5955 13.1081 44.7983 13.1081Z" fill="black"/>
<path d="M38.2333 7.64564C38.4306 7.64564 38.595 13.3511 38.595 20.3869C38.595 27.4227 38.4361 33.1282 38.2333 33.1282C38.0306 33.1282 37.8717 27.4227 37.8717 20.3869C37.8717 13.3511 38.0306 7.64564 38.2333 7.64564Z" fill="black"/>
<path d="M121.495 9.63439C121.692 9.63439 121.857 15.0791 121.857 21.7967C121.857 28.5143 121.698 33.959 121.495 33.959C121.292 33.959 121.133 28.5143 121.133 21.7967C121.133 15.0791 121.292 9.63439 121.495 9.63439Z" fill="black"/>
<path d="M114.519 13.771C114.716 13.771 114.881 16.8072 114.881 20.5548C114.881 24.3025 114.722 27.3387 114.519 27.3387C114.316 27.3387 114.158 24.3025 114.158 20.5548C114.158 16.8072 114.316 13.771 114.519 13.771Z" fill="black"/>
<path d="M108.36 17.0812C108.557 17.0812 108.721 18.7473 108.721 20.8023C108.721 22.8574 108.563 24.5235 108.36 24.5235C108.157 24.5235 107.998 22.8574 107.998 20.8023C107.998 18.7473 108.157 17.0812 108.36 17.0812Z" fill="black"/>
<path d="M101.384 11.1237C101.581 11.1237 101.746 15.0526 101.746 19.8919C101.746 24.7312 101.587 28.6645 101.384 28.6645C101.181 28.6645 101.022 24.7401 101.022 19.8919C101.022 15.0438 101.181 11.1237 101.384 11.1237Z" fill="black"/>
<path d="M94.8189 7.64564C95.0162 7.64564 95.1806 13.3511 95.1806 20.3869C95.1806 27.4227 95.0217 33.1282 94.8189 33.1282C94.6162 33.1282 94.4572 27.4227 94.4572 20.3869C94.4572 13.3511 94.6162 7.64564 94.8189 7.64564Z" fill="black"/>
<path d="M86.8182 4.99839C87.0155 4.99839 87.1799 12.2595 87.1799 21.2133C87.1799 30.1671 87.021 37.4327 86.8182 37.4327C86.6155 37.4327 86.4566 30.1716 86.4566 21.2133C86.4566 12.2551 86.621 4.99839 86.8182 4.99839Z" fill="black"/>
<path d="M128.953 26.6758C128.756 26.6758 128.592 23.6396 128.592 19.8919C128.592 16.1442 128.751 13.1081 128.953 13.1081C129.156 13.1081 129.315 16.1442 129.315 19.8919C129.315 23.6396 129.156 26.6758 128.953 26.6758Z" fill="black"/>
<path d="M135.107 23.3656C134.91 23.3656 134.746 21.6995 134.746 19.6444C134.746 17.5894 134.904 15.9233 135.107 15.9233C135.31 15.9233 135.469 17.5894 135.469 19.6444C135.469 21.6995 135.31 23.3656 135.107 23.3656Z" fill="black"/>
<path d="M31.8054 13.1081C32.0027 13.1081 32.1671 16.1442 32.1671 19.8919C32.1671 23.6396 32.0082 26.6758 31.8054 26.6758C31.6027 26.6758 31.4437 23.6396 31.4437 19.8919C31.4437 16.1442 31.6027 13.1081 31.8054 13.1081Z" fill="black"/>
<path d="M25.6515 16.4182C25.8487 16.4182 26.0131 18.0844 26.0131 20.1394C26.0131 22.1945 25.8542 23.865 25.6515 23.865C25.4487 23.865 25.2898 22.1989 25.2898 20.1394C25.2898 18.08 25.4487 16.4182 25.6515 16.4182Z" fill="black"/>
<path d="M19.5085 13.1081C19.7058 13.1081 19.8702 16.1442 19.8702 19.8919C19.8702 23.6396 19.7113 26.6758 19.5085 26.6758C19.3057 26.6758 19.1468 23.6396 19.1468 19.8919C19.1468 16.1442 19.3057 13.1081 19.5085 13.1081Z" fill="black"/>
<path d="M12.9436 7.64564C13.1408 7.64564 13.3052 13.3511 13.3052 20.3869C13.3052 27.4227 13.1463 33.1282 12.9436 33.1282C12.7408 33.1282 12.5819 27.4227 12.5819 20.3869C12.5819 13.3511 12.7408 7.64564 12.9436 7.64564Z" fill="black"/>
<path d="M6.51561 13.1081C6.71288 13.1081 6.87728 16.1442 6.87728 19.8919C6.87728 23.6396 6.71836 26.6758 6.51561 26.6758C6.31285 26.6758 6.15393 23.6396 6.15393 19.8919C6.15393 16.1442 6.31285 13.1081 6.51561 13.1081Z" fill="black"/>
<path d="M0.361674 16.4182C0.558951 16.4182 0.723348 18.0844 0.723348 20.1394C0.723348 22.1945 0.564431 23.865 0.361674 23.865C0.158917 23.865 0 22.1989 0 20.1394C0 18.08 0.158917 16.4182 0.361674 16.4182Z" fill="black"/>
<path d="M154.621 13.1081C154.818 13.1081 154.983 16.1442 154.983 19.8919C154.983 23.6396 154.824 26.6758 154.621 26.6758C154.418 26.6758 154.26 23.6396 154.26 19.8919C154.26 16.1442 154.418 13.1081 154.621 13.1081Z" fill="black"/>
<path d="M148.056 7.64564C148.254 7.64564 148.418 13.3511 148.418 20.3869C148.418 27.4227 148.259 33.1282 148.056 33.1282C147.853 33.1282 147.695 27.4227 147.695 20.3869C147.695 13.3511 147.853 7.64564 148.056 7.64564Z" fill="black"/>
<path d="M141.628 13.1081C141.826 13.1081 141.99 16.1442 141.99 19.8919C141.99 23.6396 141.831 26.6758 141.628 26.6758C141.426 26.6758 141.267 23.6396 141.267 19.8919C141.267 16.1442 141.431 13.1081 141.628 13.1081Z" fill="black"/>
<path d="M135.474 16.4182C135.672 16.4182 135.836 18.0844 135.836 20.1394C135.836 22.1945 135.677 23.865 135.474 23.865C135.272 23.865 135.113 22.1989 135.113 20.1394C135.113 18.08 135.277 16.4182 135.474 16.4182Z" fill="black"/>
<path d="M162.638 16.4182C162.836 16.4182 163 18.0844 163 20.1394C163 22.1945 162.841 23.865 162.638 23.865C162.436 23.865 162.277 22.1989 162.277 20.1394C162.277 18.08 162.436 16.4182 162.638 16.4182Z" fill="black"/>
</g>
<defs>
<clipPath id="clip0_2_48">
<rect width="163" height="44" fill="white"/>
</clipPath>
</defs>
</svg>
