<svg width="28" height="34" viewBox="0 0 28 34" fill="none" xmlns="http://www.w3.org/2000/svg">
<path d="M18.3608 0.977288V1.78608C18.3608 2.33009 17.9304 2.773 17.4007 2.773H17.0649V4.35206C13.7682 3.654 10.9351 4.35206 10.9351 4.35206V2.773H10.5993C10.0696 2.773 9.63919 2.3349 9.63919 1.78608V0.977288C9.63919 0.433281 10.0696 0 10.5993 0H17.4007C17.9304 0 18.3608 0.433281 18.3608 0.977288Z" fill="#8532D8"/>
<path d="M26.1743 6.77362L21.8608 3.70214C21.596 3.51439 21.4162 3.62993 21.3264 3.73584L21.2507 3.84657L20.1723 5.41601C20.1723 5.41601 22.8919 6.49921 25.2 8.99298L26.2831 7.41391C26.5291 7.04803 26.2074 6.79769 26.1743 6.77362Z" fill="#8532D8"/>
<path d="M14 5.43526C6.26689 5.43526 0 11.8189 0 19.6902C0 27.5615 6.26689 33.9403 14 33.9403C21.7331 33.9403 28 27.5566 28 19.6902C28 11.8237 21.7331 5.43526 14 5.43526ZM14 19.6902V8.42009C14 8.42009 24.4007 8.24196 25.0723 19.6902C17.5993 19.6661 14 19.6902 14 19.6902Z" fill="#8532D8"/>
</svg>
