<svg width="63" height="54" fill="none" xmlns="http://www.w3.org/2000/svg"><path d="M47.576 38.951c1.114-1.988 2.752-3.408 4.477-4.076a6.42 6.42 0 0 0 3.514-3.302c.074-.16.155-.32.243-.478 1.34-2.39 3.851-3.49 5.61-2.456 1.76 1.034 2.101 3.811.762 6.202a6.461 6.461 0 0 1-.952 1.297c-1.134 1.192-1.815 2.771-1.845 4.436-.027 1.487-.443 3.078-1.278 4.568-1.245 2.223-3.146 3.736-5.091 4.281a6.186 6.186 0 0 0-2.047 1.01c-1.022.768-2.272.96-3.26.38-1.066-.627-1.528-1.978-1.283-3.382a7.002 7.002 0 0 0-.015-2.402c-.326-1.876.04-4.068 1.165-6.078Z" fill="#BDD0FB"/><path opacity=".57" d="M59.38 30.82a129.618 129.618 0 0 0-3.237 4.418c-.264.373-.522.75-.78 1.126l-.389.565-.383.567c-.255.38-.514.756-.764 1.138l-.751 1.148c-.491.771-.988 1.539-1.465 2.32-.24.39-.485.775-.717 1.17l-.699 1.181a73.685 73.685 0 0 0-2.591 4.846l.069.036.642-1.213.16-.303.167-.3.335-.597.335-.598c.11-.2.23-.395.344-.593.23-.394.46-.79.693-1.183a163.71 163.71 0 0 1 2.906-4.644c.504-.761 1.001-1.527 1.51-2.284l.38-.57.386-.565c.256-.378.512-.755.772-1.13.514-.754 1.033-1.505 1.558-2.251.522-.75 1.05-1.493 1.58-2.235l-.061-.049Z" fill="#fff"/><path opacity=".5" d="M59.561 36.158a.067.067 0 0 0 .058-.016c1.981-1.711 2.405-3.418 2.412-4.55.008-1.228-.45-2.038-.47-2.072a.069.069 0 0 0-.095-.025.072.072 0 0 0-.025.098c.005.008.46.815.45 2.007-.008 1.099-.424 2.76-2.362 4.433a.073.073 0 0 0-.009.101.07.07 0 0 0 .041.024Z" fill="#fff"/><path d="M24.19 32.044c-1.131-3.574-3.293-6.416-5.844-8.082a10.653 10.653 0 0 1-4.553-6.509 11.092 11.092 0 0 0-.233-.85c-1.36-4.298-5.032-6.928-8.202-5.875s-4.638 5.39-3.279 9.688c.279.879.653 1.687 1.1 2.41 1.429 2.302 2 5.07 1.496 7.75-.45 2.396-.307 5.091.541 7.77 1.264 3.995 3.818 7.078 6.763 8.623a10.277 10.277 0 0 1 2.954 2.325c1.388 1.585 3.334 2.324 5.114 1.733 1.92-.638 3.109-2.646 3.181-4.983.04-1.323.335-2.62.82-3.848 1.146-2.898 1.285-6.54.141-10.152Z" fill="#91B3FA"/><path d="M7.915 14.93c1.313 2.703 2.54 5.447 3.739 8.203.3.69.59 1.383.88 2.076l.437 1.04.429 1.043c.283.696.575 1.389.85 2.089l.827 2.1c.533 1.407 1.078 2.808 1.586 4.226.254.708.523 1.41.763 2.124l.732 2.136c.948 2.859 1.826 5.743 2.56 8.667l-.123.034-.63-2.166-.157-.542-.17-.538-.34-1.075-.34-1.075c-.112-.359-.237-.713-.356-1.07-.24-.711-.476-1.425-.722-2.135a269.14 269.14 0 0 0-3.132-8.453c-.558-1.394-1.103-2.794-1.67-4.185l-.422-1.044-.431-1.04c-.287-.695-.574-1.389-.868-2.08a300.202 300.202 0 0 0-1.759-4.148 367.468 367.468 0 0 0-1.798-4.13l.115-.057Z" fill="#BDD0FB"/><path d="M5 23.476a.106.106 0 0 1-.079-.046c-2.283-3.346-2.254-6.054-1.827-7.737.463-1.828 1.455-2.846 1.497-2.889a.105.105 0 0 1 .151.001.112.112 0 0 1 0 .155c-.01.01-.998 1.026-1.444 2.8-.412 1.635-.434 4.272 1.799 7.544a.111.111 0 0 1-.026.153.105.105 0 0 1-.07.02Z" fill="#BDD0FB" opacity=".5"/><path d="M13.992 39.059c-.967-1.865-2.433-3.223-4.001-3.89a5.927 5.927 0 0 1-3.138-3.15c-.063-.15-.133-.3-.21-.447-1.162-2.243-3.442-3.333-5.092-2.435-1.65.898-2.046 3.443-.884 5.686.238.459.522.869.838 1.224a6.115 6.115 0 0 1 1.568 4.14c-.02 1.37.317 2.847 1.042 4.245 1.08 2.085 2.786 3.536 4.56 4.099a5.71 5.71 0 0 1 1.854.993c.918.738 2.064.954 2.99.45 1-.544 1.465-1.773 1.28-3.073a6.446 6.446 0 0 1 .085-2.21c.356-1.718.084-3.747-.893-5.632Z" fill="#BDD0FB"/><path opacity=".57" d="M3.365 31.208c.984 1.365 1.924 2.76 2.85 4.167.232.351.458.707.685 1.061l.34.532.337.534c.223.358.451.712.67 1.072l.657 1.08c.43.725.865 1.446 1.28 2.18.209.366.424.728.626 1.1l.608 1.109a67.95 67.95 0 0 1 2.243 4.54l-.065.032-.555-1.136-.138-.285-.145-.28-.292-.561-.29-.561c-.096-.188-.2-.371-.299-.557-.201-.37-.4-.74-.603-1.11a151.673 151.673 0 0 0-2.539-4.365c-.441-.716-.876-1.436-1.323-2.15l-.333-.535-.338-.533c-.224-.356-.45-.711-.678-1.064-.45-.71-.906-1.418-1.368-2.12a186.69 186.69 0 0 0-1.388-2.107l.058-.043Z" fill="#fff"/><path d="M3.04 36.116a.063.063 0 0 1-.052-.016C1.214 34.463.875 32.878.902 31.837c.03-1.131.474-1.863.493-1.893a.063.063 0 0 1 .089-.02c.03.019.038.06.02.09-.005.007-.448.736-.474 1.833-.025 1.012.31 2.555 2.044 4.155a.067.067 0 0 1 .005.093.064.064 0 0 1-.038.021Z" fill="#fff" opacity=".5"/><path d="M39.186 26.89c.755-3.68 2.612-6.744 4.977-8.68a10.733 10.733 0 0 0 3.856-6.975c.036-.288.084-.58.143-.871.908-4.426 4.29-7.443 7.554-6.74 3.265.702 5.176 4.859 4.269 9.284-.186.905-.475 1.75-.846 2.518-1.182 2.448-1.462 5.264-.683 7.877.697 2.335.834 5.033.268 7.791-.843 4.115-3.065 7.46-5.835 9.319a10.36 10.36 0 0 0-2.7 2.637c-1.216 1.728-3.075 2.676-4.908 2.281-1.977-.425-3.37-2.294-3.684-4.613a11.397 11.397 0 0 0-1.216-3.74c-1.44-2.76-1.957-6.368-1.194-10.088Z" fill="#91B3FA"/><path d="M53.608 8.085c-1.026 2.832-1.963 5.697-2.87 8.571-.227.719-.443 1.44-.661 2.162L49.75 19.9l-.318 1.085c-.21.724-.429 1.445-.63 2.172l-.604 2.18c-.385 1.458-.782 2.913-1.14 4.379-.18.732-.374 1.461-.54 2.198l-.506 2.206c-.647 2.948-1.22 5.914-1.648 8.904l.126.02.402-2.224.1-.557.113-.553.228-1.107.226-1.107c.074-.37.162-.736.243-1.104.166-.735.327-1.47.497-2.204a272.42 272.42 0 0 1 2.24-8.754c.41-1.448.808-2.9 1.228-4.347l.312-1.085.32-1.083c.215-.722.428-1.444.648-2.164.43-1.443.87-2.883 1.32-4.32.443-1.439.9-2.874 1.36-4.307l-.119-.043Zm3.787 8.187a.106.106 0 0 0 .074-.055c1.925-3.578 1.615-6.27 1.016-7.899-.65-1.769-1.744-2.674-1.79-2.712a.105.105 0 0 0-.151.017.112.112 0 0 0 .017.154c.01.01 1.1.913 1.727 2.63.58 1.583.876 4.205-1.007 7.704a.111.111 0 0 0 .043.15.103.103 0 0 0 .07.01v.001Z" fill="#BDD0FB"/><path d="M13.884 47.407s-.688-4.89 4.683-5.267c5.37-.376 31.583.564 31.583.564s-1.102 5.456 0 7.807c-5.05-.047-34.246 0-34.246 0s-2.191-1.078-2.02-3.104Z" fill="#91B3FA"/><path d="M50.655 49.93H17.602c-.673 0-3.244.171-3.182-2.776.03-1.417.765-2.29 1.523-2.843a4.05 4.05 0 0 1 2.405-.762h30.104c2.82 0 2.277-3.853 2.277-3.853l-32.086.808s-4.774 2.896-5.283 5.85a5.41 5.41 0 0 0 0 1.89c.29 1.6 1.657 2.775 3.245 2.775h34.05a.54.54 0 0 0 .55-.545.54.54 0 0 0-.55-.544Z" fill="url(#a)"/><path d="M48.71.05H17.918v42.798h30.794c1.175 0 2.019-1.12 2.019-2.324V2.18c0-1.204-.844-2.13-2.02-2.13Z" fill="url(#b)"/><path d="M17.97 0s-4.958 1.012-4.59 4.927c.366 3.915-.02 41.42-.02 41.42s1.488-3.643 4.61-3.643V0Z" fill="url(#c)"/><path opacity=".6" d="M46.787 44.093H22.77a.07.07 0 0 0-.069.07v.093c0 .039.031.07.07.07h24.015a.07.07 0 0 0 .069-.07v-.092a.07.07 0 0 0-.07-.07Zm.601 2.587c0 .04-.066.137-.11.137H19.332c-.044 0-.2-.098-.2-.137v-.104c0-.039.156.007.2.007h27.946c.044 0 .11-.046.11-.007v.104Zm.469 2.004H30.283a.14.14 0 0 0-.137.141v.03a.14.14 0 0 0 .137.14h17.574a.14.14 0 0 0 .138-.14v-.03a.14.14 0 0 0-.138-.14Z" fill="#fff"/><path d="M19.056 38.14c-.06 0-.075-.05-.075-.112V22.304c0-.062.015-.112.075-.112s.076.05.076.112v15.724c0 .062-.016.111-.076.111Zm0-18.178c-.06 0-.075-.05-.075-.112v-7.583c0-.061.015-.111.075-.111s.076.05.076.111v7.583c0 .062-.016.112-.076.112Zm0-14.275c-.06 0-.075-.05-.075-.111V1.338c0-.061.015-.112.075-.112s.076.05.076.112v4.238c0 .061-.016.111-.076.111Z" fill="#91B3FA"/><path d="M33.14 13.83c-1.439-.04-2.454-.429-3.056-1.167-.6-.735-.898-1.635-.898-2.703 0-1.068.325-1.946.978-2.639.656-.695 1.659-1.044 3.017-1.044 1.371 0 2.422.32 3.146.964.727.648 1.093 1.57 1.093 2.766 0 1.195-.352 2.143-1.05 2.84-.697.695-1.776 1.02-3.23.982Zm3.9 2.668h-7.516v19.13h7.516v-19.13Z" fill="#fff"/><path d="M26.576 34.737h11.523c.023 0 .042.02.042.043v.813c0 .02-.016.035-.035.035H26.56a.04.04 0 0 1-.04-.04v-.794c0-.031.025-.057.056-.057Zm-1.118-18.239h11.544a.04.04 0 0 1 .038.04v.851H25.466a.046.046 0 0 1-.045-.046v-.806c0-.021.017-.038.037-.038Z" fill="#fff"/><path d="M13.5 27.273c-.023.044-1.438 1.11-1.438 1.11s.313 2.29 1.582 3.195c1.395.994 3.365-.82 3.365-.82s1.568.382 2.402-2.961c.19-.768-.913-.832-2.246-.691-1.719.182-3.665.167-3.665.167Z" fill="url(#d)"/><path d="M10.855 35.086a5.906 5.906 0 0 1 1.814-.864c.244-.068 1.56.324 2.373.304 1.117-.026 2.254-.547 3.174-.312.914.234 1.662.539 2.094.854 1.294.942 2.053 2.7 2.516 4.44a5.902 5.902 0 0 1-1.979 1.33l-.204 8.46-4.883 2.56-5.573-2.866.2-8.268s-1.77-.844-1.9-1.151c-.13-.307.807-3.386 2.368-4.486Z" fill="url(#e)"/><path d="M8.57 39.535s-2.372 6.737 3.036 9.505c1.123-.153.691-2.063.691-2.063s-2.35-.533-1.644-6.152c-.65-.548-2.084-1.29-2.084-1.29Z" fill="url(#f)"/><path d="M22.712 39.535s1.632 7.032-3.037 9.505c-1.123-.153-.69-2.063-.69-2.063s1.893-.956 1.643-6.152c.65-.548 2.084-1.29 2.084-1.29Z" fill="url(#g)"/><path d="M20.65 42.105H10.304c-.1 0-.18.082-.18.184v7.04c0 .102.08.184.18.184H20.65c.099 0 .18-.082.18-.184v-7.04a.182.182 0 0 0-.18-.184Z" fill="url(#h)"/><path d="M25.527 51.71c-1.225-.288-4.058-.133-4.058-.133l-.115.319-.19 1.588s2.697.498 4.026.497c.136 0 .26-.02.373-.057.04-.037.08-.076.118-.117.564-.632.401-1.559-.154-2.098Z" fill="url(#i)"/><path d="m20.656 51.487.48.021c.257.011.5.14.673.357.173.217.262.504.247.796a.928.928 0 0 1-.26.606.716.716 0 0 1-.56.219l-.734-.054.154-1.945Z" fill="url(#j)"/><path d="M4.53 51.557c1.231-.25 4.059-.006 4.059-.006l.107.323.152 1.595s-2.708.413-4.037.37a1.235 1.235 0 0 1-.372-.07 1.72 1.72 0 0 1-.114-.12c-.549-.65-.363-1.571.205-2.092Z" fill="url(#k)"/><path d="m9.405 51.487-.48.006a.908.908 0 0 0-.683.336 1.176 1.176 0 0 0-.266.788.935.935 0 0 0 .245.614c.15.16.35.245.555.236l.735-.03-.106-1.95Z" fill="url(#l)"/><path d="M25.87 46.73c-.556-1.31-1.915-1.523-3.072-.91-.02.026-7.346 3.873-13.808 5.56.185.607.28 1.253.301 1.889.004.141.002.28-.006.419 4.954-.261 10.332-1.954 14.953-3.442 1.433-.473 2.248-2.064 1.632-3.516Z" fill="url(#m)"/><path d="M20.691 53.368a4.45 4.45 0 0 1 .417-2.045c.008-.03.018-.057.028-.086a57.838 57.838 0 0 1-1.472-.493c-4.588-1.609-8.088-3.233-11.429-5.102-1.297-.727-2.773-.24-3.188 1.333-.371 1.404.443 2.603 1.68 3.025 3.697 1.26 1.772.91 2.98 1.309 3.243 1.027 7.278 1.963 10.992 2.219l-.008-.16Z" fill="url(#n)"/><path d="M12.67 34.221s.493 2.191 2.889 2.146c2.44-.046 2.657-2.152 2.657-2.152l-1.594-.35-.133-1.82-2.397.183-.045 1.728-1.377.266Z" fill="url(#o)"/><path d="M14.428 26.89s-2.748 5.453.512 6.776c2.299.933 3.74-3.621 3.31-4.855-.665-1.907-1.102-1.68-1.102-1.68l-2.72-.24Z" fill="url(#p)"/><path d="M18.911 26.394c1.358.382.198 3.398-1.846 2.685-2.043-.713-2.847-.703-3.165-.128-.318.575-.387 2.617-1.078 1.608-.757-1.107-1.18-3.327-.25-4.043.83-.64 1.023-1.632 2.019-1.598 1.32.046 2.343-.554 2.94-.121.685.497.382 1.316 1.38 1.597Z" fill="url(#q)"/><path d="M13.774 29.42s-.586-.646-.68.133c-.093.778.208 1.78.56 1.231.354-.55.12-1.364.12-1.364Z" fill="url(#r)"/><path d="M16.108 44.111c.057.393-.148.75-.532.808a.705.705 0 0 1-.798-.606c-.056-.393.12-.784.503-.842.384-.058.77.247.827.64Z" fill="url(#s)"/><defs><linearGradient id="a" x1="31.028" y1="29.347" x2="33.118" y2="58.337" gradientUnits="userSpaceOnUse"><stop stop-color="#09005D"/><stop offset="1" stop-color="#1A0F91"/></linearGradient><linearGradient id="b" x1="30.247" y1="-36.877" x2="37.585" y2="64.906" gradientUnits="userSpaceOnUse"><stop stop-color="#09005D"/><stop offset="1" stop-color="#1A0F91"/></linearGradient><linearGradient id="c" x1="13.36" y1="23.174" x2="17.97" y2="23.174" gradientUnits="userSpaceOnUse"><stop stop-color="#09005D"/><stop offset="1" stop-color="#1A0F91"/></linearGradient><linearGradient id="d" x1="21.952" y1="19.453" x2="15.963" y2="27.762" gradientUnits="userSpaceOnUse"><stop stop-color="#4F52FF"/><stop offset="1" stop-color="#4042E2"/></linearGradient><linearGradient id="e" x1="9.988" y1="47.88" x2="22.425" y2="36.119" gradientUnits="userSpaceOnUse"><stop stop-color="#FF928E"/><stop offset="1" stop-color="#FE7062"/></linearGradient><linearGradient id="f" x1="7.358" y1="37.724" x2="17.027" y2="60.522" gradientUnits="userSpaceOnUse"><stop stop-color="#FEBBBA"/><stop offset="1" stop-color="#FF928E"/></linearGradient><linearGradient id="g" x1="23.807" y1="37.675" x2="14.138" y2="60.473" gradientUnits="userSpaceOnUse"><stop stop-color="#FEBBBA"/><stop offset="1" stop-color="#FF928E"/></linearGradient><linearGradient id="h" x1="15.6" y1="40.688" x2="15.094" y2="60.718" gradientUnits="userSpaceOnUse"><stop stop-color="#09005D"/><stop offset="1" stop-color="#1A0F91"/></linearGradient><linearGradient id="i" x1="21.17" y1="52.732" x2="26.24" y2="52.77" gradientUnits="userSpaceOnUse"><stop stop-color="#09005D"/><stop offset="1" stop-color="#1A0F91"/></linearGradient><linearGradient id="j" x1="24.516" y1="43.368" x2="18.931" y2="58.133" gradientUnits="userSpaceOnUse"><stop stop-color="#FEBBBA"/><stop offset="1" stop-color="#FF928E"/></linearGradient><linearGradient id="k" x1="8.859" y1="52.718" x2="3.787" y2="52.619" gradientUnits="userSpaceOnUse"><stop stop-color="#09005D"/><stop offset="1" stop-color="#1A0F91"/></linearGradient><linearGradient id="l" x1="13.792" y1="38.892" x2="8.205" y2="53.664" gradientUnits="userSpaceOnUse"><stop stop-color="#FEBBBA"/><stop offset="1" stop-color="#FF928E"/></linearGradient><linearGradient id="m" x1="34.523" y1="37.126" x2="20.367" y2="47.505" gradientUnits="userSpaceOnUse"><stop stop-color="#4F52FF"/><stop offset="1" stop-color="#4042E2"/></linearGradient><linearGradient id="n" x1="14.202" y1="52.686" x2="10.399" y2="43.221" gradientUnits="userSpaceOnUse"><stop stop-color="#4F52FF"/><stop offset="1" stop-color="#4042E2"/></linearGradient><linearGradient id="o" x1="15.503" y1="39.62" x2="15.374" y2="28.615" gradientUnits="userSpaceOnUse"><stop stop-color="#FEBBBA"/><stop offset="1" stop-color="#FF928E"/></linearGradient><linearGradient id="p" x1="15.147" y1="33.51" x2="17.118" y2="24.14" gradientUnits="userSpaceOnUse"><stop stop-color="#FEBBBA"/><stop offset="1" stop-color="#FF928E"/></linearGradient><linearGradient id="q" x1="22.272" y1="22.632" x2="10.349" y2="30.88" gradientUnits="userSpaceOnUse"><stop stop-color="#4F52FF"/><stop offset="1" stop-color="#4042E2"/></linearGradient><linearGradient id="r" x1="13.9" y1="34.759" x2="12.484" y2="19.809" gradientUnits="userSpaceOnUse"><stop stop-color="#FEBBBA"/><stop offset="1" stop-color="#FF928E"/></linearGradient><linearGradient id="s" x1="15.546" y1="39.161" x2="15.218" y2="54.449" gradientUnits="userSpaceOnUse"><stop stop-color="#53D8FF"/><stop offset="1" stop-color="#3840F7"/></linearGradient></defs></svg>