<svg width="105" height="21" viewBox="0 0 105 21" fill="none" xmlns="http://www.w3.org/2000/svg">
<path d="M16.0719 13.3907C16.0425 8.74011 19.5561 5.80249 24.0656 5.80249C28.5751 5.80249 32.1448 8.74011 32.1154 13.3907C32.086 17.7264 28.7193 20.8374 24.0656 20.8374C19.6977 20.8374 16.1013 17.7851 16.0719 13.3907ZM28.7486 13.3613C28.7486 10.5358 26.6928 8.56935 24.0389 8.56935C21.385 8.56935 19.4146 10.453 19.4146 13.3613C19.4146 16.0428 21.4998 18.0679 24.0389 18.0679C26.578 18.0679 28.7486 16.1575 28.7486 13.3613Z" fill="black"/>
<path d="M6.1345 20.6213L0.0284161 6.2961C-0.0703705 6.0613 0.100504 5.80249 0.354145 5.80249H3.05075C3.19493 5.80249 3.32575 5.89054 3.37915 6.02395L7.53086 16.2616C7.65101 16.5577 8.06751 16.5577 8.18766 16.2616L12.3394 6.02395C12.3928 5.89054 12.5236 5.80249 12.6678 5.80249H15.3644C15.618 5.80249 15.7889 6.0613 15.6901 6.2961L9.61072 20.624C9.55465 20.7547 9.4265 20.8401 9.28499 20.8401H6.46023C6.31872 20.8401 6.19057 20.7547 6.1345 20.624V20.6213Z" fill="black"/>
<path d="M34.7025 20.4959V2.34723C34.7025 2.15779 34.8547 2.00571 35.0443 2.00571H37.7302C37.9198 2.00571 38.072 2.15779 38.072 2.34723V11.3548C38.072 11.643 38.4084 11.8004 38.63 11.619L44.6346 6.67761C44.696 6.62691 44.7734 6.60023 44.8509 6.60023H47.6383C47.956 6.60023 48.1002 6.99512 47.8599 7.20056L41.978 12.2327C41.8365 12.3527 41.8179 12.5635 41.9353 12.7049L48.0708 20.2798C48.2523 20.5039 48.0921 20.8347 47.8065 20.8347H45.0565C44.955 20.8347 44.8589 20.7894 44.7921 20.7093L39.6445 14.4659C39.5191 14.3138 39.2921 14.3005 39.1479 14.4339L38.1494 15.3677C38.08 15.4318 38.0426 15.5225 38.0426 15.6159V20.4905C38.0426 20.68 37.8904 20.8321 37.7009 20.8321H35.0416C34.8521 20.8321 34.6999 20.68 34.6999 20.4905L34.7025 20.4959Z" fill="black"/>
<path d="M50.6152 20.4959V2.34723C50.6152 2.15779 50.7674 2.00571 50.957 2.00571H53.6162C53.8058 2.00571 53.9579 2.15779 53.9579 2.34723V20.4959C53.9579 20.6853 53.8058 20.8374 53.6162 20.8374H50.957C50.7674 20.8374 50.6152 20.6853 50.6152 20.4959Z" fill="black"/>
<path d="M63.6417 20.4825V18.4975C63.6417 18.4174 63.6684 18.34 63.7138 18.2787L70.5701 9.25237C70.7463 9.02024 70.5861 8.67872 70.3031 8.67872H63.9541C63.7645 8.67872 63.6123 8.5213 63.6123 8.32386V6.15467C63.6123 5.95989 63.7645 5.7998 63.9541 5.7998H74.348C74.5376 5.7998 74.6898 5.95722 74.6898 6.15467V8.13976C74.6898 8.2198 74.6631 8.29451 74.6177 8.35855L67.8121 17.3875C67.6359 17.6196 67.7961 17.9612 68.0818 17.9612H74.3774C74.567 17.9612 74.7192 18.1186 74.7192 18.316V20.4852C74.7192 20.68 74.567 20.8401 74.3774 20.8401H63.9834C63.7939 20.8401 63.6417 20.6827 63.6417 20.4852V20.4825Z" fill="black"/>
<path d="M76.3425 13.3613C76.3425 8.42525 79.9976 5.7998 84.0505 5.7998C88.1034 5.7998 91.1872 8.31052 91.5876 12.761C91.6304 13.0625 91.641 13.4147 91.6197 13.7535C91.609 13.9323 91.4595 14.0737 91.2806 14.0737L79.9121 14.1004C79.6959 14.1004 79.5357 14.3005 79.5784 14.5139C80.0243 16.6538 82.0374 18.0679 84.0238 18.0679C85.6044 18.0946 87.1102 17.4435 87.9726 16.1602C88.0714 16.0161 88.2583 15.9627 88.4131 16.0428L90.3194 17.0166C90.4983 17.1074 90.5624 17.3341 90.4529 17.5022C89.1233 19.5941 86.7417 20.8347 84.0478 20.8347C79.9949 20.8347 76.3398 17.8384 76.3398 13.3586L76.3425 13.3613ZM88.026 12.166C88.2503 12.166 88.4131 11.9552 88.3544 11.7391C87.8177 9.71129 85.9461 8.48662 84.0478 8.5133C82.1468 8.5133 80.3233 9.71663 79.8187 11.7711C79.7653 11.9872 79.9308 12.1953 80.1524 12.1927L88.0233 12.166H88.026Z" fill="black"/>
<path d="M94.1161 20.4826V6.15735C94.1161 5.96258 94.2736 5.80249 94.4711 5.80249H97.2345C97.4294 5.80249 97.5896 5.95991 97.5896 6.15735V8.17179C97.5896 8.51865 98.0435 8.66273 98.2357 8.3719C99.5707 6.35479 102.321 5.39427 104.74 6.07197C104.967 6.13601 105.071 6.40015 104.948 6.60026L103.56 8.84416C103.471 8.98557 103.301 9.04427 103.14 8.99091C100.916 8.25984 97.7364 10.1142 97.7364 13.3613V20.4799C97.7364 20.6747 97.5789 20.8348 97.3813 20.8348H94.4711C94.2762 20.8348 94.1161 20.6773 94.1161 20.4799V20.4826Z" fill="black"/>
<path d="M57.2553 20.4826V6.15735C57.2553 5.96258 57.4075 5.80249 57.597 5.80249H60.2563C60.4458 5.80249 60.598 5.95991 60.598 6.15735V20.4852C60.598 20.68 60.4458 20.8401 60.2563 20.8401H57.597C57.4075 20.8401 57.2553 20.6827 57.2553 20.4852V20.4826Z" fill="black"/>
<path d="M57.2553 3.55591V0.674321C57.2553 0.340804 57.6104 0.130021 57.8827 0.298114L60.3898 1.73891C60.6834 1.907 60.6834 2.34457 60.3898 2.51267L57.8827 3.95346C57.6104 4.10021 57.2553 3.89209 57.2553 3.55591Z" fill="black"/>
</svg>
