<svg width="145" height="31" viewBox="0 0 145 31" fill="none" xmlns="http://www.w3.org/2000/svg">
<path d="M8.85334 29.9684L0.0418534 9.23851C-0.101247 8.90025 0.145804 8.52545 0.513005 8.52545H4.40372C4.61162 8.52545 4.79927 8.65264 4.87757 8.84613L10.8675 23.6592C11.0403 24.0854 11.6424 24.0854 11.8152 23.6592L17.8052 8.84613C17.8835 8.65264 18.0712 8.52545 18.2791 8.52545H22.1711C22.537 8.52545 22.7854 8.90025 22.6423 9.23851L13.8713 29.9684C13.7917 30.1578 13.6054 30.281 13.4002 30.281H9.32449C9.11929 30.281 8.93434 30.1578 8.85334 29.9698V29.9684Z" fill="#1D1C1A"/>
<path d="M22.1806 19.5053C22.1401 12.7767 27.2053 8.52408 33.7137 8.52408C40.2221 8.52408 45.3696 12.7753 45.3291 19.5053C45.2873 25.7794 40.4273 30.2796 33.7137 30.2796C27.4119 30.2796 22.2224 25.8619 22.1806 19.5053ZM40.4678 19.4647C40.4678 15.3786 37.5018 12.5304 33.6718 12.5304C29.8419 12.5304 26.9988 15.2554 26.9988 19.4647C26.9988 23.3453 30.0052 26.2759 33.6718 26.2759C37.3384 26.2759 40.4678 23.5103 40.4678 19.4647Z" fill="#1D1C1A"/>
<path d="M48.1925 29.7871V3.52867C48.1925 3.25671 48.4125 3.03616 48.6839 3.03616H52.5598C52.8311 3.03616 53.0512 3.25671 53.0512 3.52867V16.5625C53.0512 16.9792 53.5345 17.2079 53.8558 16.9427L62.5187 9.79324C62.6065 9.72018 62.7172 9.68093 62.8319 9.68093H66.8536C67.3099 9.68093 67.5205 10.2506 67.1736 10.5482L58.6874 17.8316C58.4849 18.0048 58.4579 18.3093 58.6253 18.5163L67.4773 29.4759C67.7379 29.7979 67.5084 30.2796 67.0953 30.2796H63.1276C62.9804 30.2796 62.8414 30.2133 62.7482 30.0996L55.3219 21.0667C55.141 20.8476 54.8129 20.8259 54.605 21.0207L53.1659 22.3724C53.0674 22.4658 53.0107 22.5957 53.0107 22.7323V29.7857C53.0107 30.0577 52.7906 30.2782 52.5193 30.2782H48.6839C48.4125 30.2782 48.1925 30.0577 48.1925 29.7857V29.7871Z" fill="#1D1C1A"/>
<path d="M70.4298 29.7871V3.52867C70.4298 3.25671 70.6498 3.03616 70.9212 3.03616H74.7565C75.0279 3.03616 75.2479 3.25671 75.2479 3.52867V29.7871C75.2479 30.059 75.0279 30.2796 74.7565 30.2796H70.9212C70.6498 30.2796 70.4298 30.059 70.4298 29.7871Z" fill="#1D1C1A"/>
<path d="M86.7716 29.7681V26.897C86.7716 26.782 86.8094 26.6697 86.8769 26.579L96.7684 13.5181C97.0235 13.1826 96.7927 12.6874 96.3823 12.6874H87.2211C86.9498 12.6874 86.7297 12.4574 86.7297 12.1746V9.03688C86.7297 8.75409 86.9498 8.52408 87.2211 8.52408H102.218C102.49 8.52408 102.71 8.75409 102.71 9.03688V11.9094C102.71 12.0244 102.673 12.1353 102.606 12.226L92.7886 25.2896C92.5361 25.6265 92.7656 26.1176 93.176 26.1176H102.259C102.53 26.1176 102.75 26.3476 102.75 26.6304V29.7681C102.75 30.0509 102.53 30.2809 102.259 30.2809H87.2616C86.9903 30.2809 86.7702 30.0509 86.7702 29.7681H86.7716Z" fill="#1D1C1A"/>
<path d="M104.377 19.4648C104.377 12.3234 109.649 8.52545 115.498 8.52545C121.348 8.52545 125.795 12.1584 126.373 18.5975C126.435 19.0345 126.45 19.5432 126.419 20.0317C126.401 20.2928 126.189 20.4958 125.929 20.4971L109.526 20.5364C109.213 20.5364 108.981 20.8259 109.045 21.1331C109.688 24.2288 112.592 26.276 115.459 26.276C117.739 26.3152 119.91 25.3721 121.156 23.5171C121.297 23.3074 121.568 23.2303 121.793 23.3453L124.546 24.7551C124.803 24.8864 124.894 25.2125 124.739 25.4574C122.819 28.4828 119.384 30.2796 115.5 30.2796C109.651 30.2796 104.378 25.9458 104.378 19.4634L104.377 19.4648ZM121.235 17.7329C121.556 17.7329 121.792 17.4257 121.71 17.1145C120.936 14.1784 118.235 12.4087 115.497 12.4479C112.757 12.4479 110.124 14.1893 109.398 17.1605C109.322 17.4717 109.558 17.7721 109.878 17.7721L121.235 17.7342V17.7329Z" fill="#1D1C1A"/>
<path d="M129.297 29.7681V9.03826C129.297 8.75547 129.526 8.52545 129.808 8.52545H133.795C134.077 8.52545 134.307 8.75547 134.307 9.03826V11.9541C134.307 12.4574 134.961 12.6644 135.239 12.2436C137.167 9.32646 141.134 7.93553 144.625 8.91648C144.954 9.00849 145.104 9.39005 144.924 9.68231L142.921 12.9296C142.795 13.1339 142.546 13.2178 142.318 13.1434C139.11 12.0866 134.521 14.767 134.521 19.4688V29.7695C134.521 30.0523 134.292 30.2823 134.01 30.2823H129.81C129.528 30.2823 129.298 30.0523 129.298 29.7695L129.297 29.7681Z" fill="#1D1C1A"/>
<path d="M78.569 29.7681V9.03826C78.569 8.75547 78.789 8.52545 79.0604 8.52545H82.8957C83.1671 8.52545 83.3871 8.75547 83.3871 9.03826V29.7681C83.3871 30.0509 83.1671 30.281 82.8957 30.281H79.0604C78.789 30.281 78.569 30.0509 78.569 29.7681Z" fill="#1D1C1A"/>
<path d="M78.569 5.2768V1.10673C78.569 0.623696 79.082 0.320617 79.4735 0.56281L83.0915 2.64784C83.514 2.89004 83.514 3.52461 83.0915 3.76545L79.4735 5.85048C79.082 6.06156 78.569 5.75983 78.569 5.2768Z" fill="#8532D8"/>
</svg>
