<svg width="67" height="57" viewBox="0 0 67 57" fill="none" xmlns="http://www.w3.org/2000/svg">
<path d="M62.1394 21.4463L32.8011 4.53879C32.5189 4.37507 32.2111 4.2993 31.9074 4.2993C31.2864 4.2993 30.6829 4.62268 30.3522 5.20043C29.8581 6.06096 30.1537 7.15963 31.0137 7.65484L60.3574 24.5651C61.7222 25.3472 62.5363 26.7976 62.5363 28.4483C62.5363 30.099 61.7222 31.5508 60.352 32.3342L25.1425 52.6258C23.9261 53.2739 22.4452 53.2049 21.1735 52.4458C19.81 51.6286 18.9959 50.1943 18.9959 48.6072V42.409C27.64 41.4984 34.3806 34.1757 34.39 25.2727C34.39 24.3161 33.6219 23.5409 32.6728 23.5273C31.7076 23.5151 30.9111 24.3378 30.9097 25.3039C30.8922 32.9404 24.6619 39.117 17.0128 39.0169C9.57019 38.9195 3.48166 32.613 3.48166 25.1537V19.686L3.48301 19.6847H7.00113C7.00113 19.6847 7.00248 19.6847 7.00248 19.686V24.1944C7.00923 29.8352 11.5682 34.403 17.195 34.4098C22.8245 34.403 27.3835 29.8298 27.3876 24.1876V10.3149C27.3889 4.73633 22.9676 0.113004 17.4043 0.00205448C11.6802 -0.111601 7.00382 4.50496 7.00382 10.2161V16.1912L7.00248 16.1925H1.73746C0.777602 16.1966 0 16.9746 0 17.9379V25.2727C0.0135001 34.1825 6.75812 41.5092 15.413 42.409V48.6072C15.413 51.4703 16.8791 54.0586 19.3361 55.5307C20.5984 56.2857 21.9848 56.6659 23.3578 56.6659C24.5674 56.6659 25.7675 56.3723 26.8624 55.781L26.884 55.7689L62.1353 35.4543C64.6315 34.0228 66.1219 31.4061 66.1219 28.4497C66.1219 25.4933 64.6315 22.8752 62.1394 21.4477V21.4463ZM10.4855 10.2229C10.4895 6.51017 13.4933 3.49966 17.1964 3.49695V3.48883C20.9008 3.49425 23.9018 6.5034 23.9059 10.2148V24.1105C23.9059 27.8286 20.9278 30.8973 17.218 30.9109C13.5027 30.9217 10.4841 27.9058 10.4841 24.1849V10.2229H10.4855Z" fill="#8532D8"/>
</svg>
