<svg width="145" height="31" fill="none" xmlns="http://www.w3.org/2000/svg"><path d="M8.853 29.968.042 9.238a.512.512 0 0 1 .471-.713h3.89c.209 0 .396.128.475.321l5.99 14.813a.511.511 0 0 0 .947 0l5.99-14.813a.512.512 0 0 1 .474-.32h3.892c.366 0 .614.374.471.713l-8.77 20.73a.511.511 0 0 1-.472.312H9.324a.514.514 0 0 1-.47-.311v-.002ZM22.18 19.505c-.04-6.728 5.025-10.98 11.534-10.98 6.508 0 11.656 4.25 11.615 10.98-.042 6.274-4.902 10.775-11.615 10.775-6.302 0-11.492-4.418-11.533-10.775Zm18.288-.04c0-4.086-2.966-6.935-6.796-6.935s-6.673 2.725-6.673 6.935c0 3.88 3.006 6.81 6.673 6.81 3.666 0 6.796-2.765 6.796-6.81ZM48.193 29.787V3.53c0-.272.22-.493.49-.493h3.877c.271 0 .491.22.491.493v13.034c0 .416.483.645.805.38l8.663-7.15a.489.489 0 0 1 .313-.112h4.022c.456 0 .666.57.32.867l-8.487 7.284a.494.494 0 0 0-.062.684l8.852 10.96a.493.493 0 0 1-.382.804h-3.967a.49.49 0 0 1-.38-.18l-7.426-9.033a.492.492 0 0 0-.717-.046l-1.44 1.351a.496.496 0 0 0-.154.36v7.054c0 .272-.22.492-.492.492h-3.835a.492.492 0 0 1-.491-.492v.001ZM70.43 29.787V3.53c0-.272.22-.493.491-.493h3.835c.272 0 .492.22.492.493v26.258c0 .272-.22.493-.492.493h-3.835a.492.492 0 0 1-.491-.493ZM86.772 29.768v-2.871c0-.115.037-.227.105-.318l9.891-13.06c.255-.336.025-.832-.386-.832h-9.16a.503.503 0 0 1-.492-.512V9.037c0-.283.22-.513.491-.513h14.997c.272 0 .492.23.492.513v2.872a.533.533 0 0 1-.104.317L92.789 25.29c-.253.337-.023.828.387.828h9.083c.271 0 .491.23.491.512v3.138c0 .283-.22.513-.491.513H87.262a.503.503 0 0 1-.492-.513h.002ZM104.377 19.465c0-7.142 5.272-10.94 11.121-10.94 5.85 0 10.297 3.633 10.875 10.072.062.438.077.946.046 1.435a.495.495 0 0 1-.49.465l-16.403.04a.494.494 0 0 0-.481.596c.643 3.096 3.547 5.143 6.414 5.143 2.28.04 4.451-.904 5.697-2.759a.496.496 0 0 1 .637-.172l2.753 1.41a.494.494 0 0 1 .193.702c-1.92 3.026-5.355 4.823-9.239 4.823-5.849 0-11.122-4.334-11.122-10.817l-.001.002Zm16.858-1.732a.494.494 0 0 0 .475-.619c-.774-2.936-3.475-4.705-6.213-4.666-2.74 0-5.373 1.741-6.099 4.712a.494.494 0 0 0 .48.612l11.357-.038v-.001ZM129.297 29.768V9.038c0-.283.229-.513.511-.513h3.987c.282 0 .512.23.512.513v2.916c0 .503.654.71.932.29 1.928-2.918 5.895-4.308 9.386-3.328a.514.514 0 0 1 .299.766l-2.003 3.248a.515.515 0 0 1-.603.213c-3.208-1.056-7.797 1.624-7.797 6.326v10.3a.512.512 0 0 1-.511.513h-4.2a.513.513 0 0 1-.512-.512l-.001-.002ZM78.569 29.768V9.038c0-.283.22-.513.491-.513h3.836c.271 0 .491.23.491.513v20.73c0 .283-.22.513-.491.513H79.06a.503.503 0 0 1-.491-.513Z" fill="#1D1C1A"/><path d="M78.569 5.277v-4.17c0-.483.513-.786.904-.544l3.618 2.085c.423.242.423.877 0 1.117L79.474 5.85c-.392.212-.905-.09-.905-.573Z" fill="#8532D8"/></svg>