<svg width="123" height="99" fill="none" xmlns="http://www.w3.org/2000/svg"><path d="M7.483 80.28.035 62.755a.433.433 0 0 1 .398-.603h3.289c.176 0 .334.108.4.271l5.064 12.522c.146.36.655.36.801 0l5.064-12.522a.433.433 0 0 1 .4-.27h3.29c.31 0 .52.316.399.602l-7.415 17.523a.432.432 0 0 1-.398.265H7.882a.434.434 0 0 1-.399-.263v-.002ZM18.75 71.435c-.035-5.688 4.247-9.283 9.749-9.283 5.501 0 9.853 3.594 9.818 9.283-.035 5.303-4.143 9.108-9.818 9.108-5.327 0-9.714-3.735-9.75-9.108Zm15.458-.035c0-3.454-2.507-5.861-5.745-5.861-3.237 0-5.64 2.303-5.64 5.861 0 3.28 2.54 5.758 5.64 5.758 3.1 0 5.745-2.338 5.745-5.758ZM40.738 80.126V57.93c0-.23.186-.416.415-.416h3.277c.23 0 .415.186.415.416v11.018c0 .352.409.546.68.321l7.323-6.043a.412.412 0 0 1 .265-.095h3.4c.385 0 .563.481.27.733L49.61 70.02a.417.417 0 0 0-.053.579l7.483 9.264c.22.272.026.68-.323.68h-3.354a.415.415 0 0 1-.32-.153l-6.278-7.635a.416.416 0 0 0-.606-.04l-1.217 1.143a.42.42 0 0 0-.131.305v5.962c0 .23-.186.416-.416.416h-3.242a.416.416 0 0 1-.415-.416v.001ZM59.536 80.126V57.93c0-.23.186-.416.415-.416h3.242c.23 0 .416.186.416.416v22.197c0 .23-.186.416-.416.416h-3.242a.416.416 0 0 1-.415-.416ZM73.35 80.11v-2.427c0-.097.032-.192.089-.269l8.362-11.04c.215-.284.02-.703-.327-.703H73.73a.425.425 0 0 1-.416-.433v-2.653c0-.239.187-.433.416-.433h12.677c.23 0 .416.194.416.433v2.429c0 .097-.031.19-.088.267l-8.299 11.043c-.213.285-.02.7.328.7h7.678c.23 0 .415.195.415.434v2.652c0 .24-.186.434-.415.434H73.764a.425.425 0 0 1-.415-.434ZM88.232 71.4c0-6.036 4.457-9.247 9.401-9.247 4.945 0 8.704 3.071 9.193 8.514.052.37.065.8.039 1.213a.418.418 0 0 1-.415.393l-13.865.033a.417.417 0 0 0-.406.505c.543 2.617 2.997 4.347 5.421 4.347 1.928.033 3.763-.764 4.816-2.332a.42.42 0 0 1 .539-.145l2.327 1.192a.418.418 0 0 1 .163.593c-1.623 2.558-4.527 4.077-7.81 4.077-4.944 0-9.402-3.664-9.402-9.144v.001Zm14.25-1.464c.272 0 .472-.26.402-.522-.654-2.482-2.937-3.978-5.252-3.945-2.316 0-4.542 1.472-5.156 3.984a.418.418 0 0 0 .407.517l9.599-.032v-.002ZM109.298 80.11V62.587c0-.24.194-.434.432-.434h3.37c.239 0 .433.195.433.434v2.464c0 .426.553.6.788.245 1.63-2.466 4.983-3.642 7.934-2.812.278.077.405.4.253.647l-1.693 2.745a.437.437 0 0 1-.511.18c-2.711-.892-6.59 1.373-6.59 5.348v8.707a.433.433 0 0 1-.432.434h-3.551a.433.433 0 0 1-.432-.434h-.001ZM66.416 80.11V62.587c0-.24.186-.434.415-.434h3.242c.23 0 .416.195.416.434V80.11c0 .24-.186.434-.416.434h-3.242a.425.425 0 0 1-.415-.434ZM66.416 59.407v-3.525c0-.408.434-.665.765-.46l3.058 1.763a.55.55 0 0 1 0 .944l-3.058 1.763c-.331.178-.765-.077-.765-.485ZM85.495 18.13l-24.8-14.293a1.512 1.512 0 0 0-2.07.56 1.52 1.52 0 0 0 .559 2.074l24.805 14.295c1.154.66 1.842 1.887 1.842 3.282 0 1.396-.688 2.623-1.847 3.285L54.221 44.486c-1.028.548-2.28.49-3.355-.152a3.753 3.753 0 0 1-1.841-3.245v-5.24c7.307-.77 13.005-6.96 13.013-14.485 0-.809-.65-1.464-1.451-1.476-.817-.01-1.49.685-1.49 1.502-.016 6.455-5.282 11.677-11.748 11.592C41.057 32.9 35.91 27.57 35.91 21.263v-4.622l.002-.001h2.974v3.812c.006 4.768 3.86 8.63 8.617 8.636 4.758-.006 8.612-3.872 8.616-8.642V8.72c0-4.715-3.737-8.623-8.44-8.717-4.838-.096-8.791 3.806-8.791 8.634v5.05l-.001.002h-4.451a1.475 1.475 0 0 0-1.469 1.475v6.2c.012 7.532 5.713 13.726 13.03 14.486v5.24c0 2.42 1.239 4.608 3.316 5.853a6.62 6.62 0 0 0 3.4.96 6.217 6.217 0 0 0 2.962-.749l.018-.01 29.799-17.172c2.11-1.21 3.37-3.423 3.37-5.922 0-2.499-1.26-4.712-3.367-5.919ZM41.831 8.641c.003-3.139 2.542-5.684 5.673-5.686V2.95a5.686 5.686 0 0 1 5.672 5.686V20.38c0 3.143-2.518 5.737-5.654 5.749a5.682 5.682 0 0 1-5.692-5.686V8.642ZM28.74 96.428v-.885h.998V91.12h-.997v-.885h2.948v.885h-.997v4.424h.997v.885h-2.948ZM32.572 92.667v-.886h2.948v.886h-2.948Zm.963 3.761v-5.832h.91v5.832h-.91ZM36.227 92.225l-.336-.407a2.17 2.17 0 0 0 .565-.363c.147-.136.22-.254.22-.353a.281.281 0 0 0-.096-.208 2.303 2.303 0 0 0-.177-.155 1.265 1.265 0 0 1-.26-.265.408.408 0 0 1-.067-.22c0-.143.05-.256.15-.342.101-.085.23-.128.389-.128.158 0 .314.043.446.128a.906.906 0 0 1 .314.35c.076.148.115.322.115.522 0 .153-.032.304-.097.452a1.601 1.601 0 0 1-.27.416 1.995 1.995 0 0 1-.895.575l-.001-.002ZM40.024 96.516c-.388 0-.739-.067-1.051-.203a1.958 1.958 0 0 1-.778-.602l.619-.53c.177.207.37.355.578.447.21.091.447.137.711.137.107 0 .205-.014.296-.04a.707.707 0 0 0 .239-.119.522.522 0 0 0 .206-.433.464.464 0 0 0-.168-.372 1.463 1.463 0 0 0-.278-.137 4.393 4.393 0 0 0-.49-.155 4.098 4.098 0 0 1-.838-.3 1.582 1.582 0 0 1-.504-.382 1.137 1.137 0 0 1-.194-.367 1.476 1.476 0 0 1-.061-.438c0-.194.042-.373.127-.535.086-.162.204-.304.353-.424.15-.122.327-.214.53-.28.203-.065.42-.097.649-.097.218 0 .434.03.65.088.214.06.412.145.595.257.183.112.335.244.459.398l-.522.575a2.22 2.22 0 0 0-.366-.296 1.846 1.846 0 0 0-.402-.2 1.146 1.146 0 0 0-.37-.07c-.124 0-.236.011-.336.035a.751.751 0 0 0-.252.107.459.459 0 0 0-.154.177.529.529 0 0 0-.053.239.62.62 0 0 0 .057.217.48.48 0 0 0 .137.173c.065.047.162.097.291.151.129.053.294.103.494.151.295.077.538.161.728.253.192.091.343.197.454.314.118.112.2.243.248.39.047.147.07.311.07.494 0 .266-.074.504-.224.713-.15.21-.351.373-.605.49a1.985 1.985 0 0 1-.848.178l.003-.004ZM44.791 92.667v-.886h2.95v.886h-2.95Zm.963 3.761v-5.832h.91v5.832h-.91ZM48.57 96.428V89.88h.91v2.859l-.16.106a1.34 1.34 0 0 1 .346-.57c.17-.175.373-.316.609-.425.235-.109.477-.164.724-.164.352 0 .647.07.883.208.235.139.412.35.53.633.117.284.176.64.176 1.07v2.833h-.91v-2.77a1.76 1.76 0 0 0-.105-.66.725.725 0 0 0-.327-.38 1.019 1.019 0 0 0-.548-.102c-.176 0-.339.028-.486.083a1.164 1.164 0 0 0-.383.235c-.11.1-.194.217-.256.35a1.006 1.006 0 0 0-.092.429v2.813h-.911ZM55.608 96.516a1.83 1.83 0 0 1-1.047-.319 2.293 2.293 0 0 1-.755-.867 2.668 2.668 0 0 1-.283-1.238c0-.46.096-.881.286-1.244.19-.362.451-.647.777-.854.327-.207.693-.31 1.1-.31.24 0 .462.035.661.106a1.66 1.66 0 0 1 .896.735c.097.164.158.342.182.53l-.204-.07V91.78h.92v4.646h-.92v-1.106l.213-.061a1.244 1.244 0 0 1-.217.464c-.11.15-.248.285-.416.402a2.25 2.25 0 0 1-.555.284c-.203.071-.417.106-.64.106h.002Zm.237-.84c.276 0 .52-.068.733-.204a1.4 1.4 0 0 0 .498-.561c.121-.24.182-.512.182-.82 0-.307-.06-.569-.181-.804a1.403 1.403 0 0 0-.5-.558 1.327 1.327 0 0 0-.732-.203c-.276 0-.51.067-.72.204a1.418 1.418 0 0 0-.494.556 1.74 1.74 0 0 0-.181.806c0 .3.06.58.18.819.122.239.286.426.495.561.209.136.449.204.72.204ZM59.025 92.667v-.886h2.948v.886h-2.948Zm.962 3.761v-5.832h.91v5.832h-.91ZM66.82 96.516c-.388 0-.738-.067-1.051-.203a1.957 1.957 0 0 1-.777-.602l.618-.53c.177.207.37.355.579.447.209.091.446.137.71.137.107 0 .205-.014.296-.04a.707.707 0 0 0 .239-.119.523.523 0 0 0 .207-.433.464.464 0 0 0-.168-.372 1.462 1.462 0 0 0-.279-.137 4.402 4.402 0 0 0-.49-.155 4.102 4.102 0 0 1-.838-.3 1.583 1.583 0 0 1-.503-.382 1.139 1.139 0 0 1-.194-.367 1.48 1.48 0 0 1-.062-.438c0-.194.042-.373.128-.535.085-.162.203-.304.353-.424.15-.122.326-.214.53-.28.202-.065.419-.097.648-.097.218 0 .434.03.65.088.214.06.413.145.596.257.182.112.335.244.458.398l-.521.575a2.22 2.22 0 0 0-.367-.296 1.848 1.848 0 0 0-.401-.2 1.147 1.147 0 0 0-.371-.07c-.124 0-.235.011-.336.035a.75.75 0 0 0-.252.107.458.458 0 0 0-.154.177.529.529 0 0 0-.052.239.618.618 0 0 0 .057.217.479.479 0 0 0 .137.173c.065.047.162.097.29.151.13.053.295.103.495.151.294.077.537.161.728.253.192.091.342.197.454.314.117.112.2.243.248.39.046.147.07.311.07.494 0 .266-.075.504-.225.713-.15.21-.351.373-.604.49a1.985 1.985 0 0 1-.848.178l.002-.004ZM70.096 90.755c-.194 0-.344-.05-.45-.15-.106-.101-.159-.242-.159-.425 0-.17.055-.31.163-.416.109-.107.258-.16.446-.16.189 0 .345.051.451.152.106.1.159.242.159.424 0 .172-.055.31-.163.416-.11.107-.258.16-.447.16Zm-.441 5.673v-4.645h.91v4.645h-.91ZM71.94 96.428v-4.645h.92v.991l-.168.106c.046-.153.122-.3.224-.442a1.7 1.7 0 0 1 .38-.377c.151-.108.312-.195.485-.26.174-.065.352-.097.534-.097.265 0 .498.044.698.132.2.088.365.221.494.398.129.178.224.398.283.664l-.142-.036.062-.15c.065-.137.154-.265.27-.386a2.085 2.085 0 0 1 .86-.543c.164-.053.326-.08.485-.08.347 0 .634.07.86.212.227.142.397.357.513.646.115.29.172.649.172 1.08v2.787h-.919v-2.734c0-.266-.034-.483-.101-.651a.748.748 0 0 0-.305-.376.99.99 0 0 0-.52-.124c-.165 0-.32.029-.464.084a1.092 1.092 0 0 0-.623.584c-.06.133-.088.28-.088.438v2.778h-.918v-2.752a1.59 1.59 0 0 0-.106-.615.831.831 0 0 0-.31-.385.888.888 0 0 0-.494-.133 1.194 1.194 0 0 0-.83.313 1.036 1.036 0 0 0-.335.775v2.796h-.919l.003.002ZM80.091 98.375v-6.593h.919v1.062l-.142-.08a1 1 0 0 1 .3-.51c.165-.162.367-.294.605-.397.239-.103.484-.155.737-.155.418 0 .789.103 1.113.31.324.207.58.49.768.85.188.36.283.773.283 1.239 0 .465-.092.871-.278 1.234-.186.363-.44.649-.764.858-.324.21-.688.314-1.094.314-.27 0-.533-.055-.787-.163a2.11 2.11 0 0 1-.644-.421c-.177-.17-.286-.348-.327-.53l.23-.124v3.106h-.919Zm2.295-2.708c.27 0 .512-.068.724-.204a1.44 1.44 0 0 0 .503-.557c.123-.236.185-.504.185-.805 0-.3-.06-.567-.182-.8a1.419 1.419 0 0 0-.498-.554 1.327 1.327 0 0 0-.733-.204c-.276 0-.52.066-.733.2-.212.132-.38.316-.503.553a1.713 1.713 0 0 0-.185.805c0 .3.062.57.185.805.123.236.29.422.503.557.213.136.457.204.733.204h.001ZM85.68 96.428V89.88h.909v6.548h-.91ZM89.953 96.516c-.477 0-.899-.101-1.267-.305a2.254 2.254 0 0 1-.865-.836 2.356 2.356 0 0 1-.313-1.222c0-.366.059-.698.177-1 .117-.3.28-.56.49-.783.208-.222.458-.392.75-.513.291-.121.608-.182.95-.182.3 0 .58.057.838.173a2.06 2.06 0 0 1 1.117 1.186c.103.274.152.574.147.898l-.01.388H88.18l-.203-.725h3.204l-.132.151v-.212a1.02 1.02 0 0 0-.194-.522 1.2 1.2 0 0 0-.98-.495c-.318 0-.586.06-.804.182a1.172 1.172 0 0 0-.494.53c-.112.234-.168.52-.168.863 0 .342.067.606.203.845s.327.423.574.553c.248.13.533.195.856.195.23 0 .443-.039.64-.115.198-.077.411-.216.64-.417l.46.646a2.1 2.1 0 0 1-.517.372c-.204.106-.418.19-.645.253a2.532 2.532 0 0 1-.667.092ZM93.335 96.526c-.194 0-.345-.057-.451-.173-.106-.116-.159-.28-.159-.49 0-.195.056-.355.168-.479a.567.567 0 0 1 .442-.185c.194 0 .344.057.45.173.106.115.159.279.159.49a.689.689 0 0 1-.168.478.568.568 0 0 1-.441.187v-.001Z" fill="#fff"/></svg>