<svg width="67" height="57" fill="none" xmlns="http://www.w3.org/2000/svg"><path d="M62.14 21.446 32.8 4.54a1.79 1.79 0 0 0-2.449.662c-.494.86-.198 1.959.662 2.454l29.343 16.91c1.365.782 2.18 2.233 2.18 3.883 0 1.651-.815 3.103-2.185 3.886l-35.21 20.292c-1.216.648-2.697.579-3.968-.18a4.44 4.44 0 0 1-2.178-3.839V42.41c8.644-.91 15.385-8.233 15.394-17.136 0-.957-.768-1.732-1.717-1.746-.965-.012-1.762.81-1.763 1.777-.018 7.636-6.248 13.813-13.897 13.713-7.443-.098-13.531-6.404-13.531-13.863v-5.468l.001-.001h3.518l.001.001v4.508c.007 5.641 4.566 10.209 10.193 10.216 5.63-.007 10.189-4.58 10.193-10.222V10.315c0-5.579-4.42-10.202-9.984-10.313-5.724-.114-10.4 4.503-10.4 10.214v5.975l-.002.002H1.737A1.744 1.744 0 0 0 0 17.938v7.335c.014 8.91 6.758 16.236 15.413 17.136v6.198a8.006 8.006 0 0 0 3.923 6.924 7.832 7.832 0 0 0 4.022 1.135c1.21 0 2.41-.294 3.504-.885l.022-.012 35.251-20.315c2.497-1.431 3.987-4.048 3.987-7.004 0-2.957-1.49-5.575-3.983-7.002v-.002ZM10.485 10.223c.003-3.713 3.007-6.723 6.71-6.726v-.008c3.705.005 6.706 3.014 6.71 6.726V24.11c0 3.719-2.978 6.787-6.688 6.8-3.715.012-6.734-3.004-6.734-6.725V10.223h.002Z" fill="#8532D8"/></svg>