<svg width="73" height="66" viewBox="0 0 73 66" fill="none" xmlns="http://www.w3.org/2000/svg">
<g clip-path="url(#clip0_41_3654)">
<path d="M0 55.4906V12.698C0 7.73692 5.24671 4.63587 9.25974 7.11639L46.2955 28.5119C50.6158 30.9924 50.6158 37.5048 46.2955 39.9854L9.25974 61.3809C5.24671 63.5511 0 60.4501 0 55.489V55.4906Z" fill="#8532D8"/>
<path d="M23.4216 66C21.781 66 20.1251 65.546 18.6193 64.6413C15.6886 62.8828 13.9383 59.7876 13.9383 56.3621V9.48375C13.9383 6.02433 15.7847 2.83937 18.7559 1.17065C21.6123 -0.433698 24.9544 -0.384568 27.7013 1.29771L68.2482 24.7208C71.221 26.4285 73 29.5592 73 33.0932C73 36.6271 71.221 39.7579 68.2415 41.469L61.0295 45.6365L58.6401 41.4622L65.8588 37.2912C67.3309 36.4459 68.2077 34.8788 68.2077 33.0949C68.2077 31.3109 67.3326 29.7422 65.8656 28.9002L25.2225 5.41953C23.9494 4.63345 22.4453 4.61651 21.0947 5.37379C19.6158 6.20391 18.7323 7.74049 18.7323 9.48375V56.3638C18.7323 58.0782 19.6091 59.6267 21.0778 60.5093C22.4386 61.3259 24.0203 61.4021 25.317 60.7126L29.6101 58.2324L31.9995 62.4067L27.6153 64.9378C26.3034 65.6476 24.8684 66 23.4216 66Z" fill="#8532D8"/>
<path d="M55.6892 45.4959L33.8223 58.0952" stroke="#8532D8" stroke-width="2" stroke-miterlimit="10"/>
</g>
<defs>
<clipPath id="clip0_41_3654">
<rect width="73" height="66" fill="white"/>
</clipPath>
</defs>
</svg>
