<svg width="123" height="98" viewBox="0 0 123 98" fill="none" xmlns="http://www.w3.org/2000/svg">
<path d="M7.69785 80.2794L0.249262 62.7559C0.128295 62.4699 0.337134 62.1531 0.64754 62.1531H3.93647C4.11221 62.1531 4.27084 62.2606 4.33703 62.4242L9.40052 74.9461C9.54659 75.3064 10.0556 75.3064 10.2016 74.9461L15.2651 62.4242C15.3313 62.2606 15.4899 62.1531 15.6657 62.1531H18.9558C19.265 62.1531 19.475 62.4699 19.354 62.7559L11.9397 80.2794C11.8724 80.4396 11.7149 80.5436 11.5414 80.5436H8.09613C7.92267 80.5436 7.76633 80.4396 7.69785 80.2806V80.2794Z" fill="#1D1C1A"/>
<path d="M18.9637 71.4347C18.9295 65.7468 23.2113 62.1519 28.713 62.1519C34.2147 62.1519 38.5661 65.7456 38.5318 71.4347C38.4965 76.7383 34.3882 80.5425 28.713 80.5425C23.3859 80.5425 18.9991 76.8081 18.9637 71.4347ZM34.4224 71.4004C34.4224 67.9462 31.9152 65.5386 28.6776 65.5386C25.44 65.5386 23.0367 67.8422 23.0367 71.4004C23.0367 74.6807 25.5781 77.1581 28.6776 77.1581C31.7771 77.1581 34.4224 74.8202 34.4224 71.4004Z" fill="#1D1C1A"/>
<path d="M40.9523 80.1261V57.9292C40.9523 57.6993 41.1383 57.5128 41.3677 57.5128H44.6441C44.8735 57.5128 45.0595 57.6993 45.0595 57.9292V68.947C45.0595 69.2993 45.468 69.4926 45.7397 69.2684L53.0627 63.2248C53.1369 63.163 53.2305 63.1299 53.3275 63.1299H56.7271C57.1128 63.1299 57.2908 63.6114 56.9976 63.863L49.824 70.0199C49.6528 70.1663 49.63 70.4236 49.7715 70.5986L57.2543 79.8631C57.4746 80.1353 57.2806 80.5425 56.9314 80.5425H53.5774C53.453 80.5425 53.3355 80.4864 53.2567 80.3903L46.979 72.7546C46.8261 72.5693 46.5488 72.551 46.373 72.7157L45.1565 73.8583C45.0732 73.9372 45.0253 74.047 45.0253 74.1626V80.125C45.0253 80.3549 44.8392 80.5413 44.6099 80.5413H41.3677C41.1383 80.5413 40.9523 80.3549 40.9523 80.125V80.1261Z" fill="#1D1C1A"/>
<path d="M59.7501 80.1261V57.9292C59.7501 57.6993 59.9361 57.5128 60.1655 57.5128H63.4077C63.637 57.5128 63.8231 57.6993 63.8231 57.9292V80.1261C63.8231 80.356 63.637 80.5425 63.4077 80.5425H60.1655C59.9361 80.5425 59.7501 80.356 59.7501 80.1261Z" fill="#1D1C1A"/>
<path d="M73.5643 80.1101V77.6831C73.5643 77.5858 73.5963 77.4909 73.6533 77.4143L82.0149 66.3736C82.2306 66.0899 82.0354 65.6713 81.6885 65.6713H73.9443C73.715 65.6713 73.5289 65.4769 73.5289 65.2378V62.5854C73.5289 62.3464 73.715 62.1519 73.9443 62.1519H86.6219C86.8513 62.1519 87.0373 62.3464 87.0373 62.5854V65.0136C87.0373 65.1109 87.0065 65.2046 86.9494 65.2813L78.6506 76.3243C78.4372 76.6091 78.6312 77.0243 78.9782 77.0243H86.6561C86.8855 77.0243 87.0715 77.2187 87.0715 77.4577V80.1101C87.0715 80.3492 86.8855 80.5436 86.6561 80.5436H73.9786C73.7492 80.5436 73.5632 80.3492 73.5632 80.1101H73.5643Z" fill="#1D1C1A"/>
<path d="M88.4467 71.4004C88.4467 65.3636 92.903 62.1531 97.8478 62.1531C102.793 62.1531 106.552 65.2241 107.04 70.6673C107.093 71.0367 107.105 71.4668 107.079 71.8796C107.064 72.1004 106.885 72.272 106.665 72.2731L92.7992 72.3063C92.5344 72.3063 92.3381 72.551 92.3929 72.8107C92.9361 75.4276 95.3908 77.1581 97.8147 77.1581C99.7422 77.1913 101.577 76.3941 102.631 74.826C102.749 74.6487 102.979 74.5835 103.169 74.6807L105.496 75.8725C105.713 75.9835 105.791 76.2591 105.659 76.4661C104.037 79.0236 101.132 80.5425 97.849 80.5425C92.9053 80.5425 88.4478 76.879 88.4478 71.3993L88.4467 71.4004ZM102.697 69.9364C102.968 69.9364 103.168 69.6768 103.098 69.4137C102.445 66.9317 100.161 65.4357 97.8467 65.4689C95.5301 65.4689 93.3047 66.9409 92.6908 69.4526C92.6269 69.7157 92.8266 69.9696 93.097 69.9696L102.697 69.9375V69.9364Z" fill="#1D1C1A"/>
<path d="M109.512 80.1101V62.5866C109.512 62.3476 109.706 62.1531 109.945 62.1531H113.314C113.553 62.1531 113.747 62.3476 113.747 62.5866V65.0514C113.747 65.4769 114.3 65.6519 114.536 65.2962C116.165 62.8302 119.518 61.6544 122.469 62.4837C122.748 62.5614 122.874 62.884 122.723 63.131L121.029 65.8761C120.923 66.0488 120.712 66.1197 120.519 66.0568C117.807 65.1635 113.928 67.4293 113.928 71.4038V80.1113C113.928 80.3503 113.734 80.5448 113.496 80.5448H109.946C109.707 80.5448 109.513 80.3503 109.513 80.1113L109.512 80.1101Z" fill="#1D1C1A"/>
<path d="M66.6304 80.1101V62.5866C66.6304 62.3476 66.8164 62.1531 67.0458 62.1531H70.2879C70.5173 62.1531 70.7033 62.3476 70.7033 62.5866V80.1101C70.7033 80.3492 70.5173 80.5436 70.2879 80.5436H67.0458C66.8164 80.5436 66.6304 80.3492 66.6304 80.1101Z" fill="#1D1C1A"/>
<path d="M66.6304 59.4069V55.8819C66.6304 55.4735 67.0641 55.2173 67.395 55.4221L70.4534 57.1846C70.8106 57.3893 70.8106 57.9258 70.4534 58.1293L67.395 59.8919C67.0641 60.0703 66.6304 59.8153 66.6304 59.4069Z" fill="#8532D8"/>
<path d="M85.7098 18.1292L60.9093 3.83677C60.6708 3.69837 60.4106 3.63432 60.1538 3.63432C59.6289 3.63432 59.1188 3.90768 58.8392 4.39606C58.4215 5.1235 58.6714 6.05223 59.3984 6.47085L84.2034 20.7656C85.3572 21.4267 86.0453 22.6528 86.0453 24.0482C86.0453 25.4435 85.3572 26.6708 84.1989 27.333L54.4353 44.486C53.4071 45.0339 52.1552 44.9755 51.0802 44.3339C49.9276 43.6431 49.2394 42.4307 49.2394 41.089V35.8495C56.5465 35.0797 62.2445 28.8897 62.2525 21.3637C62.2525 20.5551 61.6032 19.8997 60.8009 19.8883C59.9849 19.878 59.3116 20.5734 59.3105 21.3901C59.2957 27.8454 54.029 33.0667 47.563 32.9821C41.2716 32.8997 36.1248 27.5686 36.1248 21.2631V16.6412L36.1259 16.64H39.0999C39.0999 16.64 39.1011 16.64 39.1011 16.6412V20.4522C39.1068 25.2205 42.9606 29.0818 47.7171 29.0876C52.4759 29.0818 56.3297 25.2159 56.3331 20.4465V8.71948C56.3343 4.00375 52.5968 0.0955251 47.894 0.00173671C43.0553 -0.0943392 39.1022 3.80817 39.1022 8.63598V13.6868L39.1011 13.688H34.6504C33.839 13.6914 33.1817 14.3491 33.1817 15.1634V21.3637C33.1931 28.8954 38.8945 35.0889 46.2107 35.8495V41.089C46.2107 43.5092 47.45 45.6973 49.527 46.9417C50.594 47.5799 51.7661 47.9013 52.9266 47.9013C53.9492 47.9013 54.9637 47.6531 55.8892 47.1533L55.9075 47.143L85.7064 29.9705C87.8165 28.7604 89.0763 26.5484 89.0763 24.0493C89.0763 21.5502 87.8165 19.337 85.7098 18.1303V18.1292ZM42.0453 8.6417C42.0488 5.50322 44.5879 2.95836 47.7182 2.95607V2.94921C50.8497 2.95378 53.3866 5.49751 53.39 8.63484V20.3813C53.39 23.5243 50.8725 26.1184 47.7365 26.1298C44.5959 26.1389 42.0442 23.5895 42.0442 20.4442V8.6417H42.0453Z" fill="#8532D8"/>
<path d="M28.955 96.4284V95.5431H29.9524V91.1191H28.955V90.2338H31.9039V91.1191H30.9065V95.5431H31.9039V96.4284H28.955Z" fill="black"/>
<path d="M32.786 92.6666V91.7813H35.7349V92.6666H32.786ZM33.7492 96.4284V90.5964H34.6587V96.4284H33.7492Z" fill="black"/>
<path d="M36.4413 92.2251L36.1058 91.8179C36.3351 91.7115 36.5234 91.5914 36.6707 91.4553C36.8179 91.3192 36.8909 91.2014 36.8909 91.1019C36.8909 91.0253 36.859 90.9555 36.7939 90.8938C36.7289 90.832 36.6707 90.7805 36.617 90.7393C36.4881 90.633 36.4013 90.5449 36.3568 90.474C36.3123 90.4031 36.2906 90.3299 36.2906 90.2532C36.2906 90.1114 36.3408 89.9982 36.4413 89.9124C36.5417 89.8266 36.6707 89.7843 36.8293 89.7843C36.9879 89.7843 37.1431 89.8266 37.2755 89.9124C37.4079 89.9982 37.5129 90.1149 37.5893 90.2624C37.6658 90.4099 37.7046 90.5838 37.7046 90.784C37.7046 90.9372 37.6726 91.0882 37.6076 91.2357C37.5425 91.3833 37.4535 91.5217 37.3383 91.6521C37.223 91.7825 37.0895 91.8968 36.9366 91.9975C36.7836 92.0981 36.6182 92.1748 36.4424 92.2274L36.4413 92.2251Z" fill="black"/>
<path d="M40.238 96.5165C39.85 96.5165 39.4997 96.449 39.187 96.3129C38.8743 96.1768 38.6164 95.9766 38.4098 95.7113L39.0284 95.1806C39.2053 95.3876 39.3981 95.5363 39.607 95.6278C39.8158 95.7193 40.0532 95.765 40.3179 95.765C40.4241 95.765 40.5222 95.7513 40.6135 95.725C40.7048 95.6987 40.7835 95.6587 40.852 95.606C40.9193 95.5534 40.9718 95.4894 41.0061 95.4162C41.0414 95.343 41.0586 95.2618 41.0586 95.1726C41.0586 95.0193 41.0026 94.8958 40.8908 94.8008C40.8315 94.7597 40.739 94.7139 40.6124 94.6636C40.4857 94.6133 40.3225 94.5618 40.1228 94.5092C39.7816 94.4211 39.502 94.3205 39.284 94.2084C39.066 94.0963 38.8983 93.9693 38.7807 93.8275C38.6929 93.7154 38.6278 93.593 38.5867 93.4603C38.5456 93.3277 38.5251 93.1813 38.5251 93.0223C38.5251 92.8278 38.5673 92.6494 38.6529 92.487C38.7385 92.3246 38.856 92.1828 39.0055 92.0627C39.1562 91.9414 39.3319 91.8488 39.5351 91.7836C39.7382 91.7184 39.955 91.6864 40.1844 91.6864C40.4024 91.6864 40.6181 91.7161 40.8337 91.7744C41.0483 91.8339 41.2469 91.9186 41.4294 92.0306C41.612 92.1427 41.765 92.2754 41.8882 92.4287L41.3667 93.004C41.2548 92.8919 41.1327 92.7935 41.0004 92.7078C40.868 92.622 40.7345 92.5556 40.5987 92.5087C40.4629 92.4618 40.3396 92.4378 40.2278 92.4378C40.1045 92.4378 39.9927 92.4493 39.8923 92.4733C39.7918 92.4973 39.7085 92.5328 39.64 92.5796C39.5727 92.6265 39.5202 92.686 39.486 92.7569C39.4506 92.8278 39.4335 92.9079 39.4335 92.996C39.4392 93.0726 39.4586 93.1447 39.4906 93.2133C39.5225 93.2808 39.5682 93.3391 39.6275 93.386C39.6925 93.4329 39.7895 93.4832 39.9185 93.537C40.0475 93.5896 40.2129 93.6399 40.4126 93.688C40.7071 93.7646 40.9501 93.8492 41.1407 93.9407C41.3324 94.0322 41.4831 94.1375 41.5949 94.2553C41.7125 94.3673 41.7946 94.4977 41.8426 94.6441C41.8894 94.7917 41.9133 94.9564 41.9133 95.1394C41.9133 95.4047 41.838 95.6426 41.6885 95.852C41.5379 96.0613 41.337 96.2248 41.0837 96.3426C40.8303 96.4604 40.5484 96.5199 40.2358 96.5199L40.238 96.5165Z" fill="black"/>
<path d="M45.006 92.6666V91.7813H47.9548V92.6666H45.006ZM45.968 96.4284V90.5964H46.8775V96.4284H45.968Z" fill="black"/>
<path d="M48.7845 96.4284V89.8804H49.694V92.7386L49.5354 92.845C49.5947 92.6391 49.7088 92.4481 49.88 92.2743C50.0512 92.1004 50.2532 91.9586 50.4894 91.8499C50.7245 91.7413 50.9664 91.6864 51.2129 91.6864C51.5656 91.6864 51.86 91.7561 52.0962 91.8945C52.3313 92.0329 52.5082 92.2445 52.6257 92.527C52.7433 92.8107 52.8026 93.1675 52.8026 93.5976V96.4295H51.8931V93.6594C51.8931 93.394 51.8577 93.1744 51.7869 93.0006C51.7162 92.8267 51.6078 92.6997 51.4606 92.6197C51.3134 92.5396 51.1308 92.5064 50.9128 92.5179C50.7359 92.5179 50.5739 92.5465 50.4266 92.6014C50.2794 92.6574 50.1516 92.7352 50.0432 92.8359C49.9336 92.9365 49.8492 93.0532 49.7876 93.1858C49.7259 93.3185 49.6951 93.4615 49.6951 93.6148V96.4284H48.7856H48.7845Z" fill="black"/>
<path d="M55.8222 96.5165C55.4399 96.5165 55.0907 96.4101 54.7757 96.1974C54.4608 95.9846 54.2097 95.6964 54.0203 95.3304C53.832 94.9644 53.7373 94.5515 53.7373 94.0917C53.7373 93.6319 53.8331 93.211 54.0237 92.8484C54.2143 92.4859 54.4745 92.2011 54.8008 91.994C55.1272 91.787 55.4936 91.6841 55.8998 91.6841C56.1406 91.6841 56.362 91.7195 56.5617 91.7905C56.7614 91.8614 56.9372 91.9597 57.0867 92.0867C57.2373 92.2136 57.3606 92.36 57.4576 92.5247C57.5546 92.6894 57.615 92.8667 57.639 93.0554L57.4359 92.9845V91.7813H58.3545V96.4273H57.4359V95.3212L57.6481 95.2595C57.6128 95.4185 57.5409 95.574 57.4313 95.7238C57.3218 95.8737 57.1837 96.0086 57.0159 96.1264C56.8482 96.2443 56.6633 96.3392 56.4602 96.4101C56.257 96.481 56.0436 96.5165 55.8199 96.5165H55.8222ZM56.0596 95.6758C56.3358 95.6758 56.58 95.6083 56.7922 95.4722C57.0045 95.3361 57.17 95.1497 57.2909 94.9106C57.4119 94.6716 57.4724 94.3994 57.4724 94.0917C57.4724 93.784 57.4119 93.5221 57.2909 93.2865C57.17 93.0509 57.0045 92.8644 56.7922 92.7295C56.58 92.5934 56.3358 92.5259 56.0596 92.5259C55.7834 92.5259 55.5495 92.5934 55.3395 92.7295C55.1307 92.8656 54.9652 93.0509 54.8454 93.2865C54.7244 93.5221 54.6639 93.7909 54.6639 94.0917C54.6639 94.3925 54.7244 94.6716 54.8454 94.9106C54.9663 95.1497 55.1307 95.3373 55.3395 95.4722C55.5483 95.6083 55.788 95.6758 56.0596 95.6758Z" fill="black"/>
<path d="M59.239 92.6666V91.7813H62.1878V92.6666H59.239ZM60.201 96.4284V90.5964H61.1105V96.4284H60.201Z" fill="black"/>
<path d="M67.0345 96.5165C66.6465 96.5165 66.2961 96.449 65.9834 96.3129C65.6708 96.1768 65.4128 95.9766 65.2063 95.7113L65.8248 95.1806C66.0017 95.3876 66.1946 95.5363 66.4034 95.6278C66.6122 95.7193 66.8496 95.765 67.1144 95.765C67.2205 95.765 67.3186 95.7513 67.4099 95.725C67.5012 95.6987 67.58 95.6587 67.6484 95.606C67.7158 95.5534 67.7683 95.4894 67.8025 95.4162C67.8379 95.343 67.855 95.2618 67.855 95.1726C67.855 95.0193 67.7991 94.8958 67.6872 94.8008C67.6279 94.7597 67.5355 94.7139 67.4088 94.6636C67.2821 94.6133 67.1189 94.5618 66.9192 94.5092C66.578 94.4211 66.2984 94.3205 66.0804 94.2084C65.8625 94.0963 65.6947 93.9693 65.5772 93.8275C65.4893 93.7154 65.4243 93.593 65.3832 93.4603C65.3421 93.3277 65.3215 93.1813 65.3215 93.0223C65.3215 92.8278 65.3638 92.6494 65.4494 92.487C65.5349 92.3246 65.6525 92.1828 65.802 92.0627C65.9526 91.9414 66.1284 91.8488 66.3315 91.7836C66.5346 91.7184 66.7515 91.6864 66.9808 91.6864C67.1988 91.6864 67.4145 91.7161 67.6302 91.7744C67.8447 91.8339 68.0433 91.9186 68.2259 92.0306C68.4085 92.1427 68.5614 92.2754 68.6846 92.4287L68.1631 93.004C68.0513 92.8919 67.9292 92.7935 67.7968 92.7078C67.6644 92.622 67.5309 92.5556 67.3951 92.5087C67.2593 92.4618 67.136 92.4378 67.0242 92.4378C66.901 92.4378 66.7891 92.4493 66.6887 92.4733C66.5883 92.4973 66.505 92.5328 66.4365 92.5796C66.3692 92.6265 66.3167 92.686 66.2824 92.7569C66.2471 92.8278 66.2299 92.9079 66.2299 92.996C66.2356 93.0726 66.255 93.1447 66.287 93.2133C66.3189 93.2808 66.3646 93.3391 66.4239 93.386C66.489 93.4329 66.586 93.4832 66.7149 93.537C66.8439 93.5896 67.0094 93.6399 67.2091 93.688C67.5035 93.7646 67.7466 93.8492 67.9372 93.9407C68.1289 94.0322 68.2795 94.1375 68.3914 94.2553C68.5089 94.3673 68.5911 94.4977 68.639 94.6441C68.6858 94.7917 68.7098 94.9564 68.7098 95.1394C68.7098 95.4047 68.6344 95.6426 68.4849 95.852C68.3343 96.0613 68.1335 96.2248 67.8801 96.3426C67.6268 96.4604 67.3449 96.5199 67.0322 96.5199L67.0345 96.5165Z" fill="black"/>
<path d="M70.3109 90.7554C70.1169 90.7554 69.9662 90.705 69.8601 90.6044C69.754 90.5037 69.7015 90.363 69.7015 90.18C69.7015 90.0096 69.7562 89.8701 69.8647 89.7637C69.9731 89.6573 70.1226 89.6047 70.3109 89.6047C70.4992 89.6047 70.6555 89.6551 70.7616 89.7557C70.8678 89.8564 70.9203 89.9982 70.9203 90.18C70.9203 90.3516 70.8655 90.49 70.7571 90.5964C70.6475 90.7027 70.4992 90.7554 70.3109 90.7554ZM69.8692 96.4284V91.7825H70.7787V96.4284H69.8692Z" fill="black"/>
<path d="M72.155 96.4284V91.7825H73.0737V92.7741L72.9059 92.8805C72.9527 92.7272 73.0281 92.5797 73.1308 92.4378C73.2335 92.296 73.3601 92.1713 73.5108 92.0615C73.6614 91.9529 73.8223 91.8659 73.9958 91.8008C74.1692 91.7356 74.3473 91.7035 74.5299 91.7035C74.7946 91.7035 75.0274 91.7481 75.2271 91.8362C75.4268 91.9243 75.5923 92.057 75.7213 92.2342C75.8502 92.4115 75.9449 92.6323 76.0043 92.8976L75.8628 92.8622L75.9244 92.7112C75.9895 92.5751 76.0785 92.447 76.1937 92.3257C76.309 92.2045 76.4391 92.097 76.5863 92.0032C76.7335 91.9094 76.8899 91.8351 77.0542 91.7825C77.2185 91.7298 77.3806 91.7024 77.5392 91.7024C77.8861 91.7024 78.1737 91.7733 78.3997 91.9151C78.6268 92.057 78.7968 92.272 78.9121 92.5614C79.0273 92.8507 79.0844 93.2099 79.0844 93.6411V96.4284H78.1657V93.6937C78.1657 93.4283 78.1315 93.211 78.0641 93.0429C77.9968 92.8748 77.8953 92.7489 77.7595 92.6666C77.6237 92.5842 77.4502 92.5431 77.2391 92.5431C77.0747 92.5431 76.9195 92.5717 76.7757 92.6266C76.6308 92.6826 76.5064 92.7604 76.4003 92.861C76.2942 92.9617 76.212 93.0783 76.1526 93.211C76.0933 93.3437 76.0648 93.4901 76.0648 93.6491V96.4273H75.1461V93.6754C75.1461 93.434 75.1107 93.2282 75.04 93.06C74.9692 92.8919 74.8665 92.7638 74.7307 92.6746C74.5949 92.5865 74.4306 92.5419 74.2366 92.5419C74.0722 92.5419 73.9193 92.5705 73.7778 92.6254C73.6363 92.6815 73.5131 92.7581 73.4069 92.8553C73.3008 92.9525 73.2186 93.068 73.1593 93.2007C73.0999 93.3334 73.0714 93.4764 73.0714 93.6296V96.4261H72.1528L72.155 96.4284Z" fill="black"/>
<path d="M80.3055 98.3751V91.7825H81.2241V92.8439L81.0826 92.7638C81.118 92.5865 81.2184 92.4172 81.3828 92.2548C81.5471 92.0924 81.7491 91.9597 81.9876 91.8568C82.2261 91.7539 82.4715 91.7024 82.7248 91.7024C83.1425 91.7024 83.5134 91.8053 83.8375 92.0124C84.1616 92.2194 84.4172 92.5019 84.6055 92.8622C84.7938 93.2225 84.8885 93.6354 84.8885 94.1009C84.8885 94.5664 84.7961 94.9724 84.6101 95.335C84.424 95.6975 84.1696 95.9835 83.8466 96.1928C83.5225 96.4021 83.1585 96.5073 82.7522 96.5073C82.4817 96.5073 82.2192 96.4524 81.9659 96.3438C81.7126 96.2351 81.498 96.0944 81.3211 95.9229C81.1442 95.7525 81.0358 95.5752 80.9947 95.3922L81.2241 95.2686V98.3751H80.3055ZM82.6004 95.6667C82.8709 95.6667 83.1128 95.5992 83.3239 95.4631C83.5362 95.327 83.7039 95.1417 83.8272 94.9061C83.9504 94.6705 84.0121 94.4017 84.0121 94.1009C84.0121 93.8001 83.9516 93.5336 83.8306 93.3002C83.7096 93.0669 83.5442 92.8828 83.3319 92.7466C83.1196 92.6105 82.8754 92.5431 82.5993 92.5431C82.3231 92.5431 82.0789 92.6094 81.8666 92.7421C81.6544 92.8748 81.4866 93.0589 81.3633 93.2957C81.2401 93.5313 81.1785 93.8001 81.1785 94.1009C81.1785 94.4017 81.2401 94.6705 81.3633 94.9061C81.4866 95.1417 81.6544 95.3281 81.8666 95.4631C82.0789 95.5992 82.3231 95.6667 82.5993 95.6667H82.6004Z" fill="black"/>
<path d="M85.8939 96.4284V89.8804H86.8034V96.4284H85.8939Z" fill="black"/>
<path d="M90.1677 96.5165C89.6907 96.5165 89.2684 96.4147 88.901 96.2111C88.5335 96.0075 88.2448 95.7284 88.0359 95.375C87.8271 95.0216 87.7221 94.6144 87.7221 94.1535C87.7221 93.7875 87.7814 93.4546 87.899 93.1538C88.0165 92.853 88.1797 92.5923 88.3886 92.3704C88.5974 92.1485 88.8473 91.9781 89.1395 91.8568C89.4305 91.7356 89.7477 91.675 90.0889 91.675C90.3891 91.675 90.6687 91.7321 90.9277 91.8477C91.1868 91.9632 91.4116 92.121 91.6033 92.3212C91.795 92.5213 91.9422 92.7592 92.0449 93.0337C92.1477 93.3082 92.1967 93.6079 92.191 93.9316L92.1819 94.3205H88.3943L88.1911 93.5953H91.3956L91.2632 93.7463V93.5336C91.2461 93.3391 91.1811 93.1653 91.0692 93.012C90.9574 92.8587 90.8159 92.7375 90.6458 92.6494C90.4747 92.5614 90.2898 92.5168 90.0889 92.5168C89.7717 92.5168 89.5035 92.5774 89.2855 92.6986C89.0676 92.8199 88.9032 92.9971 88.7914 93.2293C88.6796 93.4627 88.6236 93.7497 88.6236 94.0917C88.6236 94.4337 88.691 94.6979 88.8268 94.937C88.9626 95.176 89.1532 95.3602 89.4008 95.4905C89.6484 95.6198 89.9337 95.685 90.2567 95.685C90.4861 95.685 90.6995 95.6461 90.8969 95.5695C91.0943 95.4928 91.3077 95.3544 91.5371 95.1531L91.9959 95.7994C91.8544 95.9412 91.682 96.0647 91.4789 96.1711C91.2758 96.2774 91.0612 96.3609 90.8341 96.4239C90.607 96.4856 90.3856 96.5165 90.1677 96.5165Z" fill="black"/>
<path d="M93.549 96.5256C93.355 96.5256 93.2044 96.4685 93.0983 96.3529C92.9921 96.2374 92.9396 96.0739 92.9396 95.8623C92.9396 95.6678 92.9956 95.5077 93.1074 95.3842C93.2192 95.2606 93.3665 95.1989 93.549 95.1989C93.743 95.1989 93.8937 95.2561 93.9998 95.3716C94.106 95.4871 94.1584 95.6507 94.1584 95.8623C94.1584 96.0567 94.1025 96.2157 93.9907 96.3404C93.8789 96.4639 93.7316 96.5268 93.549 96.5268V96.5256Z" fill="black"/>
</svg>
