<svg width="105" height="100" viewBox="0 0 105 100" fill="none" xmlns="http://www.w3.org/2000/svg">
<g clip-path="url(#clip0_289_695)">
<path d="M34.1616 32.1019V7.3459C34.1616 4.47588 37.1947 2.68189 39.5146 4.1169L60.9247 16.4944C63.4222 17.9294 63.4222 21.6969 60.9247 23.1319L39.5146 35.5094C37.1947 36.765 34.1616 34.971 34.1616 32.101V32.1019Z" fill="#FEFDFF"/>
<path d="M47.7015 38.1817C46.753 38.1817 45.7957 37.919 44.9253 37.3956C43.2311 36.3783 42.2192 34.5877 42.2192 32.606V5.48645C42.2192 3.48514 43.2866 1.64261 45.0042 0.677235C46.6555 -0.250893 48.5876 -0.222471 50.1755 0.75074L73.6154 14.3012C75.3339 15.2891 76.3623 17.1003 76.3623 19.1447C76.3623 21.1892 75.3339 23.0003 73.6115 23.9902L69.4423 26.4012L68.061 23.9863L72.2341 21.5734C73.0851 21.0843 73.592 20.1777 73.592 19.1457C73.592 18.1137 73.0861 17.2062 72.238 16.7191L48.7425 3.13526C48.0066 2.6805 47.1371 2.6707 46.3562 3.10879C45.5014 3.58903 44.9906 4.47795 44.9906 5.48645V32.607C44.9906 33.5988 45.4975 34.4946 46.3465 35.0052C47.1332 35.4776 48.0475 35.5217 48.7971 35.1229L51.279 33.688L52.6602 36.1029L50.1258 37.5672C49.3674 37.9778 48.5378 38.1817 47.7015 38.1817Z" fill="#FEFDFF"/>
<path d="M66.3551 26.3198L53.714 33.6086" stroke="#FEFDFF" stroke-width="2" stroke-miterlimit="10"/>
</g>
<path d="M16.0719 63.3907C16.0425 58.7401 19.5561 55.8025 24.0656 55.8025C28.5751 55.8025 32.1448 58.7401 32.1154 63.3907C32.086 67.7264 28.7193 70.8374 24.0656 70.8374C19.6977 70.8374 16.1013 67.7851 16.0719 63.3907ZM28.7486 63.3613C28.7486 60.5358 26.6928 58.5693 24.0389 58.5693C21.385 58.5693 19.4146 60.453 19.4146 63.3613C19.4146 66.0428 21.4998 68.0679 24.0389 68.0679C26.578 68.0679 28.7486 66.1575 28.7486 63.3613Z" fill="white"/>
<path d="M6.1345 70.6213L0.0284161 56.2961C-0.0703705 56.0613 0.100504 55.8025 0.354145 55.8025H3.05075C3.19493 55.8025 3.32575 55.8905 3.37915 56.0239L7.53086 66.2616C7.65101 66.5577 8.06751 66.5577 8.18766 66.2616L12.3394 56.0239C12.3928 55.8905 12.5236 55.8025 12.6678 55.8025H15.3644C15.618 55.8025 15.7889 56.0613 15.6901 56.2961L9.61072 70.624C9.55465 70.7547 9.4265 70.8401 9.28499 70.8401H6.46023C6.31872 70.8401 6.19057 70.7547 6.1345 70.624V70.6213Z" fill="white"/>
<path d="M34.7025 70.4959V52.3472C34.7025 52.1578 34.8547 52.0057 35.0443 52.0057H37.7302C37.9198 52.0057 38.072 52.1578 38.072 52.3472V61.3548C38.072 61.643 38.4084 61.8004 38.63 61.619L44.6346 56.6776C44.696 56.6269 44.7734 56.6002 44.8509 56.6002H47.6383C47.956 56.6002 48.1002 56.9951 47.8599 57.2006L41.978 62.2327C41.8365 62.3527 41.8179 62.5635 41.9353 62.7049L48.0708 70.2798C48.2523 70.5039 48.0921 70.8347 47.8065 70.8347H45.0565C44.955 70.8347 44.8589 70.7894 44.7921 70.7093L39.6445 64.4659C39.5191 64.3138 39.2921 64.3005 39.1479 64.4339L38.1494 65.3677C38.08 65.4318 38.0426 65.5225 38.0426 65.6159V70.4905C38.0426 70.68 37.8904 70.8321 37.7009 70.8321H35.0416C34.8521 70.8321 34.6999 70.68 34.6999 70.4905L34.7025 70.4959Z" fill="white"/>
<path d="M50.6152 70.4959V52.3472C50.6152 52.1578 50.7674 52.0057 50.957 52.0057H53.6162C53.8058 52.0057 53.9579 52.1578 53.9579 52.3472V70.4959C53.9579 70.6853 53.8058 70.8374 53.6162 70.8374H50.957C50.7674 70.8374 50.6152 70.6853 50.6152 70.4959Z" fill="white"/>
<path d="M63.6417 70.4825V68.4975C63.6417 68.4174 63.6684 68.34 63.7138 68.2787L70.5701 59.2524C70.7463 59.0202 70.5861 58.6787 70.3031 58.6787H63.9541C63.7645 58.6787 63.6123 58.5213 63.6123 58.3239V56.1547C63.6123 55.9599 63.7645 55.7998 63.9541 55.7998H74.348C74.5376 55.7998 74.6898 55.9572 74.6898 56.1547V58.1398C74.6898 58.2198 74.6631 58.2945 74.6177 58.3585L67.8121 67.3875C67.6359 67.6196 67.7961 67.9612 68.0818 67.9612H74.3774C74.567 67.9612 74.7192 68.1186 74.7192 68.316V70.4852C74.7192 70.68 74.567 70.8401 74.3774 70.8401H63.9834C63.7939 70.8401 63.6417 70.6827 63.6417 70.4852V70.4825Z" fill="white"/>
<path d="M76.3425 63.3613C76.3425 58.4252 79.9976 55.7998 84.0505 55.7998C88.1034 55.7998 91.1872 58.3105 91.5876 62.761C91.6304 63.0625 91.641 63.4147 91.6197 63.7535C91.609 63.9323 91.4595 64.0737 91.2806 64.0737L79.9121 64.1004C79.6959 64.1004 79.5357 64.3005 79.5784 64.5139C80.0243 66.6538 82.0374 68.0679 84.0238 68.0679C85.6044 68.0946 87.1102 67.4435 87.9726 66.1602C88.0714 66.0161 88.2583 65.9627 88.4131 66.0428L90.3194 67.0166C90.4983 67.1074 90.5624 67.3341 90.4529 67.5022C89.1233 69.5941 86.7417 70.8347 84.0478 70.8347C79.9949 70.8347 76.3398 67.8384 76.3398 63.3586L76.3425 63.3613ZM88.026 62.166C88.2503 62.166 88.4131 61.9552 88.3544 61.7391C87.8177 59.7113 85.9461 58.4866 84.0478 58.5133C82.1468 58.5133 80.3233 59.7166 79.8187 61.7711C79.7653 61.9872 79.9308 62.1953 80.1524 62.1927L88.0233 62.166H88.026Z" fill="white"/>
<path d="M94.1161 70.4826V56.1574C94.1161 55.9626 94.2736 55.8025 94.4711 55.8025H97.2345C97.4294 55.8025 97.5896 55.9599 97.5896 56.1574V58.1718C97.5896 58.5187 98.0435 58.6627 98.2357 58.3719C99.5707 56.3548 102.321 55.3943 104.74 56.072C104.967 56.136 105.071 56.4002 104.948 56.6003L103.56 58.8442C103.471 58.9856 103.301 59.0443 103.14 58.9909C100.916 58.2598 97.7364 60.1142 97.7364 63.3613V70.4799C97.7364 70.6747 97.5789 70.8348 97.3813 70.8348H94.4711C94.2762 70.8348 94.1161 70.6773 94.1161 70.4799V70.4826Z" fill="white"/>
<path d="M57.2553 70.4826V56.1574C57.2553 55.9626 57.4075 55.8025 57.597 55.8025H60.2563C60.4458 55.8025 60.598 55.9599 60.598 56.1574V70.4852C60.598 70.68 60.4458 70.8401 60.2563 70.8401H57.597C57.4075 70.8401 57.2553 70.6827 57.2553 70.4852V70.4826Z" fill="white"/>
<path d="M57.2553 53.5559V50.6743C57.2553 50.3408 57.6104 50.13 57.8827 50.2981L60.3898 51.7389C60.6834 51.907 60.6834 52.3446 60.3898 52.5127L57.8827 53.9535C57.6104 54.1002 57.2553 53.8921 57.2553 53.5559Z" fill="white"/>
<path d="M16.686 86V81.1H18.681C18.947 81.1 19.1873 81.1677 19.402 81.303C19.6213 81.4337 19.7963 81.6133 19.927 81.842C20.0577 82.0707 20.123 82.325 20.123 82.605C20.123 82.885 20.0577 83.1393 19.927 83.368C19.7963 83.5967 19.6213 83.781 19.402 83.921C19.1873 84.0563 18.947 84.124 18.681 84.124H17.442V86H16.686ZM17.442 83.396H18.667C18.793 83.396 18.9073 83.361 19.01 83.291C19.1127 83.2163 19.1943 83.1207 19.255 83.004C19.3203 82.8827 19.353 82.7497 19.353 82.605C19.353 82.4603 19.3203 82.3297 19.255 82.213C19.1943 82.0963 19.1127 82.003 19.01 81.933C18.9073 81.863 18.793 81.828 18.667 81.828H17.442V83.396ZM20.9405 86V82.325H21.6685V83.48L21.5985 83.2C21.6499 83.0227 21.7362 82.8617 21.8575 82.717C21.9835 82.5723 22.1259 82.458 22.2845 82.374C22.4479 82.29 22.6159 82.248 22.7885 82.248C22.8679 82.248 22.9425 82.255 23.0125 82.269C23.0872 82.283 23.1455 82.2993 23.1875 82.318L22.9985 83.102C22.9425 83.0787 22.8795 83.06 22.8095 83.046C22.7442 83.0273 22.6789 83.018 22.6135 83.018C22.4875 83.018 22.3662 83.0437 22.2495 83.095C22.1375 83.1417 22.0372 83.2093 21.9485 83.298C21.8645 83.382 21.7969 83.4823 21.7455 83.599C21.6942 83.711 21.6685 83.8347 21.6685 83.97V86H20.9405ZM25.3215 86.07C24.9435 86.07 24.6075 85.9907 24.3135 85.832C24.0242 85.6687 23.7955 85.447 23.6275 85.167C23.4642 84.887 23.3825 84.565 23.3825 84.201C23.3825 83.9117 23.4292 83.648 23.5225 83.41C23.6159 83.172 23.7442 82.9667 23.9075 82.794C24.0755 82.6167 24.2739 82.4813 24.5025 82.388C24.7359 82.29 24.9879 82.241 25.2585 82.241C25.4965 82.241 25.7182 82.2877 25.9235 82.381C26.1289 82.4697 26.3062 82.5933 26.4555 82.752C26.6095 82.9107 26.7262 83.0997 26.8055 83.319C26.8895 83.5337 26.9292 83.7693 26.9245 84.026L26.9175 84.334H23.9145L23.7535 83.76H26.2945L26.1895 83.879V83.711C26.1755 83.557 26.1242 83.4193 26.0355 83.298C25.9469 83.1767 25.8349 83.081 25.6995 83.011C25.5642 82.941 25.4172 82.906 25.2585 82.906C25.0065 82.906 24.7942 82.955 24.6215 83.053C24.4489 83.1463 24.3182 83.2863 24.2295 83.473C24.1409 83.655 24.0965 83.8813 24.0965 84.152C24.0965 84.4087 24.1502 84.6327 24.2575 84.824C24.3649 85.0107 24.5165 85.1553 24.7125 85.258C24.9085 85.3607 25.1349 85.412 25.3915 85.412C25.5735 85.412 25.7415 85.3817 25.8955 85.321C26.0542 85.2603 26.2245 85.1507 26.4065 84.992L26.7705 85.503C26.6585 85.615 26.5209 85.713 26.3575 85.797C26.1989 85.881 26.0285 85.9487 25.8465 86C25.6692 86.0467 25.4942 86.07 25.3215 86.07ZM28.9331 86.07C28.6251 86.07 28.3474 86.0163 28.1001 85.909C27.8528 85.8017 27.6474 85.643 27.4841 85.433L27.9741 85.013C28.1141 85.1763 28.2658 85.2953 28.4291 85.37C28.5971 85.44 28.7861 85.475 28.9961 85.475C29.0801 85.475 29.1571 85.4657 29.2271 85.447C29.3018 85.4237 29.3648 85.391 29.4161 85.349C29.4721 85.307 29.5141 85.258 29.5421 85.202C29.5701 85.1413 29.5841 85.076 29.5841 85.006C29.5841 84.8847 29.5398 84.7867 29.4511 84.712C29.4044 84.6793 29.3298 84.6443 29.2271 84.607C29.1291 84.565 29.0008 84.523 28.8421 84.481C28.5714 84.411 28.3498 84.3317 28.1771 84.243C28.0044 84.1543 27.8714 84.054 27.7781 83.942C27.7081 83.8533 27.6568 83.7577 27.6241 83.655C27.5914 83.5477 27.5751 83.431 27.5751 83.305C27.5751 83.151 27.6078 83.011 27.6731 82.885C27.7431 82.7543 27.8364 82.6423 27.9531 82.549C28.0744 82.451 28.2144 82.3763 28.3731 82.325C28.5364 82.2737 28.7091 82.248 28.8911 82.248C29.0638 82.248 29.2341 82.2713 29.4021 82.318C29.5748 82.3647 29.7334 82.4323 29.8781 82.521C30.0228 82.6097 30.1441 82.7147 30.2421 82.836L29.8291 83.291C29.7404 83.2023 29.6424 83.1253 29.5351 83.06C29.4324 82.99 29.3274 82.9363 29.2201 82.899C29.1128 82.8617 29.0148 82.843 28.9261 82.843C28.8281 82.843 28.7394 82.8523 28.6601 82.871C28.5808 82.8897 28.5131 82.9177 28.4571 82.955C28.4058 82.9923 28.3661 83.039 28.3381 83.095C28.3101 83.151 28.2961 83.214 28.2961 83.284C28.3008 83.3447 28.3148 83.403 28.3381 83.459C28.3661 83.5103 28.4034 83.5547 28.4501 83.592C28.5014 83.6293 28.5784 83.669 28.6811 83.711C28.7838 83.753 28.9144 83.7927 29.0731 83.83C29.3064 83.8907 29.4978 83.9583 29.6471 84.033C29.8011 84.103 29.9224 84.1847 30.0111 84.278C30.1044 84.3667 30.1698 84.4693 30.2071 84.586C30.2444 84.7027 30.2631 84.8333 30.2631 84.978C30.2631 85.188 30.2024 85.377 30.0811 85.545C29.9644 85.7083 29.8058 85.8367 29.6051 85.93C29.4044 86.0233 29.1804 86.07 28.9331 86.07ZM32.2827 86.07C31.9747 86.07 31.697 86.0163 31.4497 85.909C31.2024 85.8017 30.997 85.643 30.8337 85.433L31.3237 85.013C31.4637 85.1763 31.6154 85.2953 31.7787 85.37C31.9467 85.44 32.1357 85.475 32.3457 85.475C32.4297 85.475 32.5067 85.4657 32.5767 85.447C32.6514 85.4237 32.7144 85.391 32.7657 85.349C32.8217 85.307 32.8637 85.258 32.8917 85.202C32.9197 85.1413 32.9337 85.076 32.9337 85.006C32.9337 84.8847 32.8894 84.7867 32.8007 84.712C32.754 84.6793 32.6794 84.6443 32.5767 84.607C32.4787 84.565 32.3504 84.523 32.1917 84.481C31.921 84.411 31.6994 84.3317 31.5267 84.243C31.354 84.1543 31.221 84.054 31.1277 83.942C31.0577 83.8533 31.0064 83.7577 30.9737 83.655C30.941 83.5477 30.9247 83.431 30.9247 83.305C30.9247 83.151 30.9574 83.011 31.0227 82.885C31.0927 82.7543 31.186 82.6423 31.3027 82.549C31.424 82.451 31.564 82.3763 31.7227 82.325C31.886 82.2737 32.0587 82.248 32.2407 82.248C32.4134 82.248 32.5837 82.2713 32.7517 82.318C32.9244 82.3647 33.083 82.4323 33.2277 82.521C33.3724 82.6097 33.4937 82.7147 33.5917 82.836L33.1787 83.291C33.09 83.2023 32.992 83.1253 32.8847 83.06C32.782 82.99 32.677 82.9363 32.5697 82.899C32.4624 82.8617 32.3644 82.843 32.2757 82.843C32.1777 82.843 32.089 82.8523 32.0097 82.871C31.9304 82.8897 31.8627 82.9177 31.8067 82.955C31.7554 82.9923 31.7157 83.039 31.6877 83.095C31.6597 83.151 31.6457 83.214 31.6457 83.284C31.6504 83.3447 31.6644 83.403 31.6877 83.459C31.7157 83.5103 31.753 83.5547 31.7997 83.592C31.851 83.6293 31.928 83.669 32.0307 83.711C32.1334 83.753 32.264 83.7927 32.4227 83.83C32.656 83.8907 32.8474 83.9583 32.9967 84.033C33.1507 84.103 33.272 84.1847 33.3607 84.278C33.454 84.3667 33.5194 84.4693 33.5567 84.586C33.594 84.7027 33.6127 84.8333 33.6127 84.978C33.6127 85.188 33.552 85.377 33.4307 85.545C33.314 85.7083 33.1554 85.8367 32.9547 85.93C32.754 86.0233 32.53 86.07 32.2827 86.07ZM34.5193 87.253L34.2533 86.931C34.4167 86.8377 34.5497 86.7303 34.6523 86.609C34.755 86.4877 34.8063 86.3827 34.8063 86.294C34.8063 86.2473 34.7947 86.2007 34.7713 86.154C34.748 86.112 34.699 86.0513 34.6243 85.972C34.531 85.8833 34.4703 85.8087 34.4423 85.748C34.4143 85.6873 34.4003 85.622 34.4003 85.552C34.4003 85.44 34.44 85.3513 34.5193 85.286C34.5987 85.216 34.7013 85.181 34.8273 85.181C34.944 85.181 35.049 85.216 35.1423 85.286C35.2403 85.3513 35.315 85.4447 35.3663 85.566C35.4223 85.6827 35.4503 85.818 35.4503 85.972C35.4503 86.112 35.427 86.2473 35.3803 86.378C35.3337 86.5087 35.2683 86.63 35.1843 86.742C35.1003 86.854 35.0023 86.9543 34.8903 87.043C34.7783 87.1317 34.6547 87.2017 34.5193 87.253ZM38.4174 86V81.1H40.5034C40.7834 81.1 41.0401 81.17 41.2734 81.31C41.5114 81.4453 41.7004 81.632 41.8404 81.87C41.9804 82.1033 42.0504 82.367 42.0504 82.661C42.0504 82.927 41.9804 83.1743 41.8404 83.403C41.7004 83.6317 41.5138 83.816 41.2804 83.956C41.0471 84.0913 40.7881 84.159 40.5034 84.159H39.1734V86H38.4174ZM41.3294 86L40.0834 83.788L40.8604 83.613L42.2464 86.007L41.3294 86ZM39.1734 83.431H40.5734C40.7088 83.431 40.8301 83.3983 40.9374 83.333C41.0448 83.263 41.1288 83.1697 41.1894 83.053C41.2501 82.9317 41.2804 82.7987 41.2804 82.654C41.2804 82.4907 41.2408 82.3483 41.1614 82.227C41.0868 82.101 40.9794 82.003 40.8394 81.933C40.7041 81.863 40.5501 81.828 40.3774 81.828H39.1734V83.431ZM44.6809 86.07C44.3029 86.07 43.9669 85.9907 43.6729 85.832C43.3836 85.6687 43.1549 85.447 42.9869 85.167C42.8236 84.887 42.7419 84.565 42.7419 84.201C42.7419 83.9117 42.7886 83.648 42.8819 83.41C42.9752 83.172 43.1036 82.9667 43.2669 82.794C43.4349 82.6167 43.6332 82.4813 43.8619 82.388C44.0952 82.29 44.3472 82.241 44.6179 82.241C44.8559 82.241 45.0776 82.2877 45.2829 82.381C45.4882 82.4697 45.6656 82.5933 45.8149 82.752C45.9689 82.9107 46.0856 83.0997 46.1649 83.319C46.2489 83.5337 46.2886 83.7693 46.2839 84.026L46.2769 84.334H43.2739L43.1129 83.76H45.6539L45.5489 83.879V83.711C45.5349 83.557 45.4836 83.4193 45.3949 83.298C45.3062 83.1767 45.1942 83.081 45.0589 83.011C44.9236 82.941 44.7766 82.906 44.6179 82.906C44.3659 82.906 44.1536 82.955 43.9809 83.053C43.8082 83.1463 43.6776 83.2863 43.5889 83.473C43.5002 83.655 43.4559 83.8813 43.4559 84.152C43.4559 84.4087 43.5096 84.6327 43.6169 84.824C43.7242 85.0107 43.8759 85.1553 44.0719 85.258C44.2679 85.3607 44.4942 85.412 44.7509 85.412C44.9329 85.412 45.1009 85.3817 45.2549 85.321C45.4136 85.2603 45.5839 85.1507 45.7659 84.992L46.1299 85.503C46.0179 85.615 45.8802 85.713 45.7169 85.797C45.5582 85.881 45.3879 85.9487 45.2059 86C45.0286 86.0467 44.8536 86.07 44.6809 86.07ZM48.6285 86.07C48.2878 86.07 47.9821 85.986 47.7115 85.818C47.4455 85.65 47.2331 85.4213 47.0745 85.132C46.9205 84.8427 46.8435 84.5183 46.8435 84.159C46.8435 83.7997 46.9205 83.4753 47.0745 83.186C47.2331 82.8967 47.4455 82.668 47.7115 82.5C47.9821 82.332 48.2878 82.248 48.6285 82.248C48.9551 82.248 49.2515 82.3157 49.5175 82.451C49.7881 82.5817 49.9935 82.7613 50.1335 82.99L49.7345 83.48C49.6598 83.3727 49.5641 83.2747 49.4475 83.186C49.3308 83.0973 49.2071 83.0273 49.0765 82.976C48.9458 82.9247 48.8198 82.899 48.6985 82.899C48.4745 82.899 48.2738 82.955 48.0965 83.067C47.9238 83.1743 47.7861 83.3237 47.6835 83.515C47.5808 83.7063 47.5295 83.921 47.5295 84.159C47.5295 84.397 47.5831 84.6117 47.6905 84.803C47.7978 84.9897 47.9401 85.139 48.1175 85.251C48.2948 85.363 48.4908 85.419 48.7055 85.419C48.8315 85.419 48.9528 85.398 49.0695 85.356C49.1908 85.314 49.3075 85.251 49.4195 85.167C49.5315 85.083 49.6365 84.9803 49.7345 84.859L50.1335 85.349C49.9841 85.559 49.7695 85.7317 49.4895 85.867C49.2141 86.0023 48.9271 86.07 48.6285 86.07ZM52.4656 86.07C52.1062 86.07 51.7842 85.9883 51.4996 85.825C51.2196 85.657 50.9979 85.4307 50.8346 85.146C50.6712 84.8567 50.5896 84.5277 50.5896 84.159C50.5896 83.7903 50.6712 83.4637 50.8346 83.179C50.9979 82.8897 51.2196 82.6633 51.4996 82.5C51.7842 82.332 52.1062 82.248 52.4656 82.248C52.8202 82.248 53.1376 82.332 53.4176 82.5C53.7022 82.6633 53.9262 82.8897 54.0896 83.179C54.2529 83.4637 54.3346 83.7903 54.3346 84.159C54.3346 84.5277 54.2529 84.8567 54.0896 85.146C53.9262 85.4307 53.7022 85.657 53.4176 85.825C53.1376 85.9883 52.8202 86.07 52.4656 86.07ZM52.4656 85.412C52.6849 85.412 52.8809 85.3583 53.0536 85.251C53.2262 85.139 53.3616 84.9897 53.4596 84.803C53.5576 84.6117 53.6042 84.397 53.5996 84.159C53.6042 83.9163 53.5576 83.7017 53.4596 83.515C53.3616 83.3237 53.2262 83.1743 53.0536 83.067C52.8809 82.9597 52.6849 82.906 52.4656 82.906C52.2462 82.906 52.0479 82.962 51.8706 83.074C51.6979 83.1813 51.5626 83.3307 51.4646 83.522C51.3666 83.7087 51.3199 83.921 51.3246 84.159C51.3199 84.397 51.3666 84.6117 51.4646 84.803C51.5626 84.9897 51.6979 85.139 51.8706 85.251C52.0479 85.3583 52.2462 85.412 52.4656 85.412ZM55.1202 86V82.325H55.8482V83.48L55.7782 83.2C55.8295 83.0227 55.9159 82.8617 56.0372 82.717C56.1632 82.5723 56.3055 82.458 56.4642 82.374C56.6275 82.29 56.7955 82.248 56.9682 82.248C57.0475 82.248 57.1222 82.255 57.1922 82.269C57.2669 82.283 57.3252 82.2993 57.3672 82.318L57.1782 83.102C57.1222 83.0787 57.0592 83.06 56.9892 83.046C56.9239 83.0273 56.8585 83.018 56.7932 83.018C56.6672 83.018 56.5459 83.0437 56.4292 83.095C56.3172 83.1417 56.2169 83.2093 56.1282 83.298C56.0442 83.382 55.9765 83.4823 55.9252 83.599C55.8739 83.711 55.8482 83.8347 55.8482 83.97V86H55.1202ZM59.3192 86.07C58.9832 86.07 58.6822 85.9883 58.4162 85.825C58.1549 85.657 57.9472 85.4307 57.7932 85.146C57.6392 84.8567 57.5622 84.5277 57.5622 84.159C57.5622 83.7903 57.6369 83.4637 57.7862 83.179C57.9402 82.8897 58.1479 82.6633 58.4092 82.5C58.6706 82.332 58.9669 82.248 59.2982 82.248C59.4802 82.248 59.6552 82.2783 59.8232 82.339C59.9959 82.395 60.1499 82.4743 60.2852 82.577C60.4206 82.675 60.5256 82.7847 60.6002 82.906C60.6796 83.0227 60.7192 83.1417 60.7192 83.263L60.5092 83.277V80.82H61.2302V86H60.5092V85.125H60.6492C60.6492 85.237 60.6119 85.349 60.5372 85.461C60.4626 85.5683 60.3622 85.6687 60.2362 85.762C60.1149 85.8553 59.9726 85.93 59.8092 85.986C59.6506 86.042 59.4872 86.07 59.3192 86.07ZM59.4172 85.447C59.6366 85.447 59.8302 85.391 59.9982 85.279C60.1662 85.167 60.2969 85.0153 60.3902 84.824C60.4882 84.628 60.5372 84.4063 60.5372 84.159C60.5372 83.9117 60.4882 83.6923 60.3902 83.501C60.2969 83.305 60.1662 83.151 59.9982 83.039C59.8302 82.927 59.6366 82.871 59.4172 82.871C59.1979 82.871 59.0042 82.927 58.8362 83.039C58.6682 83.151 58.5352 83.305 58.4372 83.501C58.3439 83.6923 58.2972 83.9117 58.2972 84.159C58.2972 84.4063 58.3439 84.628 58.4372 84.824C58.5352 85.0153 58.6682 85.167 58.8362 85.279C59.0042 85.391 59.1979 85.447 59.4172 85.447ZM62.3348 87.253L62.0688 86.931C62.2321 86.8377 62.3651 86.7303 62.4678 86.609C62.5704 86.4877 62.6218 86.3827 62.6218 86.294C62.6218 86.2473 62.6101 86.2007 62.5868 86.154C62.5634 86.112 62.5144 86.0513 62.4398 85.972C62.3464 85.8833 62.2858 85.8087 62.2578 85.748C62.2298 85.6873 62.2158 85.622 62.2158 85.552C62.2158 85.44 62.2554 85.3513 62.3348 85.286C62.4141 85.216 62.5168 85.181 62.6427 85.181C62.7594 85.181 62.8644 85.216 62.9578 85.286C63.0558 85.3513 63.1304 85.4447 63.1818 85.566C63.2378 85.6827 63.2658 85.818 63.2658 85.972C63.2658 86.112 63.2424 86.2473 63.1958 86.378C63.1491 86.5087 63.0838 86.63 62.9998 86.742C62.9158 86.854 62.8178 86.9543 62.7058 87.043C62.5938 87.1317 62.4701 87.2017 62.3348 87.253ZM67.7449 86.07C67.4789 86.07 67.2315 86.035 67.0029 85.965C66.7789 85.895 66.5735 85.79 66.3869 85.65C66.2049 85.5053 66.0415 85.328 65.8969 85.118L66.4149 84.523C66.6435 84.8497 66.8629 85.076 67.0729 85.202C67.2829 85.328 67.5325 85.391 67.8219 85.391C67.9992 85.391 68.1602 85.363 68.3049 85.307C68.4495 85.251 68.5639 85.174 68.6479 85.076C68.7319 84.978 68.7739 84.866 68.7739 84.74C68.7739 84.656 68.7599 84.5767 68.7319 84.502C68.7039 84.4273 68.6595 84.3597 68.5989 84.299C68.5429 84.2383 68.4682 84.1823 68.3749 84.131C68.2862 84.0797 68.1812 84.0353 68.0599 83.998C67.9385 83.956 67.7985 83.921 67.6399 83.893C67.3879 83.8417 67.1685 83.774 66.9819 83.69C66.7952 83.606 66.6389 83.501 66.5129 83.375C66.3869 83.249 66.2935 83.1067 66.2329 82.948C66.1722 82.7847 66.1419 82.6027 66.1419 82.402C66.1419 82.206 66.1839 82.024 66.2679 81.856C66.3565 81.688 66.4755 81.5433 66.6249 81.422C66.7789 81.296 66.9585 81.2003 67.1639 81.135C67.3692 81.065 67.5909 81.03 67.8289 81.03C68.0809 81.03 68.3119 81.0627 68.5219 81.128C68.7319 81.1933 68.9185 81.2913 69.0819 81.422C69.2452 81.548 69.3805 81.7043 69.4879 81.891L68.9559 82.416C68.8625 82.262 68.7575 82.1337 68.6409 82.031C68.5242 81.9237 68.3959 81.8443 68.2559 81.793C68.1159 81.737 67.9665 81.709 67.8079 81.709C67.6259 81.709 67.4672 81.737 67.3319 81.793C67.1965 81.849 67.0892 81.9283 67.0099 82.031C66.9352 82.129 66.8979 82.2457 66.8979 82.381C66.8979 82.479 66.9165 82.57 66.9539 82.654C66.9912 82.7333 67.0472 82.8057 67.1219 82.871C67.2012 82.9317 67.3062 82.9877 67.4369 83.039C67.5675 83.0857 67.7239 83.1277 67.9059 83.165C68.1625 83.221 68.3912 83.2933 68.5919 83.382C68.7925 83.466 68.9629 83.5663 69.1029 83.683C69.2429 83.7997 69.3479 83.9303 69.4179 84.075C69.4925 84.2197 69.5299 84.376 69.5299 84.544C69.5299 84.8567 69.4575 85.1273 69.3129 85.356C69.1682 85.5847 68.9629 85.762 68.6969 85.888C68.4309 86.0093 68.1135 86.07 67.7449 86.07ZM72.134 86.07C71.756 86.07 71.42 85.9907 71.126 85.832C70.8367 85.6687 70.608 85.447 70.44 85.167C70.2767 84.887 70.195 84.565 70.195 84.201C70.195 83.9117 70.2417 83.648 70.335 83.41C70.4284 83.172 70.5567 82.9667 70.72 82.794C70.888 82.6167 71.0864 82.4813 71.315 82.388C71.5484 82.29 71.8004 82.241 72.071 82.241C72.309 82.241 72.5307 82.2877 72.736 82.381C72.9414 82.4697 73.1187 82.5933 73.268 82.752C73.422 82.9107 73.5387 83.0997 73.618 83.319C73.702 83.5337 73.7417 83.7693 73.737 84.026L73.73 84.334H70.727L70.566 83.76H73.107L73.002 83.879V83.711C72.988 83.557 72.9367 83.4193 72.848 83.298C72.7594 83.1767 72.6474 83.081 72.512 83.011C72.3767 82.941 72.2297 82.906 72.071 82.906C71.819 82.906 71.6067 82.955 71.434 83.053C71.2614 83.1463 71.1307 83.2863 71.042 83.473C70.9534 83.655 70.909 83.8813 70.909 84.152C70.909 84.4087 70.9627 84.6327 71.07 84.824C71.1774 85.0107 71.329 85.1553 71.525 85.258C71.721 85.3607 71.9474 85.412 72.204 85.412C72.386 85.412 72.554 85.3817 72.708 85.321C72.8667 85.2603 73.037 85.1507 73.219 84.992L73.583 85.503C73.471 85.615 73.3334 85.713 73.17 85.797C73.0114 85.881 72.841 85.9487 72.659 86C72.4817 86.0467 72.3067 86.07 72.134 86.07ZM74.5206 86V82.325H75.2416V83.081L75.1156 83.165C75.1623 83.0017 75.2533 82.8523 75.3886 82.717C75.5239 82.577 75.6849 82.465 75.8716 82.381C76.0583 82.2923 76.2496 82.248 76.4456 82.248C76.7256 82.248 76.9589 82.304 77.1456 82.416C77.3323 82.5233 77.4723 82.689 77.5656 82.913C77.6589 83.137 77.7056 83.4193 77.7056 83.76V86H76.9846V83.809C76.9846 83.599 76.9566 83.4263 76.9006 83.291C76.8446 83.151 76.7583 83.0507 76.6416 82.99C76.5249 82.9247 76.3803 82.8967 76.2076 82.906C76.0676 82.906 75.9393 82.9293 75.8226 82.976C75.7059 83.018 75.6033 83.0787 75.5146 83.158C75.4306 83.2373 75.3629 83.3307 75.3116 83.438C75.2649 83.5407 75.2416 83.6527 75.2416 83.774V86H74.8846C74.8239 86 74.7633 86 74.7026 86C74.6419 86 74.5813 86 74.5206 86ZM80.2167 86.07C79.8807 86.07 79.5797 85.9883 79.3137 85.825C79.0524 85.657 78.8447 85.4307 78.6907 85.146C78.5367 84.8567 78.4597 84.5277 78.4597 84.159C78.4597 83.7903 78.5344 83.4637 78.6837 83.179C78.8377 82.8897 79.0454 82.6633 79.3067 82.5C79.568 82.332 79.8644 82.248 80.1957 82.248C80.3777 82.248 80.5527 82.2783 80.7207 82.339C80.8934 82.395 81.0474 82.4743 81.1827 82.577C81.318 82.675 81.423 82.7847 81.4977 82.906C81.577 83.0227 81.6167 83.1417 81.6167 83.263L81.4067 83.277V80.82H82.1277V86H81.4067V85.125H81.5467C81.5467 85.237 81.5094 85.349 81.4347 85.461C81.36 85.5683 81.2597 85.6687 81.1337 85.762C81.0124 85.8553 80.87 85.93 80.7067 85.986C80.548 86.042 80.3847 86.07 80.2167 86.07ZM80.3147 85.447C80.534 85.447 80.7277 85.391 80.8957 85.279C81.0637 85.167 81.1944 85.0153 81.2877 84.824C81.3857 84.628 81.4347 84.4063 81.4347 84.159C81.4347 83.9117 81.3857 83.6923 81.2877 83.501C81.1944 83.305 81.0637 83.151 80.8957 83.039C80.7277 82.927 80.534 82.871 80.3147 82.871C80.0954 82.871 79.9017 82.927 79.7337 83.039C79.5657 83.151 79.4327 83.305 79.3347 83.501C79.2414 83.6923 79.1947 83.9117 79.1947 84.159C79.1947 84.4063 79.2414 84.628 79.3347 84.824C79.4327 85.0153 79.5657 85.167 79.7337 85.279C79.9017 85.391 80.0954 85.447 80.3147 85.447ZM88.6031 86L87.9661 85.321L87.8541 85.195L86.6431 83.844C86.5265 83.7133 86.4145 83.5803 86.3071 83.445C86.1998 83.305 86.1041 83.1673 86.0201 83.032C85.9408 82.8967 85.8755 82.766 85.8241 82.64C85.7775 82.5093 85.7541 82.388 85.7541 82.276C85.7541 82.038 85.8148 81.8257 85.9361 81.639C86.0621 81.4477 86.2325 81.2983 86.4471 81.191C86.6665 81.0837 86.9185 81.03 87.2031 81.03C87.4131 81.03 87.6091 81.0697 87.7911 81.149C87.9731 81.2237 88.1295 81.331 88.2601 81.471C88.3955 81.6063 88.4935 81.765 88.5541 81.947L88.0081 82.297C87.9195 82.0823 87.8098 81.926 87.6791 81.828C87.5531 81.73 87.3945 81.681 87.2031 81.681C87.0585 81.681 86.9371 81.7043 86.8391 81.751C86.7411 81.793 86.6665 81.856 86.6151 81.94C86.5638 82.024 86.5381 82.129 86.5381 82.255C86.5381 82.3577 86.5661 82.472 86.6221 82.598C86.6828 82.7193 86.7575 82.843 86.8461 82.969C86.9348 83.095 87.0258 83.2117 87.1191 83.319C87.2125 83.4263 87.2941 83.5197 87.3641 83.599L88.3371 84.684L88.5401 84.908L89.5411 86H88.6031ZM86.7201 86.07C86.3888 86.07 86.0878 86 85.8171 85.86C85.5465 85.7153 85.3295 85.5263 85.1661 85.293C85.0075 85.055 84.9281 84.796 84.9281 84.516C84.9281 84.1473 85.0285 83.8277 85.2291 83.557C85.4345 83.2863 85.7331 83.0787 86.1251 82.934L86.5731 83.473C86.2745 83.5383 86.0528 83.648 85.9081 83.802C85.7635 83.9513 85.6911 84.1543 85.6911 84.411C85.6911 84.607 85.7378 84.7797 85.8311 84.929C85.9245 85.0783 86.0575 85.195 86.2301 85.279C86.4075 85.363 86.6175 85.405 86.8601 85.405C87.0701 85.405 87.2615 85.3653 87.4341 85.286C87.6115 85.202 87.7701 85.0853 87.9101 84.936C88.0501 84.7867 88.1645 84.607 88.2531 84.397C88.3465 84.187 88.4141 83.9537 88.4561 83.697H89.1001C89.0628 83.9817 88.9951 84.2453 88.8971 84.488C88.8038 84.7307 88.6848 84.95 88.5401 85.146C88.4001 85.342 88.2368 85.51 88.0501 85.65C87.8681 85.7853 87.6651 85.8903 87.4411 85.965C87.2171 86.035 86.9768 86.07 86.7201 86.07ZM16.504 95V94.3H17.295V90.8H16.504V90.1H18.842V90.8H18.051V94.3H18.842V95H16.504ZM20.3018 95V90.387H21.0228V95H20.3018ZM19.5388 92.025V91.325H21.8768V92.025H19.5388ZM23.895 95.07C23.587 95.07 23.3093 95.0163 23.062 94.909C22.8147 94.8017 22.6093 94.643 22.446 94.433L22.936 94.013C23.076 94.1763 23.2277 94.2953 23.391 94.37C23.559 94.44 23.748 94.475 23.958 94.475C24.042 94.475 24.119 94.4657 24.189 94.447C24.2637 94.4237 24.3267 94.391 24.378 94.349C24.434 94.307 24.476 94.258 24.504 94.202C24.532 94.1413 24.546 94.076 24.546 94.006C24.546 93.8847 24.5017 93.7867 24.413 93.712C24.3663 93.6793 24.2917 93.6443 24.189 93.607C24.091 93.565 23.9627 93.523 23.804 93.481C23.5333 93.411 23.3117 93.3317 23.139 93.243C22.9663 93.1543 22.8333 93.054 22.74 92.942C22.67 92.8533 22.6187 92.7577 22.586 92.655C22.5533 92.5477 22.537 92.431 22.537 92.305C22.537 92.151 22.5697 92.011 22.635 91.885C22.705 91.7543 22.7983 91.6423 22.915 91.549C23.0363 91.451 23.1763 91.3763 23.335 91.325C23.4983 91.2737 23.671 91.248 23.853 91.248C24.0257 91.248 24.196 91.2713 24.364 91.318C24.5367 91.3647 24.6953 91.4323 24.84 91.521C24.9847 91.6097 25.106 91.7147 25.204 91.836L24.791 92.291C24.7023 92.2023 24.6043 92.1253 24.497 92.06C24.3943 91.99 24.2893 91.9363 24.182 91.899C24.0747 91.8617 23.9767 91.843 23.888 91.843C23.79 91.843 23.7013 91.8523 23.622 91.871C23.5427 91.8897 23.475 91.9177 23.419 91.955C23.3677 91.9923 23.328 92.039 23.3 92.095C23.272 92.151 23.258 92.214 23.258 92.284C23.2627 92.3447 23.2767 92.403 23.3 92.459C23.328 92.5103 23.3653 92.5547 23.412 92.592C23.4633 92.6293 23.5403 92.669 23.643 92.711C23.7457 92.753 23.8763 92.7927 24.035 92.83C24.2683 92.8907 24.4597 92.9583 24.609 93.033C24.763 93.103 24.8843 93.1847 24.973 93.278C25.0663 93.3667 25.1317 93.4693 25.169 93.586C25.2063 93.7027 25.225 93.8333 25.225 93.978C25.225 94.188 25.1643 94.377 25.043 94.545C24.9263 94.7083 24.7677 94.8367 24.567 94.93C24.3663 95.0233 24.1423 95.07 23.895 95.07ZM29.2065 95.07C28.8985 95.07 28.6209 95.0163 28.3735 94.909C28.1262 94.8017 27.9209 94.643 27.7575 94.433L28.2475 94.013C28.3875 94.1763 28.5392 94.2953 28.7025 94.37C28.8705 94.44 29.0595 94.475 29.2695 94.475C29.3535 94.475 29.4305 94.4657 29.5005 94.447C29.5752 94.4237 29.6382 94.391 29.6895 94.349C29.7455 94.307 29.7875 94.258 29.8155 94.202C29.8435 94.1413 29.8575 94.076 29.8575 94.006C29.8575 93.8847 29.8132 93.7867 29.7245 93.712C29.6779 93.6793 29.6032 93.6443 29.5005 93.607C29.4025 93.565 29.2742 93.523 29.1155 93.481C28.8449 93.411 28.6232 93.3317 28.4505 93.243C28.2779 93.1543 28.1449 93.054 28.0515 92.942C27.9815 92.8533 27.9302 92.7577 27.8975 92.655C27.8649 92.5477 27.8485 92.431 27.8485 92.305C27.8485 92.151 27.8812 92.011 27.9465 91.885C28.0165 91.7543 28.1099 91.6423 28.2265 91.549C28.3479 91.451 28.4879 91.3763 28.6465 91.325C28.8099 91.2737 28.9825 91.248 29.1645 91.248C29.3372 91.248 29.5075 91.2713 29.6755 91.318C29.8482 91.3647 30.0069 91.4323 30.1515 91.521C30.2962 91.6097 30.4175 91.7147 30.5155 91.836L30.1025 92.291C30.0139 92.2023 29.9159 92.1253 29.8085 92.06C29.7059 91.99 29.6009 91.9363 29.4935 91.899C29.3862 91.8617 29.2882 91.843 29.1995 91.843C29.1015 91.843 29.0129 91.8523 28.9335 91.871C28.8542 91.8897 28.7865 91.9177 28.7305 91.955C28.6792 91.9923 28.6395 92.039 28.6115 92.095C28.5835 92.151 28.5695 92.214 28.5695 92.284C28.5742 92.3447 28.5882 92.403 28.6115 92.459C28.6395 92.5103 28.6769 92.5547 28.7235 92.592C28.7749 92.6293 28.8519 92.669 28.9545 92.711C29.0572 92.753 29.1879 92.7927 29.3465 92.83C29.5799 92.8907 29.7712 92.9583 29.9205 93.033C30.0745 93.103 30.1959 93.1847 30.2845 93.278C30.3779 93.3667 30.4432 93.4693 30.4805 93.586C30.5179 93.7027 30.5365 93.8333 30.5365 93.978C30.5365 94.188 30.4759 94.377 30.3545 94.545C30.2379 94.7083 30.0792 94.8367 29.8785 94.93C29.6779 95.0233 29.4539 95.07 29.2065 95.07ZM32.9831 95.07C32.6238 95.07 32.3018 94.9883 32.0171 94.825C31.7371 94.657 31.5155 94.4307 31.3521 94.146C31.1888 93.8567 31.1071 93.5277 31.1071 93.159C31.1071 92.7903 31.1888 92.4637 31.3521 92.179C31.5155 91.8897 31.7371 91.6633 32.0171 91.5C32.3018 91.332 32.6238 91.248 32.9831 91.248C33.3378 91.248 33.6551 91.332 33.9351 91.5C34.2198 91.6633 34.4438 91.8897 34.6071 92.179C34.7705 92.4637 34.8521 92.7903 34.8521 93.159C34.8521 93.5277 34.7705 93.8567 34.6071 94.146C34.4438 94.4307 34.2198 94.657 33.9351 94.825C33.6551 94.9883 33.3378 95.07 32.9831 95.07ZM32.9831 94.412C33.2025 94.412 33.3985 94.3583 33.5711 94.251C33.7438 94.139 33.8791 93.9897 33.9771 93.803C34.0751 93.6117 34.1218 93.397 34.1171 93.159C34.1218 92.9163 34.0751 92.7017 33.9771 92.515C33.8791 92.3237 33.7438 92.1743 33.5711 92.067C33.3985 91.9597 33.2025 91.906 32.9831 91.906C32.7638 91.906 32.5655 91.962 32.3881 92.074C32.2155 92.1813 32.0801 92.3307 31.9821 92.522C31.8841 92.7087 31.8375 92.921 31.8421 93.159C31.8375 93.397 31.8841 93.6117 31.9821 93.803C32.0801 93.9897 32.2155 94.139 32.3881 94.251C32.5655 94.3583 32.7638 94.412 32.9831 94.412ZM35.6518 95V89.82H36.3728V95H35.6518ZM38.4209 95L36.8669 91.325H37.6439L38.7639 94.076L38.6309 94.139L39.8279 91.325H40.5699L38.9389 95H38.4209ZM42.842 95.07C42.464 95.07 42.128 94.9907 41.834 94.832C41.5447 94.6687 41.316 94.447 41.148 94.167C40.9847 93.887 40.903 93.565 40.903 93.201C40.903 92.9117 40.9497 92.648 41.043 92.41C41.1364 92.172 41.2647 91.9667 41.428 91.794C41.596 91.6167 41.7944 91.4813 42.023 91.388C42.2564 91.29 42.5084 91.241 42.779 91.241C43.017 91.241 43.2387 91.2877 43.444 91.381C43.6494 91.4697 43.8267 91.5933 43.976 91.752C44.13 91.9107 44.2467 92.0997 44.326 92.319C44.41 92.5337 44.4497 92.7693 44.445 93.026L44.438 93.334H41.435L41.274 92.76H43.815L43.71 92.879V92.711C43.696 92.557 43.6447 92.4193 43.556 92.298C43.4674 92.1767 43.3554 92.081 43.22 92.011C43.0847 91.941 42.9377 91.906 42.779 91.906C42.527 91.906 42.3147 91.955 42.142 92.053C41.9694 92.1463 41.8387 92.2863 41.75 92.473C41.6614 92.655 41.617 92.8813 41.617 93.152C41.617 93.4087 41.6707 93.6327 41.778 93.824C41.8854 94.0107 42.037 94.1553 42.233 94.258C42.429 94.3607 42.6554 94.412 42.912 94.412C43.094 94.412 43.262 94.3817 43.416 94.321C43.5747 94.2603 43.745 94.1507 43.927 93.992L44.291 94.503C44.179 94.615 44.0414 94.713 43.878 94.797C43.7194 94.881 43.549 94.9487 43.367 95C43.1897 95.0467 43.0147 95.07 42.842 95.07ZM46.7616 95.07C46.4256 95.07 46.1246 94.9883 45.8586 94.825C45.5973 94.657 45.3896 94.4307 45.2356 94.146C45.0816 93.8567 45.0046 93.5277 45.0046 93.159C45.0046 92.7903 45.0793 92.4637 45.2286 92.179C45.3826 91.8897 45.5903 91.6633 45.8516 91.5C46.1129 91.332 46.4093 91.248 46.7406 91.248C46.9226 91.248 47.0976 91.2783 47.2656 91.339C47.4383 91.395 47.5923 91.4743 47.7276 91.577C47.8629 91.675 47.9679 91.7847 48.0426 91.906C48.1219 92.0227 48.1616 92.1417 48.1616 92.263L47.9516 92.277V89.82H48.6726V95H47.9516V94.125H48.0916C48.0916 94.237 48.0543 94.349 47.9796 94.461C47.9049 94.5683 47.8046 94.6687 47.6786 94.762C47.5573 94.8553 47.4149 94.93 47.2516 94.986C47.0929 95.042 46.9296 95.07 46.7616 95.07ZM46.8596 94.447C47.0789 94.447 47.2726 94.391 47.4406 94.279C47.6086 94.167 47.7393 94.0153 47.8326 93.824C47.9306 93.628 47.9796 93.4063 47.9796 93.159C47.9796 92.9117 47.9306 92.6923 47.8326 92.501C47.7393 92.305 47.6086 92.151 47.4406 92.039C47.2726 91.927 47.0789 91.871 46.8596 91.871C46.6403 91.871 46.4466 91.927 46.2786 92.039C46.1106 92.151 45.9776 92.305 45.8796 92.501C45.7863 92.6923 45.7396 92.9117 45.7396 93.159C45.7396 93.4063 45.7863 93.628 45.8796 93.824C45.9776 94.0153 46.1106 94.167 46.2786 94.279C46.4466 94.391 46.6403 94.447 46.8596 94.447ZM49.9591 95.077C49.8051 95.077 49.6861 95.0327 49.6021 94.944C49.5181 94.8507 49.4761 94.72 49.4761 94.552C49.4761 94.398 49.5205 94.272 49.6091 94.174C49.6978 94.076 49.8145 94.027 49.9591 94.027C50.1131 94.027 50.2321 94.0737 50.3161 94.167C50.4001 94.2557 50.4421 94.384 50.4421 94.552C50.4421 94.706 50.3978 94.832 50.3091 94.93C50.2205 95.028 50.1038 95.077 49.9591 95.077Z" fill="white"/>
<defs>
<clipPath id="clip0_289_695">
<rect width="42.2008" height="38.1817" fill="white" transform="translate(34.1616)"/>
</clipPath>
</defs>
</svg>
