<svg width="141" height="50" fill="none" xmlns="http://www.w3.org/2000/svg"><g clip-path="url(#a)"><path d="M0 24.382V5.58C0 3.4 2.3 2.037 4.06 3.127l16.234 9.401c1.894 1.09 1.894 3.951 0 5.041L4.059 26.97C2.3 27.924 0 26.561 0 24.382Z" fill="#8532D8"/><path d="M10.267 29c-.72 0-1.445-.2-2.105-.597a4.21 4.21 0 0 1-2.052-3.638V4.167c0-1.52.81-2.92 2.112-3.653 1.252-.705 2.717-.683 3.921.056l17.774 10.292c1.303.75 2.083 2.126 2.083 3.679s-.78 2.928-2.086 3.68l-3.161 1.831-1.048-1.834 3.165-1.832c.645-.372 1.03-1.06 1.03-1.844s-.384-1.473-1.027-1.843L11.056 2.38c-.558-.345-1.217-.353-1.809-.02-.648.365-1.036 1.04-1.036 1.806v20.599c0 .753.385 1.434 1.029 1.821.596.36 1.29.393 1.858.09l1.882-1.09 1.047 1.834-1.922 1.112a3.843 3.843 0 0 1-1.838.467Z" fill="#8532D8"/><path d="m24.412 19.99-9.586 5.537" stroke="#8532D8" stroke-width="2" stroke-miterlimit="10"/></g><path d="M52.072 13.39c-.03-4.65 3.484-7.588 7.994-7.588s8.079 2.938 8.05 7.589c-.03 4.335-3.397 7.446-8.05 7.446-4.368 0-7.965-3.052-7.994-7.446Zm12.677-.029c0-2.825-2.056-4.792-4.71-4.792s-4.624 1.884-4.624 4.792c0 2.682 2.085 4.707 4.624 4.707 2.539 0 4.71-1.91 4.71-4.707ZM42.135 20.621 36.028 6.296a.355.355 0 0 1 .326-.494h2.697c.144 0 .275.089.328.222l4.152 10.238c.12.296.537.296.657 0l4.151-10.238a.354.354 0 0 1 .329-.222h2.696c.254 0 .425.26.326.494l-6.08 14.328a.355.355 0 0 1-.325.216H42.46a.355.355 0 0 1-.325-.216v-.003ZM70.703 20.496V2.347a.34.34 0 0 1 .341-.341h2.686a.34.34 0 0 1 .342.341v9.008c0 .288.336.445.558.264l6.005-4.941a.34.34 0 0 1 .216-.078h2.787c.318 0 .462.395.222.6l-5.882 5.033a.337.337 0 0 0-.043.472l6.136 7.575a.34.34 0 0 1-.264.555h-2.75a.344.344 0 0 1-.265-.126l-5.148-6.243a.342.342 0 0 0-.496-.032l-.999.934a.337.337 0 0 0-.106.248v4.875a.34.34 0 0 1-.342.341h-2.66a.34.34 0 0 1-.341-.341l.002.005ZM86.615 20.496V2.347a.34.34 0 0 1 .342-.341h2.66a.34.34 0 0 1 .34.341v18.149a.34.34 0 0 1-.34.341h-2.66a.34.34 0 0 1-.342-.341ZM99.642 20.483v-1.986a.37.37 0 0 1 .072-.218l6.856-9.027c.176-.232.016-.573-.267-.573h-6.349a.347.347 0 0 1-.342-.355v-2.17c0-.194.153-.354.342-.354h10.394c.19 0 .342.157.342.355V8.14a.38.38 0 0 1-.072.219l-6.806 9.028c-.176.233-.016.574.27.574h6.295c.19 0 .342.158.342.355v2.17a.349.349 0 0 1-.342.354H99.983a.347.347 0 0 1-.341-.355v-.002ZM112.342 13.361c0-4.936 3.656-7.561 7.708-7.561 4.053 0 7.137 2.51 7.538 6.961.042.302.053.654.032.993a.342.342 0 0 1-.339.32l-11.369.026c-.216 0-.376.2-.334.414.446 2.14 2.459 3.554 4.446 3.554 1.58.027 3.086-.625 3.949-1.908a.342.342 0 0 1 .44-.117l1.906.974a.34.34 0 0 1 .134.485c-1.33 2.092-3.711 3.333-6.405 3.333-4.053 0-7.708-2.997-7.708-7.476l.002.002Zm11.684-1.195c.224 0 .387-.21.328-.427-.536-2.028-2.408-3.252-4.306-3.226-1.901 0-3.725 1.204-4.229 3.258a.34.34 0 0 0 .333.422l7.871-.027h.003ZM130.116 20.483V6.157c0-.194.158-.355.355-.355h2.764c.194 0 .355.158.355.355v2.015c0 .347.453.49.646.2 1.335-2.017 4.085-2.978 6.504-2.3a.357.357 0 0 1 .208.528l-1.388 2.244a.357.357 0 0 1-.42.147c-2.224-.731-5.404 1.123-5.404 4.37v7.119a.354.354 0 0 1-.355.355h-2.91a.355.355 0 0 1-.355-.355v.003ZM93.255 20.483V6.157c0-.194.153-.355.342-.355h2.66c.189 0 .341.158.341.355v14.328a.349.349 0 0 1-.342.355h-2.659a.347.347 0 0 1-.342-.355v-.002ZM93.255 3.556V.674c0-.333.355-.544.628-.376l2.507 1.44a.45.45 0 0 1 0 .775l-2.507 1.44c-.273.147-.628-.06-.628-.397ZM52.686 36v-4.9h1.995c.266 0 .506.068.721.203.22.13.394.31.525.539.13.229.196.483.196.763s-.065.534-.196.763a1.57 1.57 0 0 1-.525.553 1.324 1.324 0 0 1-.721.203h-1.239V36h-.756Zm.756-2.604h1.225c.126 0 .24-.035.343-.105a.813.813 0 0 0 .245-.287.828.828 0 0 0 .098-.399.789.789 0 0 0-.098-.392.751.751 0 0 0-.245-.28.595.595 0 0 0-.343-.105h-1.225v1.568ZM56.94 36v-3.675h.729v1.155l-.07-.28c.05-.177.137-.338.259-.483.126-.145.268-.259.427-.343a1.09 1.09 0 0 1 .728-.105c.074.014.133.03.175.049l-.19.784a1.005 1.005 0 0 0-.188-.056.709.709 0 0 0-.197-.028.895.895 0 0 0-.364.077.927.927 0 0 0-.3.203.978.978 0 0 0-.203.301.88.88 0 0 0-.078.371V36h-.727Zm4.382.07c-.379 0-.715-.08-1.009-.238a1.84 1.84 0 0 1-.686-.665 1.882 1.882 0 0 1-.245-.966c0-.29.047-.553.14-.791a1.89 1.89 0 0 1 .386-.616 1.69 1.69 0 0 1 .594-.406c.234-.098.486-.147.756-.147.238 0 .46.047.665.14.206.089.383.212.532.371.154.159.271.348.35.567.084.215.124.45.12.707l-.008.308h-3.003l-.16-.574h2.54l-.104.119v-.168a.81.81 0 0 0-.154-.413.95.95 0 0 0-.778-.392c-.252 0-.464.049-.637.147a.903.903 0 0 0-.392.42 1.545 1.545 0 0 0-.133.679c0 .257.054.48.162.672.107.187.258.331.454.434.196.103.423.154.68.154.181 0 .35-.03.503-.091.16-.06.33-.17.511-.329l.364.511c-.112.112-.25.21-.413.294a2.589 2.589 0 0 1-.51.203c-.178.047-.353.07-.526.07Zm3.611 0c-.308 0-.586-.054-.833-.161a1.548 1.548 0 0 1-.616-.476l.49-.42c.14.163.292.282.455.357.168.07.357.105.567.105.084 0 .161-.01.231-.028a.556.556 0 0 0 .19-.098.417.417 0 0 0 .125-.147.462.462 0 0 0 .042-.196.366.366 0 0 0-.133-.294 1.018 1.018 0 0 0-.224-.105 2.868 2.868 0 0 0-.385-.126c-.27-.07-.492-.15-.665-.238a1.26 1.26 0 0 1-.399-.301.903.903 0 0 1-.154-.287 1.196 1.196 0 0 1-.049-.35c0-.154.033-.294.098-.42.07-.13.163-.243.28-.336.121-.098.261-.173.42-.224.163-.051.336-.077.518-.077a1.9 1.9 0 0 1 .511.07c.173.047.331.114.476.203.145.089.266.194.364.315l-.413.455a1.565 1.565 0 0 0-.294-.231 1.342 1.342 0 0 0-.315-.161.903.903 0 0 0-.294-.056c-.098 0-.187.01-.266.028a.62.62 0 0 0-.203.084.382.382 0 0 0-.119.14.417.417 0 0 0-.042.189c.005.06.019.119.042.175a.436.436 0 0 0 .112.133c.051.037.128.077.231.119.103.042.233.082.392.119.233.06.425.128.574.203.154.07.275.152.364.245a.725.725 0 0 1 .196.308c.037.117.056.247.056.392 0 .21-.06.399-.182.567a1.184 1.184 0 0 1-.476.385c-.2.093-.425.14-.672.14Zm3.35 0c-.308 0-.586-.054-.833-.161a1.548 1.548 0 0 1-.616-.476l.49-.42c.14.163.291.282.455.357.168.07.357.105.567.105.084 0 .16-.01.23-.028a.556.556 0 0 0 .19-.098.417.417 0 0 0 .126-.147.462.462 0 0 0 .042-.196.366.366 0 0 0-.133-.294 1.018 1.018 0 0 0-.224-.105 2.868 2.868 0 0 0-.385-.126c-.271-.07-.493-.15-.665-.238a1.26 1.26 0 0 1-.4-.301.903.903 0 0 1-.153-.287 1.196 1.196 0 0 1-.05-.35c0-.154.033-.294.099-.42.07-.13.163-.243.28-.336.121-.098.261-.173.42-.224.163-.051.336-.077.518-.077a1.9 1.9 0 0 1 .51.07c.173.047.332.114.477.203.144.089.266.194.364.315l-.413.455a1.565 1.565 0 0 0-.294-.231 1.342 1.342 0 0 0-.315-.161.903.903 0 0 0-.294-.056c-.098 0-.187.01-.266.028a.62.62 0 0 0-.203.084.382.382 0 0 0-.12.14.417.417 0 0 0-.041.189c.004.06.018.119.042.175a.436.436 0 0 0 .112.133c.051.037.128.077.23.119.103.042.234.082.393.119.233.06.424.128.574.203.154.07.275.152.364.245a.725.725 0 0 1 .196.308c.037.117.056.247.056.392 0 .21-.061.399-.182.567a1.184 1.184 0 0 1-.476.385c-.201.093-.425.14-.672.14Zm2.236 1.183-.266-.322c.164-.093.297-.2.4-.322.102-.121.153-.226.153-.315a.31.31 0 0 0-.035-.14 1.063 1.063 0 0 0-.147-.182.825.825 0 0 1-.182-.224.462.462 0 0 1-.042-.196c0-.112.04-.2.12-.266a.448.448 0 0 1 .307-.105c.117 0 .222.035.315.105a.613.613 0 0 1 .224.28.928.928 0 0 1 .084.406c0 .14-.023.275-.07.406a1.37 1.37 0 0 1-.196.364 1.632 1.632 0 0 1-.294.301 1.383 1.383 0 0 1-.37.21ZM74.417 36v-4.9h2.086c.28 0 .537.07.77.21.238.135.427.322.567.56.14.233.21.497.21.791 0 .266-.07.513-.21.742-.14.229-.326.413-.56.553a1.52 1.52 0 0 1-.777.203h-1.33V36h-.756Zm2.912 0-1.246-2.212.777-.175 1.386 2.394L77.33 36Zm-2.156-2.569h1.4a.686.686 0 0 0 .364-.098.729.729 0 0 0 .252-.28.879.879 0 0 0 .091-.399.762.762 0 0 0-.119-.427.757.757 0 0 0-.322-.294.99.99 0 0 0-.462-.105h-1.204v1.603Zm5.508 2.639c-.378 0-.714-.08-1.008-.238a1.84 1.84 0 0 1-.686-.665 1.882 1.882 0 0 1-.245-.966c0-.29.047-.553.14-.791.093-.238.222-.443.385-.616.168-.177.366-.313.595-.406.233-.098.485-.147.756-.147.238 0 .46.047.665.14.205.089.383.212.532.371.154.159.27.348.35.567.084.215.124.45.119.707l-.007.308h-3.003l-.161-.574h2.54l-.104.119v-.168a.81.81 0 0 0-.154-.413.953.953 0 0 0-.777-.392c-.252 0-.464.049-.637.147a.902.902 0 0 0-.392.42 1.544 1.544 0 0 0-.133.679c0 .257.054.48.16.672.108.187.26.331.456.434.196.103.422.154.679.154.182 0 .35-.03.504-.091.159-.06.329-.17.51-.329l.365.511c-.112.112-.25.21-.413.294a2.591 2.591 0 0 1-.511.203c-.177.047-.352.07-.525.07Zm3.948 0c-.341 0-.647-.084-.918-.252a1.842 1.842 0 0 1-.636-.686 2.038 2.038 0 0 1-.231-.973c0-.36.077-.684.23-.973.16-.29.371-.518.638-.686.27-.168.576-.252.916-.252.327 0 .623.068.89.203.27.13.475.31.615.539l-.398.49a1.316 1.316 0 0 0-.287-.294 1.545 1.545 0 0 0-.371-.21 1.033 1.033 0 0 0-.379-.077c-.223 0-.424.056-.601.168a1.16 1.16 0 0 0-.413.448 1.34 1.34 0 0 0-.154.644c0 .238.053.453.16.644.108.187.25.336.428.448.177.112.373.168.588.168.126 0 .247-.021.364-.063.12-.042.238-.105.35-.189a1.78 1.78 0 0 0 .314-.308l.4.49c-.15.21-.365.383-.644.518a1.93 1.93 0 0 1-.861.203Zm3.837 0c-.36 0-.682-.082-.966-.245a1.855 1.855 0 0 1-.665-.679 1.972 1.972 0 0 1-.245-.987c0-.369.081-.695.245-.98.163-.29.385-.516.665-.679.284-.168.606-.252.966-.252.354 0 .672.084.952.252.284.163.508.39.672.679.163.285.245.611.245.98s-.082.698-.245.987a1.84 1.84 0 0 1-.672.679c-.28.163-.598.245-.952.245Zm0-.658c.219 0 .415-.054.588-.161.172-.112.308-.261.406-.448.098-.191.144-.406.14-.644a1.31 1.31 0 0 0-.14-.644 1.112 1.112 0 0 0-.406-.448 1.091 1.091 0 0 0-.588-.161 1.111 1.111 0 0 0-1.001.616 1.293 1.293 0 0 0-.14.637c-.005.238.042.453.14.644.098.187.233.336.406.448.177.107.375.161.595.161ZM91.12 36v-3.675h.728v1.155l-.07-.28c.051-.177.138-.338.26-.483.125-.145.267-.259.426-.343a1.09 1.09 0 0 1 .728-.105c.075.014.133.03.175.049l-.189.784a1.005 1.005 0 0 0-.189-.056.71.71 0 0 0-.196-.028.895.895 0 0 0-.364.077.927.927 0 0 0-.3.203.976.976 0 0 0-.28.672V36h-.729Zm4.2.07c-.337 0-.638-.082-.904-.245a1.821 1.821 0 0 1-.623-.679 2.068 2.068 0 0 1-.23-.987c0-.369.074-.695.223-.98.154-.29.362-.516.623-.679.262-.168.558-.252.89-.252.181 0 .356.03.524.091.173.056.327.135.462.238.136.098.24.208.315.329.08.117.12.236.12.357l-.21.014V30.82h.72V36h-.72v-.875h.14a.602.602 0 0 1-.113.336 1.312 1.312 0 0 1-.3.301 1.482 1.482 0 0 1-.428.224 1.462 1.462 0 0 1-.49.084Zm.097-.623c.22 0 .413-.056.581-.168a1.13 1.13 0 0 0 .392-.455c.098-.196.147-.418.147-.665 0-.247-.049-.467-.147-.658a1.12 1.12 0 0 0-.392-.462 1.023 1.023 0 0 0-.58-.168c-.22 0-.414.056-.582.168a1.171 1.171 0 0 0-.399.462c-.093.191-.14.41-.14.658 0 .247.047.469.14.665.098.191.231.343.4.455.167.112.36.168.58.168Zm2.918 1.806-.266-.322c.163-.093.296-.2.399-.322.102-.121.154-.226.154-.315a.311.311 0 0 0-.035-.14 1.073 1.073 0 0 0-.147-.182.823.823 0 0 1-.182-.224.462.462 0 0 1-.042-.196c0-.112.04-.2.119-.266a.448.448 0 0 1 .308-.105c.116 0 .221.035.315.105a.613.613 0 0 1 .224.28.928.928 0 0 1 .084.406 1.2 1.2 0 0 1-.07.406c-.047.13-.112.252-.196.364a1.632 1.632 0 0 1-.294.301 1.384 1.384 0 0 1-.371.21Zm5.41-1.183c-.266 0-.513-.035-.742-.105a2.03 2.03 0 0 1-.616-.315 2.452 2.452 0 0 1-.49-.532l.518-.595c.229.327.448.553.658.679.21.126.46.189.749.189.177 0 .338-.028.483-.084a.838.838 0 0 0 .343-.231.502.502 0 0 0 .126-.336.672.672 0 0 0-.042-.238.563.563 0 0 0-.133-.203.881.881 0 0 0-.224-.168 1.538 1.538 0 0 0-.315-.133 2.735 2.735 0 0 0-.42-.105 3.135 3.135 0 0 1-.658-.203 1.556 1.556 0 0 1-.469-.315 1.216 1.216 0 0 1-.28-.427 1.55 1.55 0 0 1-.091-.546c0-.196.042-.378.126-.546a1.4 1.4 0 0 1 .357-.434c.154-.126.334-.222.539-.287.205-.07.427-.105.665-.105.252 0 .483.033.693.098a1.687 1.687 0 0 1 .966.763l-.532.525a1.623 1.623 0 0 0-.315-.385 1.154 1.154 0 0 0-.385-.238 1.194 1.194 0 0 0-.448-.084c-.182 0-.341.028-.476.084a.767.767 0 0 0-.322.238.559.559 0 0 0-.112.35.67.67 0 0 0 .056.273c.037.08.093.152.168.217.079.06.184.117.315.168.131.047.287.089.469.126.257.056.485.128.686.217.201.084.371.184.511.301.14.117.245.247.315.392.075.145.112.301.112.469 0 .313-.072.583-.217.812-.145.229-.35.406-.616.532a2.28 2.28 0 0 1-.952.182Zm4.389 0c-.378 0-.714-.08-1.008-.238a1.842 1.842 0 0 1-.686-.665 1.885 1.885 0 0 1-.245-.966c0-.29.047-.553.14-.791.093-.238.222-.443.385-.616.168-.177.366-.313.595-.406a1.93 1.93 0 0 1 .756-.147c.238 0 .46.047.665.14.205.089.383.212.532.371.154.159.271.348.35.567.084.215.124.45.119.707l-.007.308h-3.003l-.161-.574h2.541l-.105.119v-.168a.808.808 0 0 0-.154-.413.958.958 0 0 0-.777-.392c-.252 0-.464.049-.637.147a.902.902 0 0 0-.392.42 1.54 1.54 0 0 0-.133.679c0 .257.054.48.161.672.107.187.259.331.455.434.196.103.422.154.679.154.182 0 .35-.03.504-.091.159-.06.329-.17.511-.329l.364.511c-.112.112-.25.21-.413.294a2.599 2.599 0 0 1-.511.203c-.177.047-.352.07-.525.07Zm2.387-.07v-3.675h.721v.756l-.126.084a1.02 1.02 0 0 1 .273-.448c.135-.14.296-.252.483-.336.186-.089.378-.133.574-.133.28 0 .513.056.7.168a.996.996 0 0 1 .42.497c.093.224.14.506.14.847V36h-.721v-2.191c0-.21-.028-.383-.084-.518a.558.558 0 0 0-.259-.301.79.79 0 0 0-.434-.084c-.14 0-.269.023-.385.07a.919.919 0 0 0-.308.182.932.932 0 0 0-.203.28.797.797 0 0 0-.07.336V36H110.521Zm5.696.07c-.336 0-.637-.082-.903-.245a1.816 1.816 0 0 1-.623-.679 2.068 2.068 0 0 1-.231-.987c0-.369.074-.695.224-.98.154-.29.361-.516.623-.679.261-.168.557-.252.889-.252.182 0 .357.03.525.091.172.056.326.135.462.238.135.098.24.208.315.329a.631.631 0 0 1 .119.357l-.21.014V30.82h.721V36h-.721v-.875h.14a.607.607 0 0 1-.112.336 1.32 1.32 0 0 1-.301.301 1.497 1.497 0 0 1-.427.224 1.463 1.463 0 0 1-.49.084Zm.098-.623c.219 0 .413-.056.581-.168.168-.112.298-.264.392-.455.098-.196.147-.418.147-.665 0-.247-.049-.467-.147-.658a1.125 1.125 0 0 0-.392-.462 1.024 1.024 0 0 0-.581-.168c-.22 0-.413.056-.581.168a1.171 1.171 0 0 0-.399.462c-.094.191-.14.41-.14.658 0 .247.046.469.14.665.098.191.231.343.399.455.168.112.361.168.581.168Zm8.288.553-.637-.679-.112-.126-1.211-1.351a8.549 8.549 0 0 1-.336-.399 5.203 5.203 0 0 1-.287-.413 3.066 3.066 0 0 1-.196-.392 1.08 1.08 0 0 1-.07-.364c0-.238.061-.45.182-.637.126-.191.296-.34.511-.448.219-.107.471-.161.756-.161.21 0 .406.04.588.119.182.075.338.182.469.322.135.135.233.294.294.476l-.546.35c-.089-.215-.198-.371-.329-.469a.753.753 0 0 0-.476-.147.842.842 0 0 0-.364.07.47.47 0 0 0-.224.189.598.598 0 0 0-.077.315c0 .103.028.217.084.343.061.121.135.245.224.371s.18.243.273.35l.245.28.973 1.085.203.224L125.541 36h-.938Zm-1.883.07c-.331 0-.632-.07-.903-.21a1.829 1.829 0 0 1-.651-.567 1.37 1.37 0 0 1-.238-.777c0-.369.1-.688.301-.959.205-.27.504-.478.896-.623l.448.539c-.299.065-.52.175-.665.329-.145.15-.217.352-.217.609a.96.96 0 0 0 .14.518.94.94 0 0 0 .399.35c.177.084.387.126.63.126.21 0 .401-.04.574-.119.177-.084.336-.2.476-.35.14-.15.254-.329.343-.539.093-.21.161-.443.203-.7h.644a3.209 3.209 0 0 1-.203.791 2.76 2.76 0 0 1-.357.658 2.157 2.157 0 0 1-1.099.819c-.224.07-.464.105-.721.105ZM52.504 45v-.7h.791v-3.5h-.791v-.7h2.338v.7h-.791v3.5h.791v.7h-2.338Zm3.798 0v-4.613h.72V45h-.72Zm-.763-2.975v-.7h2.338v.7h-2.338Zm4.356 3.045c-.308 0-.586-.054-.833-.161a1.548 1.548 0 0 1-.616-.476l.49-.42c.14.163.292.282.455.357.168.07.357.105.567.105.084 0 .161-.01.231-.028a.556.556 0 0 0 .189-.098.417.417 0 0 0 .126-.147.462.462 0 0 0 .042-.196.366.366 0 0 0-.133-.294 1.018 1.018 0 0 0-.224-.105 2.868 2.868 0 0 0-.385-.126c-.27-.07-.492-.15-.665-.238a1.26 1.26 0 0 1-.399-.301.903.903 0 0 1-.154-.287 1.196 1.196 0 0 1-.049-.35c0-.154.033-.294.098-.42.07-.13.163-.243.28-.336.121-.098.261-.173.42-.224.163-.051.336-.077.518-.077a1.9 1.9 0 0 1 .511.07c.173.047.331.114.476.203.145.089.266.194.364.315l-.413.455a1.565 1.565 0 0 0-.294-.231 1.342 1.342 0 0 0-.315-.161.903.903 0 0 0-.294-.056c-.098 0-.187.01-.266.028a.62.62 0 0 0-.203.084.382.382 0 0 0-.119.14.417.417 0 0 0-.042.189c.005.06.019.119.042.175a.436.436 0 0 0 .112.133c.051.037.128.077.231.119.103.042.233.082.392.119.233.06.425.128.574.203.154.07.275.152.364.245a.725.725 0 0 1 .196.308c.037.117.056.247.056.392 0 .21-.06.399-.182.567a1.184 1.184 0 0 1-.476.385c-.2.093-.425.14-.672.14Zm5.312 0c-.308 0-.586-.054-.833-.161a1.549 1.549 0 0 1-.616-.476l.49-.42c.14.163.291.282.454.357.169.07.358.105.567.105.084 0 .161-.01.231-.028a.556.556 0 0 0 .19-.098.417.417 0 0 0 .126-.147.462.462 0 0 0 .041-.196.366.366 0 0 0-.132-.294 1.016 1.016 0 0 0-.224-.105 2.868 2.868 0 0 0-.386-.126c-.27-.07-.492-.15-.664-.238a1.262 1.262 0 0 1-.4-.301.903.903 0 0 1-.154-.287 1.2 1.2 0 0 1-.048-.35c0-.154.032-.294.098-.42.07-.13.163-.243.28-.336.12-.098.26-.173.42-.224a1.72 1.72 0 0 1 .517-.077 1.9 1.9 0 0 1 .511.07c.173.047.332.114.477.203.144.089.266.194.364.315l-.413.455a1.558 1.558 0 0 0-.294-.231 1.338 1.338 0 0 0-.316-.161.903.903 0 0 0-.293-.056c-.099 0-.187.01-.267.028a.62.62 0 0 0-.203.084.382.382 0 0 0-.118.14.417.417 0 0 0-.042.189c.004.06.018.119.042.175a.438.438 0 0 0 .112.133c.05.037.128.077.23.119.103.042.234.082.393.119.233.06.424.128.574.203.153.07.275.152.363.245a.724.724 0 0 1 .197.308c.037.117.056.247.056.392 0 .21-.061.399-.183.567a1.184 1.184 0 0 1-.475.385c-.201.093-.425.14-.672.14Zm3.776 0c-.36 0-.681-.082-.966-.245a1.856 1.856 0 0 1-.665-.679 1.973 1.973 0 0 1-.245-.987c0-.369.082-.695.245-.98.163-.29.385-.516.665-.679.285-.168.607-.252.966-.252.355 0 .672.084.952.252.285.163.509.39.672.679.163.285.245.611.245.98s-.082.698-.245.987a1.838 1.838 0 0 1-.672.679c-.28.163-.597.245-.952.245Zm0-.658c.22 0 .415-.054.588-.161.173-.112.308-.261.406-.448.098-.191.145-.406.14-.644a1.31 1.31 0 0 0-.14-.644 1.111 1.111 0 0 0-.406-.448 1.09 1.09 0 0 0-.588-.161 1.112 1.112 0 0 0-1.001.616 1.294 1.294 0 0 0-.14.637c-.004.238.042.453.14.644.098.187.234.336.406.448.177.107.376.161.595.161Zm2.669.588v-5.18h.72V45h-.72Zm2.769 0-1.554-3.675h.777l1.12 2.751-.133.063 1.197-2.814h.742L74.939 45h-.518Zm4.421.07c-.378 0-.714-.08-1.008-.238a1.84 1.84 0 0 1-.686-.665 1.882 1.882 0 0 1-.245-.966c0-.29.047-.553.14-.791a1.89 1.89 0 0 1 .385-.616 1.69 1.69 0 0 1 .595-.406c.233-.098.485-.147.756-.147.238 0 .46.047.665.14.205.089.383.212.532.371.154.159.27.348.35.567.084.215.124.45.119.707l-.007.308h-3.003l-.161-.574h2.541l-.105.119v-.168a.81.81 0 0 0-.154-.413.95.95 0 0 0-.777-.392c-.252 0-.464.049-.637.147a.903.903 0 0 0-.392.42 1.545 1.545 0 0 0-.133.679c0 .257.054.48.161.672.107.187.259.331.455.434.196.103.422.154.679.154.182 0 .35-.03.504-.091.159-.06.329-.17.511-.329l.364.511c-.112.112-.25.21-.413.294a2.589 2.589 0 0 1-.511.203c-.177.047-.352.07-.525.07Zm3.92 0c-.336 0-.637-.082-.903-.245a1.821 1.821 0 0 1-.623-.679 2.068 2.068 0 0 1-.231-.987c0-.369.074-.695.224-.98.154-.29.361-.516.623-.679.26-.168.557-.252.889-.252.182 0 .357.03.525.091.172.056.326.135.462.238.135.098.24.208.315.329.079.117.119.236.119.357l-.21.014V39.82h.72V45h-.72v-.875h.14a.602.602 0 0 1-.112.336 1.314 1.314 0 0 1-.301.301 1.484 1.484 0 0 1-.427.224 1.462 1.462 0 0 1-.49.084Zm.098-.623c.219 0 .413-.056.58-.168a1.13 1.13 0 0 0 .393-.455c.098-.196.147-.418.147-.665 0-.247-.05-.467-.147-.658a1.12 1.12 0 0 0-.392-.462 1.023 1.023 0 0 0-.581-.168c-.22 0-.413.056-.581.168a1.171 1.171 0 0 0-.4.462c-.093.191-.14.41-.14.658 0 .247.047.469.14.665.099.191.232.343.4.455.168.112.361.168.58.168Zm3.1.63c-.155 0-.274-.044-.358-.133-.084-.093-.126-.224-.126-.392 0-.154.044-.28.133-.378a.45.45 0 0 1 .35-.147c.154 0 .273.047.357.14.084.089.126.217.126.385 0 .154-.044.28-.133.378a.45.45 0 0 1-.35.147Z" fill="#000"/><defs><clipPath id="a"><path fill="#fff" d="M0 0h32v29H0z"/></clipPath></defs></svg>