<svg width="178" height="44" fill="none" xmlns="http://www.w3.org/2000/svg"><path d="M48.063 16.647 25.369 3.535a1.386 1.386 0 0 0-1.895.511 1.397 1.397 0 0 0 .512 1.904l22.697 13.112c1.056.608 1.685 1.732 1.685 3.01 0 1.279-.629 2.406-1.688 3.014L19.446 40.82c-.94.502-2.086.448-3.071-.138a3.45 3.45 0 0 1-1.685-2.978V32.9c6.686-.707 11.9-6.385 11.906-13.287a1.35 1.35 0 0 0-1.329-1.353c-.745-.009-1.361.629-1.364 1.378-.012 5.92-4.834 10.709-10.748 10.633-5.756-.075-10.467-4.965-10.467-10.75v-4.241h2.72v3.494c.006 4.373 3.532 7.916 7.884 7.922 4.355-.006 7.88-3.552 7.884-7.928V8.013C21.185 3.69 17.764.104 13.463.017 9.036-.07 5.417 3.508 5.417 7.935v4.634H1.344A1.35 1.35 0 0 0 0 13.923v5.686c.012 6.908 5.229 12.589 11.921 13.287V37.7a6.209 6.209 0 0 0 3.035 5.368 6.032 6.032 0 0 0 3.11.882c.934 0 1.865-.229 2.712-.686l.018-.01 27.267-15.751c1.93-1.11 3.082-3.14 3.082-5.432 0-2.291-1.152-4.321-3.08-5.428l-.002.003ZM8.11 7.944c0-2.878 2.326-5.212 5.19-5.215v-.006c2.865.003 5.187 2.337 5.19 5.215v10.775c0 2.884-2.302 5.263-5.172 5.275-2.873.01-5.208-2.33-5.208-5.215V7.944Z" fill="#8532D8"/><path d="M59.723 25.687 52.067 7.634a.447.447 0 0 1 .41-.622h3.38a.45.45 0 0 1 .412.28l5.205 12.9c.15.374.674.374.824 0l5.204-12.9a.446.446 0 0 1 .413-.28h3.383c.317 0 .532.328.41.62l-7.62 18.052a.441.441 0 0 1-.41.27h-3.541a.453.453 0 0 1-.41-.27l-.004.003ZM71.304 16.575c-.036-5.861 4.363-9.563 10.017-9.563 5.654 0 10.126 3.702 10.09 9.563-.036 5.464-4.26 9.383-10.09 9.383-5.474 0-9.981-3.846-10.017-9.383Zm15.884-.036c0-3.558-2.577-6.039-5.906-6.039-3.328 0-5.797 2.373-5.797 6.039 0 3.38 2.613 5.933 5.797 5.933 3.185 0 5.906-2.409 5.906-5.933ZM93.901 25.528V2.66c0-.237.192-.43.428-.43h3.367c.237 0 .428.193.428.43v11.353c0 .364.42.562.7.33l7.528-6.225a.435.435 0 0 1 .273-.099h3.493c.398 0 .58.496.278.755l-7.372 6.342a.427.427 0 0 0-.054.596l7.689 9.545a.43.43 0 0 1-.332.7h-3.448a.422.422 0 0 1-.329-.156l-6.453-7.867a.424.424 0 0 0-.623-.039l-1.25 1.18a.429.429 0 0 0-.136.312v6.144c0 .237-.191.43-.428.43h-3.33a.429.429 0 0 1-.429-.43v-.003ZM113.218 25.528V2.66a.43.43 0 0 1 .428-.43h3.332a.43.43 0 0 1 .428.43v22.87a.43.43 0 0 1-.428.43h-3.332a.43.43 0 0 1-.428-.43v-.002ZM127.414 25.51v-2.5c0-.099.033-.198.093-.276l8.593-11.377c.222-.291.021-.721-.335-.721h-7.959a.436.436 0 0 1-.428-.445V7.46c0-.247.192-.445.428-.445h13.029c.237 0 .428.198.428.445v2.502c0 .1-.033.195-.09.277l-8.527 11.376c-.218.292-.021.722.335.722h7.89c.237 0 .428.198.428.445v2.73a.436.436 0 0 1-.428.446h-13.029a.437.437 0 0 1-.428-.445v-.003ZM142.709 16.539c0-6.22 4.579-9.527 9.661-9.527 5.083 0 8.947 3.163 9.447 8.772.053.382.068.824.038 1.251a.431.431 0 0 1-.425.406l-14.249.033a.432.432 0 0 0-.42.52c.557 2.698 3.08 4.478 5.574 4.478 1.981.033 3.867-.788 4.95-2.402a.431.431 0 0 1 .554-.15l2.391 1.226a.428.428 0 0 1 .168.61c-1.667 2.635-4.651 4.202-8.028 4.202-5.082 0-9.661-3.774-9.661-9.42Zm14.645-1.51a.43.43 0 0 0 .413-.538c-.671-2.556-3.02-4.099-5.397-4.066-2.382 0-4.669 1.516-5.297 4.105a.43.43 0 0 0 .416.532l9.865-.033ZM164.358 25.51V7.457c0-.247.197-.445.443-.445h3.463c.245 0 .443.198.443.445v2.538c0 .44.568.62.811.253 1.673-2.542 5.121-3.754 8.153-2.9a.45.45 0 0 1 .26.668l-1.742 2.827a.447.447 0 0 1-.524.187c-2.786-.92-6.773 1.413-6.773 5.509v8.97a.443.443 0 0 1-.443.446h-3.648a.443.443 0 0 1-.443-.445ZM120.288 25.51V7.457c0-.247.191-.445.428-.445h3.331c.237 0 .428.198.428.445V25.51a.436.436 0 0 1-.428.445h-3.331a.436.436 0 0 1-.428-.445Z" fill="#1D1C1A"/><path d="M120.288 4.182V.549c0-.421.446-.686.787-.475l3.143 1.816a.568.568 0 0 1 0 .975l-3.143 1.816c-.341.184-.787-.078-.787-.5Z" fill="#8532D8"/><path d="M81.513 41.996v-.911h1.026v-4.56h-1.026v-.91h3.032v.91h-1.027v4.56h1.027v.91h-3.032ZM85.449 38.122v-.91h3.032v.91h-3.032Zm.99 3.874v-6.009h.934v6.009h-.934ZM89.205 37.665l-.344-.418c.236-.108.428-.234.58-.373.15-.138.228-.261.228-.364a.291.291 0 0 0-.099-.213 1.957 1.957 0 0 0-.182-.16 1.283 1.283 0 0 1-.267-.273.433.433 0 0 1-.069-.229c0-.144.051-.261.156-.352a.595.595 0 0 1 .398-.132c.162 0 .323.045.458.132a.944.944 0 0 1 .323.361c.078.154.117.331.117.539 0 .16-.033.313-.099.466a1.599 1.599 0 0 1-.275.427 1.978 1.978 0 0 1-.413.355 1.963 1.963 0 0 1-.509.237l-.003-.003ZM93.108 42.09c-.398 0-.76-.07-1.08-.212a2.029 2.029 0 0 1-.8-.619l.635-.547c.182.213.38.367.596.46.215.093.457.141.73.141.108 0 .21-.015.305-.042a.726.726 0 0 0 .246-.123.55.55 0 0 0 .212-.445.468.468 0 0 0-.174-.382 1.454 1.454 0 0 0-.284-.142 4.898 4.898 0 0 0-.503-.159 4.276 4.276 0 0 1-.862-.31 1.654 1.654 0 0 1-.518-.39 1.156 1.156 0 0 1-.2-.38 1.52 1.52 0 0 1-.063-.45c0-.202.045-.386.132-.551.087-.168.21-.313.362-.44.156-.122.335-.219.545-.285.21-.066.43-.099.667-.099.225 0 .446.03.668.09.221.06.425.15.613.265.189.114.344.252.473.409l-.536.592a2.34 2.34 0 0 0-.377-.306 1.95 1.95 0 0 0-.413-.205 1.184 1.184 0 0 0-.38-.072c-.126 0-.242.012-.344.036a.749.749 0 0 0-.258.108.469.469 0 0 0-.158.184.553.553 0 0 0-.054.246.63.63 0 0 0 .06.223c.033.069.08.13.14.177.066.048.168.1.3.157.131.054.302.105.508.156.303.078.551.165.749.259.197.093.353.201.467.324.12.115.206.25.254.4a1.7 1.7 0 0 1 .072.512c0 .273-.078.517-.23.733a1.548 1.548 0 0 1-.623.506c-.26.12-.55.183-.871.183l-.006-.003ZM98.008 38.122v-.91h3.032v.91h-3.032Zm.99 3.874v-6.009h.934v6.009h-.934ZM101.893 41.996V35.25h.933v2.945l-.164.108a1.39 1.39 0 0 1 .353-.59c.177-.18.383-.324.626-.439.242-.11.49-.168.745-.168.362 0 .664.072.907.213.242.142.422.361.544.653.12.292.183.659.183 1.104v2.917h-.934v-2.854c0-.274-.036-.5-.108-.68a.732.732 0 0 0-.335-.39 1.048 1.048 0 0 0-.562-.106c-.183 0-.348.03-.5.087a1.214 1.214 0 0 0-.395.24 1.122 1.122 0 0 0-.264.362 1.045 1.045 0 0 0-.096.442v2.899h-.933v.003ZM109.124 42.089c-.392 0-.751-.108-1.075-.328a2.35 2.35 0 0 1-.775-.893 2.745 2.745 0 0 1-.29-1.275c0-.472.099-.908.296-1.281a2.3 2.3 0 0 1 .799-.881 2.06 2.06 0 0 1 1.129-.32c.248 0 .476.037.679.11.207.071.386.174.539.306.155.13.281.28.38.451.099.172.162.352.185.547l-.209-.072v-1.239h.943v4.788h-.943v-1.14L111 40.8c-.035.165-.11.325-.221.478a1.806 1.806 0 0 1-.425.415c-.174.12-.362.22-.572.292a2 2 0 0 1-.658.108v-.003Zm.245-.866c.285 0 .536-.07.754-.21a1.41 1.41 0 0 0 .512-.581c.123-.247.186-.526.186-.842a1.8 1.8 0 0 0-.186-.83 1.455 1.455 0 0 0-.512-.575 1.378 1.378 0 0 0-.754-.21 1.3 1.3 0 0 0-.739.21c-.216.142-.383.331-.509.575-.123.244-.185.52-.185.83 0 .31.062.598.185.842.123.247.293.44.509.58.215.142.461.21.739.21ZM112.635 38.122v-.91h3.032v.91h-3.032Zm.987 3.874v-6.009h.934v6.009h-.934ZM120.647 42.09c-.398 0-.76-.07-1.08-.212a2.03 2.03 0 0 1-.8-.619l.635-.547c.183.213.38.367.596.46.215.093.458.141.73.141.108 0 .209-.015.305-.042a.73.73 0 0 0 .246-.123.56.56 0 0 0 .158-.196.574.574 0 0 0 .054-.25.47.47 0 0 0-.173-.381 1.461 1.461 0 0 0-.285-.142 4.893 4.893 0 0 0-.503-.159 4.29 4.29 0 0 1-.862-.31 1.645 1.645 0 0 1-.517-.39 1.153 1.153 0 0 1-.201-.38 1.517 1.517 0 0 1-.063-.45c0-.202.045-.386.132-.551.087-.168.209-.313.362-.44.156-.122.335-.219.545-.285.209-.066.431-.099.667-.099.225 0 .446.03.668.09.221.06.425.15.613.265.189.114.344.252.473.409l-.536.592a2.29 2.29 0 0 0-.377-.306 1.929 1.929 0 0 0-.413-.205 1.179 1.179 0 0 0-.38-.072c-.126 0-.242.012-.344.036a.752.752 0 0 0-.258.108.474.474 0 0 0-.158.184.551.551 0 0 0-.054.246.629.629 0 0 0 .06.223c.033.069.081.13.141.177.065.048.167.1.299.157.132.054.302.105.509.156.302.078.55.165.748.259.197.093.353.201.467.324.12.115.206.25.254.4.048.154.072.322.072.512 0 .273-.078.517-.23.733a1.555 1.555 0 0 1-.623.506c-.26.12-.551.183-.871.183l-.006-.003ZM124.014 36.153c-.2 0-.353-.051-.464-.157-.107-.102-.164-.25-.164-.439 0-.177.057-.319.167-.427a.63.63 0 0 1 .458-.165c.195 0 .353.05.464.156.108.102.165.25.165.44a.57.57 0 0 1-.168.426.628.628 0 0 1-.458.166Zm-.455 5.843v-4.788h.934v4.788h-.934ZM125.909 41.996v-4.788h.943v1.023l-.174.108c.048-.16.126-.31.231-.457.104-.145.236-.274.389-.388.155-.111.32-.202.499-.268a1.784 1.784 0 0 1 1.267.036c.206.09.374.229.508.41.132.183.231.408.291.682l-.147-.036.063-.157a1.63 1.63 0 0 1 .275-.397c.117-.123.252-.234.404-.333.15-.096.312-.175.482-.229.171-.054.335-.081.5-.081.356 0 .653.072.886.22.233.144.407.366.527.664.116.298.176.668.176 1.113v2.872h-.942v-2.818c0-.274-.036-.496-.105-.67a.762.762 0 0 0-.314-.389 1.028 1.028 0 0 0-.536-.126c-.171 0-.329.03-.476.087a1.17 1.17 0 0 0-.386.24 1.094 1.094 0 0 0-.255.362 1.11 1.11 0 0 0-.089.45v2.864h-.943v-2.836c0-.25-.036-.46-.108-.635a.85.85 0 0 0-.317-.397.92.92 0 0 0-.509-.135c-.171 0-.326.03-.473.087a1.146 1.146 0 0 0-.635.593 1.105 1.105 0 0 0-.089.442v2.88h-.943v.007ZM134.283 44.002v-6.794h.943v1.095l-.143-.081a.999.999 0 0 1 .308-.524 1.98 1.98 0 0 1 .622-.409c.246-.105.497-.159.758-.159.428 0 .811.105 1.143.319.332.213.596.505.79.875.195.37.291.797.291 1.275 0 .478-.096.9-.285 1.272a2.24 2.24 0 0 1-.784.884 2.012 2.012 0 0 1-1.125.325c-.279 0-.548-.057-.809-.168a2.115 2.115 0 0 1-.661-.434c-.183-.177-.293-.357-.335-.547l.236-.126v3.2h-.943l-.006-.003Zm2.359-2.788c.278 0 .527-.07.745-.21.219-.139.389-.331.518-.575.126-.244.192-.52.192-.83 0-.31-.063-.583-.186-.824a1.38 1.38 0 0 0-1.266-.779c-.284 0-.536.07-.754.205a1.46 1.46 0 0 0-.518.568c-.126.244-.192.52-.192.83 0 .31.063.586.192.83.126.244.299.436.518.574.218.142.47.21.754.21h-.003ZM140.027 41.996V35.25h.934v6.746h-.934ZM144.418 42.09c-.491 0-.925-.106-1.302-.317a2.337 2.337 0 0 1-.889-.86 2.43 2.43 0 0 1-.323-1.257c0-.376.06-.722.182-1.031.12-.31.288-.58.503-.806a2.29 2.29 0 0 1 .772-.53c.3-.123.626-.186.976-.186a2.116 2.116 0 0 1 1.556.665c.198.207.348.45.455.733.105.283.156.593.15.927l-.009.4h-3.894l-.209-.75h3.292l-.135.157v-.22a1.043 1.043 0 0 0-.2-.538 1.217 1.217 0 0 0-1.006-.508c-.326 0-.601.063-.826.187a1.206 1.206 0 0 0-.509.547c-.114.24-.173.535-.173.89s.068.625.209.872a1.4 1.4 0 0 0 .59.568c.254.133.547.202.88.202.236 0 .455-.04.658-.117.204-.079.422-.223.659-.427l.473.664a2.243 2.243 0 0 1-.53.382c-.21.108-.431.196-.662.259a2.611 2.611 0 0 1-.685.096l-.003-.003ZM147.896 42.098c-.201 0-.353-.06-.464-.177-.108-.118-.165-.286-.165-.506 0-.201.057-.364.174-.493a.586.586 0 0 1 .455-.192c.2 0 .353.06.464.177.108.118.164.286.164.505a.702.702 0 0 1-.173.494.587.587 0 0 1-.455.192Z" fill="#000"/></svg>