<svg width="141" height="50" viewBox="0 0 141 50" fill="none" xmlns="http://www.w3.org/2000/svg">
    <g clip-path="url(#clip0_302_5612)">
        <path
            d="M0 24.3822V5.57941C0 3.39955 2.29993 2.03697 4.05906 3.12689L20.2939 12.528C22.1877 13.6179 22.1877 16.4794 20.2939 17.5693L4.05906 26.9704C2.29993 27.924 0 26.5614 0 24.3815V24.3822Z"
            fill="#8532D8" />
        <path
            d="M10.267 29C9.54782 29 8.82196 28.8005 8.16188 28.403C6.87721 27.6303 6.10995 26.2703 6.10995 24.7652V4.16711C6.10995 2.64707 6.91934 1.24761 8.22175 0.514385C9.4739 -0.190553 10.9389 -0.168966 12.143 0.570215L29.917 10.8622C31.2202 11.6125 32 12.9882 32 14.541C32 16.0938 31.2202 17.4694 29.9141 18.2212L26.7527 20.0524L25.7053 18.2182L28.8696 16.3856C29.5149 16.0141 29.8993 15.3255 29.8993 14.5417C29.8993 13.7579 29.5157 13.0685 28.8726 12.6986L11.0565 2.38132C10.4984 2.03592 9.83905 2.02848 9.24698 2.36122C8.59873 2.72597 8.2114 3.40114 8.2114 4.16711V24.7659C8.2114 25.5192 8.59577 26.1996 9.23959 26.5874C9.83609 26.9462 10.5294 26.9797 11.0979 26.6768L12.9798 25.587L14.0272 27.4212L12.1053 28.5333C11.5303 28.8452 10.9012 29 10.267 29Z"
            fill="#8532D8" />
        <path d="M24.4117 19.9906L14.8262 25.5267" stroke="#8532D8" stroke-width="2" stroke-miterlimit="10" />
    </g>
    <path
        d="M52.0719 13.3907C52.0425 8.74011 55.5561 5.80249 60.0656 5.80249C64.5751 5.80249 68.1448 8.74011 68.1154 13.3907C68.086 17.7264 64.7193 20.8374 60.0656 20.8374C55.6977 20.8374 52.1013 17.7851 52.0719 13.3907ZM64.7486 13.3613C64.7486 10.5358 62.6928 8.56935 60.0389 8.56935C57.385 8.56935 55.4146 10.453 55.4146 13.3613C55.4146 16.0428 57.4998 18.0679 60.0389 18.0679C62.578 18.0679 64.7486 16.1575 64.7486 13.3613Z"
        fill="black" />
    <path
        d="M42.1345 20.6213L36.0284 6.2961C35.9296 6.0613 36.1005 5.80249 36.3541 5.80249H39.0508C39.1949 5.80249 39.3258 5.89054 39.3792 6.02395L43.5309 16.2616C43.651 16.5577 44.0675 16.5577 44.1877 16.2616L48.3394 6.02395C48.3928 5.89054 48.5236 5.80249 48.6678 5.80249H51.3644C51.618 5.80249 51.7889 6.0613 51.6901 6.2961L45.6107 20.624C45.5547 20.7547 45.4265 20.8401 45.285 20.8401H42.4602C42.3187 20.8401 42.1906 20.7547 42.1345 20.624V20.6213Z"
        fill="black" />
    <path
        d="M70.7025 20.4959V2.34723C70.7025 2.15779 70.8547 2.00571 71.0443 2.00571H73.7302C73.9198 2.00571 74.072 2.15779 74.072 2.34723V11.3548C74.072 11.643 74.4084 11.8004 74.63 11.619L80.6346 6.67761C80.696 6.62691 80.7734 6.60023 80.8509 6.60023H83.6383C83.956 6.60023 84.1002 6.99512 83.8599 7.20056L77.978 12.2327C77.8365 12.3527 77.8179 12.5635 77.9353 12.7049L84.0708 20.2798C84.2523 20.5039 84.0921 20.8347 83.8065 20.8347H81.0565C80.955 20.8347 80.8589 20.7894 80.7921 20.7093L75.6445 14.4659C75.5191 14.3138 75.2921 14.3005 75.1479 14.4339L74.1494 15.3677C74.08 15.4318 74.0426 15.5225 74.0426 15.6159V20.4905C74.0426 20.68 73.8904 20.8321 73.7009 20.8321H71.0416C70.8521 20.8321 70.6999 20.68 70.6999 20.4905L70.7025 20.4959Z"
        fill="black" />
    <path
        d="M86.6152 20.4959V2.34723C86.6152 2.15779 86.7674 2.00571 86.957 2.00571H89.6162C89.8058 2.00571 89.9579 2.15779 89.9579 2.34723V20.4959C89.9579 20.6853 89.8058 20.8374 89.6162 20.8374H86.957C86.7674 20.8374 86.6152 20.6853 86.6152 20.4959Z"
        fill="black" />
    <path
        d="M99.6417 20.4825V18.4975C99.6417 18.4174 99.6684 18.34 99.7138 18.2787L106.57 9.25237C106.746 9.02024 106.586 8.67872 106.303 8.67872H99.9541C99.7645 8.67872 99.6123 8.5213 99.6123 8.32386V6.15467C99.6123 5.95989 99.7645 5.7998 99.9541 5.7998H110.348C110.538 5.7998 110.69 5.95722 110.69 6.15467V8.13976C110.69 8.2198 110.663 8.29451 110.618 8.35855L103.812 17.3875C103.636 17.6196 103.796 17.9612 104.082 17.9612H110.377C110.567 17.9612 110.719 18.1186 110.719 18.316V20.4852C110.719 20.68 110.567 20.8401 110.377 20.8401H99.9834C99.7939 20.8401 99.6417 20.6827 99.6417 20.4852V20.4825Z"
        fill="black" />
    <path
        d="M112.342 13.3613C112.342 8.42525 115.998 5.7998 120.05 5.7998C124.103 5.7998 127.187 8.31052 127.588 12.761C127.63 13.0625 127.641 13.4147 127.62 13.7535C127.609 13.9323 127.459 14.0737 127.281 14.0737L115.912 14.1004C115.696 14.1004 115.536 14.3005 115.578 14.5139C116.024 16.6538 118.037 18.0679 120.024 18.0679C121.604 18.0946 123.11 17.4435 123.973 16.1602C124.071 16.0161 124.258 15.9627 124.413 16.0428L126.319 17.0166C126.498 17.1074 126.562 17.3341 126.453 17.5022C125.123 19.5941 122.742 20.8347 120.048 20.8347C115.995 20.8347 112.34 17.8384 112.34 13.3586L112.342 13.3613ZM124.026 12.166C124.25 12.166 124.413 11.9552 124.354 11.7391C123.818 9.71129 121.946 8.48662 120.048 8.5133C118.147 8.5133 116.323 9.71663 115.819 11.7711C115.765 11.9872 115.931 12.1953 116.152 12.1927L124.023 12.166H124.026Z"
        fill="black" />
    <path
        d="M130.116 20.4826V6.15735C130.116 5.96258 130.274 5.80249 130.471 5.80249H133.235C133.429 5.80249 133.59 5.95991 133.59 6.15735V8.17179C133.59 8.51865 134.043 8.66273 134.236 8.3719C135.571 6.35479 138.321 5.39427 140.74 6.07197C140.967 6.13601 141.071 6.40015 140.948 6.60026L139.56 8.84416C139.471 8.98557 139.301 9.04427 139.14 8.99091C136.916 8.25984 133.736 10.1142 133.736 13.3613V20.4799C133.736 20.6747 133.579 20.8348 133.381 20.8348H130.471C130.276 20.8348 130.116 20.6773 130.116 20.4799V20.4826Z"
        fill="black" />
    <path
        d="M93.2553 20.4826V6.15735C93.2553 5.96258 93.4075 5.80249 93.597 5.80249H96.2563C96.4458 5.80249 96.598 5.95991 96.598 6.15735V20.4852C96.598 20.68 96.4458 20.8401 96.2563 20.8401H93.597C93.4075 20.8401 93.2553 20.6827 93.2553 20.4852V20.4826Z"
        fill="black" />
    <path
        d="M93.2553 3.55591V0.674321C93.2553 0.340804 93.6104 0.130021 93.8827 0.298114L96.3898 1.73891C96.6834 1.907 96.6834 2.34457 96.3898 2.51267L93.8827 3.95346C93.6104 4.10021 93.2553 3.89209 93.2553 3.55591Z"
        fill="black" />
    <path
        d="M52.686 36V31.1H54.681C54.947 31.1 55.1873 31.1677 55.402 31.303C55.6213 31.4337 55.7963 31.6133 55.927 31.842C56.0577 32.0707 56.123 32.325 56.123 32.605C56.123 32.885 56.0577 33.1393 55.927 33.368C55.7963 33.5967 55.6213 33.781 55.402 33.921C55.1873 34.0563 54.947 34.124 54.681 34.124H53.442V36H52.686ZM53.442 33.396H54.667C54.793 33.396 54.9073 33.361 55.01 33.291C55.1127 33.2163 55.1943 33.1207 55.255 33.004C55.3203 32.8827 55.353 32.7497 55.353 32.605C55.353 32.4603 55.3203 32.3297 55.255 32.213C55.1943 32.0963 55.1127 32.003 55.01 31.933C54.9073 31.863 54.793 31.828 54.667 31.828H53.442V33.396ZM56.9405 36V32.325H57.6685V33.48L57.5985 33.2C57.6499 33.0227 57.7362 32.8617 57.8575 32.717C57.9835 32.5723 58.1259 32.458 58.2845 32.374C58.4479 32.29 58.6159 32.248 58.7885 32.248C58.8679 32.248 58.9425 32.255 59.0125 32.269C59.0872 32.283 59.1455 32.2993 59.1875 32.318L58.9985 33.102C58.9425 33.0787 58.8795 33.06 58.8095 33.046C58.7442 33.0273 58.6789 33.018 58.6135 33.018C58.4875 33.018 58.3662 33.0437 58.2495 33.095C58.1375 33.1417 58.0372 33.2093 57.9485 33.298C57.8645 33.382 57.7969 33.4823 57.7455 33.599C57.6942 33.711 57.6685 33.8347 57.6685 33.97V36H56.9405ZM61.3215 36.07C60.9435 36.07 60.6075 35.9907 60.3135 35.832C60.0242 35.6687 59.7955 35.447 59.6275 35.167C59.4642 34.887 59.3825 34.565 59.3825 34.201C59.3825 33.9117 59.4292 33.648 59.5225 33.41C59.6159 33.172 59.7442 32.9667 59.9075 32.794C60.0755 32.6167 60.2739 32.4813 60.5025 32.388C60.7359 32.29 60.9879 32.241 61.2585 32.241C61.4965 32.241 61.7182 32.2877 61.9235 32.381C62.1289 32.4697 62.3062 32.5933 62.4555 32.752C62.6095 32.9107 62.7262 33.0997 62.8055 33.319C62.8895 33.5337 62.9292 33.7693 62.9245 34.026L62.9175 34.334H59.9145L59.7535 33.76H62.2945L62.1895 33.879V33.711C62.1755 33.557 62.1242 33.4193 62.0355 33.298C61.9469 33.1767 61.8349 33.081 61.6995 33.011C61.5642 32.941 61.4172 32.906 61.2585 32.906C61.0065 32.906 60.7942 32.955 60.6215 33.053C60.4489 33.1463 60.3182 33.2863 60.2295 33.473C60.1409 33.655 60.0965 33.8813 60.0965 34.152C60.0965 34.4087 60.1502 34.6327 60.2575 34.824C60.3649 35.0107 60.5165 35.1553 60.7125 35.258C60.9085 35.3607 61.1349 35.412 61.3915 35.412C61.5735 35.412 61.7415 35.3817 61.8955 35.321C62.0542 35.2603 62.2245 35.1507 62.4065 34.992L62.7705 35.503C62.6585 35.615 62.5209 35.713 62.3575 35.797C62.1989 35.881 62.0285 35.9487 61.8465 36C61.6692 36.0467 61.4942 36.07 61.3215 36.07ZM64.9331 36.07C64.6251 36.07 64.3474 36.0163 64.1001 35.909C63.8528 35.8017 63.6474 35.643 63.4841 35.433L63.9741 35.013C64.1141 35.1763 64.2658 35.2953 64.4291 35.37C64.5971 35.44 64.7861 35.475 64.9961 35.475C65.0801 35.475 65.1571 35.4657 65.2271 35.447C65.3018 35.4237 65.3648 35.391 65.4161 35.349C65.4721 35.307 65.5141 35.258 65.5421 35.202C65.5701 35.1413 65.5841 35.076 65.5841 35.006C65.5841 34.8847 65.5398 34.7867 65.4511 34.712C65.4044 34.6793 65.3298 34.6443 65.2271 34.607C65.1291 34.565 65.0008 34.523 64.8421 34.481C64.5714 34.411 64.3498 34.3317 64.1771 34.243C64.0044 34.1543 63.8714 34.054 63.7781 33.942C63.7081 33.8533 63.6568 33.7577 63.6241 33.655C63.5914 33.5477 63.5751 33.431 63.5751 33.305C63.5751 33.151 63.6078 33.011 63.6731 32.885C63.7431 32.7543 63.8364 32.6423 63.9531 32.549C64.0744 32.451 64.2144 32.3763 64.3731 32.325C64.5364 32.2737 64.7091 32.248 64.8911 32.248C65.0638 32.248 65.2341 32.2713 65.4021 32.318C65.5748 32.3647 65.7334 32.4323 65.8781 32.521C66.0228 32.6097 66.1441 32.7147 66.2421 32.836L65.8291 33.291C65.7404 33.2023 65.6424 33.1253 65.5351 33.06C65.4324 32.99 65.3274 32.9363 65.2201 32.899C65.1128 32.8617 65.0148 32.843 64.9261 32.843C64.8281 32.843 64.7394 32.8523 64.6601 32.871C64.5808 32.8897 64.5131 32.9177 64.4571 32.955C64.4058 32.9923 64.3661 33.039 64.3381 33.095C64.3101 33.151 64.2961 33.214 64.2961 33.284C64.3008 33.3447 64.3148 33.403 64.3381 33.459C64.3661 33.5103 64.4034 33.5547 64.4501 33.592C64.5014 33.6293 64.5784 33.669 64.6811 33.711C64.7838 33.753 64.9144 33.7927 65.0731 33.83C65.3064 33.8907 65.4978 33.9583 65.6471 34.033C65.8011 34.103 65.9224 34.1847 66.0111 34.278C66.1044 34.3667 66.1698 34.4693 66.2071 34.586C66.2444 34.7027 66.2631 34.8333 66.2631 34.978C66.2631 35.188 66.2024 35.377 66.0811 35.545C65.9644 35.7083 65.8058 35.8367 65.6051 35.93C65.4044 36.0233 65.1804 36.07 64.9331 36.07ZM68.2827 36.07C67.9747 36.07 67.697 36.0163 67.4497 35.909C67.2024 35.8017 66.997 35.643 66.8337 35.433L67.3237 35.013C67.4637 35.1763 67.6154 35.2953 67.7787 35.37C67.9467 35.44 68.1357 35.475 68.3457 35.475C68.4297 35.475 68.5067 35.4657 68.5767 35.447C68.6514 35.4237 68.7144 35.391 68.7657 35.349C68.8217 35.307 68.8637 35.258 68.8917 35.202C68.9197 35.1413 68.9337 35.076 68.9337 35.006C68.9337 34.8847 68.8894 34.7867 68.8007 34.712C68.754 34.6793 68.6794 34.6443 68.5767 34.607C68.4787 34.565 68.3504 34.523 68.1917 34.481C67.921 34.411 67.6994 34.3317 67.5267 34.243C67.354 34.1543 67.221 34.054 67.1277 33.942C67.0577 33.8533 67.0064 33.7577 66.9737 33.655C66.941 33.5477 66.9247 33.431 66.9247 33.305C66.9247 33.151 66.9574 33.011 67.0227 32.885C67.0927 32.7543 67.186 32.6423 67.3027 32.549C67.424 32.451 67.564 32.3763 67.7227 32.325C67.886 32.2737 68.0587 32.248 68.2407 32.248C68.4134 32.248 68.5837 32.2713 68.7517 32.318C68.9244 32.3647 69.083 32.4323 69.2277 32.521C69.3724 32.6097 69.4937 32.7147 69.5917 32.836L69.1787 33.291C69.09 33.2023 68.992 33.1253 68.8847 33.06C68.782 32.99 68.677 32.9363 68.5697 32.899C68.4624 32.8617 68.3644 32.843 68.2757 32.843C68.1777 32.843 68.089 32.8523 68.0097 32.871C67.9304 32.8897 67.8627 32.9177 67.8067 32.955C67.7554 32.9923 67.7157 33.039 67.6877 33.095C67.6597 33.151 67.6457 33.214 67.6457 33.284C67.6504 33.3447 67.6644 33.403 67.6877 33.459C67.7157 33.5103 67.753 33.5547 67.7997 33.592C67.851 33.6293 67.928 33.669 68.0307 33.711C68.1334 33.753 68.264 33.7927 68.4227 33.83C68.656 33.8907 68.8474 33.9583 68.9967 34.033C69.1507 34.103 69.272 34.1847 69.3607 34.278C69.454 34.3667 69.5194 34.4693 69.5567 34.586C69.594 34.7027 69.6127 34.8333 69.6127 34.978C69.6127 35.188 69.552 35.377 69.4307 35.545C69.314 35.7083 69.1554 35.8367 68.9547 35.93C68.754 36.0233 68.53 36.07 68.2827 36.07ZM70.5193 37.253L70.2533 36.931C70.4167 36.8377 70.5497 36.7303 70.6523 36.609C70.755 36.4877 70.8063 36.3827 70.8063 36.294C70.8063 36.2473 70.7947 36.2007 70.7713 36.154C70.748 36.112 70.699 36.0513 70.6243 35.972C70.531 35.8833 70.4703 35.8087 70.4423 35.748C70.4143 35.6873 70.4003 35.622 70.4003 35.552C70.4003 35.44 70.44 35.3513 70.5193 35.286C70.5987 35.216 70.7013 35.181 70.8273 35.181C70.944 35.181 71.049 35.216 71.1423 35.286C71.2403 35.3513 71.315 35.4447 71.3663 35.566C71.4223 35.6827 71.4503 35.818 71.4503 35.972C71.4503 36.112 71.427 36.2473 71.3803 36.378C71.3337 36.5087 71.2683 36.63 71.1843 36.742C71.1003 36.854 71.0023 36.9543 70.8903 37.043C70.7783 37.1317 70.6547 37.2017 70.5193 37.253ZM74.4174 36V31.1H76.5034C76.7834 31.1 77.0401 31.17 77.2734 31.31C77.5114 31.4453 77.7004 31.632 77.8404 31.87C77.9804 32.1033 78.0504 32.367 78.0504 32.661C78.0504 32.927 77.9804 33.1743 77.8404 33.403C77.7004 33.6317 77.5138 33.816 77.2804 33.956C77.0471 34.0913 76.7881 34.159 76.5034 34.159H75.1734V36H74.4174ZM77.3294 36L76.0834 33.788L76.8604 33.613L78.2464 36.007L77.3294 36ZM75.1734 33.431H76.5734C76.7088 33.431 76.8301 33.3983 76.9374 33.333C77.0448 33.263 77.1288 33.1697 77.1894 33.053C77.2501 32.9317 77.2804 32.7987 77.2804 32.654C77.2804 32.4907 77.2408 32.3483 77.1614 32.227C77.0868 32.101 76.9794 32.003 76.8394 31.933C76.7041 31.863 76.5501 31.828 76.3774 31.828H75.1734V33.431ZM80.6809 36.07C80.3029 36.07 79.9669 35.9907 79.6729 35.832C79.3836 35.6687 79.1549 35.447 78.9869 35.167C78.8236 34.887 78.7419 34.565 78.7419 34.201C78.7419 33.9117 78.7886 33.648 78.8819 33.41C78.9752 33.172 79.1036 32.9667 79.2669 32.794C79.4349 32.6167 79.6332 32.4813 79.8619 32.388C80.0952 32.29 80.3472 32.241 80.6179 32.241C80.8559 32.241 81.0776 32.2877 81.2829 32.381C81.4882 32.4697 81.6656 32.5933 81.8149 32.752C81.9689 32.9107 82.0856 33.0997 82.1649 33.319C82.2489 33.5337 82.2886 33.7693 82.2839 34.026L82.2769 34.334H79.2739L79.1129 33.76H81.6539L81.5489 33.879V33.711C81.5349 33.557 81.4836 33.4193 81.3949 33.298C81.3062 33.1767 81.1942 33.081 81.0589 33.011C80.9236 32.941 80.7766 32.906 80.6179 32.906C80.3659 32.906 80.1536 32.955 79.9809 33.053C79.8082 33.1463 79.6776 33.2863 79.5889 33.473C79.5002 33.655 79.4559 33.8813 79.4559 34.152C79.4559 34.4087 79.5096 34.6327 79.6169 34.824C79.7242 35.0107 79.8759 35.1553 80.0719 35.258C80.2679 35.3607 80.4942 35.412 80.7509 35.412C80.9329 35.412 81.1009 35.3817 81.2549 35.321C81.4136 35.2603 81.5839 35.1507 81.7659 34.992L82.1299 35.503C82.0179 35.615 81.8802 35.713 81.7169 35.797C81.5582 35.881 81.3879 35.9487 81.2059 36C81.0286 36.0467 80.8536 36.07 80.6809 36.07ZM84.6285 36.07C84.2878 36.07 83.9821 35.986 83.7115 35.818C83.4455 35.65 83.2331 35.4213 83.0745 35.132C82.9205 34.8427 82.8435 34.5183 82.8435 34.159C82.8435 33.7997 82.9205 33.4753 83.0745 33.186C83.2331 32.8967 83.4455 32.668 83.7115 32.5C83.9821 32.332 84.2878 32.248 84.6285 32.248C84.9551 32.248 85.2515 32.3157 85.5175 32.451C85.7881 32.5817 85.9935 32.7613 86.1335 32.99L85.7345 33.48C85.6598 33.3727 85.5641 33.2747 85.4475 33.186C85.3308 33.0973 85.2071 33.0273 85.0765 32.976C84.9458 32.9247 84.8198 32.899 84.6985 32.899C84.4745 32.899 84.2738 32.955 84.0965 33.067C83.9238 33.1743 83.7861 33.3237 83.6835 33.515C83.5808 33.7063 83.5295 33.921 83.5295 34.159C83.5295 34.397 83.5831 34.6117 83.6905 34.803C83.7978 34.9897 83.9401 35.139 84.1175 35.251C84.2948 35.363 84.4908 35.419 84.7055 35.419C84.8315 35.419 84.9528 35.398 85.0695 35.356C85.1908 35.314 85.3075 35.251 85.4195 35.167C85.5315 35.083 85.6365 34.9803 85.7345 34.859L86.1335 35.349C85.9841 35.559 85.7695 35.7317 85.4895 35.867C85.2141 36.0023 84.9271 36.07 84.6285 36.07ZM88.4656 36.07C88.1062 36.07 87.7842 35.9883 87.4996 35.825C87.2196 35.657 86.9979 35.4307 86.8346 35.146C86.6712 34.8567 86.5896 34.5277 86.5896 34.159C86.5896 33.7903 86.6712 33.4637 86.8346 33.179C86.9979 32.8897 87.2196 32.6633 87.4996 32.5C87.7842 32.332 88.1062 32.248 88.4656 32.248C88.8202 32.248 89.1376 32.332 89.4176 32.5C89.7022 32.6633 89.9262 32.8897 90.0896 33.179C90.2529 33.4637 90.3346 33.7903 90.3346 34.159C90.3346 34.5277 90.2529 34.8567 90.0896 35.146C89.9262 35.4307 89.7022 35.657 89.4176 35.825C89.1376 35.9883 88.8202 36.07 88.4656 36.07ZM88.4656 35.412C88.6849 35.412 88.8809 35.3583 89.0536 35.251C89.2262 35.139 89.3616 34.9897 89.4596 34.803C89.5576 34.6117 89.6042 34.397 89.5996 34.159C89.6042 33.9163 89.5576 33.7017 89.4596 33.515C89.3616 33.3237 89.2262 33.1743 89.0536 33.067C88.8809 32.9597 88.6849 32.906 88.4656 32.906C88.2462 32.906 88.0479 32.962 87.8706 33.074C87.6979 33.1813 87.5626 33.3307 87.4646 33.522C87.3666 33.7087 87.3199 33.921 87.3246 34.159C87.3199 34.397 87.3666 34.6117 87.4646 34.803C87.5626 34.9897 87.6979 35.139 87.8706 35.251C88.0479 35.3583 88.2462 35.412 88.4656 35.412ZM91.1202 36V32.325H91.8482V33.48L91.7782 33.2C91.8295 33.0227 91.9159 32.8617 92.0372 32.717C92.1632 32.5723 92.3055 32.458 92.4642 32.374C92.6275 32.29 92.7955 32.248 92.9682 32.248C93.0475 32.248 93.1222 32.255 93.1922 32.269C93.2669 32.283 93.3252 32.2993 93.3672 32.318L93.1782 33.102C93.1222 33.0787 93.0592 33.06 92.9892 33.046C92.9239 33.0273 92.8585 33.018 92.7932 33.018C92.6672 33.018 92.5459 33.0437 92.4292 33.095C92.3172 33.1417 92.2169 33.2093 92.1282 33.298C92.0442 33.382 91.9765 33.4823 91.9252 33.599C91.8739 33.711 91.8482 33.8347 91.8482 33.97V36H91.1202ZM95.3192 36.07C94.9832 36.07 94.6822 35.9883 94.4162 35.825C94.1549 35.657 93.9472 35.4307 93.7932 35.146C93.6392 34.8567 93.5622 34.5277 93.5622 34.159C93.5622 33.7903 93.6369 33.4637 93.7862 33.179C93.9402 32.8897 94.1479 32.6633 94.4092 32.5C94.6706 32.332 94.9669 32.248 95.2982 32.248C95.4802 32.248 95.6552 32.2783 95.8232 32.339C95.9959 32.395 96.1499 32.4743 96.2852 32.577C96.4206 32.675 96.5256 32.7847 96.6002 32.906C96.6796 33.0227 96.7192 33.1417 96.7192 33.263L96.5092 33.277V30.82H97.2302V36H96.5092V35.125H96.6492C96.6492 35.237 96.6119 35.349 96.5372 35.461C96.4626 35.5683 96.3622 35.6687 96.2362 35.762C96.1149 35.8553 95.9726 35.93 95.8092 35.986C95.6506 36.042 95.4872 36.07 95.3192 36.07ZM95.4172 35.447C95.6366 35.447 95.8302 35.391 95.9982 35.279C96.1662 35.167 96.2969 35.0153 96.3902 34.824C96.4882 34.628 96.5372 34.4063 96.5372 34.159C96.5372 33.9117 96.4882 33.6923 96.3902 33.501C96.2969 33.305 96.1662 33.151 95.9982 33.039C95.8302 32.927 95.6366 32.871 95.4172 32.871C95.1979 32.871 95.0042 32.927 94.8362 33.039C94.6682 33.151 94.5352 33.305 94.4372 33.501C94.3439 33.6923 94.2972 33.9117 94.2972 34.159C94.2972 34.4063 94.3439 34.628 94.4372 34.824C94.5352 35.0153 94.6682 35.167 94.8362 35.279C95.0042 35.391 95.1979 35.447 95.4172 35.447ZM98.3348 37.253L98.0688 36.931C98.2321 36.8377 98.3651 36.7303 98.4678 36.609C98.5704 36.4877 98.6218 36.3827 98.6218 36.294C98.6218 36.2473 98.6101 36.2007 98.5868 36.154C98.5634 36.112 98.5144 36.0513 98.4398 35.972C98.3464 35.8833 98.2858 35.8087 98.2578 35.748C98.2298 35.6873 98.2158 35.622 98.2158 35.552C98.2158 35.44 98.2554 35.3513 98.3348 35.286C98.4141 35.216 98.5168 35.181 98.6427 35.181C98.7594 35.181 98.8644 35.216 98.9578 35.286C99.0558 35.3513 99.1304 35.4447 99.1818 35.566C99.2378 35.6827 99.2658 35.818 99.2658 35.972C99.2658 36.112 99.2424 36.2473 99.1958 36.378C99.1491 36.5087 99.0838 36.63 98.9998 36.742C98.9158 36.854 98.8178 36.9543 98.7058 37.043C98.5938 37.1317 98.4701 37.2017 98.3348 37.253ZM103.745 36.07C103.479 36.07 103.232 36.035 103.003 35.965C102.779 35.895 102.574 35.79 102.387 35.65C102.205 35.5053 102.042 35.328 101.897 35.118L102.415 34.523C102.644 34.8497 102.863 35.076 103.073 35.202C103.283 35.328 103.533 35.391 103.822 35.391C103.999 35.391 104.16 35.363 104.305 35.307C104.45 35.251 104.564 35.174 104.648 35.076C104.732 34.978 104.774 34.866 104.774 34.74C104.774 34.656 104.76 34.5767 104.732 34.502C104.704 34.4273 104.66 34.3597 104.599 34.299C104.543 34.2383 104.468 34.1823 104.375 34.131C104.286 34.0797 104.181 34.0353 104.06 33.998C103.939 33.956 103.799 33.921 103.64 33.893C103.388 33.8417 103.169 33.774 102.982 33.69C102.795 33.606 102.639 33.501 102.513 33.375C102.387 33.249 102.294 33.1067 102.233 32.948C102.172 32.7847 102.142 32.6027 102.142 32.402C102.142 32.206 102.184 32.024 102.268 31.856C102.357 31.688 102.476 31.5433 102.625 31.422C102.779 31.296 102.959 31.2003 103.164 31.135C103.369 31.065 103.591 31.03 103.829 31.03C104.081 31.03 104.312 31.0627 104.522 31.128C104.732 31.1933 104.919 31.2913 105.082 31.422C105.245 31.548 105.381 31.7043 105.488 31.891L104.956 32.416C104.863 32.262 104.758 32.1337 104.641 32.031C104.524 31.9237 104.396 31.8443 104.256 31.793C104.116 31.737 103.967 31.709 103.808 31.709C103.626 31.709 103.467 31.737 103.332 31.793C103.197 31.849 103.089 31.9283 103.01 32.031C102.935 32.129 102.898 32.2457 102.898 32.381C102.898 32.479 102.917 32.57 102.954 32.654C102.991 32.7333 103.047 32.8057 103.122 32.871C103.201 32.9317 103.306 32.9877 103.437 33.039C103.568 33.0857 103.724 33.1277 103.906 33.165C104.163 33.221 104.391 33.2933 104.592 33.382C104.793 33.466 104.963 33.5663 105.103 33.683C105.243 33.7997 105.348 33.9303 105.418 34.075C105.493 34.2197 105.53 34.376 105.53 34.544C105.53 34.8567 105.458 35.1273 105.313 35.356C105.168 35.5847 104.963 35.762 104.697 35.888C104.431 36.0093 104.114 36.07 103.745 36.07ZM108.134 36.07C107.756 36.07 107.42 35.9907 107.126 35.832C106.837 35.6687 106.608 35.447 106.44 35.167C106.277 34.887 106.195 34.565 106.195 34.201C106.195 33.9117 106.242 33.648 106.335 33.41C106.428 33.172 106.557 32.9667 106.72 32.794C106.888 32.6167 107.086 32.4813 107.315 32.388C107.548 32.29 107.8 32.241 108.071 32.241C108.309 32.241 108.531 32.2877 108.736 32.381C108.941 32.4697 109.119 32.5933 109.268 32.752C109.422 32.9107 109.539 33.0997 109.618 33.319C109.702 33.5337 109.742 33.7693 109.737 34.026L109.73 34.334H106.727L106.566 33.76H109.107L109.002 33.879V33.711C108.988 33.557 108.937 33.4193 108.848 33.298C108.759 33.1767 108.647 33.081 108.512 33.011C108.377 32.941 108.23 32.906 108.071 32.906C107.819 32.906 107.607 32.955 107.434 33.053C107.261 33.1463 107.131 33.2863 107.042 33.473C106.953 33.655 106.909 33.8813 106.909 34.152C106.909 34.4087 106.963 34.6327 107.07 34.824C107.177 35.0107 107.329 35.1553 107.525 35.258C107.721 35.3607 107.947 35.412 108.204 35.412C108.386 35.412 108.554 35.3817 108.708 35.321C108.867 35.2603 109.037 35.1507 109.219 34.992L109.583 35.503C109.471 35.615 109.333 35.713 109.17 35.797C109.011 35.881 108.841 35.9487 108.659 36C108.482 36.0467 108.307 36.07 108.134 36.07ZM110.521 36V32.325H111.242V33.081L111.116 33.165C111.162 33.0017 111.253 32.8523 111.389 32.717C111.524 32.577 111.685 32.465 111.872 32.381C112.058 32.2923 112.25 32.248 112.446 32.248C112.726 32.248 112.959 32.304 113.146 32.416C113.332 32.5233 113.472 32.689 113.566 32.913C113.659 33.137 113.706 33.4193 113.706 33.76V36H112.985V33.809C112.985 33.599 112.957 33.4263 112.901 33.291C112.845 33.151 112.758 33.0507 112.642 32.99C112.525 32.9247 112.38 32.8967 112.208 32.906C112.068 32.906 111.939 32.9293 111.823 32.976C111.706 33.018 111.603 33.0787 111.515 33.158C111.431 33.2373 111.363 33.3307 111.312 33.438C111.265 33.5407 111.242 33.6527 111.242 33.774V36H110.885C110.824 36 110.763 36 110.703 36C110.642 36 110.581 36 110.521 36ZM116.217 36.07C115.881 36.07 115.58 35.9883 115.314 35.825C115.052 35.657 114.845 35.4307 114.691 35.146C114.537 34.8567 114.46 34.5277 114.46 34.159C114.46 33.7903 114.534 33.4637 114.684 33.179C114.838 32.8897 115.045 32.6633 115.307 32.5C115.568 32.332 115.864 32.248 116.196 32.248C116.378 32.248 116.553 32.2783 116.721 32.339C116.893 32.395 117.047 32.4743 117.183 32.577C117.318 32.675 117.423 32.7847 117.498 32.906C117.577 33.0227 117.617 33.1417 117.617 33.263L117.407 33.277V30.82H118.128V36H117.407V35.125H117.547C117.547 35.237 117.509 35.349 117.435 35.461C117.36 35.5683 117.26 35.6687 117.134 35.762C117.012 35.8553 116.87 35.93 116.707 35.986C116.548 36.042 116.385 36.07 116.217 36.07ZM116.315 35.447C116.534 35.447 116.728 35.391 116.896 35.279C117.064 35.167 117.194 35.0153 117.288 34.824C117.386 34.628 117.435 34.4063 117.435 34.159C117.435 33.9117 117.386 33.6923 117.288 33.501C117.194 33.305 117.064 33.151 116.896 33.039C116.728 32.927 116.534 32.871 116.315 32.871C116.095 32.871 115.902 32.927 115.734 33.039C115.566 33.151 115.433 33.305 115.335 33.501C115.241 33.6923 115.195 33.9117 115.195 34.159C115.195 34.4063 115.241 34.628 115.335 34.824C115.433 35.0153 115.566 35.167 115.734 35.279C115.902 35.391 116.095 35.447 116.315 35.447ZM124.603 36L123.966 35.321L123.854 35.195L122.643 33.844C122.526 33.7133 122.414 33.5803 122.307 33.445C122.2 33.305 122.104 33.1673 122.02 33.032C121.941 32.8967 121.875 32.766 121.824 32.64C121.777 32.5093 121.754 32.388 121.754 32.276C121.754 32.038 121.815 31.8257 121.936 31.639C122.062 31.4477 122.232 31.2983 122.447 31.191C122.666 31.0837 122.918 31.03 123.203 31.03C123.413 31.03 123.609 31.0697 123.791 31.149C123.973 31.2237 124.129 31.331 124.26 31.471C124.395 31.6063 124.493 31.765 124.554 31.947L124.008 32.297C123.919 32.0823 123.81 31.926 123.679 31.828C123.553 31.73 123.394 31.681 123.203 31.681C123.058 31.681 122.937 31.7043 122.839 31.751C122.741 31.793 122.666 31.856 122.615 31.94C122.564 32.024 122.538 32.129 122.538 32.255C122.538 32.3577 122.566 32.472 122.622 32.598C122.683 32.7193 122.757 32.843 122.846 32.969C122.935 33.095 123.026 33.2117 123.119 33.319C123.212 33.4263 123.294 33.5197 123.364 33.599L124.337 34.684L124.54 34.908L125.541 36H124.603ZM122.72 36.07C122.389 36.07 122.088 36 121.817 35.86C121.546 35.7153 121.329 35.5263 121.166 35.293C121.007 35.055 120.928 34.796 120.928 34.516C120.928 34.1473 121.028 33.8277 121.229 33.557C121.434 33.2863 121.733 33.0787 122.125 32.934L122.573 33.473C122.274 33.5383 122.053 33.648 121.908 33.802C121.763 33.9513 121.691 34.1543 121.691 34.411C121.691 34.607 121.738 34.7797 121.831 34.929C121.924 35.0783 122.057 35.195 122.23 35.279C122.407 35.363 122.617 35.405 122.86 35.405C123.07 35.405 123.261 35.3653 123.434 35.286C123.611 35.202 123.77 35.0853 123.91 34.936C124.05 34.7867 124.164 34.607 124.253 34.397C124.346 34.187 124.414 33.9537 124.456 33.697H125.1C125.063 33.9817 124.995 34.2453 124.897 34.488C124.804 34.7307 124.685 34.95 124.54 35.146C124.4 35.342 124.237 35.51 124.05 35.65C123.868 35.7853 123.665 35.8903 123.441 35.965C123.217 36.035 122.977 36.07 122.72 36.07ZM52.504 45V44.3H53.295V40.8H52.504V40.1H54.842V40.8H54.051V44.3H54.842V45H52.504ZM56.3018 45V40.387H57.0228V45H56.3018ZM55.5388 42.025V41.325H57.8768V42.025H55.5388ZM59.895 45.07C59.587 45.07 59.3093 45.0163 59.062 44.909C58.8147 44.8017 58.6093 44.643 58.446 44.433L58.936 44.013C59.076 44.1763 59.2277 44.2953 59.391 44.37C59.559 44.44 59.748 44.475 59.958 44.475C60.042 44.475 60.119 44.4657 60.189 44.447C60.2637 44.4237 60.3267 44.391 60.378 44.349C60.434 44.307 60.476 44.258 60.504 44.202C60.532 44.1413 60.546 44.076 60.546 44.006C60.546 43.8847 60.5017 43.7867 60.413 43.712C60.3663 43.6793 60.2917 43.6443 60.189 43.607C60.091 43.565 59.9627 43.523 59.804 43.481C59.5333 43.411 59.3117 43.3317 59.139 43.243C58.9663 43.1543 58.8333 43.054 58.74 42.942C58.67 42.8533 58.6187 42.7577 58.586 42.655C58.5533 42.5477 58.537 42.431 58.537 42.305C58.537 42.151 58.5697 42.011 58.635 41.885C58.705 41.7543 58.7983 41.6423 58.915 41.549C59.0363 41.451 59.1763 41.3763 59.335 41.325C59.4983 41.2737 59.671 41.248 59.853 41.248C60.0257 41.248 60.196 41.2713 60.364 41.318C60.5367 41.3647 60.6953 41.4323 60.84 41.521C60.9847 41.6097 61.106 41.7147 61.204 41.836L60.791 42.291C60.7023 42.2023 60.6043 42.1253 60.497 42.06C60.3943 41.99 60.2893 41.9363 60.182 41.899C60.0747 41.8617 59.9767 41.843 59.888 41.843C59.79 41.843 59.7013 41.8523 59.622 41.871C59.5427 41.8897 59.475 41.9177 59.419 41.955C59.3677 41.9923 59.328 42.039 59.3 42.095C59.272 42.151 59.258 42.214 59.258 42.284C59.2627 42.3447 59.2767 42.403 59.3 42.459C59.328 42.5103 59.3653 42.5547 59.412 42.592C59.4633 42.6293 59.5403 42.669 59.643 42.711C59.7457 42.753 59.8763 42.7927 60.035 42.83C60.2683 42.8907 60.4597 42.9583 60.609 43.033C60.763 43.103 60.8843 43.1847 60.973 43.278C61.0663 43.3667 61.1317 43.4693 61.169 43.586C61.2063 43.7027 61.225 43.8333 61.225 43.978C61.225 44.188 61.1643 44.377 61.043 44.545C60.9263 44.7083 60.7677 44.8367 60.567 44.93C60.3663 45.0233 60.1423 45.07 59.895 45.07ZM65.2065 45.07C64.8985 45.07 64.6209 45.0163 64.3735 44.909C64.1262 44.8017 63.9209 44.643 63.7575 44.433L64.2475 44.013C64.3875 44.1763 64.5392 44.2953 64.7025 44.37C64.8705 44.44 65.0595 44.475 65.2695 44.475C65.3535 44.475 65.4305 44.4657 65.5005 44.447C65.5752 44.4237 65.6382 44.391 65.6895 44.349C65.7455 44.307 65.7875 44.258 65.8155 44.202C65.8435 44.1413 65.8575 44.076 65.8575 44.006C65.8575 43.8847 65.8132 43.7867 65.7245 43.712C65.6779 43.6793 65.6032 43.6443 65.5005 43.607C65.4025 43.565 65.2742 43.523 65.1155 43.481C64.8449 43.411 64.6232 43.3317 64.4505 43.243C64.2779 43.1543 64.1449 43.054 64.0515 42.942C63.9815 42.8533 63.9302 42.7577 63.8975 42.655C63.8649 42.5477 63.8485 42.431 63.8485 42.305C63.8485 42.151 63.8812 42.011 63.9465 41.885C64.0165 41.7543 64.1099 41.6423 64.2265 41.549C64.3479 41.451 64.4879 41.3763 64.6465 41.325C64.8099 41.2737 64.9825 41.248 65.1645 41.248C65.3372 41.248 65.5075 41.2713 65.6755 41.318C65.8482 41.3647 66.0069 41.4323 66.1515 41.521C66.2962 41.6097 66.4175 41.7147 66.5155 41.836L66.1025 42.291C66.0139 42.2023 65.9159 42.1253 65.8085 42.06C65.7059 41.99 65.6009 41.9363 65.4935 41.899C65.3862 41.8617 65.2882 41.843 65.1995 41.843C65.1015 41.843 65.0129 41.8523 64.9335 41.871C64.8542 41.8897 64.7865 41.9177 64.7305 41.955C64.6792 41.9923 64.6395 42.039 64.6115 42.095C64.5835 42.151 64.5695 42.214 64.5695 42.284C64.5742 42.3447 64.5882 42.403 64.6115 42.459C64.6395 42.5103 64.6769 42.5547 64.7235 42.592C64.7749 42.6293 64.8519 42.669 64.9545 42.711C65.0572 42.753 65.1879 42.7927 65.3465 42.83C65.5799 42.8907 65.7712 42.9583 65.9205 43.033C66.0745 43.103 66.1959 43.1847 66.2845 43.278C66.3779 43.3667 66.4432 43.4693 66.4805 43.586C66.5179 43.7027 66.5365 43.8333 66.5365 43.978C66.5365 44.188 66.4759 44.377 66.3545 44.545C66.2379 44.7083 66.0792 44.8367 65.8785 44.93C65.6779 45.0233 65.4539 45.07 65.2065 45.07ZM68.9831 45.07C68.6238 45.07 68.3018 44.9883 68.0171 44.825C67.7371 44.657 67.5155 44.4307 67.3521 44.146C67.1888 43.8567 67.1071 43.5277 67.1071 43.159C67.1071 42.7903 67.1888 42.4637 67.3521 42.179C67.5155 41.8897 67.7371 41.6633 68.0171 41.5C68.3018 41.332 68.6238 41.248 68.9831 41.248C69.3378 41.248 69.6551 41.332 69.9351 41.5C70.2198 41.6633 70.4438 41.8897 70.6071 42.179C70.7705 42.4637 70.8521 42.7903 70.8521 43.159C70.8521 43.5277 70.7705 43.8567 70.6071 44.146C70.4438 44.4307 70.2198 44.657 69.9351 44.825C69.6551 44.9883 69.3378 45.07 68.9831 45.07ZM68.9831 44.412C69.2025 44.412 69.3985 44.3583 69.5711 44.251C69.7438 44.139 69.8791 43.9897 69.9771 43.803C70.0751 43.6117 70.1218 43.397 70.1171 43.159C70.1218 42.9163 70.0751 42.7017 69.9771 42.515C69.8791 42.3237 69.7438 42.1743 69.5711 42.067C69.3985 41.9597 69.2025 41.906 68.9831 41.906C68.7638 41.906 68.5655 41.962 68.3881 42.074C68.2155 42.1813 68.0801 42.3307 67.9821 42.522C67.8841 42.7087 67.8375 42.921 67.8421 43.159C67.8375 43.397 67.8841 43.6117 67.9821 43.803C68.0801 43.9897 68.2155 44.139 68.3881 44.251C68.5655 44.3583 68.7638 44.412 68.9831 44.412ZM71.6518 45V39.82H72.3728V45H71.6518ZM74.4209 45L72.8669 41.325H73.6439L74.7639 44.076L74.6309 44.139L75.8279 41.325H76.5699L74.9389 45H74.4209ZM78.842 45.07C78.464 45.07 78.128 44.9907 77.834 44.832C77.5447 44.6687 77.316 44.447 77.148 44.167C76.9847 43.887 76.903 43.565 76.903 43.201C76.903 42.9117 76.9497 42.648 77.043 42.41C77.1364 42.172 77.2647 41.9667 77.428 41.794C77.596 41.6167 77.7944 41.4813 78.023 41.388C78.2564 41.29 78.5084 41.241 78.779 41.241C79.017 41.241 79.2387 41.2877 79.444 41.381C79.6494 41.4697 79.8267 41.5933 79.976 41.752C80.13 41.9107 80.2467 42.0997 80.326 42.319C80.41 42.5337 80.4497 42.7693 80.445 43.026L80.438 43.334H77.435L77.274 42.76H79.815L79.71 42.879V42.711C79.696 42.557 79.6447 42.4193 79.556 42.298C79.4674 42.1767 79.3554 42.081 79.22 42.011C79.0847 41.941 78.9377 41.906 78.779 41.906C78.527 41.906 78.3147 41.955 78.142 42.053C77.9694 42.1463 77.8387 42.2863 77.75 42.473C77.6614 42.655 77.617 42.8813 77.617 43.152C77.617 43.4087 77.6707 43.6327 77.778 43.824C77.8854 44.0107 78.037 44.1553 78.233 44.258C78.429 44.3607 78.6554 44.412 78.912 44.412C79.094 44.412 79.262 44.3817 79.416 44.321C79.5747 44.2603 79.745 44.1507 79.927 43.992L80.291 44.503C80.179 44.615 80.0414 44.713 79.878 44.797C79.7194 44.881 79.549 44.9487 79.367 45C79.1897 45.0467 79.0147 45.07 78.842 45.07ZM82.7616 45.07C82.4256 45.07 82.1246 44.9883 81.8586 44.825C81.5973 44.657 81.3896 44.4307 81.2356 44.146C81.0816 43.8567 81.0046 43.5277 81.0046 43.159C81.0046 42.7903 81.0793 42.4637 81.2286 42.179C81.3826 41.8897 81.5903 41.6633 81.8516 41.5C82.1129 41.332 82.4093 41.248 82.7406 41.248C82.9226 41.248 83.0976 41.2783 83.2656 41.339C83.4383 41.395 83.5923 41.4743 83.7276 41.577C83.8629 41.675 83.9679 41.7847 84.0426 41.906C84.1219 42.0227 84.1616 42.1417 84.1616 42.263L83.9516 42.277V39.82H84.6726V45H83.9516V44.125H84.0916C84.0916 44.237 84.0543 44.349 83.9796 44.461C83.9049 44.5683 83.8046 44.6687 83.6786 44.762C83.5573 44.8553 83.4149 44.93 83.2516 44.986C83.0929 45.042 82.9296 45.07 82.7616 45.07ZM82.8596 44.447C83.0789 44.447 83.2726 44.391 83.4406 44.279C83.6086 44.167 83.7393 44.0153 83.8326 43.824C83.9306 43.628 83.9796 43.4063 83.9796 43.159C83.9796 42.9117 83.9306 42.6923 83.8326 42.501C83.7393 42.305 83.6086 42.151 83.4406 42.039C83.2726 41.927 83.0789 41.871 82.8596 41.871C82.6403 41.871 82.4466 41.927 82.2786 42.039C82.1106 42.151 81.9776 42.305 81.8796 42.501C81.7863 42.6923 81.7396 42.9117 81.7396 43.159C81.7396 43.4063 81.7863 43.628 81.8796 43.824C81.9776 44.0153 82.1106 44.167 82.2786 44.279C82.4466 44.391 82.6403 44.447 82.8596 44.447ZM85.9591 45.077C85.8051 45.077 85.6861 45.0327 85.6021 44.944C85.5181 44.8507 85.4761 44.72 85.4761 44.552C85.4761 44.398 85.5205 44.272 85.6091 44.174C85.6978 44.076 85.8145 44.027 85.9591 44.027C86.1131 44.027 86.2321 44.0737 86.3161 44.167C86.4001 44.2557 86.4421 44.384 86.4421 44.552C86.4421 44.706 86.3978 44.832 86.3091 44.93C86.2205 45.028 86.1038 45.077 85.9591 45.077Z"
        fill="black" />
    <defs>
        <clipPath id="clip0_302_5612">
            <rect width="32" height="29" fill="white" />
        </clipPath>
    </defs>
</svg>