<svg width="43" height="60" viewBox="0 0 43 60" fill="none" xmlns="http://www.w3.org/2000/svg">
<g clip-path="url(#clip0_2_100)">
<path d="M22.2575 11.4899H20.6669C15.1276 11.4899 10.6372 15.9804 10.6372 21.5197V35.8297C10.6372 41.3689 15.1276 45.8594 20.6669 45.8594H22.2575C27.7968 45.8594 32.2873 41.3689 32.2873 35.8297V21.5197C32.2873 15.9804 27.7968 11.4899 22.2575 11.4899Z" fill="#F6F5F6"/>
<path d="M21.4593 52.4302C12.6558 52.4302 5.49506 45.2694 5.49506 36.4659C5.49506 36.0495 5.83054 35.7082 6.25278 35.7082C6.67502 35.7082 7.0105 36.0437 7.0105 36.4659C7.0105 44.4365 13.4945 50.9147 21.4593 50.9147C29.9678 50.9032 35.9081 44.9628 35.9081 36.4659C35.9081 36.0495 36.2436 35.7082 36.6659 35.7082C37.0881 35.7082 37.4236 36.0437 37.4236 36.4659C37.4236 45.8536 30.8586 52.4186 21.4593 52.4302Z" fill="#F6F5F6"/>
<path d="M22.2113 51.6667H20.7016V59.4926H22.2113V51.6667Z" fill="#F6F5F6"/>
<path d="M30.9106 59.9091H12.0138C11.5973 59.9091 11.2561 59.5736 11.2561 59.1514C11.2561 58.7291 11.5916 58.3936 12.0138 58.3936H30.9106C31.3271 58.3936 31.6684 58.7291 31.6684 59.1514C31.6684 59.5736 31.3329 59.9091 30.9106 59.9091Z" fill="#F6F5F6"/>
<path d="M5.62231 17.7484C5.51819 17.9451 4.37293 17.5402 3.01365 16.9675C1.65438 16.3833 0.572742 15.8338 0.636367 15.6256C0.705777 15.4232 1.92623 15.643 3.32021 16.2387C4.7142 16.8287 5.72064 17.5575 5.62231 17.7484Z" fill="#F6F5F6"/>
<path d="M11.713 9.65636C11.5395 9.78361 10.5562 8.74825 9.52082 7.3427C8.48546 5.93715 7.78558 4.68777 7.9591 4.56052C8.13263 4.43327 9.11593 5.46863 10.1513 6.87418C11.1867 8.27973 11.8865 9.52911 11.713 9.65636Z" fill="#F6F5F6"/>
<path d="M21.5114 6.74693C21.2916 6.7585 21.1296 5.42815 21.1528 3.77966C21.1701 2.1254 21.361 0.800825 21.5808 0.818177C21.7948 0.835529 21.9568 2.16588 21.9394 3.78545C21.9221 5.40501 21.7312 6.73537 21.5114 6.74693Z" fill="#F6F5F6"/>
<path d="M34.0861 4.62993C34.2712 4.73983 33.8085 5.85617 32.9177 7.03614C32.0328 8.21611 31.0842 8.97383 30.928 8.82344C30.766 8.67305 31.4312 7.7071 32.2873 6.56184C33.1491 5.42236 33.8953 4.51425 34.0861 4.62993Z" fill="#F6F5F6"/>
<path d="M42.531 14.8505C42.6409 15.0414 41.6345 15.8165 40.2867 16.58C38.939 17.3493 37.7591 17.8178 37.655 17.6269C37.5451 17.436 38.5515 16.661 39.8992 15.8975C41.2469 15.1282 42.4269 14.6597 42.531 14.8505Z" fill="#F6F5F6"/>
</g>
<defs>
<clipPath id="clip0_2_100">
<rect width="41.9004" height="59.0909" fill="white" transform="translate(0.636368 0.818176)"/>
</clipPath>
</defs>
</svg>
